<svg width="341" height="282" viewBox="0 0 341 282" fill="none" xmlns="http://www.w3.org/2000/svg">
<path d="M340.5 280.565C340.5 280.668 264.385 280.755 170.504 280.755C76.6227 280.755 0.5 280.668 0.5 280.565C0.5 280.462 76.599 280.367 170.504 280.367C264.409 280.367 340.5 280.454 340.5 280.565Z" fill="#011761"/>
<g opacity="0.5">
<path d="M47.1285 247.52C45.6222 242.401 45.535 236.974 46.8759 231.81C48.2169 226.646 50.9367 221.934 54.7501 218.168C58.6632 214.505 63.4993 211.951 68.7518 210.774C74.0042 209.597 79.4798 209.84 84.6049 211.477C84.5022 205.786 85.9737 200.175 88.8602 195.252C91.7467 190.328 95.9382 186.28 100.981 183.545C106.024 180.81 111.727 179.492 117.472 179.734C123.218 179.976 128.787 181.769 133.577 184.918C138.924 174.803 153.129 170.461 163.312 175.817C173.495 181.173 177.79 195.269 172.302 205.315C176.509 204.284 180.938 204.599 184.953 206.216C188.967 207.833 192.36 210.669 194.645 214.315C196.929 217.961 197.987 222.23 197.666 226.509C197.345 230.787 195.661 234.855 192.858 238.127C209.505 230.86 231.387 245.464 230.833 263.464L28.6641 262.887C30.1098 260.213 35.0926 247.999 47.1285 247.52Z" fill="#B7C0E3"/>
<path d="M47.2923 247.227L45.674 247.421C44.0784 247.65 42.5229 248.102 41.053 248.762C38.6514 249.884 36.5151 251.5 34.7845 253.504C32.3924 256.272 30.4215 259.376 28.9351 262.716L28.8376 262.56L230.572 262.998L230.319 263.241C230.392 260.096 229.814 256.97 228.623 254.058C227.4 251.081 225.654 248.346 223.465 245.983C218.992 241.096 213.051 237.786 206.532 236.547C201.902 235.666 197.113 236.176 192.776 238.015L191.801 238.462L192.513 237.626C195.271 234.377 196.926 230.341 197.24 226.096C197.554 221.852 196.512 217.617 194.262 214C192.012 210.383 188.671 207.568 184.717 205.961C180.763 204.354 176.4 204.036 172.254 205.054L171.718 205.19L171.981 204.704C173.33 202.05 174.119 199.148 174.3 196.179C174.481 193.209 174.05 190.234 173.034 187.436C172.146 184.701 170.706 182.176 168.804 180.015C166.901 177.854 164.575 176.104 161.969 174.872C156.807 172.681 151.001 172.539 145.737 174.474C140.634 176.184 136.359 179.737 133.756 184.434L133.639 184.648L133.434 184.512C128.108 181.08 121.876 179.31 115.535 179.429C109.611 179.475 103.828 181.23 98.8837 184.482C94.3527 187.55 90.6873 191.726 88.2379 196.61C85.9811 201.075 84.8216 206.011 84.855 211.01V211.244L84.6405 211.166C80.0988 209.686 75.2642 209.329 70.5533 210.126C68.406 210.484 66.3041 211.074 64.2847 211.885C62.3848 212.625 60.5734 213.574 58.8838 214.713C55.8405 216.733 53.2266 219.332 51.1919 222.36C47.181 228.448 45.4834 235.764 46.4052 242.99C46.5548 244.06 46.763 245.12 47.0291 246.167L47.2923 247.227C47.2923 247.091 47.1656 246.809 46.9804 246.167C46.6901 245.13 46.4687 244.075 46.3175 243.009C45.731 238.841 46.0333 234.596 47.2046 230.552C48.0505 227.608 49.3355 224.807 51.0164 222.244C54.2211 217.457 58.8115 213.756 64.1775 211.632C66.2155 210.81 68.3369 210.211 70.5046 209.844C75.2575 209.006 80.1442 209.339 84.738 210.816L84.5235 210.972C84.496 205.682 85.7725 200.466 88.2407 195.783C90.7089 191.1 94.2933 187.092 98.679 184.113C103.687 180.809 109.548 179.02 115.554 178.963C121.975 178.846 128.285 180.639 133.678 184.113L133.366 184.191C136.021 179.396 140.377 175.764 145.581 174.007C150.954 172.025 156.884 172.167 162.154 174.406C164.82 175.663 167.201 177.45 169.149 179.658C171.097 181.865 172.572 184.446 173.483 187.242C174.519 190.103 174.958 193.145 174.773 196.18C174.589 199.216 173.785 202.183 172.41 204.898L172.128 204.539C176.376 203.495 180.846 203.819 184.898 205.465C188.949 207.111 192.374 209.993 194.68 213.699C196.986 217.405 198.055 221.744 197.734 226.093C197.413 230.442 195.718 234.578 192.893 237.908L192.591 237.519C197.019 235.636 201.91 235.111 206.639 236.013C213.271 237.268 219.315 240.633 223.865 245.604C226.087 248.013 227.863 250.797 229.11 253.825C230.324 256.803 230.915 259.997 230.845 263.211V263.464H230.572L28.8376 262.745H28.6719L28.7499 262.59C30.2335 259.245 32.2045 256.138 34.5992 253.368C36.3551 251.361 38.5182 249.748 40.9458 248.636C42.4222 247.975 43.9898 247.539 45.596 247.343L47.2923 247.227Z" fill="#011761"/>
</g>
<path d="M296.632 229.646C297.735 226.033 297.821 222.186 296.881 218.527C295.941 214.868 294.011 211.538 291.303 208.904C288.595 206.27 285.213 204.433 281.53 203.595C277.846 202.756 274.003 202.949 270.421 204.151C270.502 200.123 269.479 196.15 267.463 192.663C265.447 189.175 262.515 186.306 258.984 184.366C255.454 182.426 251.459 181.489 247.435 181.658C243.41 181.826 239.508 183.093 236.151 185.321C234.234 181.728 230.967 179.044 227.071 177.859C223.174 176.675 218.966 177.086 215.373 179.004C211.78 180.922 209.096 184.188 207.911 188.085C206.726 191.982 207.138 196.189 209.056 199.783C206.112 199.058 203.015 199.284 200.208 200.428C197.401 201.572 195.028 203.576 193.431 206.153C191.833 208.729 191.093 211.745 191.315 214.768C191.538 217.791 192.712 220.666 194.67 222.981C183.014 217.84 167.706 228.159 168.101 240.888L309.549 240.473C308.551 238.609 305.068 229.91 296.632 229.646Z" fill="white"/>
<path d="M296.621 229.649C296.621 229.649 297.035 229.649 297.789 229.649C298.918 229.792 300.022 230.097 301.065 230.553C302.778 231.325 304.306 232.455 305.546 233.867C307.247 235.814 308.65 238.004 309.708 240.363L309.821 240.627H309.538L168.09 241.267H167.657V240.871C167.632 238.579 168.048 236.304 168.881 234.168C169.797 232.018 171.07 230.038 172.647 228.312C175.872 224.772 180.162 222.38 184.868 221.496C188.225 220.858 191.697 221.225 194.847 222.55L194.358 223.209C192.348 220.828 191.144 217.871 190.917 214.763C190.69 211.655 191.453 208.555 193.096 205.907C194.739 203.259 197.177 201.199 200.062 200.022C202.948 198.844 206.131 198.61 209.158 199.352L208.706 199.936C207.737 198.112 207.136 196.116 206.938 194.06C206.741 192.004 206.95 189.929 207.554 187.955C208.158 185.98 209.145 184.143 210.459 182.55C211.773 180.956 213.388 179.637 215.211 178.668C217.035 177.699 219.032 177.098 221.088 176.9C223.143 176.703 225.218 176.912 227.193 177.516C229.168 178.12 231.004 179.107 232.598 180.421C234.191 181.735 235.51 183.35 236.479 185.174L235.952 185.023C239.356 182.77 243.311 181.491 247.39 181.323C251.468 181.156 255.515 182.106 259.092 184.072C262.669 186.038 265.641 188.945 267.685 192.478C269.73 196.01 270.77 200.035 270.693 204.116L270.335 203.852C273.394 202.879 276.633 202.607 279.811 203.057C282.989 203.507 286.025 204.667 288.694 206.451C292.641 209.144 295.508 213.146 296.791 217.749C297.605 220.606 297.804 223.603 297.374 226.542C297.259 227.293 297.096 228.035 296.885 228.764L296.64 229.517L296.809 228.764C296.99 228.026 297.129 227.278 297.224 226.523C297.587 223.611 297.344 220.656 296.508 217.843C295.228 213.299 292.371 209.36 288.449 206.733C285.833 205.006 282.862 203.889 279.756 203.465C276.649 203.041 273.488 203.322 270.505 204.286L270.147 204.417V204.022C270.165 200.529 269.352 197.083 267.774 193.967C266.061 190.563 263.508 187.653 260.355 185.512C256.776 183.206 252.609 181.98 248.352 181.98C244.094 181.98 239.927 183.206 236.348 185.512L236.009 185.72L235.839 185.362C233.938 182.081 230.91 179.603 227.318 178.387C223.727 177.172 219.816 177.301 216.313 178.753C212.664 180.598 209.892 183.81 208.601 187.69C207.311 191.569 207.605 195.802 209.421 199.465L209.854 200.275L208.951 200.049C206.082 199.331 203.059 199.545 200.32 200.659C197.58 201.772 195.267 203.729 193.713 206.245C192.159 208.761 191.446 211.707 191.677 214.655C191.908 217.603 193.071 220.401 194.998 222.644L196.184 224.038L194.508 223.303C191.535 222.057 188.262 221.71 185.094 222.305C180.574 223.168 176.453 225.466 173.344 228.858C171.839 230.52 170.635 232.432 169.785 234.507C168.984 236.533 168.582 238.693 168.599 240.871L168.185 240.476L309.632 240.307L309.482 240.57C308.465 238.22 307.1 236.037 305.433 234.093C304.235 232.683 302.753 231.541 301.084 230.741C299.667 230.132 298.159 229.763 296.621 229.649Z" fill="#576CBE"/>
<path d="M171.674 259.162L172.592 273.066C172.592 273.066 158.767 278.669 158.688 281.257L185.713 280.466L185.175 258.734L171.674 259.162Z" fill="#8796D0"/>
<path opacity="0.4" d="M171.674 259.162L172.592 273.066C172.592 273.066 158.767 278.669 158.688 281.257L185.713 280.466L185.175 258.734L171.674 259.162Z" fill="black"/>
<path d="M172.149 272.953C172.149 273.08 172.822 273.119 173.487 273.523C174.152 273.926 174.508 274.472 174.626 274.417C174.745 274.362 174.531 273.626 173.716 273.135C172.901 272.644 172.118 272.826 172.149 272.953Z" fill="#263238"/>
<path d="M169.352 274.211C169.352 274.338 169.898 274.543 170.365 275.09C170.831 275.636 170.982 276.221 171.108 276.213C171.235 276.205 171.306 275.422 170.713 274.781C170.119 274.14 169.352 274.084 169.352 274.211Z" fill="#263238"/>
<path d="M167.85 277.641C167.969 277.641 168.135 277 167.779 276.288C167.422 275.575 166.766 275.306 166.766 275.401C166.766 275.496 167.106 275.892 167.399 276.477C167.692 277.063 167.723 277.633 167.85 277.641Z" fill="#263238"/>
<path d="M172.295 269.758C172.358 269.876 172.959 269.678 173.703 269.702C174.447 269.726 175.041 269.955 175.104 269.837C175.167 269.718 174.598 269.267 173.719 269.243C172.841 269.219 172.223 269.655 172.295 269.758Z" fill="#263238"/>
<path d="M172.156 266.936C172.603 267.047 173.072 267.031 173.51 266.888C173.995 266.791 174.466 266.631 174.91 266.413C175.184 266.288 175.449 266.142 175.702 265.978C175.853 265.89 175.99 265.777 176.105 265.646C176.189 265.549 176.238 265.428 176.245 265.3C176.252 265.173 176.217 265.047 176.145 264.941C176.076 264.851 175.988 264.778 175.886 264.729C175.784 264.679 175.672 264.654 175.559 264.656C175.387 264.66 175.216 264.69 175.053 264.743C174.766 264.82 174.487 264.926 174.222 265.06C173.768 265.274 173.353 265.563 172.995 265.915C172.386 266.516 172.204 267.015 172.204 267.038C172.204 267.062 172.552 266.659 173.177 266.16C173.54 265.869 173.939 265.627 174.364 265.44C174.621 265.333 174.886 265.245 175.156 265.179C175.44 265.092 175.686 265.084 175.765 265.179C175.844 265.274 175.765 265.25 175.765 265.329C175.676 265.424 175.575 265.506 175.464 265.574C175.235 265.733 174.997 265.875 174.768 266.002C174.353 266.223 173.918 266.406 173.47 266.548C173.023 266.644 172.584 266.774 172.156 266.936Z" fill="#263238"/>
<path d="M172.33 267.133C172.572 266.736 172.683 266.274 172.646 265.811C172.655 265.308 172.577 264.808 172.417 264.331C172.322 264.055 172.197 263.789 172.045 263.54C171.969 263.363 171.848 263.209 171.694 263.094C171.539 262.979 171.358 262.906 171.167 262.883C171.046 262.889 170.93 262.93 170.832 263C170.734 263.07 170.658 263.167 170.613 263.279C170.547 263.438 170.505 263.606 170.486 263.777C170.442 264.079 170.442 264.385 170.486 264.687C170.577 265.193 170.792 265.669 171.111 266.072C171.657 266.753 172.211 266.863 172.227 266.863C172.243 266.863 171.8 266.555 171.372 265.898C171.13 265.516 170.971 265.087 170.905 264.64C170.869 264.377 170.869 264.111 170.905 263.848C170.945 263.555 171.04 263.326 171.151 263.35C171.262 263.373 171.523 263.555 171.641 263.777C171.781 264.009 171.9 264.253 171.998 264.505C172.16 264.935 172.261 265.385 172.298 265.843C172.385 266.61 172.29 267.109 172.33 267.133Z" fill="#263238"/>
<path d="M180.633 258.64L181.669 272.537C181.669 272.537 167.891 278.258 167.836 280.846L194.854 279.801L194.126 258.078L180.633 258.64Z" fill="#8796D0"/>
<g opacity="0.6">
<path d="M189.977 271.037C190.236 271.112 190.459 271.279 190.604 271.506C190.75 271.733 190.808 272.005 190.769 272.271C190.701 272.532 190.539 272.757 190.313 272.904C190.087 273.05 189.815 273.107 189.55 273.063C189.271 272.988 189.03 272.812 188.873 272.569C188.717 272.327 188.656 272.034 188.703 271.749C188.794 271.48 188.985 271.256 189.238 271.124C189.49 270.993 189.784 270.964 190.056 271.045" fill="white"/>
</g>
<path opacity="0.6" d="M194.846 279.809L194.688 277.625L168.842 279.445C168.842 279.445 167.662 280.015 167.829 280.854L194.846 279.809Z" fill="white"/>
<path d="M181.227 272.419C181.227 272.554 181.9 272.585 182.565 272.981C183.23 273.377 183.602 273.923 183.72 273.867C183.839 273.812 183.61 273.076 182.794 272.585C181.979 272.095 181.196 272.3 181.227 272.419Z" fill="#263238"/>
<path d="M178.438 273.703C178.438 273.83 178.992 274.036 179.458 274.574C179.925 275.112 180.084 275.698 180.21 275.69C180.337 275.682 180.4 274.898 179.799 274.265C179.197 273.632 178.43 273.577 178.438 273.703Z" fill="#263238"/>
<path d="M176.956 277.147C177.075 277.147 177.233 276.506 176.869 275.794C176.505 275.081 175.872 274.828 175.824 274.939C175.777 275.05 176.165 275.422 176.457 276.007C176.75 276.593 176.821 277.139 176.956 277.147Z" fill="#263238"/>
<path d="M181.342 269.218C181.397 269.337 181.999 269.131 182.742 269.155C183.486 269.178 184.08 269.392 184.143 269.273C184.207 269.155 183.637 268.712 182.75 268.696C181.864 268.68 181.27 269.123 181.342 269.218Z" fill="#263238"/>
<path opacity="0.3" d="M180.836 261.404L181.018 263.881L194.289 263.24L194.226 261.008L180.836 261.404Z" fill="black"/>
<path d="M181.188 266.421C181.634 266.516 182.097 266.494 182.533 266.357C183.018 266.253 183.489 266.088 183.934 265.867C184.209 265.741 184.474 265.593 184.725 265.423C184.877 265.339 185.012 265.226 185.121 265.091C185.198 264.99 185.24 264.866 185.24 264.739C185.24 264.611 185.198 264.488 185.121 264.387C185.05 264.297 184.96 264.226 184.857 264.178C184.754 264.13 184.641 264.106 184.527 264.11C184.355 264.115 184.185 264.145 184.021 264.197C183.735 264.282 183.457 264.391 183.19 264.521C182.744 264.745 182.336 265.036 181.979 265.384C181.37 265.993 181.187 266.492 181.227 266.515C181.267 266.539 181.575 266.136 182.193 265.629C182.552 265.336 182.948 265.091 183.372 264.901C183.628 264.791 183.893 264.701 184.163 264.632C184.448 264.545 184.693 264.537 184.772 264.632C184.852 264.727 184.772 264.703 184.772 264.79C184.685 264.883 184.586 264.966 184.48 265.036C184.25 265.194 184.013 265.344 183.783 265.471C183.372 265.694 182.94 265.877 182.493 266.017C182.048 266.115 181.611 266.25 181.188 266.421Z" fill="#263238"/>
<path d="M181.349 266.609C181.591 266.213 181.699 265.75 181.658 265.287C181.664 264.783 181.581 264.282 181.412 263.808C181.312 263.533 181.188 263.268 181.04 263.016C180.959 262.841 180.834 262.689 180.678 262.575C180.521 262.461 180.338 262.39 180.146 262.367C180.026 262.374 179.91 262.415 179.813 262.487C179.715 262.559 179.642 262.658 179.6 262.771C179.534 262.929 179.494 263.098 179.481 263.269C179.433 263.571 179.433 263.878 179.481 264.179C179.578 264.683 179.795 265.155 180.114 265.556C180.668 266.237 181.222 266.348 181.238 266.348C181.254 266.348 180.803 266.047 180.376 265.39C180.126 265.011 179.964 264.581 179.901 264.132C179.86 263.87 179.86 263.603 179.901 263.341C179.901 263.056 180.027 262.818 180.138 262.842C180.249 262.866 180.51 263.048 180.629 263.269C180.772 263.498 180.894 263.739 180.993 263.99C181.159 264.419 181.265 264.869 181.309 265.327C181.396 266.087 181.278 266.585 181.349 266.609Z" fill="#263238"/>
<path d="M209.178 62.6953C213.202 63.1499 216.967 64.9125 219.893 67.7126C222.792 70.5052 225.226 73.7432 227.102 77.3042C230.774 83.833 233.536 91.0583 233.679 98.5448C233.821 106.031 231.043 113.803 225.227 118.527C219.41 123.252 210.412 124.178 204.406 119.706C201.841 117.706 199.855 115.059 198.652 112.038C195.993 105.762 196.096 98.6793 196.69 91.8813C197.283 85.0834 198.328 78.238 197.386 71.4796" fill="#8796D0"/>
<g opacity="0.5">
<path d="M209.17 62.6875C213.195 63.1421 216.959 64.9047 219.885 67.7048C222.784 70.4974 225.218 73.7354 227.095 77.2963C230.767 83.8252 233.529 91.0505 233.671 98.5369C233.813 106.023 231.036 113.795 225.219 118.519C219.402 123.244 210.404 124.17 204.398 119.698C201.833 117.698 199.848 115.051 198.645 112.03C195.985 105.754 196.088 98.6715 196.682 91.8735C197.275 85.0756 198.32 78.2302 197.378 71.4718" fill="black"/>
</g>
<path d="M214.731 123.012C214.731 123.012 214.651 123.051 214.477 123.067C214.229 123.086 213.979 123.056 213.741 122.98C213.301 122.831 212.897 122.593 212.552 122.282C212.208 121.97 211.931 121.591 211.739 121.168C211.213 119.938 210.764 118.678 210.394 117.393C209.927 115.96 209.428 114.394 208.898 112.747C207.854 109.447 206.92 106.416 206.271 104.28C205.97 103.225 205.706 102.362 205.479 101.692C205.374 101.381 205.3 101.06 205.258 100.734C205.413 101.027 205.538 101.334 205.63 101.652L206.5 104.193C207.22 106.345 208.194 109.329 209.238 112.629C209.761 114.275 210.251 115.842 210.703 117.282C211.053 118.557 211.473 119.812 211.961 121.041C212.302 121.851 212.947 122.496 213.757 122.838C214.073 122.935 214.4 122.993 214.731 123.012Z" fill="#263238"/>
<path d="M232.743 90.1484C232.455 90.7487 232.088 91.3077 231.651 91.8103C230.662 93.074 229.525 94.2139 228.264 95.2053C227.006 96.1993 225.635 97.0414 224.18 97.714C223.591 98.0256 222.959 98.2495 222.305 98.3788C222.871 98.0417 223.455 97.7352 224.054 97.4608C225.446 96.7256 226.771 95.8675 228.011 94.8967C229.246 93.9149 230.388 92.8208 231.421 91.6283C231.828 91.1056 232.269 90.6111 232.743 90.1484Z" fill="#263238"/>
<path d="M231.742 90.914C232.182 90.7655 232.655 90.749 233.103 90.8665C233.602 90.9564 234.082 91.1332 234.52 91.3888C234.783 91.5352 235.028 91.7133 235.248 91.919C235.387 92.04 235.496 92.1917 235.566 92.362C235.636 92.5324 235.665 92.7166 235.652 92.9003C235.636 93.1081 235.54 93.3015 235.383 93.4385C235.304 93.5038 235.213 93.5522 235.115 93.5808C235.017 93.6094 234.914 93.6175 234.813 93.6046C234.489 93.5513 234.189 93.4025 233.95 93.1773C233.531 92.7895 233.159 92.4334 232.913 92.1248C232.585 91.8092 232.317 91.4364 232.122 91.0247C232.485 91.2899 232.819 91.5923 233.119 91.9269C233.42 92.2118 233.784 92.5521 234.188 92.8924C234.376 93.0597 234.605 93.1744 234.852 93.2248C234.904 93.2315 234.957 93.2271 235.007 93.2119C235.058 93.1968 235.104 93.1711 235.144 93.1368C235.183 93.1024 235.215 93.06 235.237 93.0125C235.259 92.9649 235.271 92.9132 235.272 92.8607C235.335 92.3622 234.765 91.9744 234.338 91.6974C233.942 91.447 233.51 91.2601 233.056 91.1434C232.265 90.9377 231.742 91.0089 231.742 90.914Z" fill="#263238"/>
<path d="M242.595 78.6373C241.795 78.7936 240.986 78.9072 240.174 78.9776C238.228 79.2371 236.301 79.6204 234.405 80.1251C232.518 80.6422 230.668 81.282 228.865 82.0402C228.129 82.3917 227.373 82.7008 226.602 82.9662C226.769 82.8209 226.956 82.6985 227.156 82.6021C227.52 82.3884 228.066 82.1115 228.738 81.8107C232.337 80.1264 236.201 79.0819 240.158 78.7244C240.91 78.6531 241.527 78.6294 241.954 78.6294C242.167 78.6003 242.383 78.6029 242.595 78.6373Z" fill="#455A64"/>
<path d="M225.923 79.5786C225.694 78.1386 226.02 76.6655 226.833 75.4555C227.639 74.2584 228.597 73.1704 229.682 72.2188C229.92 73.7453 229.753 75.3077 229.198 76.7494C228.642 78.1911 227.718 79.4615 226.516 80.4333" fill="#455A64"/>
<path d="M166.752 114.02C166.752 114.02 145.084 173.832 146.968 182.173C148.851 190.515 166.657 261.644 169.364 261.644C172.07 261.644 192.725 257.418 192.678 256.998C192.63 256.579 177.507 184.057 177.507 184.057L191.878 110.633L177.04 112.556" fill="#263238"/>
<path d="M179.19 106.18C169.361 127.286 174.086 151.676 173.65 174.95C173.215 198.225 174.972 219.758 174.315 242.661C174.218 249.339 175.695 255.946 178.628 261.947H195.516C199.22 246.665 194.202 224.665 196.561 205.3C198.143 192.44 204.285 173.526 207.695 161.038C212.713 142.646 208.487 123.535 201.064 109.48" fill="#263238"/>
<path d="M175.462 127.328C175.471 127.436 175.471 127.545 175.462 127.653C175.462 127.89 175.462 128.207 175.462 128.618C175.462 129.465 175.367 130.707 175.264 132.306C175.082 135.519 174.655 140.148 173.99 145.846C173.326 151.544 172.795 158.366 172.479 165.947C172.162 173.529 172.115 181.87 172.281 190.623C172.629 208.136 173.674 223.971 174.441 235.423C174.837 241.136 175.154 245.766 175.383 248.987C175.486 250.57 175.573 251.812 175.628 252.675C175.628 253.086 175.668 253.403 175.684 253.64C175.694 253.748 175.694 253.857 175.684 253.965C175.684 253.965 175.684 253.854 175.644 253.64C175.605 253.426 175.589 253.086 175.549 252.682C175.47 251.82 175.367 250.585 175.225 249.003C174.964 245.837 174.584 241.168 174.164 235.446C173.326 223.995 172.233 208.16 171.893 190.631C171.727 181.87 171.79 173.513 172.123 165.932C172.455 158.35 173.017 151.521 173.705 145.815C174.394 140.109 174.869 135.527 175.106 132.298C175.225 130.715 175.312 129.473 175.375 128.61C175.375 128.207 175.431 127.89 175.446 127.653C175.445 127.544 175.45 127.436 175.462 127.328Z" fill="#455A64"/>
<path d="M173.882 142.284C173.882 142.284 173.787 142.229 173.637 142.094C173.423 141.89 173.227 141.667 173.051 141.429C172.397 140.557 171.926 139.561 171.666 138.501C171.322 136.913 171.253 135.278 171.461 133.666C171.651 131.854 172.015 129.907 172.252 127.833C172.67 124.3 172.895 120.747 172.925 117.189C172.925 115.82 172.925 114.72 172.925 113.953C172.894 113.558 172.894 113.161 172.925 112.766C173 113.155 173.045 113.549 173.059 113.945C173.107 114.736 173.17 115.82 173.186 117.189C173.24 120.762 173.053 124.334 172.624 127.881C172.387 129.962 172.015 131.925 171.833 133.705C171.608 135.284 171.645 136.888 171.943 138.454C172.163 139.5 172.57 140.497 173.146 141.398C173.566 141.967 173.882 142.26 173.882 142.284Z" fill="#455A64"/>
<path d="M176.318 115.613C176.366 115.652 176.128 115.913 176.216 116.404C176.237 116.53 176.284 116.65 176.354 116.758C176.423 116.865 176.513 116.958 176.619 117.029C176.752 117.1 176.902 117.132 177.052 117.121C177.202 117.11 177.345 117.056 177.466 116.966C177.6 116.886 177.708 116.769 177.776 116.628C177.843 116.487 177.868 116.329 177.846 116.174C177.818 116.048 177.765 115.928 177.69 115.822C177.616 115.716 177.521 115.626 177.41 115.557C177.007 115.304 176.682 115.431 176.667 115.367C176.651 115.304 176.983 115.067 177.545 115.312C177.707 115.387 177.849 115.496 177.963 115.633C178.077 115.77 178.158 115.931 178.202 116.103C178.241 116.325 178.213 116.554 178.121 116.76C178.03 116.965 177.879 117.139 177.687 117.259C177.507 117.392 177.289 117.468 177.065 117.475C176.84 117.482 176.618 117.42 176.429 117.298C176.284 117.197 176.165 117.063 176.08 116.908C175.995 116.753 175.946 116.581 175.939 116.404C175.915 115.795 176.303 115.541 176.318 115.613Z" fill="#455A64"/>
<path d="M195.807 125.507C195.743 125.713 195.635 125.902 195.49 126.061C195.132 126.526 194.685 126.916 194.176 127.209C193.418 127.646 192.566 127.893 191.691 127.929C190.62 127.962 189.559 127.713 188.613 127.209C187.671 126.71 186.846 126.017 186.191 125.175C185.663 124.492 185.234 123.738 184.917 122.935C184.702 122.4 184.535 121.847 184.419 121.281C184.358 121.079 184.334 120.867 184.347 120.656C184.411 120.656 184.585 121.527 185.139 122.825C185.866 124.535 187.141 125.954 188.763 126.861C189.651 127.336 190.645 127.578 191.652 127.565C192.479 127.551 193.292 127.345 194.026 126.964C194.698 126.582 195.3 126.09 195.807 125.507Z" fill="#455A64"/>
<path d="M209.68 149.429C209.442 149.263 209.219 149.075 209.016 148.867L207.235 147.197L201.141 141.373L201.086 141.317V141.238C201.086 139.56 201.086 137.74 201.086 135.849C201.086 131.552 201.086 127.626 201.133 124.611V124.461H201.284L205.581 124.627L206.752 124.698C206.889 124.694 207.025 124.713 207.156 124.754C207.019 124.767 206.881 124.767 206.744 124.754H205.541L201.244 124.714L201.395 124.564C201.395 127.579 201.395 131.504 201.442 135.801C201.442 137.693 201.442 139.513 201.442 141.191L201.387 141.056L207.377 146.976L209.087 148.717C209.309 148.933 209.508 149.172 209.68 149.429Z" fill="#455A64"/>
<path d="M189.28 258.203C189.383 258.203 189.494 258.71 189.517 259.335C189.541 259.96 189.47 260.466 189.359 260.474C189.248 260.482 189.145 259.968 189.122 259.343C189.098 258.718 189.169 258.211 189.28 258.203Z" fill="#455A64"/>
<path d="M189.137 253.68C189.24 253.68 189.343 254.178 189.367 254.803C189.39 255.429 189.311 255.943 189.2 255.943C189.09 255.943 188.987 255.444 188.971 254.819C188.955 254.194 189.026 253.68 189.137 253.68Z" fill="#455A64"/>
<path d="M189.02 249.141C189.131 249.141 189.226 249.647 189.241 250.272C189.257 250.897 189.178 251.404 189.067 251.412C188.957 251.42 188.862 250.905 188.846 250.28C188.83 249.655 188.909 249.149 189.02 249.141Z" fill="#455A64"/>
<path d="M188.918 244.609C189.029 244.609 189.124 245.108 189.131 245.733C189.139 246.358 189.06 246.873 188.949 246.873C188.839 246.873 188.752 246.366 188.736 245.741C188.72 245.116 188.839 244.609 188.918 244.609Z" fill="#455A64"/>
<path d="M188.916 240.07C189.027 240.07 189.122 240.577 189.122 241.202C189.122 241.827 189.043 242.334 188.94 242.334C188.837 242.334 188.734 241.827 188.734 241.202C188.734 240.577 188.798 240.07 188.916 240.07Z" fill="#455A64"/>
<path d="M188.917 235.547C189.019 235.547 189.114 236.053 189.114 236.679C189.114 237.304 189.027 237.818 188.917 237.818C188.806 237.818 188.719 237.312 188.719 236.679C188.719 236.045 188.782 235.547 188.917 235.547Z" fill="#455A64"/>
<path d="M188.917 231C189.027 231 189.115 231.514 189.107 232.14C189.099 232.765 189.012 233.271 188.901 233.271C188.79 233.271 188.711 232.765 188.711 232.132C188.711 231.499 188.798 231 188.917 231Z" fill="#455A64"/>
<path d="M188.965 226.484C189.067 226.484 189.154 226.991 189.147 227.616C189.139 228.241 189.044 228.716 188.917 228.716C188.79 228.716 188.727 228.21 188.735 227.584C188.743 226.959 188.854 226.484 188.965 226.484Z" fill="#455A64"/>
<path d="M189.044 221.945C189.154 221.945 189.234 222.46 189.218 223.085C189.202 223.71 189.107 224.217 189.004 224.209C188.901 224.201 188.814 223.702 188.83 223.077C188.846 222.452 188.917 221.945 189.044 221.945Z" fill="#455A64"/>
<path d="M189.154 217.414C189.264 217.414 189.336 217.928 189.32 218.554C189.304 219.179 189.201 219.685 189.09 219.685C188.979 219.685 188.908 219.171 188.924 218.546C188.94 217.921 189.043 217.414 189.154 217.414Z" fill="#455A64"/>
<path d="M189.312 212.883C189.423 212.883 189.486 213.397 189.471 214.022C189.455 214.648 189.344 215.154 189.233 215.146C189.122 215.138 189.051 214.632 189.075 214.007C189.099 213.381 189.201 212.883 189.312 212.883Z" fill="#455A64"/>
<path d="M189.492 208.367C189.595 208.367 189.667 208.882 189.643 209.507C189.619 210.132 189.508 210.631 189.397 210.631C189.287 210.631 189.223 210.116 189.247 209.491C189.271 208.866 189.382 208.359 189.492 208.367Z" fill="#455A64"/>
<path d="M189.714 203.828C189.817 203.828 189.88 204.343 189.856 204.968C189.833 205.593 189.706 206.092 189.603 206.092C189.5 206.092 189.429 205.569 189.461 204.944C189.492 204.319 189.603 203.82 189.714 203.828Z" fill="#455A64"/>
<path d="M189.952 199.305C190.055 199.305 190.118 199.819 190.079 200.444C190.039 201.07 189.928 201.568 189.825 201.568C189.722 201.568 189.651 201.046 189.691 200.421C189.73 199.795 189.841 199.297 189.952 199.305Z" fill="#455A64"/>
<path d="M190.234 194.781C190.337 194.781 190.4 195.304 190.361 195.929C190.321 196.554 190.195 197.053 190.092 197.045C189.989 197.037 189.925 196.522 189.965 195.897C190.005 195.272 190.123 194.773 190.234 194.781Z" fill="#455A64"/>
<path d="M190.541 190.258C190.652 190.258 190.699 190.772 190.659 191.397C190.62 192.023 190.493 192.521 190.382 192.513C190.272 192.505 190.224 191.999 190.264 191.374C190.303 190.749 190.43 190.25 190.541 190.258Z" fill="#455A64"/>
<path d="M190.874 185.743C190.984 185.743 191.032 186.257 190.984 186.882C190.937 187.507 190.81 188.006 190.699 187.998C190.589 187.99 190.541 187.476 190.589 186.85C190.636 186.225 190.763 185.727 190.874 185.743Z" fill="#455A64"/>
<path d="M191.294 181.234C191.405 181.234 191.452 181.757 191.397 182.374C191.342 182.991 191.215 183.498 191.104 183.49C190.993 183.482 190.954 182.967 191.009 182.342C191.065 181.717 191.152 181.234 191.294 181.234Z" fill="#455A64"/>
<path d="M191.668 176.703C191.771 176.703 191.818 177.226 191.755 177.851C191.692 178.476 191.565 178.974 191.462 178.959C191.359 178.943 191.312 178.436 191.367 177.819C191.423 177.202 191.557 176.695 191.668 176.703Z" fill="#455A64"/>
<path d="M192.085 172.18C192.196 172.18 192.236 172.702 192.172 173.327C192.109 173.952 191.975 174.451 191.864 174.435C191.753 174.419 191.721 173.913 191.777 173.288C191.832 172.663 191.998 172.172 192.085 172.18Z" fill="#455A64"/>
<path d="M192.578 167.696C192.681 167.696 192.72 168.218 192.649 168.843C192.578 169.468 192.443 169.959 192.332 169.943C192.222 169.927 192.198 169.421 192.261 168.796C192.324 168.17 192.467 167.68 192.578 167.696Z" fill="#455A64"/>
<path d="M193.073 163.18C193.184 163.18 193.216 163.71 193.145 164.327C193.073 164.945 192.931 165.443 192.82 165.435C192.709 165.427 192.678 164.905 192.749 164.288C192.82 163.67 192.971 163.172 193.073 163.18Z" fill="#455A64"/>
<path d="M193.605 158.68C193.708 158.68 193.74 159.202 193.661 159.828C193.581 160.453 193.439 160.943 193.336 160.928C193.233 160.912 193.202 160.397 193.273 159.78C193.344 159.163 193.494 158.664 193.605 158.68Z" fill="#455A64"/>
<path d="M194.171 154.18C194.282 154.18 194.305 154.71 194.226 155.327C194.147 155.945 193.997 156.443 193.886 156.427C193.775 156.411 193.759 155.905 193.839 155.28C193.918 154.655 194.068 154.172 194.171 154.18Z" fill="#455A64"/>
<path d="M194.778 149.704C194.889 149.704 194.905 150.226 194.826 150.851C194.746 151.476 194.58 151.959 194.477 151.943C194.375 151.927 194.351 151.421 194.43 150.796C194.509 150.17 194.675 149.688 194.778 149.704Z" fill="#455A64"/>
<path d="M195.402 145.203C195.513 145.203 195.529 145.734 195.402 146.359C195.276 146.984 195.157 147.467 195.054 147.451C194.951 147.435 194.927 146.921 195.014 146.303C195.101 145.686 195.291 145.188 195.402 145.203Z" fill="#455A64"/>
<path d="M196.036 140.719C196.139 140.719 196.155 141.249 196.036 141.867C195.917 142.484 195.783 142.975 195.672 142.959C195.561 142.943 195.553 142.429 195.672 141.811C195.791 141.194 195.957 140.703 196.036 140.719Z" fill="#455A64"/>
<path d="M196.768 136.243C196.87 136.243 196.878 136.773 196.768 137.39C196.657 138.007 196.506 138.498 196.396 138.482C196.285 138.466 196.285 137.952 196.396 137.327C196.506 136.702 196.657 136.227 196.768 136.243Z" fill="#455A64"/>
<path d="M197.481 131.758C197.584 131.758 197.592 132.288 197.481 132.906C197.371 133.523 197.22 134.014 197.11 133.998C196.999 133.982 196.991 133.468 197.11 132.842C197.228 132.217 197.371 131.742 197.481 131.758Z" fill="#455A64"/>
<path d="M198.101 127.274C198.211 127.274 198.235 127.796 198.148 128.421C198.061 129.046 197.919 129.537 197.808 129.521C197.697 129.506 197.681 128.991 197.76 128.366C197.84 127.741 197.998 127.258 198.101 127.274Z" fill="#455A64"/>
<path d="M198.484 122.758C198.586 122.758 198.642 123.272 198.602 123.905C198.563 124.539 198.412 125.045 198.325 125.045C198.238 125.045 198.167 124.523 198.207 123.897C198.246 123.272 198.412 122.75 198.484 122.758Z" fill="#455A64"/>
<path d="M198.467 118.227C198.578 118.227 198.681 118.725 198.697 119.358C198.713 119.991 198.641 120.498 198.531 120.498C198.42 120.498 198.325 119.991 198.301 119.366C198.277 118.741 198.357 118.234 198.467 118.227Z" fill="#455A64"/>
<path d="M197.885 113.734C197.988 113.734 198.162 114.201 198.265 114.819C198.368 115.436 198.368 115.958 198.265 115.966C198.162 115.974 197.988 115.499 197.885 114.882C197.782 114.265 197.774 113.758 197.885 113.734Z" fill="#455A64"/>
<path d="M196.764 109.894C196.867 109.854 197.081 110.194 197.231 110.685C197.382 111.176 197.429 111.54 197.326 111.571C197.223 111.603 197.018 111.263 196.859 110.78C196.701 110.297 196.669 109.933 196.764 109.894Z" fill="#455A64"/>
<path d="M208.305 128.276C206.068 128.54 203.807 128.54 201.57 128.276C203.808 128.023 206.067 128.023 208.305 128.276Z" fill="#455A64"/>
<path d="M196.517 206.333C196.414 206.333 195.655 204.75 194.578 202.772C193.502 200.794 192.521 199.29 192.616 199.227C194.377 201.318 195.703 203.739 196.517 206.349V206.333Z" fill="#455A64"/>
<path d="M170.877 186.651C170.113 185.504 169.089 184.555 167.888 183.878C166.688 183.202 165.345 182.818 163.969 182.757C164.37 182.628 164.795 182.593 165.211 182.654C166.221 182.737 167.201 183.036 168.084 183.533C168.971 184.028 169.736 184.714 170.324 185.543C170.594 185.862 170.784 186.242 170.877 186.651Z" fill="#455A64"/>
<path d="M171.182 185.847C171.063 185.894 170.272 183.813 168.76 181.558C167.249 179.302 165.658 177.751 165.737 177.664C166.164 177.91 166.544 178.229 166.861 178.606C168.523 180.285 169.843 182.271 170.747 184.454C170.963 184.893 171.109 185.363 171.182 185.847Z" fill="#455A64"/>
<path d="M186.111 188.61C186.016 188.665 183.736 184.74 181.085 179.85C178.434 174.959 176.337 170.954 176.416 170.899C176.495 170.844 178.79 174.769 181.434 179.66C184.077 184.55 186.206 188.563 186.111 188.61Z" fill="#455A64"/>
<path d="M187.924 182.815C187.468 182.104 187.058 181.364 186.698 180.599C185.978 179.222 184.949 177.331 183.746 175.289C182.543 173.247 181.372 171.427 180.525 170.121C180.03 169.441 179.583 168.727 179.188 167.984C179.776 168.593 180.306 169.255 180.77 169.963C181.688 171.237 182.883 173.033 184.102 175.083C185.321 177.133 186.302 179.04 186.967 180.48C187.358 181.227 187.679 182.009 187.924 182.815Z" fill="#455A64"/>
<path d="M186.544 169.625C185.421 171.382 184.192 173.068 182.864 174.674C181.634 176.363 180.299 177.972 178.867 179.493C181.219 176.048 183.783 172.753 186.544 169.625Z" fill="#455A64"/>
<path d="M188.981 174.547C188.633 175.029 188.241 175.477 187.809 175.884C187.065 176.676 186.052 177.807 185 179.097C183.947 180.387 183.053 181.606 182.412 182.5C182.101 183.003 181.744 183.474 181.344 183.909C181.553 183.347 181.835 182.815 182.183 182.326C182.949 181.114 183.787 179.949 184.691 178.836C185.597 177.721 186.573 176.663 187.611 175.671C188.017 175.238 188.477 174.86 188.981 174.547Z" fill="#455A64"/>
<path d="M230.069 139.401C229.832 136.591 232.91 139.78 234.026 140.928C235.142 142.075 238.877 145.439 239.503 145.368C240.428 145.265 240.484 144.252 239.313 143.136C238.141 142.02 234.881 138.427 235.514 137.857C236.147 137.288 241.845 143.191 241.845 143.191C241.845 143.191 242.866 144.647 243.626 143.983C244.979 142.827 238.418 137.003 237.777 136.465C237.334 136.085 237.999 135.436 238.458 135.863C238.917 136.29 244.045 141.886 245.438 140.722C246.514 139.836 240.088 135.887 239.669 134.138C239.249 132.389 244.235 137.628 245.208 136.734C245.572 136.401 245.802 136.101 242.502 133.505C240.919 132.247 234.889 128.575 234.889 128.575L219.148 91.0078L204.508 92.7568L226.666 136.575C226.92 137.169 227.205 137.865 227.497 138.712C227.751 139.432 229.238 143.935 229.444 144.671C229.753 145.811 232.95 148.668 230.069 139.401Z" fill="#C47E61"/>
<path d="M119.794 54.1144C121.527 55.6971 128.008 63.4685 128.008 63.4685L137.212 59.1001C136.967 58.3957 134.838 50.292 134.585 49.3028C134.347 48.4566 134.256 47.576 134.316 46.6992C134.363 45.6038 134.56 44.5201 134.901 43.4783C135.313 42.5603 134.395 41.6185 133.595 42.0696C132.796 42.5207 131.609 45.0373 131.641 48.2819C131.672 51.5266 120.633 44.7761 118.812 46.5963L119.794 54.1144Z" fill="#C47E61"/>
<path d="M136.064 55.0078L149.968 85.6658L156.299 71.8246L168.336 81.614L159.947 96.4602C158.709 98.6433 156.771 100.346 154.447 101.293C152.123 102.241 149.547 102.378 147.135 101.683C145.449 101.197 143.9 100.321 142.616 99.1244C141.332 97.9282 140.348 96.4461 139.743 94.7983L125.602 59.669L126.393 58.5769L136.064 55.0078Z" fill="#C47E61"/>
<path d="M151.72 95.542C151.861 93.8237 151.803 92.0949 151.546 90.3901C151.157 88.7131 150.573 87.0876 149.805 85.5469C150.174 85.9102 150.472 86.3397 150.683 86.8131C151.273 87.9125 151.695 89.0943 151.933 90.3189C152.169 91.5445 152.214 92.799 152.068 94.0384C152.048 94.5571 151.93 95.0674 151.72 95.542Z" fill="#995037"/>
<path d="M133.514 49.3301C133.728 53.6589 130.697 57.323 126.748 57.5208C122.799 57.7187 119.435 54.3553 119.222 50.0344C119.008 45.7135 122.039 42.0336 125.98 41.8436C129.921 41.6537 133.3 45.0012 133.514 49.3301Z" fill="#263238"/>
<path d="M135.108 49.1738C135.321 53.5027 132.29 57.1667 128.349 57.3646C124.408 57.5624 121.029 54.1991 120.815 49.8702C120.602 45.5414 123.633 41.8773 127.574 41.6874C131.515 41.4975 134.902 44.845 135.108 49.1738Z" fill="#455A64"/>
<path d="M134.353 49.1971C134.543 53.0749 131.828 56.3195 128.299 56.5253C124.769 56.7311 121.754 53.7001 121.564 49.8302C121.374 45.9604 124.081 42.7078 127.61 42.5021C131.14 42.2963 134.163 45.3273 134.353 49.1971Z" fill="#E0E0E0"/>
<path d="M130.766 45.3047L127.062 49.8393L128.819 50.7494L130.766 45.3047Z" fill="#8796D0"/>
<path d="M127.635 44.8818C127.524 44.8818 127.414 44.5098 127.374 44.0271C127.334 43.5443 127.374 43.1487 127.509 43.1407C127.643 43.1328 127.738 43.5206 127.77 43.9954C127.801 44.4703 127.738 44.8739 127.635 44.8818Z" fill="#263238"/>
<path d="M129.76 55.735C129.65 55.735 129.523 55.5134 129.468 55.1969C129.412 54.8803 129.468 54.6113 129.555 54.5875C129.642 54.5638 129.792 54.8091 129.847 55.1257C129.903 55.4422 129.871 55.7113 129.76 55.735Z" fill="#263238"/>
<path d="M122.944 50.5497C122.944 50.6526 122.707 50.7476 122.398 50.7555C122.089 50.7634 121.844 50.6843 121.836 50.5735C121.828 50.4627 122.081 50.3756 122.39 50.3677C122.699 50.3598 122.944 50.439 122.944 50.5497Z" fill="#263238"/>
<path d="M133.528 49.0654C133.528 49.1762 133.315 49.2711 133.046 49.287C132.777 49.3028 132.547 49.2158 132.539 49.105C132.531 48.9942 132.753 48.8992 133.03 48.8913C133.307 48.8834 133.481 48.9467 133.528 49.0654Z" fill="#263238"/>
<path d="M119.125 46.4547C120.56 46.3063 122.01 46.4162 123.406 46.7792C123.825 46.8154 124.229 46.9511 124.585 47.1749C124.758 47.2907 124.886 47.4627 124.946 47.6617C125.007 47.8607 124.997 48.0745 124.918 48.267C124.68 48.6864 124.126 48.7181 123.636 48.7022C122.567 48.7022 121.38 48.9001 120.312 48.8605C121.673 48.9792 122.939 49.09 124.467 49.28C124.79 49.3085 125.095 49.4476 125.328 49.6738C125.561 49.9 125.71 50.1997 125.749 50.5224C125.725 50.7959 125.606 51.0523 125.412 51.2463C125.218 51.4404 124.962 51.5596 124.688 51.5829C124.127 51.6208 123.564 51.6208 123.003 51.5829C123.003 51.5829 120.81 51.5829 120.715 51.9073C122.085 51.9073 123.881 52.1922 125.266 52.3109C125.638 52.3109 125.812 52.857 125.899 53.221C125.961 53.4026 125.956 53.6006 125.883 53.7782C125.81 53.9558 125.675 54.1009 125.503 54.1865C125.33 54.2448 125.146 54.2637 124.965 54.2419C123.192 54.1865 122.267 54.3052 120.494 54.2419C120.494 54.2419 119.465 54.052 119.283 53.498C119.101 52.944 119.703 52.1526 119.703 52.1526C119.491 52.0281 119.309 51.8574 119.172 51.6533C119.035 51.4492 118.946 51.2168 118.911 50.9735C118.878 50.3416 119.001 49.7113 119.267 49.1375C119.141 49.11 119.025 49.0458 118.935 48.9529C118.845 48.8599 118.784 48.7425 118.761 48.6152C118.658 48.2037 118.175 46.6367 119.125 46.4547Z" fill="#C47E61"/>
<path d="M125.609 52.5369C124.572 52.6176 123.529 52.5617 122.506 52.3707C121.66 52.2915 120.876 52.1174 120.354 52.1174C120.077 52.1385 119.808 52.2166 119.562 52.3469C119.563 52.3469 119.563 52.244 119.689 52.1253C119.873 51.9646 120.103 51.865 120.346 51.8404C121.09 51.8203 121.834 51.8679 122.57 51.9829C123.602 52.0419 124.622 52.228 125.609 52.5369Z" fill="#995037"/>
<path d="M125.105 49.4162C124.079 49.4968 123.047 49.4436 122.034 49.2579C121.196 49.1788 120.452 48.9968 119.922 49.0126C119.391 49.0284 119.17 49.3212 119.13 49.2738C119.091 49.2263 119.273 48.8464 119.922 48.7356C120.255 48.6923 120.593 48.6923 120.927 48.7356L122.114 48.8622C123.13 48.9203 124.135 49.1064 125.105 49.4162Z" fill="#995037"/>
<path d="M170.055 13.9946C172.429 10.0852 175.982 6.7535 180.382 5.5506C184.782 4.3477 189.974 5.66139 192.672 9.33339C193.464 10.4017 194.041 11.6521 195.086 12.4989C198.022 14.786 202.446 12.3881 205.991 13.5514C209.394 14.6752 210.866 18.6321 211.531 22.1537C212.196 25.6754 212.67 29.6006 215.361 31.9668C218.574 34.8 223.584 34.2064 227.351 36.2482C228.529 36.8884 229.556 37.7747 230.361 38.8468C231.167 39.919 231.732 41.1519 232.019 42.4619C232.305 43.7719 232.307 45.1283 232.023 46.4389C231.739 47.7496 231.177 48.9838 230.374 50.0577C227.999 53.2233 223.671 54.901 222.381 58.6363C222.001 59.7363 221.93 60.9234 221.589 62.0313C220.505 65.4501 216.794 67.571 213.209 67.6343C209.624 67.6976 206.181 66.1623 203.174 64.2076C200.167 62.2529 197.444 59.8708 194.366 58.0269C191.287 56.183 187.702 54.8614 184.149 55.3521" fill="#263238"/>
<path d="M230.361 32.375C230.159 32.8215 229.865 33.2206 229.499 33.5462C228.664 34.3936 227.67 35.0681 226.574 35.5311C225.478 35.9942 224.302 36.2367 223.112 36.2448C222.621 36.2777 222.128 36.2104 221.664 36.047C223.295 36.1046 224.918 35.806 226.422 35.1718C227.925 34.5376 229.272 33.5832 230.369 32.375H230.361Z" fill="#263238"/>
<path d="M170.095 52.7014C170.095 52.7014 161.224 72.0189 161.707 75.3506C162.189 78.6823 164.809 91.9696 164.809 91.9696L165.545 98.6884C165.849 101.262 165.241 103.861 163.827 106.032C163.148 107.029 162.739 108.185 162.64 109.388C162.935 110.418 163.454 111.371 164.162 112.175C164.87 112.98 165.747 113.617 166.732 114.041C166.732 114.041 200.365 109.483 201.062 109.483C201.758 109.483 199.21 89.176 199.21 89.176L204.338 54.8302C204.338 54.8302 202.803 52.5748 192.198 50.9524C185.812 49.979 170.095 52.7014 170.095 52.7014Z" fill="#8796D0"/>
<path d="M170.093 52.7031C166.363 54.2873 163.107 56.8123 160.644 60.0313C158.23 63.1968 148.773 82.9813 148.773 82.9813C148.773 82.9813 156.292 91.3936 155.358 98.5793C154.424 105.765 158.634 107.933 161.689 105.298C164.743 102.663 168.898 94.5671 168.898 94.5671L170.093 52.7031Z" fill="#8796D0"/>
<path d="M204.315 54.8281C204.315 54.8281 222.517 83.0724 222.897 89.1819C223.277 95.2913 214.698 105.611 210.805 106.592C206.911 107.574 199.203 86.3962 199.203 86.3962L204.315 54.8281Z" fill="#8796D0"/>
<path d="M221.885 93.9457C221.666 93.6019 221.473 93.2421 221.307 92.8694L219.859 89.8859C218.632 87.3614 216.931 83.8952 214.968 80.0966C213.006 76.298 211.162 72.903 209.816 70.4497L208.234 67.5374C208.021 67.1894 207.838 66.8241 207.688 66.4453C207.94 66.7632 208.165 67.1021 208.36 67.4583C208.78 68.123 209.357 69.0964 210.062 70.3072C211.478 72.7289 213.362 76.116 215.324 79.9146C217.287 83.7132 218.957 87.2111 220.112 89.7672C220.698 91.0414 221.149 92.0781 221.457 92.8061C221.631 93.1737 221.774 93.5548 221.885 93.9457Z" fill="#263238"/>
<path d="M189.777 100.231C189.548 100.411 189.298 100.562 189.033 100.682C188.329 101.062 187.605 101.403 186.865 101.703C181.964 103.726 176.613 104.406 171.362 103.674C170.563 103.57 169.77 103.422 168.987 103.231C168.695 103.179 168.411 103.092 168.141 102.97C168.141 102.906 169.375 103.183 171.369 103.397C176.571 103.969 181.834 103.304 186.73 101.458C188.637 100.738 189.745 100.168 189.777 100.231Z" fill="#263238"/>
<path d="M187.993 86.8516C188.031 87.0875 188.031 87.3279 187.993 87.5638C187.986 87.8423 187.96 88.1199 187.914 88.3947C187.874 88.7619 187.813 89.1265 187.732 89.4869C187.537 90.427 187.254 91.3465 186.885 92.2329C185.978 94.4195 184.609 96.3846 182.873 97.9942C182.17 98.6483 181.404 99.2315 180.586 99.7352C180.277 99.9374 179.957 100.122 179.628 100.289C179.372 100.425 179.108 100.544 178.837 100.645C178.417 100.819 178.18 100.906 178.164 100.875C178.148 100.843 179.066 100.416 180.396 99.5057C181.173 98.9717 181.906 98.3762 182.588 97.7251C183.414 96.9227 184.163 96.0458 184.828 95.1056C185.48 94.1536 186.044 93.1444 186.513 92.0905C186.887 91.227 187.191 90.3352 187.423 89.4235C187.867 87.8487 187.922 86.8516 187.993 86.8516Z" fill="#263238"/>
<g opacity="0.2">
<path d="M167.867 112.877C168.268 111.232 169.031 109.697 170.101 108.384C171.17 107.071 172.518 106.013 174.048 105.287C175.631 104.543 177.736 103.807 177.91 102.051C177.873 101.167 177.649 100.301 177.253 99.5102C176.169 96.2735 177.854 92.8231 179.627 89.895C181.4 86.9669 183.283 83.7301 182.682 80.3984C177.29 89.756 172.554 99.4763 168.508 109.49" fill="black"/>
</g>
<path d="M215.316 73.1898C214.506 72.7834 213.667 72.4369 212.807 72.1531C210.448 71.4056 207.932 71.2991 205.518 71.8444C203.865 72.2327 202.295 72.9134 200.881 73.8546C199.298 74.8359 197.787 76.0704 196.038 77.2179C194.243 78.5156 192.139 79.318 189.936 79.5446C187.574 79.5801 185.227 79.1554 183.027 78.2942C180.859 77.4565 178.625 76.8001 176.348 76.3316C174.22 75.9871 172.05 75.9871 169.922 76.3316C167.996 76.6572 166.121 77.2318 164.343 78.0409C162.778 78.7561 161.172 79.3746 159.531 79.8928C158.34 80.2975 157.078 80.4523 155.824 80.3475C154.57 80.2426 153.351 79.8804 152.243 79.2834C151.653 78.9346 151.14 78.4719 150.731 77.9222C150.59 77.7318 150.468 77.5277 150.367 77.3129C150.872 78.0639 151.537 78.6937 152.314 79.1568C153.409 79.7088 154.604 80.0347 155.828 80.1149C157.051 80.1951 158.279 80.0281 159.436 79.6237C161.056 79.0938 162.642 78.4648 164.185 77.7402C165.987 76.9089 167.889 76.3131 169.843 75.9675C172.011 75.6184 174.22 75.6184 176.388 75.9675C178.683 76.4363 180.936 77.0954 183.122 77.9381C185.276 78.7842 187.575 79.2035 189.889 79.1726C192.026 78.9556 194.069 78.1835 195.816 76.933C197.549 75.8093 199.1 74.5589 200.683 73.5934C202.134 72.6489 203.742 71.9708 205.431 71.5912C207.889 71.0638 210.443 71.2115 212.823 72.0186C213.706 72.2858 214.546 72.6803 215.316 73.1898Z" fill="#FAFAFA"/>
<path d="M217.777 76.7711C217.715 76.7579 217.656 76.7338 217.603 76.6998L217.105 76.4624C216.462 76.17 215.801 75.9189 215.126 75.7106C212.633 74.9678 210.033 74.6468 207.434 74.761C205.648 74.8093 203.895 75.2497 202.298 76.0509C200.513 77.0795 198.797 78.2242 197.162 79.4776C195.338 80.9152 193.215 81.9265 190.949 82.4373C188.536 82.8647 186.019 82.287 183.629 81.5035C181.346 80.6346 179.002 79.9311 176.618 79.3984C174.384 78.9994 172.098 78.9834 169.859 79.3509C167.834 79.7116 165.863 80.3313 163.995 81.1949C162.356 81.9654 160.654 82.5929 158.907 83.0704C157.44 83.4102 155.922 83.464 154.435 83.2287C153.308 83.0749 152.214 82.7353 151.199 82.2237C150.555 81.9028 149.984 81.453 149.521 80.9021C149.361 80.711 149.226 80.501 149.117 80.2769C149.667 81.0561 150.408 81.6804 151.27 82.0891C152.27 82.5603 153.338 82.8702 154.435 83.0071C155.894 83.2212 157.38 83.1514 158.812 82.8014C160.535 82.3043 162.216 81.6692 163.837 80.9021C165.72 80.0081 167.713 79.3668 169.764 78.9948C172.042 78.5993 174.371 78.5993 176.649 78.9948C179.055 79.5286 181.42 80.2347 183.724 81.1078C186.098 81.8992 188.536 82.4373 190.847 82.0337C193.055 81.5362 195.125 80.5551 196.909 79.161C198.561 77.9029 200.298 76.7606 202.108 75.7423C203.749 74.9315 205.549 74.4937 207.378 74.4602C210.007 74.3643 212.632 74.7313 215.134 75.5444C216.069 75.824 216.96 76.2371 217.777 76.7711Z" fill="#FAFAFA"/>
<path d="M210.708 65.12C209.46 65.6384 208.255 66.2577 207.108 66.9718C205.883 67.7738 204.749 68.708 203.728 69.7575C202.465 71.0226 201.436 72.5016 200.689 74.1259C199.398 77.1199 198.79 80.364 198.909 83.6224C198.991 84.9647 199.23 86.2927 199.621 87.5793C199.568 87.4997 199.523 87.4148 199.487 87.3261C199.37 87.0698 199.272 86.8053 199.194 86.5347C198.878 85.5819 198.687 84.5925 198.624 83.5907C198.425 80.2707 199.008 76.9503 200.325 73.8964C201.102 72.2319 202.175 70.7223 203.491 69.4409C204.542 68.3867 205.713 67.4597 206.981 66.679C207.831 66.1486 208.732 65.7058 209.672 65.3574C210.004 65.2308 210.273 65.1675 210.463 65.1121C210.653 65.0567 210.7 65.1041 210.708 65.12Z" fill="#263238"/>
<path d="M168.45 114.589C168.311 114.561 168.176 114.519 168.046 114.463C167.785 114.376 167.413 114.233 166.93 114.02C166.344 113.773 165.778 113.482 165.237 113.149C164.506 112.703 163.869 112.12 163.361 111.432C162.72 110.591 162.393 109.552 162.435 108.496C162.633 107.317 163.163 106.219 163.963 105.33C164.34 104.837 164.666 104.307 164.936 103.747C165.205 103.168 165.389 102.552 165.482 101.919C165.644 100.567 165.601 99.1988 165.355 97.8596C164.311 92.32 163.242 87.271 162.554 83.6148C162.221 81.8342 161.945 80.3702 161.762 79.2939C161.683 78.8191 161.612 78.4234 161.557 78.1147C161.524 77.9774 161.511 77.8363 161.517 77.6953C161.571 77.8252 161.611 77.9605 161.636 78.0989C161.707 78.4075 161.802 78.7874 161.913 79.2622C162.142 80.3306 162.467 81.7867 162.855 83.5594C163.646 87.1998 164.714 92.2092 165.767 97.8042C166.019 99.1829 166.059 100.592 165.886 101.983C165.782 102.648 165.585 103.296 165.3 103.906C165.017 104.483 164.675 105.029 164.279 105.536C163.508 106.372 162.99 107.409 162.783 108.527C162.732 109.514 163.026 110.488 163.614 111.281C164.091 111.952 164.69 112.526 165.379 112.975C165.904 113.317 166.452 113.623 167.017 113.893L168.101 114.399C168.224 114.45 168.341 114.514 168.45 114.589Z" fill="#263238"/>
<path d="M162.581 83.6778C162.376 79.9346 160.864 76.3892 160.373 72.6697C159.918 68.6809 159.862 64.6565 160.207 60.6566C160.5 58.1321 164.647 53.732 168.366 53.3047C165.486 63.2681 163.199 74.5532 162.945 84.9598" fill="#8796D0"/>
<g opacity="0.5">
<path d="M162.581 83.6856C162.376 79.9424 160.864 76.397 160.373 72.6775C159.918 68.6887 159.862 64.6643 160.207 60.6644C160.5 58.1399 164.647 53.7398 168.366 53.3125C165.486 63.276 163.199 74.561 162.945 84.9676" fill="black"/>
</g>
<path d="M162.533 56.6641C162.548 57.0132 162.53 57.3631 162.478 57.7087C162.414 58.4526 162.327 59.3943 162.232 60.526C162.042 62.9001 161.852 66.2002 161.892 69.8484C161.932 73.4967 162.201 76.7809 162.446 79.155C162.565 80.2867 162.668 81.2285 162.755 81.9644C162.816 82.3091 162.839 82.6593 162.826 83.0091C162.723 82.6758 162.649 82.3342 162.604 81.9882C162.478 81.3313 162.327 80.4054 162.169 79.1867C161.762 76.0899 161.54 72.9716 161.504 69.8484C161.472 66.7269 161.623 63.6062 161.955 60.5022C162.09 59.3073 162.217 58.3497 162.327 57.6849C162.358 57.3381 162.427 56.9957 162.533 56.6641Z" fill="#263238"/>
<path d="M194.628 51.2812C194.628 51.2812 184.435 76.0197 199.218 89.1645L200.619 89.7897C200.619 89.7897 197.382 83.0393 196.187 77.6737C194.865 71.7542 200.991 52.6266 200.991 52.6266C198.985 51.7456 196.819 51.2876 194.628 51.2812Z" fill="#8796D0"/>
<path opacity="0.5" d="M194.628 51.2812C194.628 51.2812 184.435 76.0197 199.218 89.1645L200.619 89.7897C200.278 88.8322 196.725 81.227 196.187 77.6737C195.261 71.6751 200.991 52.6266 200.991 52.6266C198.985 51.7456 196.819 51.2876 194.628 51.2812Z" fill="black"/>
<path d="M200.199 52.1172C200.158 52.2435 200.105 52.3654 200.041 52.4812L199.518 53.4863C199.228 54.0002 198.964 54.5285 198.727 55.069C198.45 55.7021 198.086 56.4065 197.793 57.2295L197.294 58.5115C197.128 58.9547 197.002 59.4374 196.843 59.9281C196.503 60.9015 196.266 61.9698 195.989 63.0936C194.906 68.0015 194.785 73.0729 195.633 78.0269C195.862 79.1586 196.044 80.2428 196.337 81.1924C196.471 81.6831 196.582 82.1737 196.725 82.6248C196.867 83.0759 197.018 83.5112 197.16 83.9227C197.413 84.7695 197.746 85.5054 197.951 86.1306C198.157 86.7558 198.458 87.3256 198.671 87.7688L199.146 88.7897C199.257 89.0271 199.305 89.1537 199.289 89.1616C199.208 89.0574 199.136 88.9461 199.075 88.8292L198.537 87.8321C198.243 87.3199 197.979 86.7915 197.746 86.2493C197.41 85.5319 197.111 84.7976 196.851 84.0493C196.701 83.6378 196.551 83.2025 196.392 82.7435C196.234 82.2845 196.115 81.8018 195.973 81.3032C195.664 80.314 195.466 79.2219 195.229 78.0823C194.328 73.0846 194.449 67.9562 195.585 63.0066C195.878 61.8749 196.131 60.7986 196.479 59.841C196.646 59.3504 196.788 58.8676 196.962 58.4245L197.484 57.1424C197.793 56.3511 198.181 55.6151 198.482 54.982C198.739 54.4383 199.027 53.9099 199.344 53.3992L199.93 52.4337C200.007 52.3179 200.097 52.2116 200.199 52.1172Z" fill="#263238"/>
<path d="M196.641 59.9523C196.641 59.9523 200.241 61.3688 200.202 61.258C200.343 60.6736 200.518 60.0976 200.724 59.5328L197.25 58.1875L196.641 59.9523Z" fill="#263238"/>
<path d="M155.763 122.674C153.444 123.244 151.806 125.214 150.294 127.074C146.237 132.165 142.227 137.294 138.265 142.459C136.746 144.437 135.179 146.558 134.918 149.043C134.562 152.549 136.983 155.833 139.959 157.748C143.493 159.79 147.666 160.426 151.647 159.529L162.109 127.201C163.075 123.576 158.05 122.128 155.763 122.674Z" fill="#455A64"/>
<path d="M156.943 129.078C156.744 129.47 156.519 129.848 156.27 130.21L154.315 133.217C152.654 135.749 150.359 139.224 147.755 143.054C145.151 146.884 142.722 150.279 141.297 152.93C140.726 153.973 140.241 155.061 139.849 156.183C139.733 156.606 139.596 157.024 139.438 157.433C139.442 157.318 139.458 157.204 139.485 157.093C139.542 156.77 139.616 156.45 139.707 156.135C140.044 154.983 140.495 153.867 141.052 152.804C142.437 150.081 144.882 146.678 147.43 142.832C149.979 138.986 152.369 135.552 154.086 133.059L156.144 130.123C156.38 129.753 156.647 129.403 156.943 129.078Z" fill="#263238"/>
<path d="M193.667 51.2117L158.055 124.628L160.919 127.754L197.022 51.4412C196.512 51.1654 195.948 51.0022 195.369 50.9626C194.791 50.923 194.21 51.0079 193.667 51.2117Z" fill="#455A64"/>
<path d="M162.064 124.483C162.09 124.682 162.074 124.884 162.017 125.076C161.91 125.606 161.734 126.12 161.494 126.604C161.146 127.333 160.672 127.994 160.094 128.558C159.745 128.895 159.337 129.163 158.891 129.35C158.389 129.571 157.822 129.588 157.308 129.397C157.04 129.299 156.804 129.13 156.624 128.909C156.445 128.687 156.328 128.421 156.287 128.139C156.213 127.642 156.281 127.134 156.485 126.675C156.839 125.961 157.23 125.266 157.656 124.594C158.005 123.954 158.407 123.345 158.859 122.773C158.6 123.455 158.28 124.112 157.901 124.736C157.601 125.33 157.15 126.026 156.825 126.809C156.654 127.205 156.599 127.642 156.667 128.068C156.7 128.285 156.791 128.489 156.931 128.659C157.07 128.829 157.252 128.958 157.458 129.033C157.885 129.191 158.356 129.176 158.772 128.994C159.178 128.818 159.549 128.568 159.864 128.258C160.428 127.733 160.903 127.121 161.273 126.445C161.578 125.809 161.842 125.153 162.064 124.483Z" fill="#263238"/>
<path d="M158.347 126.405C158.347 126.358 158.647 126.255 158.98 126.579C159.075 126.678 159.147 126.797 159.189 126.927C159.232 127.057 159.244 127.196 159.225 127.331C159.208 127.455 159.164 127.574 159.097 127.68C159.03 127.785 158.941 127.876 158.837 127.944C158.732 128.013 158.614 128.058 158.49 128.077C158.366 128.097 158.24 128.089 158.119 128.056C157.999 128.022 157.887 127.963 157.791 127.883C157.695 127.803 157.617 127.703 157.563 127.59C157.509 127.477 157.48 127.354 157.477 127.229C157.474 127.104 157.498 126.979 157.547 126.864C157.729 126.429 158.077 126.405 158.07 126.453C158.062 126.5 157.88 126.619 157.816 126.943C157.796 127.029 157.795 127.117 157.811 127.203C157.827 127.289 157.861 127.37 157.911 127.442C157.977 127.515 158.061 127.569 158.154 127.6C158.248 127.631 158.347 127.637 158.444 127.618C158.54 127.599 158.63 127.555 158.704 127.491C158.779 127.427 158.835 127.344 158.869 127.252C158.886 127.168 158.886 127.08 158.869 126.996C158.851 126.912 158.816 126.832 158.766 126.761C158.584 126.484 158.339 126.461 158.347 126.405Z" fill="#263238"/>
<path d="M176.967 7.6551C176.522 7.19914 175.987 6.83985 175.397 6.59968C174.806 6.35951 174.173 6.24361 173.536 6.2592C172.899 6.2748 172.272 6.42155 171.694 6.69032C171.116 6.95909 170.599 7.34409 170.177 7.8213C169.124 9.15081 168.911 10.9868 168.254 12.5142C167.456 14.0668 166.523 15.547 165.468 16.938C164.519 18.402 163.735 20.1035 163.973 21.8445C164.218 23.7043 165.555 25.2474 165.943 27.0914C166.37 29.2439 165.357 31.4677 165.627 33.6519C165.896 35.8361 167.312 37.5534 168.681 39.1915L172.361 43.6074C173.794 45.3326 175.368 47.1528 177.537 47.7384C180.132 48.4428 182.799 47.1845 185.395 46.4722C188.97 45.5058 192.744 45.5551 196.292 46.6147C198.35 47.2319 200.463 48.1974 202.56 47.7463C205.409 47.137 207.095 44.1218 207.625 41.265C208.804 34.9893 206.121 28.4842 201.998 23.6093C197.875 18.7344 192.431 15.189 187.065 11.7386" fill="#263238"/>
<path d="M191.283 13.106C191.945 13.1826 192.555 13.503 192.994 14.0048C193.433 14.5066 193.669 15.1539 193.657 15.8204L192.138 51.9864C192.082 56.2599 185.807 58.6736 181.272 58.5707C176.65 58.4757 176.524 56.1966 176.429 52.1526C176.318 45.3626 176.318 42.8144 176.318 42.8539C176.318 42.8935 170.485 41.8805 169.275 34.2675C168.673 30.4847 168.863 24.2803 169.188 19.2313C169.472 14.665 172.496 9.06206 177.046 9.54481L191.283 13.106Z" fill="#C47E61"/>
<path d="M172.422 23.5382C172.42 23.7931 172.517 24.0389 172.692 24.2235C172.868 24.4081 173.109 24.5171 173.364 24.5274C173.488 24.5371 173.613 24.5216 173.732 24.482C173.851 24.4424 173.96 24.3794 174.054 24.2967C174.147 24.2141 174.224 24.1135 174.278 24.0008C174.332 23.8882 174.363 23.7659 174.369 23.641C174.369 23.3875 174.271 23.1437 174.095 22.9608C173.92 22.7778 173.68 22.67 173.427 22.6597C173.303 22.6489 173.178 22.6633 173.059 22.702C172.941 22.7407 172.831 22.803 172.737 22.885C172.644 22.967 172.567 23.0672 172.513 23.1794C172.459 23.2916 172.428 23.4137 172.422 23.5382Z" fill="#263238"/>
<path d="M170.541 22.4438C170.659 22.5705 171.403 22.0165 172.448 22.0244C173.492 22.0323 174.268 22.5546 174.387 22.4201C174.505 22.2856 174.316 22.1352 173.983 21.8899C173.52 21.566 172.965 21.3995 172.4 21.4151C171.854 21.4116 171.322 21.5836 170.881 21.9057C170.588 22.1669 170.477 22.3805 170.541 22.4438Z" fill="#263238"/>
<path d="M182.648 23.5375C182.646 23.7924 182.743 24.0382 182.919 24.2229C183.095 24.4075 183.336 24.5165 183.59 24.5268C183.715 24.5364 183.84 24.521 183.959 24.4814C184.077 24.4418 184.186 24.3788 184.28 24.2961C184.374 24.2135 184.45 24.1128 184.504 24.0002C184.558 23.8876 184.589 23.7652 184.595 23.6404C184.598 23.3876 184.501 23.1438 184.327 22.9607C184.153 22.7775 183.914 22.6694 183.661 22.6591C183.537 22.6494 183.412 22.6645 183.294 22.7036C183.175 22.7426 183.066 22.8048 182.971 22.8865C182.877 22.9682 182.8 23.0679 182.745 23.1796C182.689 23.2914 182.656 23.413 182.648 23.5375Z" fill="#263238"/>
<path d="M180.861 22.6234C180.98 22.75 181.724 22.204 182.768 22.2119C183.813 22.2198 184.588 22.7342 184.707 22.6076C184.826 22.481 184.636 22.3227 184.303 22.0774C183.84 21.7535 183.286 21.587 182.721 21.6026C182.175 21.5991 181.642 21.7711 181.201 22.0932C180.908 22.3385 180.798 22.568 180.861 22.6234Z" fill="#263238"/>
<path d="M177.052 30.4244C176.498 30.2485 175.924 30.1448 175.343 30.1158C175.074 30.1158 174.821 30.0366 174.781 29.8546C174.759 29.5794 174.82 29.3038 174.955 29.0633L175.747 27.0215C176.481 25.2903 177.079 23.5042 177.535 21.6797C176.66 23.3447 175.921 25.0783 175.327 26.8632C175.058 27.5834 174.805 28.264 174.536 28.9208C174.369 29.2448 174.318 29.6166 174.393 29.9733C174.432 30.068 174.492 30.1524 174.569 30.2197C174.646 30.287 174.738 30.3354 174.837 30.3611C174.983 30.4028 175.135 30.4241 175.288 30.4244C175.873 30.4992 176.467 30.4992 177.052 30.4244Z" fill="#263238"/>
<path d="M176.312 42.8551C179.907 42.9119 183.447 41.9695 186.537 40.1328C186.537 40.1328 183.965 45.6725 176.344 44.9681L176.312 42.8551Z" fill="#995037"/>
<path d="M185.984 20.8936C185.913 20.6008 184.852 20.6166 183.61 20.3238C182.367 20.031 181.449 19.5878 181.236 19.8252C181.149 19.936 181.291 20.2209 181.655 20.5454C182.153 20.9366 182.732 21.2108 183.35 21.3478C183.967 21.4848 184.608 21.4811 185.224 21.3368C185.755 21.2339 186.016 21.036 185.984 20.8936Z" fill="#263238"/>
<path d="M173.35 19.5868C173.12 19.389 172.455 19.7689 171.609 19.9509C170.762 20.1329 170.026 20.1012 169.875 20.3782C169.828 20.5128 169.986 20.7264 170.35 20.8847C170.823 21.0736 171.344 21.1096 171.838 20.9876C172.34 20.8813 172.796 20.6213 173.144 20.2437C173.397 19.943 173.452 19.6897 173.35 19.5868Z" fill="#263238"/>
<path d="M191.906 25.7303C192.318 25.4344 192.817 25.2852 193.324 25.3067C193.83 25.3283 194.315 25.5192 194.7 25.8491C195.343 26.3255 195.815 26.9976 196.044 27.7645C196.273 28.5315 196.248 29.3521 195.971 30.1034C195.695 30.8546 195.183 31.4962 194.511 31.9319C193.84 32.3677 193.045 32.5741 192.247 32.5204" fill="#C47E61"/>
<path d="M193.024 30.4098C193.024 30.4098 193.325 30.4098 193.736 30.2199C194.014 30.0858 194.256 29.8874 194.442 29.641C194.628 29.3946 194.752 29.1074 194.805 28.8033C194.86 28.4513 194.777 28.0916 194.575 27.7983C194.409 27.5694 194.185 27.389 193.926 27.276C193.491 27.094 193.19 27.1652 193.198 27.1968C193.206 27.2285 193.467 27.2681 193.831 27.4738C194.062 27.5945 194.25 27.7828 194.37 28.0133C194.49 28.2439 194.537 28.5058 194.504 28.7638C194.452 29.0248 194.347 29.2722 194.194 29.4902C194.042 29.7083 193.845 29.8921 193.618 30.03C193.269 30.2674 193.008 30.3623 193.024 30.4098Z" fill="#995037"/>
<path d="M173.877 10.1081C174.764 9.3167 176.695 9.84692 177.565 10.6858C178.358 11.6056 178.944 12.6852 179.283 13.8513C179.622 15.0239 180.329 16.0561 181.301 16.7952C182.519 17.5866 184.189 17.2305 185.416 17.9744C187.473 19.2248 187.062 21.0449 187.909 22.4457C188.755 23.8464 190.322 26.8457 191.929 27.1465C193.757 27.4868 196.028 25.722 197.856 26.0544C199.518 26.363 200.61 28.4839 202.296 28.476C203.981 28.4681 205.358 24.0205 205.129 22.2478C204.947 21.3698 204.581 20.5404 204.054 19.8146C203.527 19.0888 202.853 18.4831 202.074 18.0377C200.579 17.0564 198.909 16.4154 197.326 15.4736C195.743 14.5319 194.319 13.1628 192.768 12.0628C190.015 10.1534 186.833 8.95224 183.505 8.56574C180.177 8.17924 176.805 8.61928 173.688 9.84692" fill="#263238"/>
<path d="M178.339 33.4448C178.284 33.3843 178.245 33.3122 178.223 33.234C178.201 33.1558 178.197 33.0736 178.212 32.9937C178.243 32.8352 178.311 32.6861 178.41 32.5585C178.63 32.2339 178.963 32.0027 179.344 31.9095C179.533 31.8678 179.729 31.875 179.915 31.9304C180.101 31.9858 180.269 32.0876 180.404 32.2261C179.654 32.434 178.961 32.8102 178.378 33.3261" fill="#995037"/>
<path d="M180.851 32.2939C180.851 32.4126 180.194 32.468 179.49 32.8082C178.785 33.1485 178.334 33.5996 178.247 33.5521C178.16 33.5047 178.516 32.8399 179.323 32.46C180.131 32.0802 180.867 32.191 180.851 32.2939Z" fill="#263238"/>
<path d="M186.554 8.18756C186.022 7.86552 185.57 7.4272 185.232 6.90552C184.841 6.3797 184.415 5.88007 183.958 5.40981C183.435 4.84217 182.735 4.4684 181.972 4.34937C181.198 4.27932 180.421 4.4419 179.74 4.81628C179.161 5.12857 178.628 5.52012 178.157 5.9796C177.748 6.43026 177.312 6.85574 176.852 7.25372C177.14 6.70711 177.514 6.21017 177.96 5.78176C178.418 5.27592 178.952 4.84354 179.542 4.49973C180.284 4.0688 181.141 3.87806 181.996 3.95368C182.846 4.08666 183.624 4.51202 184.196 5.15658C184.648 5.65125 185.06 6.18044 185.43 6.73933C186.103 7.66525 186.601 8.14799 186.554 8.18756Z" fill="#263238"/>
<path d="M177.836 0.00464722C177.115 1.18661 176.599 2.48147 176.309 3.83492C176.134 5.20963 176.196 6.60399 176.491 7.958C176.244 7.61242 176.081 7.2141 176.016 6.79468C175.782 5.80354 175.749 4.77548 175.921 3.77161C176.086 2.76595 176.455 1.80461 177.005 0.94639C177.464 0.273718 177.836 -0.0428355 177.836 0.00464722Z" fill="#263238"/>
<path d="M226.547 28.1314C226.619 28.2144 226.678 28.3078 226.721 28.4084C226.852 28.6975 226.94 29.0041 226.983 29.3184C227.051 29.9057 227 30.5008 226.833 31.068C226.666 31.6351 226.386 32.1625 226.009 32.6185C225.433 33.2807 224.712 33.8019 223.903 34.1421C223.093 34.4823 222.216 34.6325 221.34 34.5811C219.198 34.5132 217.13 33.7833 215.421 32.4919C213.701 31.2336 212.366 29.5207 211.566 27.5458C211.01 25.9197 210.669 24.2275 210.554 22.5126C210.451 21.3724 210.285 20.239 210.055 19.1176C209.873 18.3262 209.723 17.9068 209.754 17.8989C209.786 17.8909 209.818 17.9938 209.897 18.1917C210.017 18.4828 210.117 18.7815 210.197 19.0859C210.492 20.2004 210.703 21.3352 210.83 22.4809C210.98 24.1632 211.342 25.8198 211.907 27.4112C212.699 29.3074 213.997 30.9498 215.658 32.1595C217.3 33.4023 219.282 34.1146 221.34 34.2013C222.168 34.2603 222.998 34.1307 223.769 33.8223C224.539 33.5138 225.229 33.0346 225.788 32.4207C226.526 31.5652 226.901 30.4546 226.832 29.3264C226.781 28.9188 226.686 28.518 226.547 28.1314Z" fill="#263238"/>
<path d="M198.135 9.27433C198.135 9.27433 198.27 9.27432 198.389 9.44842C198.452 9.58818 198.462 9.74675 198.415 9.8931C198.368 10.0395 198.269 10.1631 198.135 10.2398C197.692 10.4185 197.201 10.4408 196.743 10.3031C196.117 10.209 195.542 9.90482 195.112 9.44051C194.865 9.13876 194.743 8.75338 194.772 8.36424C194.809 7.95167 194.985 7.56382 195.271 7.26422C195.585 6.94691 195.976 6.71665 196.406 6.59596C196.836 6.47528 197.29 6.46831 197.724 6.57572C198.672 6.73843 199.557 7.16022 200.28 7.79444C200.667 8.14072 200.966 8.57497 201.151 9.06065C201.33 9.56809 201.374 10.1138 201.277 10.6434C201.188 11.1604 200.988 11.6519 200.69 12.0837C200.392 12.5156 200.004 12.8774 199.552 13.1442C198.717 13.6294 197.752 13.8424 196.79 13.7535C195.191 13.5523 193.709 12.8061 192.596 11.6405C191.851 10.8871 191.186 10.0598 190.609 9.17145C190.376 8.86108 190.172 8.52994 190 8.18222C190.268 8.46197 190.511 8.76376 190.728 9.08439C191.348 9.93076 192.036 10.7248 192.786 11.4585C193.871 12.5423 195.29 13.2283 196.814 13.4053C197.699 13.48 198.586 13.2811 199.354 12.8355C199.755 12.5929 200.099 12.2676 200.363 11.8814C200.628 11.4952 200.807 11.0569 200.889 10.5959C200.975 10.1394 200.939 9.66849 200.786 9.22988C200.634 8.79126 200.369 8.40012 200.019 8.09517C199.344 7.50816 198.524 7.11202 197.645 6.94767C197.269 6.84682 196.874 6.84407 196.497 6.93968C196.12 7.03529 195.774 7.22606 195.492 7.49373C195.253 7.74523 195.1 8.06701 195.057 8.41172C195.028 8.72471 195.122 9.03659 195.318 9.28224C195.703 9.699 196.215 9.97715 196.774 10.0736C197.188 10.2084 197.634 10.2084 198.048 10.0736C198.163 10.0156 198.252 9.91726 198.299 9.79753C198.346 9.67781 198.347 9.54505 198.302 9.42468C198.246 9.31389 198.12 9.29016 198.135 9.27433Z" fill="#263238"/>
<path d="M210.996 8.85156C209.351 10.1011 207.844 11.5232 206.501 13.0934C205.255 14.7508 204.194 16.5394 203.336 18.4272C203.424 17.8164 203.608 17.2234 203.882 16.6704C204.467 15.2998 205.233 14.0142 206.161 12.848C207.092 11.6871 208.172 10.6546 209.374 9.77749C209.864 9.38678 210.411 9.07441 210.996 8.85156Z" fill="#455A64"/>
<path d="M206.117 18.5967C207.03 19.3551 208.135 19.8465 209.309 20.0169C210.483 20.1873 211.682 20.0299 212.773 19.5622C210.853 18.5298 208.661 18.1178 206.497 18.383" fill="#455A64"/>
<path d="M200.984 46.156C200.833 43.2581 201.824 40.4166 203.746 38.2422C203.079 39.4819 202.482 40.758 201.957 42.0645C201.562 43.4105 201.237 44.7761 200.984 46.156Z" fill="#455A64"/>
<path d="M205.355 47.6886C204.748 46.9067 204.326 45.9977 204.121 45.0296C203.788 44.0943 203.677 43.0948 203.796 42.1094C203.915 42.1094 204.065 43.3914 204.501 44.9188C204.936 46.4461 205.458 47.6332 205.355 47.6886Z" fill="#455A64"/>
<path d="M205.133 39.125C205.544 41.9027 208.14 44.4114 210.672 45.5827C210.584 44.5664 210.217 43.5942 209.612 42.7733C209.007 41.9585 208.329 41.2009 207.586 40.5099C206.998 39.7719 206.147 39.2898 205.212 39.1646" fill="#455A64"/>
<path d="M162.898 10.4688C163.31 13.2386 165.906 15.7552 168.438 16.9264C168.356 15.91 167.992 14.9368 167.386 14.117C166.783 13.3007 166.104 12.5429 165.36 11.8537C164.77 11.1169 163.92 10.6351 162.985 10.5083" fill="#455A64"/>
<path d="M167.436 18.8387C166.392 18.4322 165.317 18.1093 164.223 17.8732C163.111 17.7587 161.991 17.7296 160.875 17.7861C161.97 17.4004 163.143 17.2946 164.289 17.4785C165.435 17.6623 166.517 18.1299 167.436 18.8387Z" fill="#455A64"/>
<path d="M184.08 29.0808C184.028 29.106 183.969 29.1101 183.914 29.0924C183.86 29.0747 183.814 29.0365 183.787 28.9858C183.756 28.9373 183.744 28.8793 183.753 28.8226C183.761 28.7658 183.79 28.7142 183.834 28.6772C183.887 28.6525 183.947 28.6495 184.002 28.6688C184.057 28.688 184.102 28.728 184.127 28.78C184.144 28.8028 184.156 28.8287 184.163 28.8563C184.17 28.8838 184.171 28.9124 184.166 28.9403C184.162 28.9683 184.152 28.9952 184.137 29.0193C184.122 29.0434 184.103 29.0643 184.08 29.0808Z" fill="#995037"/>
<path d="M184.409 27.1506C184.373 27.1826 184.327 27.2026 184.278 27.2078C184.23 27.213 184.181 27.2032 184.138 27.1796C184.096 27.156 184.061 27.1199 184.04 27.0761C184.018 27.0323 184.011 26.9829 184.019 26.9348C184.026 26.8866 184.048 26.8419 184.082 26.8069C184.116 26.7718 184.16 26.748 184.208 26.7387C184.256 26.7294 184.305 26.7351 184.35 26.755C184.394 26.7749 184.432 26.808 184.457 26.8498C184.474 26.8726 184.486 26.8985 184.492 26.9261C184.499 26.9536 184.5 26.9821 184.496 27.0101C184.492 27.0381 184.482 27.065 184.467 27.0891C184.452 27.1132 184.432 27.1341 184.409 27.1506Z" fill="#995037"/>
<path d="M182.284 26.799C182.248 26.8311 182.202 26.8511 182.153 26.8563C182.105 26.8615 182.056 26.8516 182.013 26.828C181.971 26.8045 181.936 26.7683 181.915 26.7245C181.893 26.6807 181.886 26.6314 181.894 26.5832C181.901 26.535 181.923 26.4904 181.957 26.4553C181.991 26.4202 182.035 26.3964 182.083 26.3871C182.131 26.3779 182.18 26.3836 182.225 26.4034C182.269 26.4233 182.307 26.4564 182.332 26.4983C182.349 26.5211 182.361 26.547 182.367 26.5745C182.374 26.602 182.375 26.6306 182.371 26.6586C182.367 26.6866 182.357 26.7134 182.342 26.7375C182.327 26.7616 182.307 26.7825 182.284 26.799Z" fill="#995037"/>
<path d="M172.457 28.0828C172.406 28.108 172.346 28.1122 172.292 28.0945C172.237 28.0767 172.192 28.0385 172.165 27.9878C172.132 27.9399 172.119 27.8814 172.128 27.8242C172.136 27.767 172.167 27.7152 172.212 27.6792C172.265 27.654 172.326 27.6494 172.382 27.6662C172.438 27.683 172.486 27.7202 172.517 27.7703C172.547 27.8205 172.558 27.8803 172.547 27.938C172.536 27.9957 172.504 28.0473 172.457 28.0828Z" fill="#995037"/>
<path d="M173.944 27.1506C173.918 27.1626 173.891 27.1695 173.863 27.1709C173.835 27.1722 173.807 27.168 173.78 27.1584C173.754 27.1488 173.729 27.1341 173.708 27.1151C173.688 27.0962 173.671 27.0733 173.659 27.0477C173.642 27.025 173.63 26.9991 173.623 26.9715C173.617 26.944 173.615 26.9154 173.62 26.8875C173.624 26.8595 173.634 26.8326 173.649 26.8085C173.664 26.7844 173.683 26.7635 173.706 26.747C173.732 26.735 173.76 26.7281 173.788 26.7268C173.816 26.7255 173.844 26.7297 173.87 26.7393C173.897 26.7488 173.921 26.7635 173.942 26.7825C173.963 26.8015 173.979 26.8244 173.991 26.8499C174.008 26.8727 174.02 26.8986 174.027 26.9261C174.034 26.9536 174.035 26.9822 174.031 27.0102C174.026 27.0382 174.016 27.065 174.001 27.0891C173.986 27.1132 173.967 27.1341 173.944 27.1506Z" fill="#995037"/>
<path d="M186.163 26.8015C186.11 26.8262 186.05 26.8292 185.995 26.8099C185.941 26.7907 185.896 26.7507 185.87 26.6987C185.853 26.6759 185.841 26.65 185.834 26.6224C185.828 26.5949 185.826 26.5663 185.831 26.5384C185.835 26.5104 185.845 26.4835 185.86 26.4594C185.875 26.4353 185.894 26.4144 185.917 26.3979C185.97 26.3727 186.031 26.3681 186.087 26.385C186.144 26.4018 186.192 26.4389 186.222 26.4891C186.253 26.5393 186.263 26.599 186.252 26.6567C186.242 26.7144 186.21 26.766 186.163 26.8015Z" fill="#995037"/>
<path d="M171.303 27.2078C171.251 27.2324 171.191 27.2354 171.136 27.2162C171.081 27.1969 171.036 27.157 171.011 27.1049C170.994 27.0821 170.982 27.0562 170.975 27.0287C170.968 27.0012 170.967 26.9726 170.971 26.9446C170.976 26.9166 170.986 26.8898 171.001 26.8657C171.015 26.8416 171.035 26.8207 171.058 26.8042C171.111 26.779 171.172 26.7744 171.228 26.7912C171.284 26.808 171.332 26.8452 171.363 26.8953C171.393 26.9455 171.404 27.0053 171.393 27.063C171.382 27.1207 171.35 27.1723 171.303 27.2078Z" fill="#995037"/>
<path d="M185.386 28.5021C185.349 28.5342 185.303 28.5542 185.255 28.5594C185.206 28.5646 185.158 28.5547 185.115 28.5312C185.072 28.5076 185.038 28.4715 185.016 28.4276C184.995 28.3838 184.987 28.3345 184.995 28.2863C185.003 28.2382 185.025 28.1935 185.059 28.1584C185.093 28.1233 185.137 28.0995 185.184 28.0903C185.232 28.081 185.282 28.0867 185.326 28.1066C185.371 28.1265 185.408 28.1596 185.433 28.2014C185.45 28.2242 185.462 28.2501 185.469 28.2776C185.476 28.3051 185.477 28.3337 185.473 28.3617C185.468 28.3897 185.458 28.4165 185.443 28.4406C185.428 28.4647 185.409 28.4856 185.386 28.5021Z" fill="#995037"/>
</svg>
