<svg width="517" height="370" viewBox="0 0 517 370" fill="none" xmlns="http://www.w3.org/2000/svg">
<path d="M193.842 7.12696C95.0749 -21.0408 -0.000349794 34.8327 0 165.052C0.000419406 321.185 96.9211 379.774 267.225 368.692C404.567 359.754 487.671 343.961 512.297 265.255C528.912 212.152 504.511 101.309 390.453 91.6301C287.071 82.8567 295.756 36.192 193.842 7.12696Z" fill="#E5F1FF"/>
<g clip-path="url(#clip0_1258_16574)">
<path d="M233.136 307.046H64.9848C62.8679 307.044 60.8383 306.203 59.3413 304.709C57.8444 303.214 57.0024 301.188 57 299.074V71.1796C57.0024 69.0662 57.8444 67.0399 59.3413 65.5455C60.8383 64.051 62.8679 63.2104 64.9848 63.208H233.136C235.253 63.2104 237.283 64.051 238.78 65.5455C240.277 67.0399 241.119 69.0662 241.121 71.1796V299.074C241.119 301.188 240.277 303.214 238.78 304.709C237.283 306.203 235.253 307.044 233.136 307.046Z" fill="white"/>
<path d="M141.48 122.519C141.48 129.101 139.394 135.514 135.522 140.84C131.649 146.167 126.187 150.134 119.919 152.173C119.732 152.233 119.544 152.292 119.354 152.349C118.542 152.598 117.719 152.811 116.881 152.992C115.365 153.321 113.827 153.534 112.279 153.63C111.606 153.675 110.929 153.698 110.249 153.698C106.733 153.702 103.241 153.111 99.9227 151.952C99.8262 151.918 99.7297 151.884 99.636 151.85C94.2588 149.911 89.5178 146.536 85.9296 142.093C82.3414 137.649 80.0436 132.308 79.2867 126.65C78.5298 120.993 79.3427 115.236 81.637 110.008C83.9312 104.781 87.6187 100.282 92.2977 97.0017C96.9767 93.7219 102.468 91.7871 108.172 91.4082C113.877 91.0292 119.576 92.2207 124.649 94.8527C129.722 97.4847 133.974 101.456 136.942 106.335C139.91 111.213 141.479 116.811 141.48 122.519V122.519Z" fill="white"/>
<path d="M109.502 143.176C117.894 143.176 124.697 136.384 124.697 128.006C124.697 119.628 117.894 112.836 109.502 112.836C101.11 112.836 94.3066 119.628 94.3066 128.006C94.3066 136.384 101.11 143.176 109.502 143.176Z" fill="#0075FF"/>
<path d="M110.388 136.18L110.403 135.613C109.347 135.584 108.416 135.517 107.716 135.007C107.517 134.854 107.354 134.66 107.238 134.439C107.121 134.217 107.054 133.973 107.04 133.723C107.027 133.571 107.051 133.417 107.107 133.275C107.164 133.133 107.253 133.005 107.367 132.903C107.631 132.743 107.934 132.657 108.243 132.654C108.553 132.652 108.857 132.732 109.124 132.888L109.594 133.103L108.693 126.529L108.13 126.606L108.897 132.198C108.583 132.082 108.245 132.046 107.914 132.093C107.583 132.141 107.269 132.27 107.001 132.47C106.82 132.627 106.679 132.824 106.587 133.045C106.495 133.266 106.456 133.505 106.472 133.743C106.489 134.079 106.579 134.407 106.736 134.705C106.893 135.002 107.113 135.261 107.381 135.465C108.28 136.121 109.449 136.154 110.388 136.18Z" fill="#2F2E41"/>
<path d="M105.349 127.088H102.291V127.655H105.349V127.088Z" fill="#2F2E41"/>
<path d="M115.002 127.088H111.943V127.655H115.002V127.088Z" fill="#2F2E41"/>
<path d="M113.818 149.214C113.859 149.027 113.88 148.837 113.881 148.647C113.88 147.933 113.595 147.249 113.09 146.744C112.584 146.239 111.899 145.955 111.184 145.954H107.209C106.494 145.955 105.808 146.239 105.302 146.744C104.797 147.248 104.512 147.933 104.512 148.647C104.511 148.838 104.532 149.03 104.574 149.217C103.073 149.689 101.655 150.389 100.369 151.294C100.119 151.467 99.8724 151.654 99.6367 151.85C99.7304 151.884 99.8269 151.918 99.9234 151.952C103.242 153.111 106.734 153.701 110.25 153.698C110.931 153.698 111.608 153.675 112.28 153.63C113.828 153.534 115.366 153.32 116.882 152.992C117.719 152.811 118.543 152.598 119.355 152.349C117.748 150.93 115.863 149.862 113.818 149.214Z" fill="#2F2E41"/>
<path d="M113.307 153.27C112.939 153.297 112.584 153.421 112.279 153.63C113.827 153.534 115.366 153.321 116.882 152.992L113.307 153.27Z" fill="#2F2E41"/>
<path d="M123.106 120.222L95.0037 120.286C94.7026 120.287 94.4136 120.168 94.2004 119.956C93.9872 119.744 93.8672 119.456 93.8668 119.155L93.8051 118.728C93.7976 112.737 98.9881 107.055 104.987 107.041L113.635 107.022C119.635 107.008 124.233 112.415 124.241 118.406L124.24 119.086C124.241 119.386 124.121 119.675 123.909 119.888C123.696 120.101 123.407 120.221 123.106 120.222Z" fill="#E6F1FF"/>
<path d="M110.249 154.548C106.637 154.552 103.05 153.946 99.6411 152.754L99.3448 152.649C92.2036 150.072 86.2093 145.051 82.4278 138.477C78.6462 131.904 77.3227 124.204 78.6924 116.748C80.0622 109.292 84.0365 102.562 89.9086 97.756C95.7806 92.95 103.17 90.379 110.762 90.5002C118.354 90.6214 125.657 93.427 131.372 98.4181C137.087 103.409 140.844 110.262 141.974 117.758C143.105 125.254 141.535 132.908 137.545 139.357C133.555 145.807 127.403 150.634 120.183 152.982C119.981 153.046 119.791 153.106 119.598 153.163C118.791 153.411 117.936 153.634 117.062 153.823C115.504 154.16 113.922 154.379 112.331 154.478C111.648 154.525 110.945 154.548 110.249 154.548ZM110.249 92.1894C103.1 92.1905 96.1807 94.7079 90.7075 99.2991C85.2343 103.89 81.5579 110.261 80.3249 117.291C79.092 124.321 80.3813 131.56 83.9663 137.734C87.5513 143.909 93.2022 148.624 99.9253 151.05L100.207 151.15C103.434 152.278 106.83 152.851 110.249 152.847C110.907 152.847 111.571 152.825 112.221 152.781C113.728 152.688 115.226 152.48 116.701 152.161C117.528 151.982 118.336 151.772 119.104 151.536C119.294 151.479 119.474 151.422 119.654 151.365C126.531 149.129 132.383 144.517 136.159 138.359C139.935 132.201 141.386 124.9 140.253 117.769C139.119 110.638 135.475 104.144 129.976 99.4556C124.476 94.7669 117.481 92.1904 110.249 92.1894Z" fill="#CCCCCC"/>
<path d="M233.136 307.046H64.9848C62.8679 307.044 60.8383 306.203 59.3413 304.709C57.8444 303.214 57.0024 301.188 57 299.074V71.1796C57.0024 69.0662 57.8444 67.0399 59.3413 65.5455C60.8383 64.051 62.8679 63.2104 64.9848 63.208H233.136C235.253 63.2104 237.283 64.051 238.78 65.5455C240.277 67.0399 241.119 69.0662 241.121 71.1796V299.074C241.119 301.188 240.277 303.214 238.78 304.709C237.283 306.203 235.253 307.044 233.136 307.046ZM64.9848 64.1458C63.1169 64.148 61.3261 64.8897 60.0053 66.2083C58.6845 67.527 57.9415 69.3148 57.9394 71.1796V299.074C57.9415 300.939 58.6845 302.727 60.0053 304.046C61.3261 305.364 63.1169 306.106 64.9848 306.108H233.136C235.004 306.106 236.795 305.364 238.116 304.046C239.437 302.727 240.18 300.939 240.182 299.074V71.1796C240.18 69.3148 239.437 67.527 238.116 66.2083C236.795 64.8897 235.004 64.148 233.136 64.1458H64.9848Z" fill="#CCCCCC"/>
<path d="M200.585 122.397H153.004C152.006 122.396 151.05 122 150.345 121.295C149.64 120.59 149.244 119.635 149.244 118.639C149.244 117.643 149.64 116.688 150.345 115.984C151.05 115.279 152.006 114.883 153.004 114.881H200.585C201.079 114.881 201.569 114.977 202.027 115.166C202.484 115.355 202.899 115.631 203.249 115.98C203.6 116.329 203.877 116.744 204.067 117.2C204.256 117.656 204.354 118.145 204.354 118.639C204.354 119.133 204.256 119.622 204.067 120.079C203.877 120.535 203.6 120.949 203.249 121.298C202.899 121.647 202.484 121.924 202.027 122.113C201.569 122.301 201.079 122.398 200.585 122.397Z" fill="#E6E6E6"/>
<path d="M216.112 135.08H153.004C152.006 135.079 151.05 134.683 150.345 133.978C149.64 133.273 149.244 132.318 149.244 131.322C149.244 130.327 149.64 129.371 150.345 128.667C151.05 127.962 152.006 127.566 153.004 127.564H216.112C217.11 127.566 218.066 127.962 218.771 128.667C219.476 129.371 219.872 130.327 219.872 131.322C219.872 132.318 219.476 133.273 218.771 133.978C218.066 134.683 217.11 135.079 216.112 135.08Z" fill="#E6E6E6"/>
<path d="M200.514 183.725H82.0091C81.5144 183.726 81.0244 183.629 80.5672 183.441C80.1099 183.252 79.6944 182.975 79.3444 182.626C78.9943 182.277 78.7167 181.863 78.5272 181.407C78.3377 180.95 78.2402 180.461 78.2402 179.967C78.2402 179.474 78.3377 178.984 78.5272 178.528C78.7167 178.072 78.9943 177.658 79.3444 177.309C79.6944 176.959 80.1099 176.683 80.5672 176.494C81.0244 176.306 81.5144 176.209 82.0091 176.209H200.514C201.512 176.211 202.468 176.607 203.173 177.312C203.878 178.016 204.274 178.972 204.274 179.967C204.274 180.963 203.878 181.918 203.173 182.623C202.468 183.328 201.512 183.724 200.514 183.725Z" fill="#E6E6E6"/>
<path d="M216.042 196.409H82.0091C81.5144 196.409 81.0244 196.312 80.5672 196.124C80.1099 195.935 79.6944 195.659 79.3444 195.31C78.9943 194.96 78.7167 194.546 78.5272 194.09C78.3377 193.634 78.2402 193.144 78.2402 192.651C78.2402 192.157 78.3377 191.668 78.5272 191.211C78.7167 190.755 78.9943 190.341 79.3444 189.992C79.6944 189.643 80.1099 189.366 80.5672 189.177C81.0244 188.989 81.5144 188.892 82.0091 188.893H216.042C216.536 188.892 217.026 188.989 217.484 189.177C217.941 189.366 218.356 189.643 218.706 189.992C219.056 190.341 219.334 190.755 219.524 191.211C219.713 191.668 219.811 192.157 219.811 192.651C219.811 193.144 219.713 193.634 219.524 194.09C219.334 194.546 219.056 194.96 218.706 195.31C218.356 195.659 217.941 195.935 217.484 196.124C217.026 196.312 216.536 196.409 216.042 196.409Z" fill="#E6E6E6"/>
<path d="M200.516 225.559H82.0103C81.012 225.559 80.0545 225.163 79.3486 224.459C78.6427 223.754 78.2461 222.798 78.2461 221.801C78.2461 220.805 78.6427 219.849 79.3486 219.144C80.0545 218.439 81.012 218.043 82.0103 218.043H200.516C201.514 218.043 202.471 218.439 203.177 219.144C203.883 219.849 204.28 220.805 204.28 221.801C204.28 222.798 203.883 223.754 203.177 224.459C202.471 225.163 201.514 225.559 200.516 225.559Z" fill="#E6E6E6"/>
<path d="M216.043 238.243H82.0103C81.012 238.243 80.0545 237.847 79.3486 237.142C78.6427 236.437 78.2461 235.481 78.2461 234.485C78.2461 233.488 78.6427 232.532 79.3486 231.827C80.0545 231.123 81.012 230.727 82.0103 230.727H216.043C217.041 230.727 217.999 231.123 218.705 231.827C219.411 232.532 219.807 233.488 219.807 234.485C219.807 235.481 219.411 236.437 218.705 237.142C217.999 237.847 217.041 238.243 216.043 238.243Z" fill="#E6E6E6"/>
<path d="M200.516 267.393H82.0103C81.012 267.393 80.0545 266.997 79.3486 266.293C78.6427 265.588 78.2461 264.632 78.2461 263.635C78.2461 262.639 78.6427 261.683 79.3486 260.978C80.0545 260.273 81.012 259.877 82.0103 259.877H200.516C201.514 259.877 202.471 260.273 203.177 260.978C203.883 261.683 204.28 262.639 204.28 263.635C204.28 264.632 203.883 265.588 203.177 266.293C202.471 266.997 201.514 267.393 200.516 267.393Z" fill="#E6E6E6"/>
<path d="M216.043 280.076H82.0103C81.012 280.076 80.0545 279.681 79.3486 278.976C78.6427 278.271 78.2461 277.315 78.2461 276.318C78.2461 275.322 78.6427 274.366 79.3486 273.661C80.0545 272.956 81.012 272.561 82.0103 272.561H216.043C217.041 272.561 217.999 272.956 218.705 273.661C219.411 274.366 219.807 275.322 219.807 276.318C219.807 277.315 219.411 278.271 218.705 278.976C217.999 279.681 217.041 280.076 216.043 280.076Z" fill="#E6E6E6"/>
<path d="M452.015 249.838L283.864 249.838C281.747 249.836 279.717 248.995 278.22 247.501C276.724 246.006 275.881 243.98 275.879 241.867L275.879 13.9718C275.881 11.8583 276.723 9.83206 278.22 8.33761C279.717 6.84315 281.747 6.00251 283.864 6.00013L452.015 6C454.132 6.00238 456.162 6.843 457.659 8.33746C459.156 9.83191 459.998 11.8581 460 13.9716L460 241.866C459.998 243.98 459.156 246.006 457.659 247.501C456.162 248.995 454.132 249.836 452.015 249.838Z" fill="white"/>
<path d="M452.015 249.838L283.864 249.838C281.747 249.836 279.717 248.995 278.22 247.501C276.724 246.006 275.881 243.98 275.879 241.867L275.879 13.9718C275.881 11.8583 276.723 9.83206 278.22 8.33761C279.717 6.84315 281.747 6.00251 283.864 6.00013L452.015 6C454.132 6.00238 456.162 6.843 457.659 8.33746C459.156 9.83191 459.998 11.8581 460 13.9716L460 241.866C459.998 243.98 459.156 246.006 457.659 247.501C456.162 248.995 454.132 249.836 452.015 249.838ZM283.864 6.93797C281.996 6.94009 280.205 7.68183 278.884 9.00046C277.563 10.3191 276.82 12.1069 276.818 13.9718L276.818 241.867C276.821 243.731 277.564 245.519 278.884 246.838C280.205 248.157 281.996 248.898 283.864 248.9L452.015 248.9C453.883 248.898 455.674 248.156 456.995 246.838C458.316 245.519 459.059 243.731 459.061 241.867L459.061 13.9716C459.059 12.1068 458.316 10.319 456.995 9.00032C455.674 7.68169 453.883 6.93995 452.015 6.93784L283.864 6.93797Z" fill="#CCCCCC"/>
<path d="M360.439 64.9996C360.439 71.1663 358.607 77.1946 355.175 82.322C351.744 87.4494 346.866 91.4457 341.159 93.8056C335.453 96.1655 329.173 96.783 323.115 95.5799C317.057 94.3769 311.492 91.4073 307.124 87.0468C302.756 82.6863 299.782 77.1307 298.577 71.0825C297.372 65.0343 297.99 58.7652 300.354 53.0679C302.718 47.3706 306.721 42.501 311.857 39.075C316.992 35.649 323.031 33.8203 329.208 33.8203C337.49 33.8229 345.432 37.1087 351.288 42.9554C357.145 48.8021 360.436 56.7312 360.439 64.9996Z" fill="white"/>
<path d="M343.642 70.3349C343.301 90.2758 313.59 90.2727 313.252 70.3343C313.593 50.3941 343.304 50.3972 343.642 70.3349Z" fill="#0075FF"/>
<path d="M327.844 76.5241L327.828 75.9572C331.742 76.4789 332.585 71.6365 328.638 73.4468L329.539 66.8735L330.101 66.9505L329.335 72.5419C333.491 71.9244 331.953 77.0906 327.844 76.5241Z" fill="#2F2E41"/>
<path d="M335.941 67.4326H332.883V67.9995H335.941V67.4326Z" fill="#2F2E41"/>
<path d="M326.287 67.4326H323.229V67.9995H326.287V67.4326Z" fill="#2F2E41"/>
<path d="M333.372 91.5447C333.968 87.5282 329.258 88.3219 326.765 88.2822C326.363 88.2834 325.967 88.3742 325.604 88.5478C325.242 88.7214 324.923 88.9736 324.671 89.2858C324.418 89.5981 324.239 89.9627 324.145 90.3529C324.052 90.7432 324.047 91.1494 324.131 91.5419C322.201 92.1373 320.414 93.1212 318.881 94.433C325.344 96.6829 332.366 96.7605 338.877 94.6541C337.29 93.2311 335.411 92.17 333.372 91.5447Z" fill="#2F2E41"/>
<path d="M321.302 63.1599C324.118 61.5351 327.533 62.7816 330.442 63.4631C335.961 65.1568 343.7 63.0359 344.372 56.4725C345.07 50.3685 336.706 46.9665 334.033 53.0418L334.811 52.9402C326.141 40.0767 311.06 40.5646 311.159 58.2496C311.127 58.796 311.979 58.7941 312.011 58.2493C311.691 47.8278 318.6 40.7039 328.366 47.4012C330.547 49.1059 332.47 51.116 334.076 53.3694C335.093 54.5073 335.314 49.6068 340.181 50.8903C345.539 52.9623 343.791 60.6207 339.002 62.3019C333.086 65.3196 326.678 59.4687 320.872 62.4253C320.779 62.4842 320.712 62.577 320.686 62.6842C320.66 62.7915 320.676 62.9046 320.732 62.9999C320.788 63.0952 320.878 63.1651 320.985 63.195C321.091 63.2248 321.205 63.2122 321.302 63.1599Z" fill="#2F2E41"/>
<path d="M329.207 97.0295C321.141 97.0227 313.375 93.981 307.457 88.5111C301.538 83.0412 297.903 75.5451 297.275 67.5177C296.647 59.4904 299.074 51.5217 304.07 45.2011C309.066 38.8805 316.265 34.6723 324.232 33.416C332.198 32.1597 340.346 33.9474 347.051 38.4228C353.755 42.8981 358.524 49.7321 360.405 57.5618C362.286 65.3915 361.142 73.6414 357.201 80.6662C353.259 87.6911 346.811 92.9745 339.14 95.4629C335.932 96.5044 332.58 97.0332 329.207 97.0295ZM329.207 34.6708C323.197 34.6699 317.322 36.4483 312.325 39.7811C307.327 43.1138 303.432 47.8512 301.132 53.394C298.832 58.9369 298.23 65.0363 299.402 70.9208C300.574 76.8053 303.468 82.2105 307.718 86.453C311.967 90.6954 317.382 93.5845 323.276 94.7548C329.17 95.925 335.28 95.324 340.832 93.0276C346.384 90.7312 351.129 86.8426 354.467 81.8537C357.805 76.8647 359.587 70.9995 359.586 64.9997C359.577 56.9588 356.373 49.2498 350.678 43.5639C344.983 37.8781 337.261 34.6798 329.207 34.6708Z" fill="#CCCCCC"/>
<path d="M419.462 65.1888L371.881 65.1888C370.883 65.1888 369.926 64.7929 369.22 64.0882C368.514 63.3834 368.117 62.4275 368.117 61.4309C368.117 60.4342 368.514 59.4783 369.22 58.7736C369.926 58.0688 370.883 57.6729 371.881 57.6729L419.462 57.6729C420.461 57.6729 421.418 58.0688 422.124 58.7735C422.83 59.4783 423.227 60.4341 423.227 61.4308C423.227 62.4275 422.83 63.3834 422.124 64.0881C421.418 64.7929 420.461 65.1888 419.462 65.1888Z" fill="#E6E6E6"/>
<path d="M434.991 77.8719L371.882 77.872C371.387 77.8726 370.897 77.7758 370.44 77.5872C369.983 77.3987 369.567 77.1219 369.217 76.7729C368.867 76.4239 368.59 76.0094 368.4 75.5532C368.211 75.0969 368.113 74.6079 368.113 74.114C368.113 73.6201 368.211 73.131 368.4 72.6748C368.59 72.2186 368.867 71.8041 369.217 71.455C369.567 71.106 369.983 70.8293 370.44 70.6407C370.897 70.4521 371.387 70.3554 371.882 70.356L434.991 70.356C435.989 70.356 436.946 70.7519 437.652 71.4566C438.358 72.1614 438.755 73.1173 438.755 74.1139C438.755 75.1106 438.358 76.0665 437.652 76.7712C436.946 77.476 435.989 77.8719 434.991 77.8719Z" fill="#E6E6E6"/>
<path d="M419.394 126.517L300.888 126.518C299.891 126.516 298.935 126.12 298.23 125.415C297.525 124.711 297.129 123.755 297.129 122.76C297.129 121.764 297.525 120.809 298.23 120.104C298.935 119.399 299.891 119.003 300.888 119.002L419.394 119.001C420.392 119.001 421.35 119.397 422.055 120.102C422.761 120.807 423.158 121.763 423.158 122.759C423.158 123.756 422.761 124.712 422.055 125.417C421.35 126.122 420.392 126.517 419.394 126.517Z" fill="#E6E6E6"/>
<path d="M434.921 139.201L300.888 139.201C300.393 139.201 299.903 139.104 299.446 138.916C298.989 138.727 298.573 138.451 298.223 138.102C297.873 137.753 297.596 137.338 297.406 136.882C297.217 136.426 297.119 135.937 297.119 135.443C297.119 134.949 297.217 134.46 297.406 134.003C297.596 133.547 297.873 133.133 298.223 132.784C298.573 132.435 298.989 132.158 299.446 131.969C299.903 131.781 300.393 131.684 300.888 131.685L434.921 131.685C435.919 131.685 436.876 132.08 437.582 132.785C438.288 133.49 438.685 134.446 438.685 135.443C438.685 136.439 438.288 137.395 437.582 138.1C436.876 138.805 435.919 139.201 434.921 139.201Z" fill="#E6E6E6"/>
<path d="M419.394 168.351L300.888 168.351C299.891 168.35 298.935 167.954 298.23 167.249C297.525 166.545 297.129 165.589 297.129 164.594C297.129 163.598 297.525 162.642 298.23 161.938C298.935 161.233 299.891 160.837 300.888 160.836L419.394 160.835C420.392 160.835 421.35 161.231 422.055 161.936C422.761 162.641 423.158 163.597 423.158 164.593C423.158 165.59 422.761 166.546 422.055 167.251C421.35 167.955 420.392 168.351 419.394 168.351Z" fill="#E6E6E6"/>
<path d="M434.921 181.034L300.888 181.035C300.393 181.035 299.903 180.938 299.446 180.75C298.989 180.561 298.573 180.285 298.223 179.936C297.873 179.587 297.596 179.172 297.406 178.716C297.217 178.26 297.119 177.771 297.119 177.277C297.119 176.783 297.217 176.294 297.406 175.837C297.596 175.381 297.873 174.967 298.223 174.618C298.573 174.269 298.989 173.992 299.446 173.803C299.903 173.615 300.393 173.518 300.888 173.519L434.921 173.519C435.919 173.519 436.876 173.914 437.582 174.619C438.288 175.324 438.685 176.28 438.685 177.277C438.685 178.273 438.288 179.229 437.582 179.934C436.876 180.639 435.919 181.034 434.921 181.034Z" fill="#E6E6E6"/>
<path d="M419.395 210.185L300.889 210.185C299.891 210.185 298.933 209.789 298.227 209.084C297.522 208.38 297.125 207.424 297.125 206.427C297.125 205.43 297.522 204.474 298.227 203.77C298.933 203.065 299.891 202.669 300.889 202.669L419.395 202.669C420.393 202.669 421.35 203.065 422.056 203.77C422.762 204.474 423.159 205.43 423.159 206.427C423.159 207.424 422.762 208.379 422.056 209.084C421.35 209.789 420.393 210.185 419.395 210.185Z" fill="#E6E6E6"/>
<path d="M434.922 222.868L300.889 222.869C299.891 222.869 298.933 222.473 298.228 221.768C297.522 221.063 297.125 220.107 297.125 219.111C297.125 218.114 297.522 217.158 298.228 216.453C298.933 215.749 299.891 215.353 300.889 215.353L434.922 215.353C435.92 215.353 436.878 215.748 437.584 216.453C438.289 217.158 438.686 218.114 438.686 219.11C438.686 220.107 438.289 221.063 437.584 221.768C436.878 222.473 435.92 222.868 434.922 222.868Z" fill="#E6E6E6"/>
<path d="M350.56 347.842H182.409C180.292 347.84 178.262 346.999 176.765 345.505C175.268 344.011 174.426 341.984 174.424 339.871V111.976C174.426 109.863 175.268 107.836 176.765 106.342C178.262 104.847 180.292 104.007 182.409 104.004H350.56C352.677 104.007 354.707 104.847 356.204 106.342C357.701 107.836 358.543 109.863 358.545 111.976V339.871C358.543 341.984 357.701 344.011 356.204 345.505C354.707 346.999 352.677 347.84 350.56 347.842Z" fill="white"/>
<path d="M196.434 162.673C196.428 166.777 197.237 170.842 198.813 174.632C200.389 178.422 202.701 181.863 205.616 184.757C205.86 184.998 206.11 185.239 206.362 185.474C207.884 186.894 209.545 188.158 211.32 189.247C211.66 189.457 212.001 189.658 212.35 189.853C214.145 190.863 216.035 191.692 217.994 192.328C218.332 192.438 218.676 192.543 219.019 192.64C225.246 194.423 231.874 194.236 237.991 192.107C238.11 192.064 238.229 192.022 238.346 191.979C243.715 190.029 248.446 186.645 252.023 182.197C255.601 177.749 257.887 172.406 258.633 166.75C259.38 161.095 258.558 155.343 256.258 150.121C253.957 144.9 250.265 140.408 245.585 137.135C240.905 133.863 235.415 131.935 229.714 131.561C224.012 131.187 218.317 132.382 213.248 135.016C208.179 137.649 203.932 141.621 200.967 146.497C198.002 151.374 196.434 156.969 196.434 162.673Z" fill="white"/>
<path d="M221.069 177.956C221.084 180.371 220.192 182.705 218.569 184.496C216.963 186.256 214.573 187.423 212.16 186.94C209.939 186.495 208.134 184.557 208.359 182.212C208.396 181.704 208.544 181.211 208.792 180.766C209.04 180.321 209.383 179.935 209.795 179.636C210.208 179.336 210.681 179.13 211.181 179.032C211.682 178.934 212.198 178.946 212.693 179.067C214.804 179.614 215.644 182.65 213.886 184.075C213.464 184.417 212.858 183.819 213.284 183.474C213.546 183.234 213.745 182.933 213.86 182.597C213.976 182.261 214.005 181.901 213.945 181.551C213.886 181.201 213.739 180.871 213.518 180.592C213.298 180.313 213.011 180.094 212.684 179.954C212.298 179.831 211.889 179.797 211.487 179.854C211.086 179.912 210.703 180.06 210.368 180.288C210.032 180.515 209.753 180.816 209.551 181.167C209.349 181.518 209.23 181.91 209.202 182.314C209.063 184.291 210.58 185.779 212.44 186.13C214.452 186.509 216.448 185.481 217.811 184.062C219.374 182.414 220.236 180.225 220.217 177.956C220.221 177.845 220.267 177.741 220.347 177.664C220.426 177.587 220.532 177.544 220.643 177.544C220.754 177.544 220.86 177.587 220.939 177.664C221.019 177.741 221.065 177.845 221.069 177.956V177.956Z" fill="#2F2E41"/>
<path d="M229.386 183.361C237.779 183.361 244.582 176.57 244.582 168.191C244.582 159.813 237.779 153.021 229.386 153.021C220.994 153.021 214.191 159.813 214.191 168.191C214.191 176.57 220.994 183.361 229.386 183.361Z" fill="#0075FF"/>
<path d="M228.61 174.664L228.594 174.097C229.65 174.068 230.581 174.002 231.281 173.491C231.48 173.338 231.643 173.145 231.759 172.923C231.876 172.702 231.944 172.458 231.957 172.208C231.97 172.055 231.947 171.902 231.89 171.759C231.833 171.617 231.744 171.49 231.63 171.387C231.366 171.227 231.063 171.141 230.754 171.139C230.445 171.136 230.14 171.217 229.873 171.372L229.403 171.587L230.304 165.014L230.867 165.091L230.101 170.682C230.414 170.566 230.752 170.53 231.083 170.577C231.414 170.625 231.728 170.755 231.997 170.954C232.177 171.112 232.319 171.308 232.41 171.529C232.502 171.75 232.541 171.989 232.525 172.228C232.508 172.563 232.418 172.892 232.261 173.189C232.104 173.486 231.884 173.746 231.616 173.949C230.717 174.605 229.548 174.638 228.61 174.664Z" fill="#2F2E41"/>
<path d="M236.707 165.573H233.648V166.14H236.707V165.573Z" fill="#2F2E41"/>
<path d="M227.052 165.573H223.994V166.14H227.052V165.573Z" fill="#2F2E41"/>
<path d="M219.02 192.64C225.247 194.423 231.874 194.237 237.991 192.107C238.11 192.064 238.23 192.022 238.346 191.979C236.905 190.869 235.274 190.028 233.534 189.496C233.657 189.06 233.655 188.599 233.528 188.164C233.356 187.613 233.01 187.132 232.542 186.793C232.073 186.454 231.508 186.275 230.93 186.282H227.228C226.65 186.274 226.086 186.453 225.619 186.792C225.152 187.13 224.807 187.611 224.636 188.161C224.509 188.597 224.507 189.059 224.63 189.496C223.097 189.965 221.648 190.674 220.337 191.597C220.073 191.781 219.817 191.974 219.57 192.175C219.383 192.325 219.199 192.481 219.02 192.64Z" fill="#2F2E41"/>
<path d="M241.289 166.582C241.289 169.139 242.55 171.259 244.188 171.627C244.355 171.665 244.525 171.684 244.696 171.684C246.573 171.684 248.103 169.397 248.103 166.582C248.146 165.131 247.682 163.71 246.791 162.563C246.514 162.228 246.174 161.952 245.789 161.749C245.452 161.573 245.077 161.481 244.696 161.48C244.173 161.486 243.666 161.657 243.245 161.968C242.09 162.784 241.289 164.544 241.289 166.582Z" fill="#3F3D56"/>
<path d="M210.911 166.582C210.911 168.782 211.842 170.658 213.148 171.375C213.506 171.575 213.908 171.681 214.318 171.684C214.409 171.684 214.5 171.678 214.59 171.667C216.339 171.46 217.725 169.261 217.725 166.582C217.725 164.436 216.836 162.597 215.581 161.846C215.202 161.61 214.765 161.484 214.318 161.48C213.937 161.481 213.562 161.573 213.225 161.749C212.839 161.953 212.497 162.23 212.22 162.566C211.332 163.713 210.869 165.132 210.911 166.582Z" fill="#3F3D56"/>
<path d="M213.36 170.886C213.428 170.886 213.494 170.87 213.554 170.839C213.615 170.809 213.667 170.764 213.706 170.709C213.745 170.654 213.771 170.591 213.781 170.524C213.791 170.457 213.785 170.389 213.764 170.325C212.95 167.909 212.705 165.337 213.048 162.811C213.391 160.285 214.314 157.872 215.743 155.759C217.172 153.646 219.07 151.891 221.29 150.63C223.509 149.369 225.99 148.635 228.539 148.487C231.088 148.338 233.638 148.779 235.989 149.774C238.34 150.769 240.429 152.292 242.095 154.224C243.761 156.156 244.958 158.446 245.593 160.916C246.228 163.385 246.285 165.967 245.758 168.462C245.735 168.572 245.756 168.687 245.818 168.781C245.88 168.875 245.976 168.941 246.087 168.965C246.197 168.988 246.312 168.966 246.407 168.905C246.501 168.844 246.568 168.747 246.591 168.637C247.146 166.014 247.087 163.299 246.419 160.703C245.751 158.107 244.493 155.699 242.742 153.667C240.99 151.636 238.793 150.034 236.321 148.988C233.849 147.942 231.169 147.479 228.489 147.635C225.808 147.791 223.2 148.562 220.867 149.889C218.534 151.215 216.538 153.06 215.036 155.282C213.533 157.503 212.564 160.041 212.203 162.697C211.843 165.353 212.1 168.056 212.957 170.597C212.985 170.681 213.039 170.755 213.112 170.807C213.184 170.858 213.271 170.886 213.36 170.886Z" fill="#3F3D56"/>
<path d="M237.019 158.363C237.271 158.774 237.376 159.258 237.316 159.736C237.256 160.215 237.036 160.658 236.69 160.995C235.865 161.915 234.55 161.973 233.408 161.802C232.126 161.61 230.766 161.011 229.469 161.415C228.363 161.759 227.574 162.761 226.425 163.012C225.406 163.235 224.187 162.94 223.83 161.856C223.658 161.335 224.481 161.111 224.651 161.63C224.882 162.331 225.88 162.317 226.452 162.123C227.368 161.812 228.074 161.054 228.975 160.692C230.048 160.36 231.197 160.364 232.269 160.701C233.288 160.93 234.46 161.27 235.475 160.842C236.226 160.525 236.824 159.528 236.284 158.792C235.959 158.35 236.698 157.926 237.019 158.363V158.363Z" fill="#2F2E41"/>
<path d="M227.663 194.703C224.659 194.706 221.669 194.286 218.782 193.456C218.443 193.361 218.086 193.253 217.728 193.136C215.716 192.482 213.774 191.631 211.931 190.594C211.585 190.401 211.238 190.196 210.871 189.971C209.049 188.851 207.343 187.553 205.779 186.095C205.521 185.855 205.266 185.608 205.016 185.362C200.098 180.467 196.904 174.111 195.914 167.249C194.924 160.387 196.19 153.39 199.524 147.308C202.857 141.226 208.077 136.388 214.4 133.521C220.723 130.655 227.807 129.913 234.588 131.409C241.368 132.905 247.48 136.557 252.004 141.817C256.528 147.076 259.221 153.659 259.677 160.577C260.133 167.495 258.329 174.374 254.535 180.181C250.74 185.987 245.161 190.408 238.636 192.778C238.518 192.821 238.397 192.864 238.276 192.907C234.865 194.1 231.277 194.707 227.663 194.703ZM227.663 132.344C221.651 132.345 215.773 134.126 210.776 137.463C205.778 140.8 201.884 145.543 199.587 151.09C197.291 156.638 196.695 162.741 197.875 168.627C199.055 174.513 201.958 179.917 206.216 184.155C206.451 184.387 206.695 184.622 206.942 184.852C208.423 186.233 210.039 187.463 211.764 188.522C212.112 188.736 212.439 188.929 212.766 189.112C214.511 190.093 216.351 190.9 218.256 191.519C218.593 191.629 218.926 191.731 219.248 191.821C225.307 193.557 231.756 193.376 237.708 191.304L238.052 191.18C244.764 188.741 250.401 184.019 253.972 177.844C257.543 171.668 258.821 164.434 257.581 157.411C256.341 150.389 252.663 144.027 247.192 139.443C241.72 134.858 234.806 132.345 227.663 132.344L227.663 132.344Z" fill="#CCCCCC"/>
<path d="M350.56 347.842H182.409C180.292 347.84 178.262 346.999 176.765 345.505C175.268 344.011 174.426 341.984 174.424 339.871V111.976C174.426 109.863 175.268 107.836 176.765 106.342C178.262 104.847 180.292 104.007 182.409 104.004H350.56C352.677 104.007 354.707 104.847 356.204 106.342C357.701 107.836 358.543 109.863 358.545 111.976V339.871C358.543 341.984 357.701 344.011 356.204 345.505C354.707 346.999 352.677 347.84 350.56 347.842ZM182.409 104.942C180.541 104.944 178.75 105.686 177.429 107.005C176.108 108.323 175.365 110.111 175.363 111.976V339.871C175.365 341.736 176.108 343.524 177.429 344.842C178.75 346.161 180.541 346.903 182.409 346.905H350.56C352.428 346.903 354.219 346.161 355.54 344.842C356.861 343.524 357.603 341.736 357.606 339.871V111.976C357.603 110.111 356.861 108.323 355.54 107.005C354.219 105.686 352.428 104.944 350.56 104.942H182.409Z" fill="#3F3D56"/>
<path d="M318.009 163.193H270.428C269.43 163.193 268.473 162.797 267.767 162.093C267.061 161.388 266.664 160.432 266.664 159.435C266.664 158.439 267.061 157.483 267.767 156.778C268.473 156.073 269.43 155.677 270.428 155.677H318.009C319.008 155.677 319.965 156.073 320.671 156.778C321.377 157.483 321.774 158.439 321.774 159.435C321.774 160.432 321.377 161.388 320.671 162.093C319.965 162.797 319.008 163.193 318.009 163.193Z" fill="#0075FF"/>
<path d="M333.537 175.876H270.428C269.43 175.876 268.473 175.48 267.767 174.776C267.061 174.071 266.664 173.115 266.664 172.118C266.664 171.122 267.061 170.166 267.767 169.461C268.473 168.756 269.43 168.36 270.428 168.36H333.537C334.535 168.36 335.492 168.756 336.198 169.461C336.904 170.166 337.301 171.122 337.301 172.118C337.301 173.115 336.904 174.071 336.198 174.776C335.492 175.48 334.535 175.876 333.537 175.876Z" fill="#0075FF"/>
<path d="M317.939 224.521H199.434C198.436 224.521 197.478 224.125 196.772 223.421C196.067 222.716 195.67 221.76 195.67 220.763C195.67 219.767 196.067 218.811 196.772 218.106C197.478 217.401 198.436 217.005 199.434 217.005H317.939C318.938 217.005 319.895 217.401 320.601 218.106C321.307 218.811 321.704 219.767 321.704 220.763C321.704 221.76 321.307 222.716 320.601 223.421C319.895 224.125 318.938 224.521 317.939 224.521Z" fill="#CCCCCC"/>
<path d="M333.467 237.204H199.434C198.436 237.204 197.478 236.808 196.772 236.104C196.067 235.399 195.67 234.443 195.67 233.446C195.67 232.45 196.067 231.494 196.772 230.789C197.478 230.084 198.436 229.688 199.434 229.688H333.467C334.465 229.688 335.423 230.084 336.128 230.789C336.834 231.494 337.231 232.45 337.231 233.446C337.231 234.443 336.834 235.399 336.128 236.104C335.423 236.808 334.465 237.204 333.467 237.204Z" fill="#CCCCCC"/>
<path d="M317.939 266.355H199.433C198.436 266.354 197.48 265.958 196.775 265.253C196.07 264.548 195.674 263.593 195.674 262.597C195.674 261.601 196.07 260.646 196.775 259.942C197.48 259.237 198.436 258.841 199.433 258.839H317.939C318.937 258.839 319.894 259.235 320.6 259.94C321.306 260.645 321.703 261.601 321.703 262.597C321.703 263.594 321.306 264.55 320.6 265.255C319.894 265.959 318.937 266.355 317.939 266.355Z" fill="#CCCCCC"/>
<path d="M333.466 279.038H199.433C198.436 279.037 197.48 278.641 196.775 277.936C196.07 277.231 195.674 276.276 195.674 275.28C195.674 274.285 196.07 273.329 196.775 272.625C197.48 271.92 198.436 271.524 199.433 271.522H333.466C334.464 271.522 335.422 271.918 336.128 272.623C336.834 273.328 337.23 274.284 337.23 275.28C337.23 276.277 336.834 277.233 336.128 277.938C335.422 278.642 334.464 279.038 333.466 279.038Z" fill="#CCCCCC"/>
<path d="M317.939 308.189H199.434C198.436 308.189 197.478 307.793 196.772 307.089C196.067 306.384 195.67 305.428 195.67 304.431C195.67 303.435 196.067 302.479 196.772 301.774C197.478 301.069 198.436 300.673 199.434 300.673H317.939C318.938 300.673 319.895 301.069 320.601 301.774C321.307 302.479 321.704 303.435 321.704 304.431C321.704 305.428 321.307 306.384 320.601 307.089C319.895 307.793 318.938 308.189 317.939 308.189Z" fill="#CCCCCC"/>
<path d="M333.467 320.872H199.434C198.436 320.872 197.478 320.476 196.772 319.772C196.067 319.067 195.67 318.111 195.67 317.114C195.67 316.118 196.067 315.162 196.772 314.457C197.478 313.752 198.436 313.356 199.434 313.356H333.467C334.465 313.356 335.423 313.752 336.128 314.457C336.834 315.162 337.231 316.118 337.231 317.114C337.231 318.111 336.834 319.067 336.128 319.772C335.423 320.476 334.465 320.872 333.467 320.872Z" fill="#CCCCCC"/>
<path d="M348.609 295.949C343.735 295.943 338.908 296.897 334.404 298.755C329.899 300.613 325.806 303.34 322.358 306.779C318.909 310.217 316.174 314.301 314.308 318.796C312.441 323.29 311.48 328.108 311.48 332.974C311.48 337.84 312.441 342.658 314.307 347.153C316.174 351.648 318.909 355.731 322.358 359.17C325.806 362.609 329.899 365.335 334.403 367.193C338.908 369.052 343.735 370.005 348.609 370H348.609C358.434 369.983 367.85 366.074 374.791 359.132C381.732 352.191 385.631 342.783 385.631 332.974C385.631 323.166 381.732 313.758 374.791 306.816C367.85 299.875 358.434 295.966 348.609 295.949Z" fill="#0075FF"/>
<path d="M345.09 348.352C344.114 348.353 343.163 348.038 342.382 347.453L342.334 347.417L332.135 339.628C331.182 338.897 330.559 337.819 330.402 336.63C330.245 335.441 330.568 334.238 331.299 333.286C332.03 332.335 333.109 331.711 334.3 331.554C335.491 331.396 336.696 331.717 337.65 332.446L344.256 337.503L359.867 317.172C360.229 316.7 360.68 316.305 361.195 316.007C361.71 315.71 362.279 315.517 362.869 315.439C363.459 315.362 364.058 315.401 364.633 315.554C365.207 315.707 365.746 315.972 366.218 316.334L366.218 316.334L366.22 316.335L366.123 316.469L366.222 316.335C367.175 317.066 367.798 318.144 367.955 319.333C368.112 320.522 367.79 321.725 367.06 322.677L348.699 346.581C348.274 347.132 347.728 347.578 347.103 347.884C346.478 348.19 345.79 348.348 345.094 348.346L345.09 348.352Z" fill="white"/>
</g>
<defs>
<clipPath id="clip0_1258_16574">
<rect width="403" height="364" fill="white" transform="translate(57 6)"/>
</clipPath>
</defs>
</svg>
