<svg width="633" height="406" viewBox="0 0 633 406" fill="none" xmlns="http://www.w3.org/2000/svg">
<path d="M386 192.961C386.011 227.6 376.695 261.602 359.029 291.4C341.364 321.197 316 345.69 285.602 362.307C283.879 363.249 282.132 364.168 280.378 365.056C273.873 368.372 267.181 371.307 260.336 373.847C257.609 374.873 254.854 375.827 252.072 376.711C251.804 376.803 251.528 376.894 251.26 376.971C224.007 385.622 195.17 388.098 166.841 384.22C138.512 380.342 111.402 370.207 87.4783 354.551C84.2693 352.453 81.1267 350.263 78.0504 347.981C76.3118 346.687 74.5961 345.37 72.9035 344.014C68.1168 340.216 63.5216 336.191 59.1178 331.939C40.3956 313.959 25.5064 292.378 15.3465 268.493C5.18673 244.609 -0.0335146 218.916 0.000161905 192.961C0.000161905 86.3884 86.4058 0 193 0C299.594 0 386 86.3884 386 192.961Z" fill="#CEE5FF"/>
<g clip-path="url(#clip0_1258_16575)">
<path d="M159.423 404.625C159.416 404.645 159.416 404.671 159.41 404.691H117.015C116.217 404.187 115.432 403.663 114.66 403.133C109.894 399.901 105.492 396.161 101.532 391.978C96.9923 387.138 93.2419 381.614 90.4181 375.607C84.8253 363.667 83.1049 350.084 87.4353 337.81C87.4352 337.809 87.4354 337.809 87.4357 337.808C87.436 337.807 87.4365 337.806 87.4371 337.806C87.4377 337.805 87.4385 337.805 87.4393 337.804C87.4401 337.804 87.4409 337.804 87.4418 337.804C87.5465 337.496 87.6642 337.182 87.782 336.868C87.9586 337.175 88.1287 337.476 88.3118 337.778L88.3183 337.784C90.7489 341.877 93.5052 345.767 96.5604 349.416V349.423C96.796 349.704 97.0314 349.986 97.2734 350.261C97.2734 350.262 97.2736 350.263 97.2739 350.263C97.2742 350.264 97.2747 350.265 97.2753 350.265C97.2759 350.266 97.2766 350.267 97.2774 350.267C97.2782 350.267 97.2791 350.267 97.28 350.267C104.699 358.946 113.661 366.173 123.714 371.581C123.746 371.601 123.772 371.614 123.805 371.633C123.839 371.654 123.874 371.671 123.91 371.686C123.916 371.692 123.923 371.692 123.929 371.699C126.16 372.903 128.449 374.003 130.778 374.998V375.005C132.61 375.797 134.474 376.517 136.351 377.184C140.355 378.592 144.672 379.875 148.505 381.727C152.234 383.528 155.517 385.864 157.656 389.38C157.82 389.668 157.984 389.949 158.134 390.237L156.885 398.891L159.377 398.878L159.141 403.133L159.076 404.363L159.423 404.625Z" fill="#F0F0F0"/>
<path d="M148.956 404.691H148.06C147.975 404.167 147.89 403.65 147.792 403.133C147.538 401.718 147.192 400.321 146.758 398.95C146.562 398.335 146.339 397.732 146.084 397.137C144.639 393.746 142.153 390.768 138.477 389.773C137.407 389.488 136.306 389.332 135.2 389.308C133.008 389.216 130.784 389.498 128.606 389.615C128.07 389.642 127.527 389.661 127.003 389.655H126.99C124.157 389.702 121.348 389.134 118.755 387.992C115.552 386.458 112.636 384.385 110.133 381.865C108.495 380.296 106.939 378.644 105.469 376.916V376.91C105.273 376.694 105.083 376.471 104.894 376.242C101.43 372.077 98.4032 367.567 95.86 362.783C94.5634 360.366 93.3995 357.879 92.3734 355.334C92.3598 355.311 92.3489 355.287 92.3407 355.262C90.0452 349.651 88.3991 343.796 87.4347 337.81C87.4347 337.81 87.4349 337.809 87.4352 337.808C87.4355 337.807 87.436 337.806 87.4366 337.806C87.4372 337.805 87.4379 337.805 87.4387 337.804C87.4396 337.804 87.4404 337.804 87.4413 337.804C87.389 337.535 87.3497 337.261 87.3104 336.992C87.2254 336.436 88.1085 336.41 88.187 336.966C88.2262 337.241 88.2655 337.503 88.3113 337.778L88.3178 337.784C89.246 343.515 90.8036 349.127 92.9622 354.516V354.522C93.0734 354.797 93.1846 355.066 93.2958 355.334C96.3663 362.787 100.57 369.721 105.757 375.889L105.764 375.902C105.816 375.967 105.875 376.026 105.934 376.091C105.936 376.094 105.938 376.097 105.939 376.101C105.94 376.104 105.941 376.108 105.94 376.111C105.947 376.105 105.947 376.111 105.947 376.111C107.157 377.545 108.426 378.919 109.747 380.255C112.191 382.838 115.025 385.021 118.146 386.722C120.753 388.058 123.637 388.762 126.565 388.778C126.859 388.778 127.154 388.784 127.448 388.778C127.684 388.778 127.919 388.771 128.155 388.758C130.372 388.653 132.622 388.372 134.853 388.411C135.867 388.431 136.878 388.536 137.875 388.725C139.512 389.076 141.057 389.77 142.407 390.761C143.758 391.751 144.884 393.016 145.711 394.473C146.544 395.88 147.207 397.381 147.687 398.944C147.851 399.454 147.988 399.971 148.125 400.495V400.502C148.335 401.339 148.518 402.19 148.675 403.048C148.682 403.076 148.687 403.104 148.688 403.133C148.786 403.65 148.871 404.174 148.956 404.691Z" fill="white"/>
<path d="M105.806 376.671C103.564 378.342 100.801 379.161 98.0108 378.982C95.2209 378.802 92.5854 377.637 90.5751 375.692C90.1697 375.298 90.7637 374.649 91.1696 375.044C93.0383 376.858 95.4934 377.944 98.0917 378.105C100.69 378.267 103.261 377.493 105.339 375.925C105.791 375.585 106.255 376.332 105.806 376.671Z" fill="white"/>
<path d="M126.529 389.048C127.407 383.397 126.124 377.622 122.936 372.875C122.62 372.405 123.365 371.939 123.681 372.408C126.989 377.354 128.312 383.366 127.386 389.245C127.297 389.805 126.441 389.605 126.529 389.048Z" fill="white"/>
<path d="M92.725 354.639C93.7272 354.174 94.5981 353.466 95.2596 352.581C95.921 351.695 96.3522 350.659 96.5146 349.565C96.5961 349.004 97.4524 349.205 97.3714 349.762C97.1864 350.97 96.7088 352.113 95.9802 353.094C95.2515 354.074 94.2941 354.861 93.1916 355.385C93.0918 355.443 92.9736 355.461 92.8611 355.435C92.7485 355.409 92.6501 355.342 92.5857 355.246C92.5244 355.147 92.5047 355.027 92.5308 354.914C92.5569 354.8 92.6267 354.702 92.725 354.639H92.725Z" fill="white"/>
<path d="M165.82 375.895L165.461 379.214L159.737 379.128L158.873 385.112L158.723 386.139V386.146L158.134 390.237L156.885 398.891L159.377 398.878L159.142 403.133L159.076 404.363L159.423 404.625L159.501 404.691L159.528 404.71C159.456 404.854 159.377 404.998 159.299 405.149C159.344 404.992 159.377 404.848 159.41 404.691H142.847C142.54 404.173 142.239 403.656 141.944 403.133C139.389 398.681 137.135 394.062 135.2 389.308C135.083 389.013 134.958 388.718 134.854 388.417V388.411C133.133 384.06 131.77 379.577 130.778 375.004V374.998C130.241 372.494 129.833 369.964 129.555 367.418C128.846 360.837 129.175 354.186 130.53 347.708C130.541 347.676 130.55 347.643 130.556 347.609C133.166 335.244 139.531 323.815 149.611 316.575C150.03 316.261 150.461 315.966 150.9 315.678C150.906 315.672 150.906 315.672 150.913 315.672C150.914 315.672 150.914 315.671 150.915 315.671C150.916 315.671 150.917 315.67 150.917 315.67C150.918 315.669 150.918 315.668 150.919 315.668C150.919 315.667 150.919 315.666 150.919 315.665C151.194 315.488 151.462 315.312 151.737 315.135C151.698 315.488 151.652 315.842 151.619 316.195C151.091 320.924 150.951 325.688 151.2 330.439V330.452C151.207 330.819 151.227 331.186 151.253 331.559V331.572C151.966 342.988 154.785 354.174 159.567 364.564C159.575 364.591 159.586 364.617 159.6 364.642C159.613 364.675 159.626 364.701 159.639 364.734C161.428 368.598 163.494 372.328 165.82 375.895Z" fill="#F0F0F0"/>
<path d="M152.011 315.458C151.88 315.699 151.743 315.949 151.62 316.196C150.643 318.044 149.744 319.932 148.922 321.86C147.454 325.265 146.233 328.771 145.268 332.352C145.19 332.631 145.113 332.916 145.042 333.201C143.003 341.013 142.187 349.094 142.624 357.156C142.625 357.235 142.63 357.307 142.637 357.386C142.741 359.268 142.922 361.143 143.178 363.012C143.574 366.546 144.522 369.996 145.989 373.235C146.194 373.658 146.412 374.072 146.639 374.472C147.206 375.448 147.865 376.369 148.605 377.222C149.139 377.846 149.714 378.432 150.327 378.978C150.697 379.313 151.078 379.64 151.476 379.95C151.706 380.129 151.943 380.308 152.179 380.487C152.374 380.619 152.564 380.759 152.76 380.891C154.79 382.282 156.981 383.52 158.874 385.114L158.725 386.142C156.88 384.48 154.653 383.223 152.605 381.848C151.322 380.998 150.12 380.031 149.016 378.958C148.871 378.81 148.72 378.664 148.58 378.508C147.833 377.738 147.158 376.9 146.564 376.006C146.262 375.559 145.977 375.097 145.708 374.612C144.082 371.457 143.003 368.049 142.517 364.533C142.153 362.29 141.903 360.03 141.766 357.762C141.742 357.467 141.725 357.178 141.714 356.881C141.458 351.469 141.754 346.046 142.599 340.695C143.665 333.907 145.597 327.285 148.348 320.989C149.134 319.187 149.99 317.412 150.918 315.665C151.036 315.426 151.162 315.192 151.293 314.95C151.56 314.453 152.277 314.96 152.011 315.458Z" fill="white"/>
<path d="M142.182 357.774C139.386 357.757 136.687 356.746 134.568 354.922C132.448 353.098 131.045 350.58 130.61 347.816C130.523 347.257 131.388 347.096 131.474 347.657C131.875 350.231 133.182 352.577 135.16 354.271C137.137 355.966 139.655 356.897 142.258 356.897C142.824 356.898 142.744 357.774 142.182 357.774V357.774Z" fill="white"/>
<path d="M151.283 380.141C155.384 376.158 157.834 370.774 158.144 365.064C158.174 364.498 159.05 364.575 159.02 365.14C158.686 371.082 156.125 376.679 151.848 380.815C151.44 381.209 150.877 380.533 151.283 380.141H151.283Z" fill="white"/>
<path d="M144.994 332.302C146.075 332.534 147.196 332.494 148.257 332.186C149.318 331.877 150.285 331.309 151.073 330.534C151.476 330.135 152.039 330.811 151.639 331.207C150.764 332.06 149.695 332.686 148.523 333.029C147.352 333.373 146.114 333.424 144.918 333.179C144.803 333.165 144.698 333.108 144.624 333.02C144.55 332.931 144.512 332.818 144.518 332.703C144.529 332.587 144.585 332.479 144.674 332.405C144.763 332.33 144.878 332.293 144.994 332.302H144.994Z" fill="white"/>
<path d="M280.345 405.221C280.346 405.323 280.326 405.425 280.287 405.519C280.248 405.614 280.19 405.7 280.118 405.772C280.046 405.845 279.96 405.902 279.865 405.941C279.771 405.98 279.669 406 279.567 406H96.2198C96.1176 406 96.0164 405.98 95.9219 405.941C95.8275 405.901 95.7417 405.844 95.6694 405.772C95.5971 405.699 95.5398 405.613 95.5007 405.519C95.4615 405.424 95.4414 405.323 95.4414 405.221C95.4414 405.119 95.4615 405.017 95.5007 404.923C95.5398 404.828 95.5971 404.742 95.6694 404.67C95.7417 404.598 95.8275 404.54 95.9219 404.501C96.0164 404.462 96.1176 404.442 96.2198 404.442H279.567C279.669 404.442 279.771 404.462 279.865 404.501C279.96 404.54 280.046 404.597 280.118 404.669C280.19 404.742 280.248 404.828 280.287 404.922C280.326 405.017 280.346 405.118 280.345 405.221Z" fill="#CCCCCC"/>
<path d="M597.647 84.6071H479.107C478.599 84.6077 478.096 84.5082 477.626 84.314C477.157 84.1199 476.73 83.835 476.37 83.4757C476.011 83.1164 475.726 82.6897 475.531 82.22C475.336 81.7503 475.236 81.2468 475.236 80.7384C475.236 80.2299 475.336 79.7264 475.531 79.2567C475.726 78.787 476.011 78.3603 476.37 78.001C476.73 77.6417 477.157 77.3568 477.626 77.1627C478.096 76.9685 478.599 76.869 479.107 76.8696H597.647C598.155 76.869 598.658 76.9685 599.128 77.1627C599.598 77.3568 600.024 77.6417 600.384 78.001C600.743 78.3603 601.029 78.787 601.223 79.2567C601.418 79.7264 601.518 80.2299 601.518 80.7384C601.518 81.2468 601.418 81.7503 601.223 82.22C601.029 82.6897 600.743 83.1164 600.384 83.4757C600.024 83.835 599.598 84.1199 599.128 84.314C598.658 84.5082 598.155 84.6077 597.647 84.6071Z" fill="#0075FF"/>
<path d="M597.647 99.8941H479.107C478.083 99.8928 477.101 99.4846 476.377 98.7591C475.653 98.0337 475.246 97.0504 475.246 96.0252C475.246 94.9999 475.653 94.0166 476.377 93.2912C477.101 92.5658 478.083 92.1576 479.107 92.1562H597.647C598.671 92.1576 599.653 92.5658 600.377 93.2912C601.101 94.0166 601.508 94.9999 601.508 96.0252C601.508 97.0504 601.101 98.0337 600.377 98.7591C599.653 99.4846 598.671 99.8928 597.647 99.8941Z" fill="#0075FF"/>
<path d="M530.491 115.182H479.107C478.083 115.18 477.101 114.772 476.377 114.047C475.653 113.321 475.246 112.338 475.246 111.313C475.246 110.288 475.653 109.304 476.377 108.579C477.101 107.853 478.083 107.445 479.107 107.444H530.491C530.999 107.443 531.503 107.543 531.972 107.737C532.442 107.931 532.869 108.216 533.228 108.575C533.588 108.935 533.873 109.361 534.068 109.831C534.262 110.301 534.362 110.804 534.362 111.313C534.362 111.821 534.262 112.325 534.068 112.795C533.873 113.264 533.588 113.691 533.228 114.05C532.869 114.41 532.442 114.694 531.972 114.889C531.503 115.083 530.999 115.182 530.491 115.182Z" fill="#0075FF"/>
<path d="M597.648 171.547H479.108C478.083 171.547 477.1 171.139 476.375 170.414C475.649 169.688 475.242 168.704 475.242 167.678C475.242 166.652 475.649 165.668 476.375 164.943C477.1 164.217 478.083 163.81 479.108 163.81H597.648C598.673 163.81 599.656 164.217 600.381 164.943C601.106 165.668 601.514 166.652 601.514 167.678C601.514 168.704 601.106 169.688 600.381 170.414C599.656 171.139 598.673 171.547 597.648 171.547Z" fill="#E6E6E6"/>
<path d="M597.648 186.834H479.108C478.083 186.834 477.1 186.426 476.375 185.701C475.649 184.975 475.242 183.991 475.242 182.965C475.242 181.939 475.649 180.955 476.375 180.229C477.1 179.504 478.083 179.096 479.108 179.096H597.648C598.673 179.096 599.657 179.504 600.382 180.229C601.107 180.955 601.514 181.939 601.514 182.965C601.514 183.991 601.107 184.975 600.382 185.701C599.657 186.426 598.673 186.834 597.648 186.834Z" fill="#E6E6E6"/>
<path d="M530.492 202.122H479.108C478.083 202.122 477.1 201.714 476.375 200.988C475.649 200.263 475.242 199.279 475.242 198.253C475.242 197.227 475.649 196.243 476.375 195.517C477.1 194.791 478.083 194.384 479.108 194.384H530.492C531.001 194.383 531.504 194.483 531.973 194.677C532.443 194.871 532.87 195.156 533.229 195.515C533.589 195.875 533.874 196.301 534.069 196.771C534.263 197.241 534.364 197.744 534.364 198.253C534.364 198.761 534.263 199.265 534.069 199.734C533.874 200.204 533.589 200.631 533.229 200.99C532.87 201.35 532.443 201.634 531.973 201.829C531.504 202.023 531.001 202.122 530.492 202.122Z" fill="#E6E6E6"/>
<path d="M597.648 263.267H479.108C478.6 263.267 478.098 263.167 477.629 262.972C477.16 262.778 476.733 262.493 476.375 262.134C476.016 261.774 475.731 261.348 475.536 260.879C475.342 260.409 475.242 259.906 475.242 259.398C475.242 258.89 475.342 258.387 475.536 257.918C475.731 257.448 476.016 257.022 476.375 256.662C476.733 256.303 477.16 256.018 477.629 255.824C478.098 255.629 478.6 255.529 479.108 255.529H597.648C598.156 255.529 598.658 255.629 599.127 255.824C599.596 256.018 600.022 256.303 600.381 256.662C600.74 257.022 601.025 257.448 601.22 257.918C601.414 258.387 601.514 258.89 601.514 259.398C601.514 259.906 601.414 260.409 601.22 260.879C601.025 261.348 600.74 261.774 600.381 262.134C600.022 262.493 599.596 262.778 599.127 262.972C598.658 263.167 598.156 263.267 597.648 263.267Z" fill="#E6E6E6"/>
<path d="M597.647 278.554H479.107C478.083 278.553 477.101 278.145 476.377 277.419C475.653 276.694 475.246 275.711 475.246 274.685C475.246 273.66 475.653 272.677 476.377 271.951C477.101 271.226 478.083 270.818 479.107 270.816H597.647C598.671 270.818 599.653 271.226 600.377 271.951C601.101 272.677 601.508 273.66 601.508 274.685C601.508 275.711 601.101 276.694 600.377 277.419C599.653 278.145 598.671 278.553 597.647 278.554Z" fill="#E6E6E6"/>
<path d="M530.492 293.841H479.108C478.083 293.841 477.1 293.434 476.375 292.708C475.649 291.983 475.242 290.999 475.242 289.972C475.242 288.946 475.649 287.962 476.375 287.237C477.1 286.511 478.083 286.104 479.108 286.104H530.492C531.001 286.103 531.504 286.202 531.973 286.397C532.443 286.591 532.87 286.876 533.229 287.235C533.589 287.594 533.874 288.021 534.069 288.491C534.263 288.96 534.364 289.464 534.364 289.972C534.364 290.481 534.263 290.984 534.069 291.454C533.874 291.924 533.589 292.351 533.229 292.71C532.87 293.069 532.443 293.354 531.973 293.548C531.504 293.742 531.001 293.842 530.492 293.841Z" fill="#E6E6E6"/>
<path d="M431.817 213.609H360.454C358.541 213.607 356.708 212.846 355.355 211.492C354.003 210.139 353.242 208.304 353.24 206.39V159.541C353.242 157.627 354.003 155.792 355.355 154.439C356.708 153.085 358.541 152.324 360.454 152.322H431.817C433.73 152.324 435.564 153.085 436.916 154.439C438.268 155.792 439.029 157.627 439.031 159.541V206.39C439.029 208.304 438.268 210.139 436.916 211.492C435.564 212.846 433.73 213.607 431.817 213.609Z" fill="#E6E6E6"/>
<path d="M426.801 158.176H365.471C363.729 158.177 362.06 158.87 360.828 160.102C359.596 161.334 358.903 163.005 358.9 164.748V201.181C358.903 202.924 359.596 204.595 360.827 205.828C362.059 207.06 363.729 207.754 365.471 207.756H404.579C412.212 207.749 419.53 204.711 424.928 199.31C430.325 193.908 433.361 186.585 433.368 178.947V164.748C433.367 163.005 432.674 161.335 431.443 160.103C430.212 158.871 428.542 158.178 426.801 158.176Z" fill="white"/>
<path d="M409.47 170.493L409.287 170.824C410.918 166.8 409.435 161.842 406.524 158.808C403.614 155.774 399.568 154.387 395.584 153.837C392.627 153.428 389.557 153.44 386.745 154.524C382.672 156.094 379.561 159.728 376.963 163.509C375.775 165.238 374.607 167.209 374.725 169.371C374.835 171.376 376.025 173.078 376.999 174.78C377.973 176.482 378.787 178.593 378.088 180.45C377.671 181.557 376.79 182.354 376.076 183.26C375.361 184.165 374.773 185.389 375.119 186.525C375.272 186.959 375.535 187.347 375.883 187.649C376.23 187.951 376.65 188.158 377.102 188.249C377.976 188.395 378.87 188.374 379.737 188.187L402.445 184.754C403.988 184.52 405.452 183.917 406.712 182.995C407.972 182.073 408.99 180.86 409.68 179.46C410.37 178.059 410.711 176.512 410.675 174.951C410.638 173.389 410.225 171.86 409.47 170.493Z" fill="#2F2E41"/>
<path d="M392.579 184.595C398.711 184.595 403.682 179.621 403.682 173.485C403.682 167.348 398.711 162.374 392.579 162.374C386.447 162.374 381.477 167.348 381.477 173.485C381.477 179.621 386.447 184.595 392.579 184.595Z" fill="#FFB9B9"/>
<path d="M421.55 202.205C416.629 205.819 410.683 207.764 404.579 207.757H370.509C370.441 207.701 370.375 207.646 370.307 207.587L373.484 198.714C374.202 197.139 375.335 195.788 376.762 194.808C378.189 193.827 379.855 193.254 381.583 193.149L383.604 193.025L388.424 188.865C388.424 188.865 401.411 188.401 401.219 188.179L409.085 192.914L409.079 192.881L412.171 193.071C413.899 193.175 415.566 193.748 416.992 194.729C418.419 195.709 419.552 197.06 420.27 198.636L421.55 202.205Z" fill="#0075FF"/>
<path d="M403.109 163.173C402.823 161.655 401.276 160.961 399.951 160.625C396.108 159.644 392.111 159.424 388.184 159.978C385.321 160.387 382.39 161.288 380.313 163.524C378.638 165.407 377.688 167.826 377.636 170.346C377.551 171.853 377.888 173.354 378.608 174.681C378.93 175.298 379.406 175.821 379.992 176.199C380.577 176.576 381.25 176.794 381.945 176.833L382.078 177.297C387.652 176.519 392.83 173.048 396.091 167.903C395.479 170.09 394.261 172.059 392.578 173.583C396.341 172.076 399.613 169.553 402.028 166.295C402.687 165.419 403.327 164.327 403.109 163.173Z" fill="#2F2E41"/>
<path d="M431.817 126.669H360.454C358.541 126.667 356.708 125.906 355.355 124.552C354.003 123.199 353.242 121.364 353.24 119.45V72.6007C353.242 70.6868 354.003 68.8519 355.355 67.4986C356.708 66.1453 358.541 65.384 360.454 65.3818H431.817C433.73 65.384 435.564 66.1453 436.916 67.4986C438.268 68.8519 439.029 70.6868 439.031 72.6007V119.45C439.029 121.364 438.268 123.199 436.916 124.552C435.564 125.906 433.73 126.667 431.817 126.669Z" fill="#CCCCCC"/>
<path d="M426.801 71.2363H365.471C363.729 71.2384 362.06 71.9314 360.828 73.1633C359.597 74.3952 358.903 76.0655 358.9 77.8081V114.242C358.903 115.985 359.596 117.656 360.827 118.888C362.059 120.121 363.729 120.814 365.471 120.817H404.579C412.213 120.811 419.532 117.773 424.929 112.372C430.327 106.97 433.362 99.646 433.368 92.0071V77.808C433.367 76.0657 432.674 74.3952 431.443 73.1632C430.212 71.9311 428.542 71.2382 426.801 71.2363Z" fill="white"/>
<path d="M381.396 78.304C384.285 78.304 386.626 75.9608 386.626 73.0702C386.626 70.1797 384.285 67.8364 381.396 67.8364C378.508 67.8364 376.166 70.1797 376.166 73.0702C376.166 75.9608 378.508 78.304 381.396 78.304Z" fill="#2F2E41"/>
<path d="M389.763 98.1927C397.081 98.1927 403.013 92.2565 403.013 84.9338C403.013 77.6111 397.081 71.6748 389.763 71.6748C382.446 71.6748 376.514 77.6111 376.514 84.9338C376.514 92.2565 382.446 98.1927 389.763 98.1927Z" fill="#2F2E41"/>
<path d="M390.86 98.1895C396.807 98.1895 401.627 93.3656 401.627 87.415C401.627 81.4645 396.807 76.6406 390.86 76.6406C384.914 76.6406 380.094 81.4645 380.094 87.415C380.094 93.3656 384.914 98.1895 390.86 98.1895Z" fill="#9E616A"/>
<path d="M398.171 76.4318C396.284 75.2808 394.123 74.6582 391.913 74.629C389.704 74.5999 387.527 75.1652 385.611 76.2661C383.695 77.3669 382.109 78.9627 381.02 80.8867C379.931 82.8106 379.378 84.992 379.42 87.2028C384.906 88.5812 390.67 89.6361 396.521 87.5326L397.902 84.1486L398.717 87.5351C400.499 88.2638 402.285 88.8805 404.071 87.528C404.144 85.3235 403.638 83.1383 402.602 81.1911C401.567 79.2439 400.039 77.6028 398.171 76.4318Z" fill="#2F2E41"/>
<path d="M376.526 58.8623C374.69 58.078 372.671 57.8236 370.697 58.1277C368.724 58.4319 366.875 59.2826 365.36 60.5836C363.878 61.9217 362.75 63.6058 362.076 65.486C361.403 67.3661 361.204 69.3838 361.498 71.3594C362.092 75.3775 364.533 78.8376 366.783 82.218C369.033 85.5985 371.231 89.3027 371.228 93.3643C371.227 96.2898 370.065 99.0951 368 101.165C365.934 103.235 363.132 104.401 360.209 104.407C363.64 105.885 367.221 107.392 370.952 107.217C374.684 107.041 378.595 104.641 379.204 100.953C379.642 98.2953 378.339 95.7039 377.253 93.2397C375.483 89.2244 374.203 85.01 373.442 80.688C373.079 78.6252 372.843 76.4566 373.515 74.4729C374.05 73.003 375.043 71.744 376.348 70.8817C377.652 70.0194 379.199 69.5994 380.76 69.6837L381.993 68.5737C382.204 66.587 381.791 64.5839 380.811 62.8432C379.831 61.1026 378.333 59.711 376.526 58.8623Z" fill="#2F2E41"/>
<path d="M419.34 116.732C414.883 119.412 409.779 120.824 404.579 120.817H367.672L367.613 120.768L370.791 111.892C371.509 110.317 372.642 108.967 374.069 107.987C375.496 107.007 377.162 106.434 378.889 106.33L380.911 106.206L385.731 102.046C385.731 102.046 398.718 101.579 398.525 101.356L406.392 106.092L406.385 106.062L409.478 106.252C411.205 106.355 412.872 106.927 414.299 107.907C415.726 108.887 416.859 110.238 417.576 111.814L419.34 116.732Z" fill="#0075FF"/>
<path d="M431.817 305.329H360.454C358.541 305.327 356.708 304.566 355.355 303.212C354.003 301.859 353.242 300.024 353.24 298.11V251.261C353.242 249.347 354.003 247.512 355.355 246.159C356.708 244.805 358.541 244.044 360.454 244.042H431.817C433.73 244.044 435.564 244.805 436.916 246.159C438.268 247.512 439.029 249.347 439.031 251.261V298.11C439.029 300.024 438.268 301.859 436.916 303.212C435.564 304.566 433.73 305.327 431.817 305.329Z" fill="#E6E6E6"/>
<path d="M426.801 249.896H365.471C363.729 249.898 362.06 250.591 360.828 251.822C359.596 253.054 358.903 254.725 358.9 256.468V292.902C358.903 294.645 359.596 296.316 360.827 297.548C362.059 298.781 363.729 299.474 365.471 299.477H404.579C412.212 299.469 419.53 296.431 424.928 291.03C430.325 285.629 433.361 278.305 433.368 270.667V256.468C433.367 254.725 432.674 253.055 431.443 251.823C430.212 250.591 428.542 249.898 426.801 249.896Z" fill="white"/>
<path d="M396.083 273.073C404.241 273.073 410.855 266.455 410.855 258.291C410.855 250.126 404.241 243.508 396.083 243.508C387.924 243.508 381.311 250.126 381.311 258.291C381.311 266.455 387.924 273.073 396.083 273.073Z" fill="#2F2E41"/>
<path d="M396.087 275.016C403.376 275.016 409.284 269.103 409.284 261.81C409.284 254.516 403.376 248.604 396.087 248.604C388.799 248.604 382.891 254.516 382.891 261.81C382.891 269.103 388.799 275.016 396.087 275.016Z" fill="#FFB8B8"/>
<path d="M422.485 293.212C417.401 297.274 411.086 299.483 404.58 299.477H371.67L374.792 290.761C375.51 289.185 376.643 287.835 378.07 286.854C379.496 285.874 381.163 285.301 382.89 285.196L384.912 285.072L389.732 280.912C389.732 280.912 402.719 280.448 402.526 280.226L410.393 284.961L410.387 284.928L413.479 285.118C415.207 285.222 416.873 285.795 418.3 286.776C419.727 287.756 420.86 289.107 421.578 290.683L422.485 293.212Z" fill="#0075FF"/>
<path d="M410.01 257.178C410.102 256.192 410.145 255.202 410.137 254.212C410.191 252.253 409.832 250.305 409.085 248.495C408.165 246.49 406.525 244.904 404.491 244.054C402.475 243.24 400.222 243.242 398.207 244.059C396.435 242.839 394.381 242.09 392.239 241.885C391.166 241.799 390.088 241.973 389.098 242.394C388.107 242.815 387.232 243.469 386.549 244.301C386.256 244.76 385.923 245.193 385.555 245.594C384.5 246.571 382.898 246.43 381.497 246.23C382.125 246.769 382.754 247.308 383.383 247.847C382.622 248.046 381.861 248.245 381.1 248.444C381.988 248.983 382.876 249.522 383.764 250.061C381.186 251.609 380.015 254.988 380.324 258.057C380.617 260.963 382.019 263.62 383.694 265.982C384.363 264.57 384.219 262.881 384.208 261.291C384.202 260.775 384.233 260.26 384.302 259.749C389.965 261.107 395.883 261.979 401.884 259.821L403.088 256.872C403.257 256.889 403.426 256.906 403.595 256.924L404.293 259.824C405.875 260.471 407.46 261.037 409.046 260.442C409.123 260.89 409.169 261.348 409.205 261.787C409.341 261.261 409.459 260.732 409.566 260.2C409.775 260.088 409.976 259.959 410.166 259.816C410.204 258.934 410.152 258.05 410.01 257.178Z" fill="#2F2E41"/>
<path d="M631.276 25.5993H323.478C323.021 25.5988 322.583 25.4169 322.259 25.0934C321.936 24.77 321.754 24.3314 321.754 23.874V13.7253C321.754 13.2679 321.936 12.8293 322.259 12.5059C322.583 12.1824 323.021 12.0005 323.478 12H631.276C631.733 12.0005 632.171 12.1824 632.495 12.5059C632.818 12.8293 633 13.2679 633 13.7253V23.874C633 24.3314 632.818 24.77 632.495 25.0934C632.171 25.4169 631.733 25.5988 631.276 25.5993Z" fill="#E4E4E4"/>
<path d="M331.76 20.754C333.112 20.754 334.208 19.6573 334.208 18.3045C334.208 16.9517 333.112 15.855 331.76 15.855C330.408 15.855 329.312 16.9517 329.312 18.3045C329.312 19.6573 330.408 20.754 331.76 20.754Z" fill="white"/>
<path d="M341.049 20.754C342.401 20.754 343.497 19.6573 343.497 18.3045C343.497 16.9517 342.401 15.855 341.049 15.855C339.697 15.855 338.602 16.9517 338.602 18.3045C338.602 19.6573 339.697 20.754 341.049 20.754Z" fill="white"/>
<path d="M350.342 20.754C351.694 20.754 352.79 19.6573 352.79 18.3045C352.79 16.9517 351.694 15.855 350.342 15.855C348.99 15.855 347.895 16.9517 347.895 18.3045C347.895 19.6573 348.99 20.754 350.342 20.754Z" fill="white"/>
<path d="M622.173 16.6189H611.474C611.264 16.6189 611.062 16.5353 610.914 16.3866C610.765 16.2378 610.682 16.0361 610.682 15.8258C610.682 15.6154 610.765 15.4137 610.914 15.265C611.062 15.1163 611.264 15.0327 611.474 15.0327H622.173C622.383 15.0327 622.585 15.1163 622.733 15.265C622.882 15.4137 622.965 15.6154 622.965 15.8258C622.965 16.0361 622.882 16.2378 622.733 16.3866C622.585 16.5353 622.383 16.6189 622.173 16.6189Z" fill="white"/>
<path d="M622.173 19.5925H611.474C611.37 19.5925 611.267 19.572 611.171 19.5321C611.075 19.4923 610.987 19.4338 610.914 19.3602C610.84 19.2866 610.782 19.1991 610.742 19.1029C610.702 19.0067 610.682 18.9036 610.682 18.7994C610.682 18.6953 610.702 18.5921 610.742 18.4959C610.782 18.3997 610.84 18.3123 610.914 18.2386C610.987 18.165 611.075 18.1066 611.171 18.0667C611.267 18.0269 611.37 18.0063 611.474 18.0063H622.173C622.277 18.0063 622.38 18.0269 622.476 18.0667C622.572 18.1066 622.66 18.165 622.733 18.2386C622.807 18.3123 622.865 18.3997 622.905 18.4959C622.945 18.5921 622.965 18.6953 622.965 18.7994C622.965 18.9036 622.945 19.0067 622.905 19.1029C622.865 19.1991 622.807 19.2866 622.733 19.3602C622.66 19.4338 622.572 19.4923 622.476 19.5321C622.38 19.572 622.277 19.5925 622.173 19.5925Z" fill="white"/>
<path d="M622.173 22.5666H611.474C611.264 22.5666 611.062 22.4831 610.914 22.3343C610.765 22.1856 610.682 21.9839 610.682 21.7735C610.682 21.5632 610.765 21.3615 610.914 21.2128C611.062 21.064 611.264 20.9805 611.474 20.9805H622.173C622.383 20.9805 622.585 21.064 622.733 21.2128C622.882 21.3615 622.965 21.5632 622.965 21.7735C622.965 21.9839 622.882 22.1856 622.733 22.3343C622.585 22.4831 622.383 22.5666 622.173 22.5666Z" fill="white"/>
<path d="M568.442 116.235C570.887 116.235 572.869 114.251 572.869 111.805C572.869 109.358 570.887 107.375 568.442 107.375C565.998 107.375 564.016 109.358 564.016 111.805C564.016 114.251 565.998 116.235 568.442 116.235Z" fill="#0075FF"/>
<path d="M582.817 116.235C585.262 116.235 587.244 114.251 587.244 111.805C587.244 109.358 585.262 107.375 582.817 107.375C580.373 107.375 578.391 109.358 578.391 111.805C578.391 114.251 580.373 116.235 582.817 116.235Z" fill="#0075FF"/>
<path d="M597.192 116.235C599.637 116.235 601.619 114.251 601.619 111.805C601.619 109.358 599.637 107.375 597.192 107.375C594.748 107.375 592.766 109.358 592.766 111.805C592.766 114.251 594.748 116.235 597.192 116.235Z" fill="#0075FF"/>
<path d="M568.442 202.548C570.887 202.548 572.869 200.565 572.869 198.118C572.869 195.672 570.887 193.688 568.442 193.688C565.998 193.688 564.016 195.672 564.016 198.118C564.016 200.565 565.998 202.548 568.442 202.548Z" fill="#E6E6E6"/>
<path d="M582.817 202.548C585.262 202.548 587.244 200.565 587.244 198.118C587.244 195.672 585.262 193.688 582.817 193.688C580.373 193.688 578.391 195.672 578.391 198.118C578.391 200.565 580.373 202.548 582.817 202.548Z" fill="#E6E6E6"/>
<path d="M597.192 202.548C599.637 202.548 601.619 200.565 601.619 198.118C601.619 195.672 599.637 193.688 597.192 193.688C594.748 193.688 592.766 195.672 592.766 198.118C592.766 200.565 594.748 202.548 597.192 202.548Z" fill="#E6E6E6"/>
<path d="M568.442 294.431C570.887 294.431 572.869 292.447 572.869 290.001C572.869 287.554 570.887 285.571 568.442 285.571C565.998 285.571 564.016 287.554 564.016 290.001C564.016 292.447 565.998 294.431 568.442 294.431Z" fill="#E6E6E6"/>
<path d="M582.817 294.431C585.262 294.431 587.244 292.447 587.244 290.001C587.244 287.554 585.262 285.571 582.817 285.571C580.373 285.571 578.391 287.554 578.391 290.001C578.391 292.447 580.373 294.431 582.817 294.431Z" fill="#E6E6E6"/>
<path d="M597.192 294.431C599.637 294.431 601.619 292.447 601.619 290.001C601.619 287.554 599.637 285.571 597.192 285.571C594.748 285.571 592.766 287.554 592.766 290.001C592.766 292.447 594.748 294.431 597.192 294.431Z" fill="#E6E6E6"/>
<path d="M442.441 115.627L419.624 101.169C419.188 100.893 418.686 100.74 418.171 100.725C417.655 100.711 417.145 100.835 416.695 101.086C416.244 101.337 415.869 101.705 415.61 102.151C415.351 102.597 415.216 103.105 415.221 103.621L415.445 128.549C415.451 129.211 415.686 129.851 416.11 130.36C416.534 130.869 417.12 131.216 417.77 131.342C418.421 131.467 419.094 131.364 419.677 131.049C420.259 130.734 420.715 130.227 420.967 129.614L423.936 122.388L432.213 138.719C432.606 139.491 433.29 140.076 434.114 140.345C434.938 140.614 435.834 140.545 436.607 140.152C437.38 139.76 437.966 139.077 438.236 138.253C438.506 137.429 438.438 136.531 438.047 135.757L429.581 119.055L440.431 120.883C441.084 120.993 441.755 120.873 442.33 120.545C442.905 120.216 443.349 119.698 443.586 119.078C443.823 118.459 443.838 117.777 443.63 117.148C443.421 116.519 443.001 115.981 442.441 115.627Z" fill="#3F3D56"/>
<path d="M153.539 270.835C154.093 270.231 154.509 269.513 154.756 268.732C155.003 267.95 155.076 267.124 154.969 266.311C154.863 265.498 154.579 264.719 154.139 264.027C153.699 263.336 153.113 262.749 152.421 262.309L157.014 242.919L147.294 246.473L144.424 264.341C143.762 265.552 143.567 266.964 143.875 268.309C144.184 269.654 144.975 270.839 146.099 271.639C147.223 272.44 148.601 272.8 149.972 272.652C151.343 272.503 152.612 271.857 153.539 270.835Z" fill="#FFB8B8"/>
<path d="M176.912 189.581L173.011 199.618C173.011 199.618 174.683 209.656 171.897 211.886C169.11 214.117 170.225 214.117 170.225 215.79C170.129 216.99 169.782 218.156 169.206 219.213C168.629 220.27 167.838 221.193 166.881 221.924C164.652 223.597 154.622 257.613 154.622 257.613H144.592C144.916 255.02 144.916 252.398 144.592 249.806C144.035 245.902 146.264 235.865 147.378 234.192C148.493 232.519 147.378 230.288 147.378 226.942C147.378 223.597 149.607 221.924 149.607 216.347C149.607 210.771 156.294 167.275 155.737 162.257C155.179 157.238 161.309 152.777 161.309 152.777H166.881L176.912 189.581Z" fill="#E6E6E6"/>
<path d="M156.555 392.964H163.775L167.211 365.095H156.555L156.555 392.964Z" fill="#FFB6B6"/>
<path d="M154.199 388.016L165.734 387.327V392.272L176.7 399.852C177.242 400.226 177.65 400.764 177.864 401.386C178.079 402.009 178.089 402.684 177.893 403.313C177.697 403.942 177.306 404.492 176.776 404.882C176.245 405.272 175.604 405.483 174.946 405.483H161.213L158.846 400.591L157.922 405.483H152.744L154.199 388.016Z" fill="#2F2E41"/>
<path d="M197.112 392.964H204.332L207.768 365.095H197.111L197.112 392.964Z" fill="#FFB6B6"/>
<path d="M194.755 388.016L206.29 387.327V392.272L217.257 399.852C217.798 400.226 218.206 400.764 218.421 401.386C218.636 402.009 218.646 402.684 218.45 403.313C218.254 403.942 217.862 404.492 217.332 404.882C216.802 405.272 216.161 405.483 215.503 405.483H201.77L199.403 400.591L198.479 405.483H193.301L194.755 388.016Z" fill="#2F2E41"/>
<path d="M153.439 368.931H153.518L157.523 323.618C156.624 321.883 156.168 319.953 156.195 318C156.223 316.046 156.732 314.13 157.678 312.421L157.877 312.061L157.362 309.67C156.7 306.598 157.003 303.396 158.231 300.503L156.91 258.234C152.282 228.22 174.338 208.646 174.338 208.646H207.377L214.47 233.034C217.133 258.999 225.461 286.31 224.358 311.481C223.519 330.63 214.082 347.815 210.867 366.463L211.07 366.566C211.8 366.818 212.114 367.831 211.77 368.828C211.426 369.825 210.555 370.428 209.825 370.176L192.376 369.569C191.646 369.316 191.332 368.304 191.676 367.307C192.02 366.31 192.891 365.707 193.622 365.959L194.808 366.559L203.398 320.87L203.679 312.883L203.1 303.822L189.306 265.03L179.182 315.148L168.841 369.436C169.127 369.694 169.327 370.033 169.416 370.408C169.504 370.782 169.477 371.175 169.338 371.534C169.2 371.893 168.955 372.202 168.637 372.419C168.32 372.636 167.944 372.752 167.559 372.75H153.439C153.189 372.75 152.941 372.701 152.709 372.605C152.478 372.509 152.267 372.368 152.09 372.191C151.913 372.014 151.772 371.803 151.676 371.572C151.581 371.34 151.531 371.092 151.531 370.841C151.531 370.59 151.581 370.342 151.676 370.11C151.772 369.879 151.913 369.668 152.09 369.491C152.267 369.313 152.478 369.173 152.709 369.077C152.941 368.981 153.189 368.931 153.439 368.931Z" fill="#2F2E41"/>
<path d="M150.702 229.031C149.617 229.031 149.001 228.819 148.762 228.362C148.412 227.692 149.02 226.817 149.723 225.803C150.245 225.141 150.656 224.399 150.942 223.606C151.362 221.922 154.202 179.39 152.503 170.892C152.11 168.925 152.449 166.405 153.508 163.4C156.402 155.195 160.353 152.673 168.222 147.649C168.861 147.242 169.526 146.816 170.218 146.372C171.113 145.796 171.063 143.889 171.01 141.869C170.952 139.624 170.891 137.302 171.99 135.851L172.062 135.756L172.177 135.729C174.835 135.114 183.776 133.973 189.071 135.737L189.144 135.762L189.199 135.817C190.457 137.075 190.571 139.514 190.682 141.871C190.773 143.807 190.859 145.634 191.571 146.428C197.011 152.497 203.181 152.379 203.244 152.377L203.549 152.368L203.58 152.673C205.946 176.761 209.761 213.117 210.572 214.548C210.614 214.613 210.638 214.689 210.64 214.767C210.643 214.845 210.624 214.922 210.585 214.99C209.395 217.215 154.79 229.031 150.702 229.031Z" fill="#E6E6E6"/>
<path d="M186.237 128.911C195.149 128.911 202.373 121.681 202.373 112.763C202.373 103.846 195.149 96.6162 186.237 96.6162C177.326 96.6162 170.102 103.846 170.102 112.763C170.102 121.681 177.326 128.911 186.237 128.911Z" fill="#FFB8B8"/>
<path d="M141.912 105.554C144.64 102.37 145.937 98.1463 148.118 94.531C150.299 90.9157 154.094 87.68 158.104 88.5213C160.868 89.1013 163.004 91.542 164.085 94.2631C165.166 96.9841 165.369 99.9849 165.559 102.925C165.492 96.8833 169.469 91.0267 174.948 89.099C180.426 87.1713 186.983 89.3216 190.426 94.175C191.928 92.7816 193.889 91.9881 195.937 91.9451C197.985 91.9021 199.978 92.6125 201.537 93.9416C204.616 96.6958 205.298 101.938 203.033 105.451C201.896 107.16 200.175 108.395 198.192 108.924C196.209 109.453 194.102 109.24 192.265 108.324L190.993 109.496C191.322 110.747 191.202 112.075 190.652 113.247C190.102 114.419 189.158 115.361 187.985 115.907C186.092 116.672 183.419 116.545 182.711 118.533C182.216 119.922 183.141 121.405 184.126 122.472C185.11 123.54 186.278 124.642 186.397 126.119C186.575 128.348 184.274 129.91 182.181 130.38C179.616 130.893 176.956 130.629 174.542 129.62C172.128 128.612 170.07 126.906 168.63 124.72C168.574 124.634 168.513 124.548 168.448 124.462C166.816 122.374 165.627 119.976 164.953 117.413C164.28 114.849 164.135 112.176 164.529 109.555C164.692 108.525 164.528 107.759 163.818 107.515C160.752 106.461 152.16 108.673 149.56 110.673C146.959 112.673 144.877 115.319 142.373 117.447C139.868 119.576 136.676 121.218 133.496 120.638C130.949 120.174 128.782 118.323 127.325 116.091C125.95 113.782 124.924 111.282 124.277 108.672C129.909 111.928 137.618 110.565 141.912 105.554Z" fill="#2F2E41"/>
<path d="M212.106 270.835C211.551 270.231 211.136 269.513 210.889 268.732C210.642 267.95 210.569 267.124 210.676 266.311C210.782 265.498 211.065 264.719 211.506 264.027C211.946 263.336 212.532 262.749 213.223 262.309L208.631 242.919L218.35 246.473L221.221 264.341C221.883 265.552 222.078 266.964 221.769 268.309C221.46 269.654 220.669 270.839 219.546 271.639C218.422 272.44 217.044 272.8 215.673 272.652C214.302 272.503 213.032 271.857 212.106 270.835H212.106Z" fill="#FFB8B8"/>
<path d="M188.732 189.581L192.633 199.618C192.633 199.618 190.961 209.656 193.748 211.886C196.534 214.117 195.419 214.117 195.419 215.79C195.515 216.99 195.863 218.156 196.439 219.213C197.015 220.27 197.807 221.193 198.763 221.924C200.992 223.597 211.022 257.613 211.022 257.613H221.052C220.728 255.02 220.728 252.398 221.052 249.806C221.61 245.902 219.381 235.865 218.266 234.192C217.152 232.519 218.266 230.288 218.266 226.942C218.266 223.597 216.037 221.924 216.037 216.347C216.037 210.771 209.35 167.275 209.908 162.257C210.465 157.238 204.335 152.777 204.335 152.777H198.763L188.732 189.581Z" fill="#E6E6E6"/>
</g>
<defs>
<clipPath id="clip0_1258_16575">
<rect width="548" height="394" fill="white" transform="translate(85 12)"/>
</clipPath>
</defs>
</svg>
