<svg width="507" height="359" viewBox="0 0 507 359" fill="none" xmlns="http://www.w3.org/2000/svg">
<g clip-path="url(#clip0_1178_16807)">
<path opacity="0.1" d="M168.557 358.798C193.247 358.798 213.263 355.584 213.263 351.62C213.263 347.656 193.247 344.442 168.557 344.442C143.866 344.442 123.851 347.656 123.851 351.62C123.851 355.584 143.866 358.798 168.557 358.798Z" fill="#0075FF"/>
<path opacity="0.1" d="M411.572 359C442.382 359 467.359 355.787 467.359 351.822C467.359 347.858 442.382 344.645 411.572 344.645C380.763 344.645 355.786 347.858 355.786 351.822C355.786 355.787 380.763 359 411.572 359Z" fill="#0075FF"/>
<path opacity="0.1" d="M6.34983 155.114H52.9142V218.558H9.75876C9.64406 219.209 9.53395 219.865 9.41466 220.521H52.9142V271.688C52.8362 271.665 52.7673 271.637 52.6939 271.61C51.4643 271.124 50.2439 270.61 49.0235 270.059L48.2435 269.706C47.02 269.128 45.7965 268.517 44.573 267.872C44.1463 267.647 43.7197 267.413 43.2976 267.175C36.5053 263.371 30.3349 258.552 25.0003 252.883C24.8443 252.732 24.6975 252.571 24.5415 252.425C23.7983 251.617 23.0688 250.801 22.3622 249.966L21.5822 249.049C20.7472 248.026 19.9397 246.976 19.1551 245.912C19.0404 245.756 18.9303 245.6 18.811 245.453C15.6202 241.031 12.9709 236.242 10.9195 231.189C10.8553 231.038 10.8003 230.873 10.7406 230.731C10.1105 229.11 9.5523 227.474 9.06596 225.823C8.85491 225.131 8.65304 224.447 8.47869 223.727C8.41446 223.516 8.3594 223.31 8.30893 223.103C5.70291 212.935 5.39551 202.373 5.39551 191.883C5.39551 190.659 5.39551 189.43 5.39551 188.214C5.39551 183.972 5.44598 179.702 5.51939 175.436C5.51939 174.331 5.56527 173.23 5.58821 172.12C5.65244 169.304 5.7442 166.488 5.86349 163.672C5.89102 162.888 5.92772 162.108 5.96902 161.328C5.96902 160.879 5.99196 160.429 6.03784 159.98C6.14795 158.347 6.23971 156.728 6.34983 155.114Z" fill="#0075FF"/>
<path opacity="0.1" d="M52.9139 84.4734H27.3721C31.524 77.977 36.0605 71.7345 40.9573 65.779C44.7517 61.1192 48.7571 56.5786 52.9139 52.2031V84.4734Z" fill="#0075FF"/>
<path opacity="0.1" d="M52.9146 86.4365V153.151H6.49707C6.49707 152.958 6.52919 152.761 6.54295 152.569C6.58424 152.041 6.62554 151.514 6.67142 150.991C6.72188 150.376 6.77694 149.757 6.83659 149.156C6.89623 148.555 6.96047 147.822 7.02929 147.157C7.09811 146.492 7.16234 145.817 7.24034 145.152C7.31833 144.487 7.38716 143.822 7.46974 143.162C7.55233 142.501 7.62574 141.832 7.71291 141.171C7.78173 140.621 7.85514 140.075 7.92855 139.525C8.03407 138.75 8.14419 137.97 8.26348 137.199C8.26348 137.085 8.29559 136.965 8.31395 136.855C9.15135 131.215 10.2924 125.623 11.7321 120.106C13.239 114.318 15.1634 108.646 17.4901 103.136C19.9629 97.3714 22.8582 91.7975 26.1524 86.4595L52.9146 86.4365Z" fill="#0075FF"/>
<path opacity="0.1" d="M64.0312 155.109V218.558H163.487V155.109H64.0312ZM64.0312 220.517V275.004C64.6002 275.123 65.1645 275.238 65.7242 275.334C66.4859 275.481 67.2429 275.614 68.0183 275.728C68.1651 275.751 68.3165 275.774 68.4771 275.788C68.7799 275.838 69.0919 275.88 69.3947 275.921C70.1609 276.026 70.9225 276.114 71.6887 276.182C72.0512 276.219 72.4182 276.251 72.7853 276.279L73.6708 276.347C74.1525 276.384 74.6297 276.412 75.1023 276.425C75.3959 276.425 75.6895 276.453 75.9923 276.462C76.2217 276.462 76.4512 276.462 76.6897 276.462C76.9283 276.462 77.2678 276.462 77.5569 276.462C77.9514 276.462 78.346 276.462 78.736 276.462H79.2636C79.6582 276.462 80.0528 276.462 80.4428 276.425H80.4703C80.741 276.425 81.0163 276.425 81.2916 276.389C81.368 276.393 81.4446 276.393 81.521 276.389C81.7504 276.389 81.9798 276.389 82.2 276.357H82.3606L83.8976 276.237C84.4023 276.192 84.9115 276.132 85.4254 276.077L86.4715 275.953C90.7273 275.357 94.9358 274.462 99.0657 273.275C108.343 270.688 117.418 267.069 126.691 264.418C138.679 261.001 151.925 259.323 163.51 263.501V220.517H64.0312ZM163.487 84.4733V0.00457092C152.598 -0.113358 141.739 1.15975 131.173 3.79298C105.989 10.1177 83.3929 23.8358 64.0312 41.356V84.4687H69.0231V86.4271H64.0312V153.151H163.487V86.4317H89.518V84.4733H163.487ZM291.232 55.9409C285.002 55.7208 278.808 53.7486 273.206 50.7032C262.493 44.8784 253.936 35.8844 244.374 28.2938C224.508 12.4843 199.87 2.94449 174.595 0.577877V84.4733H316.572L316.926 84.1018L291.232 55.9409ZM304.166 53.6477L317.88 68.6913V49.7034C313.287 50.2721 309.264 51.6251 304.185 53.6294L304.166 53.6477ZM317.88 288.534V220.517H288.659C288.581 220.228 288.503 219.934 288.411 219.641C288.498 219.934 288.571 220.228 288.654 220.517H174.613V269.706C175.696 270.509 176.765 271.353 177.825 272.211C178.967 273.128 180.096 274.096 181.229 275.045L182.371 275.99C182.917 276.448 183.468 276.907 184.023 277.338C185.124 278.231 186.236 279.112 187.359 279.98C187.914 280.439 188.483 280.851 189.047 281.283C198.006 288.13 207.457 294.309 217.323 299.77C219.535 300.994 221.766 302.188 224.017 303.353C225.518 304.118 227.027 304.88 228.541 305.618C230.817 306.728 233.111 307.798 235.423 308.829C256.742 318.395 279.286 324.96 302.409 328.335C307.545 329.093 312.7 329.689 317.875 330.124V288.529H318.334L317.88 288.534ZM174.613 86.4317V153.151H317.898V86.4317H174.613ZM174.613 155.109V218.558H317.898V155.109H174.613ZM329.02 49.6208V70.801L346.523 51.6022C340.724 50.6665 334.889 49.9984 329.02 49.5979V49.6208ZM329.02 155.132V218.558H468.382V155.109L329.02 155.132ZM467.873 293.57L468.364 220.517H329.02V330.853C337.996 331.23 346.987 331.123 355.952 330.532V330.532H356.108C360.39 330.263 364.652 329.871 368.895 329.358H368.991C391.624 326.725 413.755 320.821 434.692 311.833L467.873 293.57ZM495.255 165.557C494.732 164.323 494.186 163.099 493.63 161.888C492.594 159.595 491.497 157.366 490.368 155.137H479.495V218.558H506.986C506.973 200.598 502.426 182.252 495.268 165.534L495.255 165.557ZM479.495 220.54V283.374C487.239 275.953 493.782 267.464 498.494 257.759C504.16 246.072 506.752 233.418 506.963 220.53L479.495 220.54ZM479.495 136.644V153.155H489.35C486.368 147.471 483.083 141.952 479.508 136.621L479.495 136.644ZM384.98 62.0684C384.256 61.7933 383.531 61.5135 382.801 61.2429C375.107 58.4026 367.245 56.0407 359.26 54.1706L332.475 83.556L331.961 84.1018L332.305 84.4779H427.636C414.359 75.3419 400.045 67.8118 384.994 62.0455L384.98 62.0684ZM430.43 86.4546H330.974L329.02 88.2433V153.151H346.152H346.179H468.401V121.711C457.344 108.344 444.583 96.4832 430.444 86.4317L430.43 86.4546Z" fill="#0075FF"/>
<path opacity="0.1" d="M52.9146 120.087V153.151H6.49707C6.49707 152.958 6.52919 152.761 6.54295 152.568C6.58424 152.041 6.62554 151.513 6.67142 150.99C6.72188 150.376 6.77694 149.757 6.83659 149.156C6.89623 148.555 6.96047 147.821 7.02929 147.156C7.09811 146.491 7.16234 145.817 7.24034 145.152C7.31833 144.487 7.38716 143.822 7.46974 143.161C7.55233 142.501 7.62574 141.831 7.71291 141.171C7.78173 140.62 7.85514 140.075 7.92855 139.524C8.03407 138.749 8.14419 137.969 8.26348 137.199C8.26348 137.084 8.29559 136.965 8.31395 136.855C9.15135 131.214 10.2924 125.623 11.7321 120.105L52.9146 120.087Z" fill="#0075FF"/>
<path opacity="0.1" d="M6.34983 155.114H52.9142V218.558H9.75876C9.64406 219.209 9.53395 219.865 9.41466 220.521H52.9142V271.688C52.8362 271.665 52.7673 271.637 52.6939 271.61C51.4643 271.124 50.2439 270.61 49.0235 270.059L48.2435 269.706C47.02 269.128 45.7965 268.517 44.573 267.872C44.1463 267.647 43.7197 267.413 43.2976 267.175C36.5053 263.371 30.3349 258.552 25.0003 252.883C24.8443 252.732 24.6975 252.571 24.5415 252.425C23.7983 251.617 23.0688 250.801 22.3622 249.966L21.5822 249.049C20.7472 248.026 19.9397 246.976 19.1551 245.912C19.0404 245.756 18.9303 245.6 18.811 245.453C15.6202 241.031 12.9709 236.242 10.9195 231.189C10.8553 231.038 10.8003 230.873 10.7406 230.731C10.1105 229.11 9.5523 227.474 9.06596 225.823C8.85491 225.131 8.65304 224.447 8.47869 223.727C8.41446 223.516 8.3594 223.31 8.30893 223.103C5.70291 212.935 5.39551 202.373 5.39551 191.883C5.39551 190.659 5.39551 189.43 5.39551 188.214C5.39551 183.972 5.44598 179.702 5.51939 175.436C5.51939 174.331 5.56527 173.23 5.58821 172.12C5.65244 169.304 5.7442 166.488 5.86349 163.672C5.89102 162.888 5.92772 162.108 5.96902 161.328C5.96902 160.879 5.99196 160.429 6.03784 159.98C6.14795 158.347 6.23971 156.728 6.34983 155.114Z" fill="#0075FF"/>
<path opacity="0.1" d="M99.0428 95.9852V153.151H64.0312V95.9852H69.0231V76.6304H89.5134V95.9852H99.0428Z" fill="#0075FF"/>
<path opacity="0.1" d="M99.0431 155.109H64.0361V218.554H99.0431V155.109Z" fill="#0075FF"/>
<path opacity="0.1" d="M64.0312 220.521H99.0428V273.265C94.9128 274.451 90.7043 275.345 86.4486 275.939L85.4025 276.068C84.8886 276.127 84.3793 276.178 83.8746 276.228C83.37 276.279 82.8469 276.315 82.3376 276.347H82.1771C81.9568 276.347 81.7183 276.375 81.5026 276.379H81.2686C80.9933 276.379 80.7181 276.407 80.4428 276.416C80.0528 276.439 79.6628 276.444 79.2636 276.448C79.0939 276.448 78.9333 276.448 78.7635 276.448C78.369 276.448 77.979 276.448 77.5844 276.448H76.7173C76.4833 276.448 76.2585 276.448 76.0153 276.448L75.1298 276.416C74.671 276.416 74.1755 276.366 73.6983 276.334L72.8174 276.269L71.7209 276.168C70.9501 276.1 70.1838 276.012 69.4268 275.907L68.5092 275.779L68.0504 275.714C67.2842 275.595 66.5272 275.467 65.7564 275.32C65.192 275.224 64.6323 275.104 64.0634 274.99L64.0312 220.521Z" fill="#0075FF"/>
<path opacity="0.1" d="M317.898 89.2339H289.03V153.146H317.898V89.2339Z" fill="#0075FF"/>
<path opacity="0.1" d="M317.902 155.109V218.558H174.612V191.191H250.935V207.335H289.03V155.109H317.902Z" fill="#0075FF"/>
<path opacity="0.1" d="M318.356 288.547H317.898V330.169C312.728 329.732 307.574 329.137 302.436 328.385C279.301 324.999 256.748 318.421 235.423 308.838C229.265 306.068 223.234 303.044 217.327 299.766C207.461 294.302 198.009 288.123 189.046 281.278C186.795 279.553 184.573 277.789 182.38 275.985C180.861 274.733 179.352 273.449 177.824 272.201C176.764 271.343 175.695 270.5 174.612 269.692V220.521H288.649C288.571 220.227 288.493 219.934 288.41 219.645C288.497 219.934 288.58 220.227 288.658 220.521H317.898V288.52C318.054 288.524 318.205 288.538 318.356 288.547Z" fill="#0075FF"/>
<path opacity="0.1" d="M393.188 84.4733H374.377V78.6302H382.81V61.2246C383.541 61.4906 384.269 61.7643 384.994 62.0456V78.6302H393.188V84.4733Z" fill="#0075FF"/>
<path opacity="0.1" d="M438.509 153.151H346.161C346.161 153.151 346.161 153.151 346.193 153.174L346.151 153.151H329.02V89.2388H333.874V136.479H356.057V108.502H374.382V86.4365H393.193V108.52H411.518V136.498H438.509V153.151Z" fill="#0075FF"/>
<path opacity="0.1" d="M329.02 155.109V218.558H438.509V155.109H329.02ZM468.231 293.244L468.382 243.022H438.509V220.549H329.02V330.853C337.996 331.23 346.986 331.123 355.952 330.532V330.532H356.108C360.39 330.263 364.652 329.872 368.894 329.358H368.991C391.624 326.725 413.755 320.822 434.692 311.833" fill="#0075FF"/>
<path opacity="0.1" d="M481.44 220.521H506.981C506.757 233.404 504.169 246.058 498.507 257.745C493.795 267.454 487.248 275.944 479.513 283.36V242.999H481.44V220.521Z" fill="#0075FF"/>
<path opacity="0.1" d="M506.995 218.558H481.439V165.534H495.268C502.425 182.252 506.972 200.598 506.995 218.558Z" fill="#0075FF"/>
<path opacity="0.1" d="M317.903 107.002H302.437V127.04H317.903V107.002Z" fill="#0075FF"/>
<path opacity="0.1" d="M317.903 148.537H302.437V153.151H317.903V148.537Z" fill="#0075FF"/>
<path opacity="0.1" d="M317.903 155.109H302.437V168.571H317.903V155.109Z" fill="#0075FF"/>
<path opacity="0.1" d="M317.903 190.072H302.437V210.11H317.903V190.072Z" fill="#0075FF"/>
<path opacity="0.1" d="M317.903 231.606H302.437V251.645H317.903V231.606Z" fill="#0075FF"/>
<path opacity="0.1" d="M317.898 288.52C318.054 288.52 318.206 288.52 318.357 288.547H317.898V293.203H302.437V273.142H317.898V288.52Z" fill="#0075FF"/>
<path opacity="0.1" d="M317.898 314.667V330.147C312.729 329.71 307.575 329.115 302.437 328.363V314.667H317.898Z" fill="#0075FF"/>
<path opacity="0.1" d="M240.896 217.086H174.612V218.558H240.896V217.086Z" fill="#0075FF"/>
<path opacity="0.1" d="M240.896 220.517H174.612V226.158H240.896V220.517Z" fill="#0075FF"/>
<path opacity="0.1" d="M240.896 244.65H174.612V253.722H240.896V244.65Z" fill="#0075FF"/>
<path opacity="0.1" d="M240.892 272.215V281.287H189.046C186.795 279.569 184.571 277.805 182.375 275.995C180.857 274.742 179.352 273.458 177.819 272.215H240.892Z" fill="#0075FF"/>
<path opacity="0.1" d="M240.892 299.775V308.838H235.419C229.268 306.065 223.238 303.039 217.328 299.761L240.892 299.775Z" fill="#0075FF"/>
<path opacity="0.1" d="M369.005 161.26H355.956V174.304H369.005V161.26Z" fill="#0075FF"/>
<path opacity="0.1" d="M86.4801 100.484H73.4316V113.528H86.4801V100.484Z" fill="#0075FF"/>
<path opacity="0.1" d="M86.4801 130.783H73.4316V143.827H86.4801V130.783Z" fill="#0075FF"/>
<path opacity="0.1" d="M86.4801 161.081H73.4316V174.125H86.4801V161.081Z" fill="#0075FF"/>
<path opacity="0.1" d="M86.4801 191.375H73.4316V204.418H86.4801V191.375Z" fill="#0075FF"/>
<path opacity="0.1" d="M86.4801 221.672H73.4316V234.716H86.4801V221.672Z" fill="#0075FF"/>
<path opacity="0.1" d="M86.4801 251.971H73.4316V265.015H86.4801V251.971Z" fill="#0075FF"/>
<path opacity="0.1" d="M418.817 161.26H405.769V174.304H418.817V161.26Z" fill="#0075FF"/>
<path opacity="0.1" d="M369.005 193.434H355.956V206.477H369.005V193.434Z" fill="#0075FF"/>
<path opacity="0.1" d="M418.817 193.434H405.769V206.477H418.817V193.434Z" fill="#0075FF"/>
<path opacity="0.1" d="M369.005 225.603H355.956V238.647H369.005V225.603Z" fill="#0075FF"/>
<path opacity="0.1" d="M418.817 225.603H405.769V238.647H418.817V225.603Z" fill="#0075FF"/>
<path opacity="0.1" d="M369.005 257.777H355.956V270.821H369.005V257.777Z" fill="#0075FF"/>
<path opacity="0.1" d="M418.817 257.777H405.769V270.821H418.817V257.777Z" fill="#0075FF"/>
<path opacity="0.1" d="M369.005 289.951H355.956V302.995H369.005V289.951Z" fill="#0075FF"/>
<path opacity="0.1" d="M418.817 289.951H405.769V302.995H418.817V289.951Z" fill="#0075FF"/>
<path opacity="0.1" d="M355.956 330.532V322.12H369V329.335L355.956 330.532Z" fill="#0075FF"/>
<path opacity="0.1" d="M8.25879 136.846V144.308H52.9145V136.846H8.25879ZM12.7092 143.841H9.06629V137.305H12.7367L12.7092 143.841ZM17.1551 143.841H13.4846V137.305H17.1551V143.841ZM21.5917 143.841H17.9213V137.305H21.5917V143.841ZM26.0376 143.841H22.3717V137.305H26.0422L26.0376 143.841ZM30.4788 143.841H26.8084V137.305H30.4788V143.841ZM34.9247 143.841H31.2542V137.305H34.9247V143.841ZM39.3705 143.841H35.7V137.305H39.3705V143.841ZM43.8117 143.841H40.1413V137.305H43.8117V143.841ZM48.253 143.841H44.5825V137.305H48.253V143.841ZM52.6942 143.841H49.0238V137.305H52.6942V143.841Z" fill="#0075FF"/>
<path opacity="0.1" d="M8.25879 158.558V166.02H52.9145V158.558H8.25879ZM12.7092 165.548H9.06629V159.031H12.7367L12.7092 165.548ZM17.1551 165.548H13.4846V159.031H17.1551V165.548ZM21.5917 165.548H17.9213V159.031H21.5917V165.548ZM26.0376 165.548H22.3717V159.031H26.0422L26.0376 165.548ZM30.4788 165.548H26.8084V159.031H30.4788V165.548ZM34.9247 165.548H31.2542V159.031H34.9247V165.548ZM39.3705 165.548H35.7V159.031H39.3705V165.548ZM43.8117 165.548H40.1413V159.031H43.8117V165.548ZM48.253 165.548H44.5825V159.031H48.253V165.548ZM52.6942 165.548H49.0238V159.031H52.6942V165.548Z" fill="#0075FF"/>
<path opacity="0.1" d="M8.25879 180.28V187.756H52.9145V180.28H8.25879ZM12.7092 187.27H9.06629V180.748H12.7367L12.7092 187.27ZM17.1551 187.27H13.4846V180.748H17.1551V187.27ZM21.5917 187.27H17.9213V180.748H21.5917V187.27ZM26.0376 187.27H22.3717V180.748H26.0422L26.0376 187.27ZM30.4788 187.27H26.8084V180.748H30.4788V187.27ZM34.9247 187.27H31.2542V180.748H34.9247V187.27ZM39.3705 187.27H35.7V180.748H39.3705V187.27ZM43.8117 187.27H40.1413V180.748H43.8117V187.27ZM48.253 187.27H44.5825V180.748H48.253V187.27ZM52.6942 187.27H49.0238V180.748H52.6942V187.27Z" fill="#0075FF"/>
<path opacity="0.1" d="M8.25879 202.001V209.454H52.9145V202.001H8.25879ZM12.7092 208.991H9.06629V202.464H12.7367L12.7092 208.991ZM17.1551 208.991H13.4846V202.464H17.1551V208.991ZM21.5917 208.991H17.9213V202.464H21.5917V208.991ZM26.0376 208.991H22.3717V202.464H26.0422L26.0376 208.991ZM30.4788 208.991H26.8084V202.464H30.4788V208.991ZM34.9247 208.991H31.2542V202.464H34.9247V208.991ZM39.3705 208.991H35.7V202.464H39.3705V208.991ZM43.8117 208.991H40.1413V202.464H43.8117V208.991ZM48.253 208.991H44.5825V202.464H48.253V208.991ZM52.6942 208.991H49.0238V202.464H52.6942V208.991Z" fill="#0075FF"/>
<path opacity="0.1" d="M8.45117 223.718C8.63011 224.42 8.83198 225.121 9.04303 225.814V224.186H12.7135V230.708H10.7498C10.8094 230.859 10.8691 231.024 10.9287 231.166H52.9142V223.718H8.45117ZM17.1685 230.708H13.498V224.186H17.1685V230.708ZM21.6052 230.708H17.9347V224.186H21.6052V230.708ZM26.051 230.708H22.3714V224.186H26.0418L26.051 230.708ZM30.4923 230.708H26.8218V224.186H30.4923V230.708ZM34.9381 230.708H31.2676V224.186H34.9381V230.708ZM39.3839 230.708H35.7135V224.186H39.3839V230.708ZM43.8252 230.708H40.1547V224.186H43.8252V230.708ZM48.2664 230.708H44.596V224.186H48.2664V230.708ZM52.7077 230.708H49.0372V224.186H52.7077V230.708Z" fill="#0075FF"/>
<path opacity="0.1" d="M18.8203 245.439C18.935 245.586 19.0451 245.751 19.1644 245.898H21.5915V249.031C21.853 249.342 22.11 249.654 22.3761 249.948V245.88H26.0465V252.425H24.56C24.7068 252.576 24.849 252.736 25.0188 252.883H52.928V245.439H18.8203ZM30.4786 252.425H26.8081V245.907H30.4786V252.425ZM34.9244 252.425H31.254V245.907H34.9244V252.425ZM39.3703 252.425H35.6998V245.907H39.3703V252.425ZM43.8115 252.425H40.1411V245.907H43.8115V252.425ZM48.2528 252.425H44.5823V245.907H48.2528V252.425ZM52.694 252.425H49.0236V245.907H52.694V252.425Z" fill="#0075FF"/>
<path opacity="0.1" d="M43.3164 267.156C43.7339 267.395 44.1606 267.615 44.5919 267.853V267.624H48.2623V269.688L49.0423 270.05V267.624H52.7128V271.591C52.7832 271.626 52.857 271.654 52.933 271.674V267.156H43.3164Z" fill="#0075FF"/>
<path opacity="0.1" d="M346.16 153.151H346.188H346.16ZM317.898 288.515H318.357H317.898ZM288.41 219.641C288.498 219.934 288.571 220.228 288.654 220.517C288.58 220.228 288.502 219.934 288.41 219.641ZM346.16 153.137H346.188H346.16ZM69.041 84.4595V86.4179H89.5359V84.4595H69.041ZM317.898 288.515H318.357H317.898ZM288.41 219.641C288.498 219.934 288.571 220.228 288.654 220.517C288.58 220.228 288.502 219.934 288.41 219.641ZM346.16 153.137H346.188H346.16ZM317.898 288.502H318.357H317.898ZM288.41 219.641C288.498 219.934 288.571 220.228 288.654 220.517C288.58 220.228 288.502 219.934 288.41 219.641Z" fill="#0075FF"/>
<path d="M211.785 174.134C211.785 174.134 209.977 173.881 209.977 171.249C209.977 168.616 208.683 163.699 208.683 163.699C208.683 163.677 207.564 155.137 206.018 153.779C204.471 152.421 202.485 144.45 202.485 144.45C202.485 144.45 202.145 140.125 201.452 139.194C200.76 138.263 199.824 135.984 198.443 132.732C197.062 129.48 191.304 127.228 191.304 127.228C191.304 127.228 180.893 121.192 177.943 119.225C177.675 119.063 177.424 118.874 177.195 118.661C176.682 117.986 174.443 117.973 174.443 117.973C174.209 116.496 173.984 114.799 173.91 113.262C173.91 113.097 173.91 112.932 173.887 112.767C177.177 110.823 179.655 107.758 180.866 104.135C180.921 103.961 180.967 103.777 181.017 103.603C181.214 103.538 181.396 103.433 181.55 103.294C181.704 103.155 181.827 102.985 181.912 102.796C182.178 102.204 182.183 101.512 182.513 100.961C182.898 100.31 183.632 99.9616 184.211 99.4708C185.67 98.2325 186.046 96.1456 185.977 94.2468C185.931 92.7104 185.683 91.1602 185.78 89.6329L185.807 89.2476C185.835 89.0183 185.867 88.789 185.908 88.5688C186.133 87.4314 186.624 86.3581 186.899 85.2299C187.174 84.1016 187.202 82.8312 186.56 81.8588C185.619 80.4324 183.66 80.1481 181.939 80.0013C179.99 79.8362 178.246 80.0518 176.998 78.4327C176.414 77.5866 175.757 76.7931 175.034 76.0616C174.777 75.8231 172.282 74.3004 172.282 74.1995C169.846 73.0716 167.084 72.8599 164.505 73.6032C163.211 73.9793 161.991 74.5939 160.678 74.9012C157.847 75.5708 154.59 74.8461 152.186 76.4652C150.846 77.3825 150.043 78.8409 149.291 80.2627C148.679 81.4338 148.058 82.6034 147.428 83.7714C146.414 85.6931 145.382 87.6469 144.955 89.775C144.865 90.2381 144.81 90.7072 144.79 91.1785V91.2014C144.79 91.3711 144.79 91.5408 144.79 91.7105V91.9261C144.79 92.0866 144.79 92.2426 144.817 92.3847C144.845 92.5269 144.84 92.5728 144.854 92.6691C144.868 92.7654 144.891 92.981 144.918 93.1277C144.946 93.2745 145.001 93.5314 145.056 93.7332C145.079 93.8203 145.111 93.9028 145.139 93.9854C145.184 94.1413 145.239 94.2927 145.299 94.4441C145.331 94.522 145.363 94.6046 145.4 94.6826C145.469 94.8431 145.551 94.999 145.634 95.1412C145.671 95.2054 145.698 95.265 145.735 95.3247C145.863 95.5379 146.004 95.7432 146.157 95.9392C147.139 97.1638 148.584 97.9435 149.653 99.0901C149.653 99.136 149.653 99.1819 149.653 99.2231C149.653 99.3516 149.653 99.4754 149.653 99.6038C149.71 102.161 150.391 104.666 151.637 106.9C152.882 109.134 154.655 111.03 156.801 112.423C156.801 112.597 156.824 112.776 156.834 112.95C156.923 114.312 156.906 115.678 156.783 117.037C156.596 116.817 156.362 116.642 156.099 116.524C155.835 116.407 155.548 116.35 155.26 116.358C155.063 116.349 154.865 116.365 154.673 116.409L154.631 116.376V116.418C153.622 116.665 152.378 117.716 151.19 120.701C151.19 120.701 147.575 124.774 144.822 124.605C142.069 124.435 135.1 128.842 135.1 128.842C135.1 128.842 128.3 133.255 126.841 137.749C126.026 140.298 125.048 142.792 123.914 145.216L115.509 162.53L113.958 176.266C113.958 176.266 114.816 182.376 114.646 183.307C114.476 184.238 118.174 192.635 118.174 192.635C118.174 192.635 130.392 214.095 135.384 215.196L135.742 214.944C135.956 215.055 136.182 215.14 136.417 215.196L137.444 214.472C137.506 215.279 137.48 216.091 137.366 216.893C136.678 219.012 137.623 232.84 138.825 235.551C140.027 238.261 139.601 273.802 139.601 273.802L139.431 276.939C139.431 276.939 139.431 277.04 139.472 277.214L139.431 277.957L139.555 278.021C139.683 279.016 139.642 280.026 139.431 281.007C139 282.383 138.825 286.272 138.825 286.272C138.825 286.272 135.389 308.232 137.018 312.645C138.646 317.057 140.032 321.891 140.032 321.891C140.032 321.891 141.753 327.395 140.115 328.335C138.477 329.275 133.82 330.853 134.779 333.146C135.65 335.265 138.958 340.943 139.449 341.773L139.408 342.209L138.734 349.515C138.843 350.48 139.105 351.421 139.509 352.304C140.248 353.895 141.684 355.546 144.414 355.367C144.872 355.335 145.405 355.28 145.919 355.211C150.915 354.542 157.068 352.313 157.068 352.313C156.748 352.11 156.455 351.868 156.196 351.593V351.593C155.95 351.355 155.756 351.07 155.624 350.754C155.492 350.439 155.426 350.1 155.43 349.758C155.503 348.428 153.012 342.09 152.392 340.53C152.296 340.305 152.245 340.177 152.245 340.177C152.245 340.177 157.925 334.242 156.98 328.982C156.98 328.982 150.695 325.312 152.764 323.299C154.833 321.285 158.531 315.502 158.531 315.502C158.531 315.502 158.701 293.877 158.531 290.648C158.354 288.407 158.46 286.152 158.848 283.938C158.916 283.603 158.999 283.278 159.086 282.956C161.948 283.383 164.837 283.603 167.73 283.612C168.785 283.612 169.859 283.612 170.942 283.548C170.942 283.854 170.956 284.184 170.983 284.539C171.222 289.896 171.667 299.289 172.029 302.779C172.543 307.783 175.383 321.267 175.383 321.267C175.383 321.267 169.965 324.744 176.328 333.311C176.328 333.311 176.328 336.416 175.906 336.866C175.455 338.335 175.092 339.83 174.819 341.342C174.553 342.956 174.443 344.589 174.874 345.438C175.906 347.465 182.1 347.3 182.1 347.3L182.251 347.272C183.421 347.151 184.602 347.264 185.728 347.603C186.853 347.943 187.9 348.502 188.808 349.249C191.161 351.139 200.094 350.309 204.93 349.708C206.825 349.469 208.091 349.249 208.091 349.249C208.153 349.035 208.175 348.811 208.156 348.589C208.105 347.401 207.174 344.796 200.861 342.47C200.861 342.47 194.924 338.48 195.006 335.004H194.882H194.194C194.694 334.976 195.015 335.004 195.015 335.004C195.015 335.004 192.689 326.519 193.639 325.831C194.589 325.143 191.744 315.74 191.744 315.74C191.744 315.74 190.115 299.963 190.028 298.858C190.032 297.909 190.176 296.966 190.455 296.06L190.028 287.41C190.028 287.41 189.946 284.534 190.028 283.599C190.014 282.786 189.948 281.976 189.831 281.172C189.79 280.851 189.748 280.516 189.702 280.186C191.928 279.622 193.373 279.099 193.373 279.099L193.116 248.989C195.006 245.32 195.355 237.271 195.346 231.561C195.346 227.891 195.181 225.176 195.181 225.176L197.764 220.961C197.764 220.961 198.36 215.916 197.415 214.811C196.997 214.311 197.186 213.793 197.53 213.366C197.708 213.225 197.897 213.096 198.094 212.981C198.094 212.981 198.066 212.94 198.034 212.88C198.215 212.729 198.406 212.593 198.608 212.472C198.608 212.472 197.69 211.05 198.512 210.449C199.282 210.972 199.971 211.366 200.494 211.688C200.457 212.022 200.42 212.215 200.42 212.215L200.64 211.756C201.145 212.041 201.452 212.215 201.452 212.215C201.452 212.215 205.499 204.157 205.412 202.969C205.325 201.781 208.165 196.777 208.165 196.777C208.165 196.777 208.509 194.149 210.06 193.048C211.61 191.947 211.262 183.972 211.262 183.972C211.262 183.972 211.693 179.816 212.725 178.119C213.758 176.422 211.785 174.134 211.785 174.134ZM134.357 170.598L134.435 172.519C133.976 171.781 133.645 171.249 133.645 171.249L134.357 170.598Z" fill="url(#paint0_linear_1178_16807)"/>
<path d="M201.674 208.734L200.683 212.953C200.683 212.953 192.745 208.904 191.314 203.758C189.882 198.612 193.709 196.658 193.709 196.658L201.105 199.79L201.674 208.734Z" fill="white"/>
<path opacity="0.1" d="M201.674 208.734L200.683 212.953C200.683 212.953 192.745 208.904 191.314 203.758C189.882 198.612 193.709 196.658 193.709 196.658L201.105 199.79L201.674 208.734Z" fill="black"/>
<path d="M157.128 352.34C157.128 352.34 149.787 355.037 144.74 355.377C142.06 355.555 140.652 353.913 139.927 352.331C139.531 351.451 139.275 350.515 139.17 349.556L139.826 342.287L140.175 338.416L150.897 335.632L152.416 340.273L152.558 340.626C153.168 342.177 155.614 348.483 155.54 349.799C155.537 350.136 155.602 350.471 155.732 350.782C155.861 351.093 156.052 351.375 156.293 351.611C156.539 351.889 156.819 352.134 157.128 352.34V352.34Z" fill="white"/>
<path d="M207.27 348.644C207.289 348.864 207.267 349.087 207.206 349.3C207.206 349.3 191.506 351.918 188.294 349.3C187.388 348.535 186.333 347.967 185.195 347.634C184.057 347.301 182.862 347.209 181.687 347.364C181.687 347.364 175.612 347.529 174.598 345.53C174.176 344.69 174.286 343.062 174.548 341.457C174.815 339.953 175.17 338.466 175.612 337.003L175.856 336.811L177.301 335.65L194.222 335.15H194.35C194.268 338.609 200.094 342.576 200.094 342.576C206.284 344.869 207.197 347.46 207.27 348.644Z" fill="white"/>
<path opacity="0.1" d="M207.271 348.644C207.287 348.865 207.263 349.087 207.202 349.3C207.202 349.3 191.506 351.919 188.294 349.3C187.389 348.535 186.335 347.968 185.198 347.635C184.061 347.302 182.867 347.21 181.692 347.364C181.692 347.364 175.613 347.529 174.604 345.53C174.181 344.686 174.287 343.062 174.549 341.457C176.888 341.691 180.582 342.273 182.032 343.663C184.225 345.777 187.941 347.887 190.221 348.052C192.006 348.167 202.683 348.506 207.271 348.644Z" fill="black"/>
<path opacity="0.1" d="M157.128 352.341C157.128 352.341 149.787 355.037 144.74 355.377C142.06 355.556 140.652 353.914 139.932 352.327C141.799 352.955 144.391 353.616 145.754 353.01C147.369 352.295 153.095 351.831 156.306 351.634C156.551 351.902 156.827 352.139 157.128 352.341V352.341Z" fill="black"/>
<path d="M168.02 135.011C161.964 132.659 154.173 124.884 156.119 121.252C156.551 120.335 156.807 119.346 156.876 118.335C157.001 116.963 157.019 115.583 156.931 114.207C156.794 111.955 156.523 109.713 156.119 107.493C156.119 107.493 175.026 107.919 173.925 110.703C173.604 111.52 173.553 112.937 173.64 114.524C173.728 116.111 173.957 117.904 174.196 119.422C174.526 121.504 174.856 123.091 174.856 123.091C174.856 123.091 173.7 124.71 173.021 124.797C172.342 124.884 176.71 138.364 168.02 135.011Z" fill="#CF6F80"/>
<path opacity="0.1" d="M152.544 340.626L152.402 340.782C146.75 333.949 139.913 342.466 139.913 342.466L139.812 342.287L140.161 338.416L150.884 335.632L152.402 340.273L152.544 340.626Z" fill="black"/>
<path opacity="0.1" d="M194.355 335.632C194.355 335.632 190.226 335.545 188.023 337.489C185.821 339.434 175.177 337.911 175.635 337.489C175.771 337.28 175.853 337.041 175.874 336.792L177.319 335.632L194.24 335.132C194.304 335.439 194.355 335.632 194.355 335.632Z" fill="black"/>
<path d="M159.578 281.966C159.27 282.726 159.037 283.514 158.881 284.319C158.498 286.523 158.392 288.766 158.564 290.997C158.734 294.207 158.564 315.722 158.564 315.722C158.564 315.722 154.935 321.46 152.911 323.483C150.888 325.505 157.041 329.138 157.041 329.138C157.958 334.366 152.398 340.274 152.398 340.274C146.745 333.44 139.909 341.961 139.909 341.961C139.909 341.961 136.193 335.54 135.266 333.247C134.339 330.954 138.895 329.367 140.496 328.436C142.097 327.505 140.418 322.015 140.418 322.015C140.418 322.015 139.065 317.204 137.459 312.814C135.853 308.425 139.23 286.575 139.23 286.575C139.23 286.575 139.404 282.695 139.822 281.342C140.032 280.366 140.074 279.361 139.946 278.37C139.918 278.035 139.886 277.756 139.863 277.568C139.84 277.38 139.822 277.292 139.822 277.292L139.886 277.182L142.18 272.908C142.18 272.908 160.679 279.274 159.578 281.966Z" fill="#0075FF"/>
<path d="M194.355 335.127C194.355 335.127 190.226 335.04 188.023 336.962C185.821 338.884 175.177 337.384 175.636 336.962C176.094 336.54 176.058 333.417 176.058 333.417C169.813 324.895 175.14 321.437 175.14 321.437C175.14 321.437 172.351 308.021 171.846 303.045C171.493 299.569 171.057 290.226 170.823 284.892C170.722 282.599 170.662 281.021 170.662 281.021L175.764 279.994L176.42 279.861L188.725 277.393C188.725 277.393 189.065 279.686 189.294 281.562C189.409 282.363 189.473 283.17 189.487 283.979C189.404 284.896 189.487 287.768 189.487 287.768L189.904 296.376C189.632 297.279 189.491 298.217 189.487 299.16C189.57 300.257 191.171 315.951 191.171 315.951C191.171 315.951 193.956 325.317 193.006 325.991C192.056 326.665 194.355 335.127 194.355 335.127Z" fill="#0075FF"/>
<path opacity="0.1" d="M173.924 110.703C173.603 111.52 173.553 112.937 173.64 114.524C171.107 116.048 168.196 116.828 165.24 116.773C162.284 116.717 159.404 115.83 156.93 114.212C156.794 111.958 156.523 109.714 156.118 107.493C156.118 107.493 175.026 107.91 173.924 110.703Z" fill="black"/>
<path d="M181.234 100.567C181.237 102.22 180.977 103.863 180.463 105.433C179.313 108.953 176.956 111.953 173.808 113.903C170.66 115.853 166.924 116.628 163.259 116.091C159.595 115.553 156.238 113.738 153.783 110.967C151.328 108.195 149.932 104.644 149.842 100.943C149.842 100.815 149.842 100.696 149.842 100.567C149.807 98.4838 150.186 96.4142 150.959 94.4791C151.732 92.544 152.883 90.7821 154.344 89.2962C155.805 87.8103 157.548 86.6301 159.47 85.8245C161.392 85.0189 163.456 84.604 165.54 84.604C167.625 84.604 169.688 85.0189 171.61 85.8245C173.533 86.6301 175.275 87.8103 176.737 89.2962C178.198 90.7821 179.348 92.544 180.121 94.4791C180.894 96.4142 181.274 98.4838 181.238 100.567H181.234Z" fill="#CF6F80"/>
<path opacity="0.1" d="M168.02 135.011C161.964 132.658 154.173 124.884 156.119 121.252C156.551 120.335 156.807 119.346 156.876 118.335L165.166 125.146L170.296 129.352L174.196 119.427C174.526 121.509 174.856 123.096 174.856 123.096C174.856 123.096 173.7 124.715 173.021 124.802C172.342 124.889 176.71 138.364 168.02 135.011Z" fill="black"/>
<path d="M189.459 165.112L182.536 281.379L173.507 281.971L150.126 214.554L153.962 134.516L154.769 117.606L165.166 126.141L170.3 130.347L174.314 120.133L181.779 126.637L189.459 165.112Z" fill="#0075FF"/>
<path opacity="0.1" d="M159.578 281.966C159.27 282.726 159.037 283.514 158.88 284.319C152.31 283.305 145.929 281.312 139.95 278.407L139.826 278.343L139.867 277.604L139.89 277.219L142.184 272.944C142.184 272.944 160.679 279.274 159.578 281.966Z" fill="black"/>
<path opacity="0.1" d="M175.87 284.337C174.19 284.623 172.496 284.815 170.795 284.915C170.694 282.622 170.635 281.044 170.635 281.044L175.737 280.017L175.87 284.337Z" fill="black"/>
<path opacity="0.1" d="M189.267 281.585C186.005 282.434 180.967 283.388 176.457 282.791L176.393 279.884L188.698 277.416C188.698 277.416 189.037 279.686 189.267 281.585Z" fill="black"/>
<path opacity="0.1" d="M176.375 283.323C157.564 286.534 140.335 277.329 140.335 277.329L140.501 274.21C140.501 274.21 140.927 238.853 139.744 236.143C138.56 233.432 137.638 219.686 138.307 217.577C138.977 215.467 135.862 183.829 135.862 183.829L135.357 170.987L116.886 163.507L125.144 146.299C126.26 143.886 127.219 141.404 128.016 138.868C129.452 134.401 136.119 130.012 136.119 130.012C136.119 130.012 142.955 125.627 145.658 125.792C148.36 125.958 151.902 121.912 151.902 121.912C154.517 115.248 156.885 118.266 156.885 118.266C156.885 118.583 156.885 118.266 156.756 119.252C155.838 126.568 171.594 149.683 171.819 150.092L173.319 186.627L174.838 232.863L176.375 283.323Z" fill="black"/>
<path d="M175.87 283.324C157.059 286.534 139.826 277.329 139.826 277.329L139.996 274.21C139.996 274.21 140.422 238.853 139.234 236.143C138.046 233.432 137.128 219.687 137.803 217.577C138.477 215.467 135.357 183.83 135.357 183.83L134.848 170.988L116.367 163.48L124.626 146.271C125.739 143.857 126.698 141.376 127.498 138.841C128.929 134.374 135.6 129.985 135.6 129.985C135.6 129.985 142.437 125.6 145.134 125.765C147.832 125.93 151.379 121.885 151.379 121.885C153.999 115.221 156.884 118.239 156.884 118.239C156.884 118.555 156.609 118.697 156.756 119.225C158.775 126.32 171.089 149.656 171.314 150.064L172.833 186.6L174.351 232.836L175.87 283.324Z" fill="white"/>
<path opacity="0.1" d="M170.8 151.105C168.777 150.262 158.059 138.029 158.059 138.029V135.246C157.669 134.328 155.352 134.888 153.471 135.53L154.278 118.62L155.196 119.381C157.205 126.472 170.566 150.697 170.8 151.105Z" fill="black"/>
<path d="M171.309 150.092C169.281 149.248 158.564 137.016 158.564 137.016V134.232C158.174 133.315 155.857 133.874 153.976 134.516L154.788 117.606L155.705 118.367C157.719 125.458 171.084 149.688 171.309 150.092Z" fill="white"/>
<path opacity="0.1" d="M140.335 211.096C140.587 211.096 153.416 209.748 153.416 209.748C153.416 209.748 161.183 225.016 160.674 228.731C160.165 232.446 159.242 235.734 156.118 235.152C152.994 234.569 139.303 235.611 139.303 235.611L140.335 211.096Z" fill="black"/>
<path d="M139.826 210.082C140.079 210.082 152.907 208.734 152.907 208.734C152.907 208.734 160.67 224.007 160.165 227.717C159.66 231.428 158.729 234.721 155.609 234.138C152.489 233.556 138.794 234.597 138.794 234.597L139.826 210.082Z" fill="white"/>
<path d="M149.493 202.914C149.493 202.914 161.266 209.239 161.518 211.17C161.77 213.101 155.526 210.326 154.177 209.991C153.289 209.777 152.386 209.636 151.475 209.569L142.478 209.812L149.493 202.914Z" fill="#CF6F80"/>
<path opacity="0.1" d="M167.515 151.894C168.199 151.894 168.754 151.34 168.754 150.656C168.754 149.972 168.199 149.417 167.515 149.417C166.831 149.417 166.276 149.972 166.276 150.656C166.276 151.34 166.831 151.894 167.515 151.894Z" fill="black"/>
<path d="M167.515 151.39C168.199 151.39 168.754 150.835 168.754 150.151C168.754 149.468 168.199 148.913 167.515 148.913C166.831 148.913 166.276 149.468 166.276 150.151C166.276 150.835 166.831 151.39 167.515 151.39Z" fill="#3F3D56"/>
<path opacity="0.1" d="M169.795 205.501C170.48 205.501 171.034 204.946 171.034 204.262C171.034 203.578 170.48 203.024 169.795 203.024C169.111 203.024 168.557 203.578 168.557 204.262C168.557 204.946 169.111 205.501 169.795 205.501Z" fill="black"/>
<path d="M169.795 204.991C170.48 204.991 171.034 204.437 171.034 203.753C171.034 203.069 170.48 202.515 169.795 202.515C169.111 202.515 168.557 203.069 168.557 203.753C168.557 204.437 169.111 204.991 169.795 204.991Z" fill="#3F3D56"/>
<path opacity="0.1" d="M168.75 178.697C169.434 178.697 169.988 178.143 169.988 177.459C169.988 176.775 169.434 176.221 168.75 176.221C168.065 176.221 167.511 176.775 167.511 177.459C167.511 178.143 168.065 178.697 168.75 178.697Z" fill="black"/>
<path d="M168.75 178.193C169.434 178.193 169.988 177.639 169.988 176.955C169.988 176.271 169.434 175.716 168.75 175.716C168.065 175.716 167.511 176.271 167.511 176.955C167.511 177.639 168.065 178.193 168.75 178.193Z" fill="#3F3D56"/>
<path d="M197.305 209.312C197.305 209.312 198.149 210.578 197.305 211.169C196.461 211.761 197.388 213.192 197.388 213.192C197.388 213.192 195.282 214.426 196.209 215.536C197.135 216.646 196.548 221.659 196.548 221.659L194.015 225.851C194.015 225.851 194.167 228.552 194.176 232.203C194.176 237.899 193.841 245.907 191.988 249.558L192.244 279.512C192.244 279.512 183.376 282.75 175.952 281.764L174.851 233.698C174.851 233.698 176.457 206.441 177.049 201.212C177.395 198.498 177.536 195.761 177.471 193.025C177.471 193.025 177.219 184.843 176.37 181.046C176.37 181.046 175.452 164.594 175.36 160.04C175.319 157.861 175.434 151.504 175.562 145.459C175.705 138.85 175.865 132.617 175.865 132.617L174.19 119.372C174.19 119.372 175.865 119.202 176.37 119.876C176.596 120.087 176.842 120.276 177.104 120.44V120.44C179.994 122.394 190.207 128.402 190.207 128.402C190.207 128.402 195.86 130.65 197.213 133.869C198.567 137.089 199.507 139.373 200.163 140.29C200.82 141.208 201.177 145.519 201.177 145.519C201.177 145.519 203.123 153.454 204.641 154.797C206.16 156.141 207.27 164.69 207.27 164.69L193.85 175.239C193.85 175.239 192.671 192.787 192.419 193.466C192.166 194.145 197.305 209.312 197.305 209.312Z" fill="white"/>
<path d="M197.814 209.312C197.814 209.312 198.654 210.578 197.814 211.169C196.975 211.761 197.892 213.192 197.892 213.192C197.892 213.192 195.8 214.44 196.718 215.55C197.635 216.659 197.057 221.672 197.057 221.672L194.525 225.865C194.525 225.865 194.676 228.566 194.69 232.217C194.69 237.913 194.355 245.921 192.501 249.572L192.754 279.526C192.754 279.526 183.871 282.764 176.457 281.778L175.36 233.712C175.36 233.712 176.966 206.455 177.558 201.226C177.905 198.512 178.044 195.775 177.975 193.039C177.975 193.039 177.723 184.857 176.879 181.059C176.879 181.059 175.961 164.608 175.865 160.053C175.824 157.875 175.943 151.518 176.067 145.473C176.209 138.864 176.37 132.631 176.37 132.631L174.158 119.207C174.158 119.207 176.37 119.207 176.879 119.89C177.103 120.104 177.349 120.293 177.613 120.454C180.503 122.408 190.721 128.416 190.721 128.416C190.721 128.416 196.369 130.664 197.723 133.883C199.076 137.103 200.017 139.387 200.677 140.304C201.338 141.222 201.687 145.533 201.687 145.533C201.687 145.533 203.632 153.467 205.151 154.811C206.669 156.155 207.766 164.686 207.766 164.686L194.346 175.235C194.346 175.235 193.167 192.782 192.91 193.461C192.653 194.14 197.814 209.312 197.814 209.312Z" fill="white"/>
<path opacity="0.1" d="M181.743 136.525L182.954 140.057L176.577 146.478C176.719 139.873 176.879 133.635 176.879 133.635L174.668 120.211C174.668 120.211 176.879 120.211 177.389 120.894C177.612 121.107 177.858 121.295 178.123 121.454L183.546 137.094L181.743 136.525Z" fill="black"/>
<path d="M181.233 135.511L182.449 139.043L176.071 145.464C176.214 138.855 176.374 132.622 176.374 132.622L174.158 119.197C174.158 119.197 176.374 119.197 176.879 119.881C177.104 120.093 177.35 120.282 177.613 120.445L183.041 136.08L181.233 135.511Z" fill="white"/>
<path opacity="0.1" d="M181.234 100.567C181.237 102.22 180.977 103.863 180.463 105.433C180.376 105.447 180.288 105.443 180.203 105.422C180.118 105.4 180.038 105.362 179.967 105.31C179.848 101.182 177.816 97.3062 175.315 94.0085C174.613 93.0129 173.762 92.1311 172.792 91.3942C171.811 90.6577 170.591 90.3127 169.369 90.4265C167.993 90.6145 166.777 91.5502 165.387 91.6694C163.551 91.8208 161.909 90.5503 160.087 90.4861C159.347 90.4931 158.616 90.658 157.945 90.9696C157.273 91.2812 156.675 91.7324 156.192 92.2932C155.235 93.4248 154.524 94.743 154.104 96.1641C153.383 98.319 152.99 100.57 152.939 102.842C152.916 104.126 152.792 105.736 151.599 106.204C151.689 105.259 151.582 104.307 151.284 103.406C150.986 102.505 150.505 101.676 149.87 100.971L149.842 100.943C149.842 100.815 149.842 100.696 149.842 100.567C149.807 98.4838 150.186 96.4142 150.959 94.4791C151.732 92.544 152.883 90.7821 154.344 89.2962C155.805 87.8103 157.548 86.6301 159.47 85.8245C161.392 85.0189 163.456 84.604 165.54 84.604C167.625 84.604 169.688 85.0189 171.61 85.8245C173.533 86.6301 175.275 87.8103 176.737 89.2962C178.198 90.7821 179.348 92.544 180.121 94.4791C180.894 96.4142 181.274 98.4838 181.238 100.567H181.234Z" fill="black"/>
<path d="M172.039 75.6489C169.655 74.5278 166.943 74.3157 164.414 75.0526C163.143 75.4287 161.945 76.0387 160.656 76.346C157.903 77.011 154.692 76.291 152.329 77.9008C151.017 78.8181 150.227 80.2674 149.493 81.6755L147.658 85.1703C146.658 87.0829 145.649 89.0275 145.231 91.1327C144.814 93.2379 145.066 95.5954 146.401 97.2878C147.374 98.5215 148.81 99.2966 149.865 100.457C150.497 101.163 150.977 101.992 151.274 102.891C151.57 103.791 151.678 104.742 151.59 105.686C152.788 105.227 152.902 103.612 152.93 102.328C152.981 100.056 153.374 97.8053 154.095 95.6504C154.514 94.2289 155.225 92.9104 156.183 91.7794C156.667 91.2191 157.264 90.7682 157.936 90.4566C158.607 90.1451 159.338 89.98 160.078 89.9724C161.913 90.0366 163.56 91.3024 165.377 91.1511C166.754 91.0364 167.974 90.0962 169.36 89.9127C170.581 89.7972 171.802 90.1424 172.782 90.8805C173.752 91.6162 174.602 92.4982 175.301 93.4948C177.806 96.7924 179.839 100.659 179.958 104.796C180.477 105.176 181.224 104.681 181.481 104.094C181.738 103.507 181.748 102.819 182.073 102.259C182.449 101.613 183.17 101.269 183.734 100.783C185.166 99.5489 185.523 97.4712 185.468 95.5862C185.413 93.7012 185.046 91.7886 185.404 89.9357C185.62 88.7982 186.106 87.7342 186.372 86.6105C186.638 85.4868 186.671 84.2255 186.042 83.2578C185.124 81.836 183.193 81.5562 181.509 81.4232C179.596 81.2581 177.884 81.4691 176.664 79.8592C176.091 79.0192 175.446 78.2304 174.737 77.5018C174.494 77.2633 172.039 75.7498 172.039 75.6489Z" fill="#512E4E"/>
<path opacity="0.1" d="M122.172 172.368L117.377 163.507L115.858 177.179C115.858 177.179 116.703 183.252 116.533 184.183C116.363 185.114 119.992 193.461 119.992 193.461C119.992 193.461 131.981 214.806 136.876 215.907L153.416 204.092L149.03 198.524C149.03 198.524 147.512 197.933 147.131 198.524C147.131 198.524 138.987 184.517 138.143 183.504C137.298 182.49 137.464 180.468 137.464 180.468C137.464 180.468 136.197 179.119 136.619 177.853C137.042 176.587 134.174 172.198 134.174 172.198L136.789 169.754L122.172 172.368Z" fill="black"/>
<path d="M117.629 162.498L116.362 163.507L114.844 177.179C114.844 177.179 115.688 183.252 115.518 184.183C115.348 185.114 118.982 193.461 118.982 193.461C118.982 193.461 130.966 214.807 135.862 215.907L152.406 204.093L148.016 198.525C148.016 198.525 146.497 197.933 146.116 198.525C146.116 198.525 137.972 184.518 137.128 183.504C136.284 182.49 136.454 180.468 136.454 180.468C136.454 180.468 135.187 179.119 135.609 177.853C136.031 176.588 133.159 172.198 133.159 172.198L135.775 169.754L117.629 162.498Z" fill="white"/>
<path opacity="0.1" d="M196.209 216.059C197.126 217.173 196.548 222.177 196.548 222.177L194.016 226.369C194.016 226.369 194.167 229.075 194.176 232.721L189.918 234.051C189.534 234.171 189.126 234.198 188.729 234.128C188.332 234.059 187.957 233.895 187.636 233.652C187.315 233.408 187.057 233.091 186.883 232.727C186.71 232.364 186.625 231.964 186.638 231.561L187.372 207.89L197.305 211.688C196.461 212.275 197.388 213.715 197.388 213.715C197.388 213.715 195.282 214.944 196.209 216.059Z" fill="black"/>
<path d="M196.718 215.55C197.636 216.664 197.058 221.673 197.058 221.673L194.525 225.865C194.525 225.865 194.676 228.566 194.69 232.217L190.354 233.57C189.978 233.687 189.578 233.712 189.19 233.644C188.801 233.575 188.434 233.415 188.12 233.177C187.806 232.938 187.553 232.628 187.383 232.272C187.213 231.916 187.131 231.524 187.143 231.13L187.881 207.386L197.819 211.183C196.97 211.77 197.897 213.206 197.897 213.206C197.897 213.206 195.8 214.44 196.718 215.55Z" fill="white"/>
<path d="M200.008 204.267C200.008 204.267 199.334 208.574 197.645 208.826C195.957 209.078 195.2 215.793 193.516 215.554C191.832 215.316 192.947 209.312 193.007 208.147C193.066 206.982 191.171 202.157 192.589 201.061C194.007 199.965 198.494 201.061 198.494 201.061L200.008 204.267Z" fill="#CF6F80"/>
<path opacity="0.1" d="M203.6 171.102L206.784 164.681C206.784 164.681 208.051 169.575 208.051 172.189C208.051 174.803 209.822 175.06 209.822 175.06C209.822 175.06 211.763 177.354 210.739 179.023C209.716 180.692 209.303 184.848 209.303 184.848C209.303 184.848 209.638 192.778 208.12 193.874C206.601 194.97 206.284 197.589 206.284 197.589C206.284 197.589 203.495 202.565 203.582 203.749C203.669 204.932 199.701 212.944 199.701 212.944C199.701 212.944 201.641 202.987 190.332 198.685C190.332 198.685 190.244 195.305 191.089 194.378C191.933 193.452 193.25 193.03 192.424 188.347C191.598 183.664 192.185 178.069 192.185 176.945C192.185 175.822 194.718 168.814 194.718 168.814L203.6 171.102Z" fill="black"/>
<path d="M204.977 163.764L207.757 164.681C207.757 164.681 209.028 169.575 209.028 172.189C209.028 174.803 210.799 175.06 210.799 175.06C210.799 175.06 212.74 177.353 211.716 179.023C210.693 180.692 210.285 184.848 210.285 184.848C210.285 184.848 210.62 192.778 209.101 193.874C207.583 194.97 207.243 197.589 207.243 197.589C207.243 197.589 204.458 202.565 204.545 203.748C204.632 204.932 200.659 212.944 200.659 212.944C200.659 212.944 202.604 202.987 191.29 198.685C191.29 198.685 191.208 195.305 192.052 194.378C192.896 193.452 194.213 193.03 193.387 188.347C192.561 183.664 193.148 178.069 193.148 176.945C193.148 175.821 195.681 168.813 195.681 168.813L204.977 163.764Z" fill="white"/>
<path opacity="0.1" d="M143.565 330.192C143.565 330.192 147.998 327.408 150.906 329.431C153.815 331.454 143.565 330.192 143.565 330.192Z" fill="black"/>
<path opacity="0.1" d="M178.003 321.584C178.003 321.584 181.926 321.079 185.22 324.625C188.514 328.17 178.003 321.584 178.003 321.584Z" fill="black"/>
<g opacity="0.1">
<path opacity="0.1" d="M183.743 99.7787C183.179 100.265 182.454 100.613 182.078 101.26C181.757 101.815 181.747 102.498 181.49 103.095C181.234 103.691 180.486 104.177 179.967 103.801C179.848 99.6732 177.811 95.7977 175.31 92.4954C174.611 91.4989 173.762 90.6169 172.792 89.8812C171.81 89.1431 170.587 88.798 169.364 88.9134C167.988 89.1015 166.777 90.0371 165.386 90.1518C163.551 90.3077 161.904 89.0372 160.083 88.973C159.342 88.9804 158.612 89.1459 157.941 89.4583C157.27 89.7708 156.674 90.223 156.192 90.7847C155.234 91.914 154.523 93.2309 154.104 94.6511C153.383 96.8061 152.99 99.0572 152.939 101.329C152.911 102.609 152.792 104.205 151.608 104.682C151.636 105.02 151.636 105.361 151.608 105.7C152.801 105.241 152.921 103.627 152.948 102.343C152.999 100.071 153.392 97.8196 154.113 95.6647C154.532 94.2432 155.243 92.9247 156.201 91.7937C156.684 91.2335 157.281 90.7826 157.952 90.471C158.622 90.1595 159.352 89.9943 160.092 89.9866C161.927 90.0509 163.579 91.3167 165.396 91.1654C166.772 91.0507 167.992 90.1105 169.373 89.927C170.597 89.8116 171.819 90.1567 172.801 90.8948C173.771 91.6305 174.62 92.5125 175.32 93.509C177.82 96.8067 179.857 100.673 179.976 104.81C180.495 105.191 181.243 104.695 181.5 104.108C181.757 103.521 181.766 102.833 182.087 102.274C182.463 101.627 183.188 101.283 183.752 100.797C185.184 99.5632 185.542 97.4855 185.487 95.6005C185.487 95.5408 185.487 95.4812 185.487 95.4262C185.4 97.059 184.964 98.7238 183.743 99.7787Z" fill="black"/>
<path opacity="0.1" d="M149.874 99.4527C148.819 98.2923 147.378 97.5172 146.41 96.288C145.595 95.1999 145.13 93.8901 145.075 92.5317C144.931 94.2292 145.405 95.9215 146.41 97.2971C147.378 98.5308 148.819 99.3059 149.874 100.466C150.888 101.601 151.496 103.04 151.604 104.557C151.674 103.634 151.557 102.706 151.26 101.829C150.963 100.952 150.492 100.143 149.874 99.4527V99.4527Z" fill="black"/>
<path opacity="0.1" d="M186.381 85.6064C186.111 86.73 185.629 87.7987 185.409 88.9315C185.278 89.6885 185.231 90.4575 185.266 91.2248C185.282 90.7877 185.329 90.3523 185.409 89.9222C185.629 88.7848 186.111 87.7207 186.381 86.597C186.539 85.9773 186.59 85.3352 186.533 84.6982C186.504 85.0042 186.454 85.3077 186.381 85.6064V85.6064Z" fill="black"/>
</g>
<path opacity="0.1" d="M60.8975 348.841C85.5881 348.841 105.604 345.627 105.604 341.663C105.604 337.699 85.5881 334.485 60.8975 334.485C36.207 334.485 16.1914 337.699 16.1914 341.663C16.1914 345.627 36.207 348.841 60.8975 348.841Z" fill="#0075FF"/>
<path d="M62.3376 204.161H59.4609V268.908H62.3376V204.161Z" fill="#535461"/>
<path d="M80.4149 268.711L80.2359 271.628L79.979 275.756L79.8735 277.471L79.6211 281.599L79.511 283.314L79.2541 287.442L76.3544 334.256C76.2284 336.27 75.3393 338.161 73.8682 339.543C72.397 340.925 70.4543 341.695 68.4354 341.695H53.359C51.3407 341.695 49.3985 340.925 47.9281 339.543C46.4576 338.16 45.5695 336.27 45.4446 334.256L42.5587 287.41L42.3018 283.282L42.1963 281.567L41.9393 277.439L41.8338 275.724L41.5769 271.596L41.3934 268.679C41.3615 268.118 41.4447 267.556 41.6379 267.028C41.8311 266.499 42.1302 266.016 42.5168 265.608C42.9035 265.199 43.3696 264.874 43.8864 264.652C44.4033 264.431 44.9601 264.316 45.5226 264.317H76.359C76.9194 264.322 77.4729 264.442 77.9853 264.669C78.4977 264.896 78.9581 265.225 79.3381 265.637C79.7182 266.049 80.0098 266.534 80.195 267.063C80.3802 267.591 80.455 268.152 80.4149 268.711V268.711Z" fill="#3F3D56"/>
<path d="M80.236 271.628L79.9791 275.742H41.8155L41.5586 271.628H80.236Z" fill="#9D9CB5"/>
<path d="M79.8734 277.458L79.6211 281.576H42.1778L41.9209 277.458H79.8734Z" fill="#9D9CB5"/>
<path d="M79.5108 283.296L79.2584 287.41H42.5401L42.2832 283.296H79.5108Z" fill="#9D9CB5"/>
<path d="M37.1683 228.428C53.9194 240.546 60.9116 259.497 60.9116 259.497C60.9116 259.497 40.7241 258.805 23.9685 246.687C7.21283 234.57 0.234375 215.623 0.234375 215.623C0.234375 215.623 20.4127 216.311 37.1683 228.428Z" fill="#0075FF"/>
<path d="M0.220703 215.623C0.220703 215.623 21.179 227.25 27.9005 236.877C34.6221 246.504 60.9117 259.497 60.9117 259.497" stroke="#535461" stroke-width="2" stroke-miterlimit="10"/>
<path d="M47.9819 204.019C57.0984 210.61 60.9111 220.925 60.9111 220.925C60.9111 220.925 49.9226 220.549 40.8015 213.958C31.6805 207.367 27.877 197.048 27.877 197.048C27.877 197.048 38.8608 197.424 47.9819 204.019Z" fill="#0075FF"/>
<path d="M27.877 197.048C27.877 197.048 39.2829 203.377 42.9396 208.615C46.5963 213.853 60.9111 220.925 60.9111 220.925" stroke="#535461" stroke-width="2" stroke-miterlimit="10"/>
<path d="M74.1476 220.402C63.6731 231.909 61.457 246.948 61.457 246.948C61.457 246.948 76.226 243.325 86.6914 231.813C97.1568 220.301 99.382 205.267 99.382 205.267C99.382 205.267 84.6222 208.894 74.1476 220.402Z" fill="#0075FF"/>
<path d="M99.3912 205.271C99.3912 205.271 85.7463 217.068 82.2777 225.195C78.8091 233.322 61.457 246.949 61.457 246.949" stroke="#535461" stroke-width="2" stroke-miterlimit="10"/>
<path d="M458.655 216.352C458.655 216.352 451.08 178.679 453.98 173.992C453.98 173.992 454.086 169.635 453.911 164.08C453.911 163.87 453.911 163.659 453.911 163.443C454.421 163.783 454.953 164.089 455.503 164.36C458.175 165.732 461.242 166.128 464.175 165.479L461.881 162.925C461.33 162.315 460.757 161.654 460.637 160.847C460.518 160.04 460.848 159.32 461.133 158.6C463.312 153.096 463.427 146.175 459.229 141.974C455.682 138.442 454.82 133.883 450.97 130.659C448.158 128.297 446.612 124.834 445.153 121.486C443.918 118.656 442.675 115.803 441.968 112.804C441.418 110.46 441.198 108.034 440.441 105.745C439.684 103.457 438.266 101.232 436.05 100.21C435.261 99.8472 434.384 99.6408 433.664 99.1592C432.719 98.5217 432.15 97.4852 431.466 96.5771C427.993 91.9906 416.362 94.692 410.857 96.5541C409.36 97.0231 407.974 97.7907 406.783 98.8107L406.833 98.7281C406.874 98.6593 406.925 98.5905 406.971 98.5217C406.368 99.0089 405.848 99.5896 405.429 100.242C404.626 101.512 404.291 102.994 403.621 104.369C402.814 105.998 398.322 110.543 400.254 112.373C400.389 112.496 400.544 112.595 400.713 112.666C401.438 112.968 402.236 113.048 403.007 112.896L402.924 113.093C402.264 114.707 401.926 116.435 401.928 118.179C401.928 125.715 408.145 131.824 415.821 131.824C417.264 131.825 418.699 131.604 420.074 131.168C420.106 131.342 420.134 131.517 420.166 131.691C420.166 131.76 420.189 131.829 420.198 131.897L419.955 132.237C419.943 132.216 419.929 132.196 419.914 132.177L412.71 142.24C411.609 143.015 405.269 147.601 404.911 151.041C404.534 154.807 404.158 159.214 404.158 159.214L404.108 160.159C403.793 160.422 403.425 160.614 403.029 160.72C402.633 160.827 402.218 160.847 401.814 160.778C399.566 160.411 399.566 169.034 399.566 169.034C399.566 169.034 398.07 170.41 397.042 169.217C396.014 168.025 393.298 172.066 393.298 172.066L376.277 172.799L375.887 172.822L374.969 169.983C374.87 169.684 374.657 169.435 374.376 169.292C374.095 169.149 373.769 169.122 373.469 169.217C373.398 169.241 373.328 169.27 373.262 169.304L373.198 169.341L373.079 169.424L373.019 169.479C372.986 169.509 372.955 169.541 372.927 169.575L372.872 169.639L372.845 169.667C372.739 169.813 372.669 169.982 372.64 170.161C372.611 170.339 372.625 170.522 372.679 170.694L373.469 173.13C370.184 173.79 366.825 175.652 369.564 180.78L355.681 178.216L360.172 181.986L383.36 186.77C383.053 187.32 383.255 188.118 384.214 189.242C388.343 194.09 395.868 195.406 398.896 195.745C399.695 197.534 400.694 199.226 401.873 200.79L401.612 205.62C401.612 205.62 393.945 242.431 392.541 244.298C393.25 243.495 393.899 242.641 394.482 241.743C392.257 249.306 389.146 259.658 388.329 261.208C387.017 263.685 385.801 273.706 387.297 274.348C387.756 274.545 389.068 274.449 390.94 274.307V275.137L390.857 306.595C390.857 306.595 391.234 325.891 390.201 327.73C389.169 329.569 388.894 333.426 388.894 333.426C388.894 333.426 384.764 341.035 381.493 344.094C381.471 344.118 381.446 344.139 381.42 344.158L381.319 343.443C381.319 343.443 377.387 348.405 368.688 348.126C368.688 348.126 363.453 351.529 371.216 351.712C378.979 351.896 388.894 351.437 388.894 351.437C388.894 351.437 395.817 340.888 401.616 342.264V350.258H403.392V342.136C404.215 341.594 404.92 340.89 405.464 340.068C406.007 339.246 406.378 338.322 406.553 337.352C406.705 336.353 406.594 335.331 406.23 334.387C405.866 333.444 405.263 332.611 404.479 331.972C404.127 331.654 403.845 331.266 403.65 330.834C403.455 330.401 403.351 329.933 403.346 329.459L403.282 329.514C403.282 329.353 403.241 329.188 403.222 329.019C402.713 324.891 402.075 316.374 404.328 310.072C407.416 301.431 408.352 289.396 406.104 282.232C405.378 279.942 404.782 277.613 404.319 275.256C404.264 274.958 404.213 274.674 404.167 274.408C405.704 274.615 407.226 274.922 408.723 275.325C413.931 276.76 425.323 277.026 435.05 276.949C435.073 277.215 435.1 277.494 435.132 277.774C435.306 279.719 435.668 281.642 436.215 283.516C437.435 287.185 437.995 303.362 437.995 303.362C437.995 303.362 439.569 316.663 438.711 322.075C438.252 325.083 437.793 328.106 437.532 331.142V331.202C437.532 331.202 434.953 338.54 433.068 342.526C433.022 342.627 432.971 342.727 432.925 342.824C432.423 342.87 431.928 342.979 431.453 343.149C431.453 343.149 428.925 348.194 426.406 349.029C423.887 349.864 424.722 352.611 430.425 351.602C436.128 350.593 444.74 349.768 444.74 349.768L445.111 344.622L446.864 342.429L446.405 347.562L448.273 347.195L448.025 340.952L450.892 337.366C450.892 337.366 454.356 334.284 449.208 328.22V328.353C449.153 328.266 449.103 328.175 449.043 328.087V328.06C448.19 326.739 447.511 324.276 448.754 319.905C451.002 312.007 452.31 304.839 452.31 304.839C452.31 304.839 457.329 285.635 451.296 276.549H451.562C450.944 275.271 450.507 273.913 450.264 272.513C450.233 272.348 450.206 272.179 450.181 272.004C454.645 271.747 459.027 270.94 462.601 269.197C462.587 269.179 460.435 223.608 458.655 216.352ZM401.979 184.568V184.66L401.061 184.706L401.979 184.568ZM398.831 185.004C398.681 185.037 398.539 185.105 398.419 185.201C398.024 185.759 397.776 186.407 397.698 187.086L396.267 186.765C396.267 186.765 395.262 186.55 393.817 186.306L393.133 185.618C395.014 185.463 396.969 185.233 398.831 185.004V185.004Z" fill="url(#paint1_linear_1178_16807)"/>
<path d="M446.194 341.016L445.648 347.515L447.479 347.149L447.204 340.099L446.194 341.016Z" fill="#1D2366"/>
<path d="M404.429 310.159C402.222 316.442 402.846 324.923 403.342 329.041C403.525 330.564 403.695 331.49 403.695 331.49C403.695 331.49 400.396 339.003 400.121 339.287C399.845 339.572 390.412 345.328 390.412 345.328L383.819 349.176C383.819 349.176 377.13 346.245 380.337 345.236C380.992 344.973 381.582 344.571 382.067 344.057C385.278 341.007 389.311 333.426 389.311 333.426C389.311 333.426 389.587 329.578 390.596 327.748C391.605 325.918 391.238 306.687 391.238 306.687L391.316 275.338V271.252L403.865 271.344C403.944 272.731 404.125 274.111 404.406 275.471C404.856 277.82 405.44 280.142 406.154 282.425C408.365 289.575 407.448 301.55 404.429 310.159Z" fill="#FFB0B1"/>
<path opacity="0.1" d="M403.695 331.49C403.695 331.49 400.396 339.003 400.121 339.287C399.845 339.572 390.412 345.328 390.412 345.328L383.819 349.176C383.819 349.176 377.13 346.245 380.337 345.236C380.992 344.973 381.582 344.571 382.067 344.057L382.351 346.061L384.549 345.97L403.36 329.05C403.525 330.564 403.695 331.49 403.695 331.49Z" fill="black"/>
<path d="M403.466 329.477L384.549 346.511L382.351 346.603L381.892 343.392C381.892 343.392 378.048 348.337 369.505 348.061C369.505 348.061 364.375 351.451 371.978 351.634C379.58 351.818 389.288 351.359 389.288 351.359C389.288 351.359 396.07 340.81 401.745 342.186V350.153H403.489V342.113C404.299 341.567 404.991 340.863 405.522 340.044C406.054 339.224 406.414 338.305 406.581 337.343C406.732 336.351 406.625 335.338 406.271 334.4C405.916 333.461 405.326 332.63 404.558 331.986C404.214 331.664 403.94 331.276 403.752 330.844C403.565 330.413 403.467 329.948 403.466 329.477V329.477Z" fill="#1D2366"/>
<path d="M447.938 319.955C446.718 324.312 447.383 326.766 448.218 328.083V328.11C449.289 329.735 450.034 331.553 450.411 333.462L450.484 333.875L441.877 346.419L437.207 348.254C437.207 348.254 429.696 345.69 431.068 344.956C431.412 344.777 431.949 343.823 432.563 342.507C434.399 338.54 436.931 331.22 436.931 331.22V331.16C437.197 328.138 437.62 325.124 438.088 322.125C438.927 316.726 437.386 303.476 437.386 303.476C437.386 303.476 436.835 287.364 435.642 283.699C435.104 281.836 434.746 279.926 434.573 277.994C434.325 275.701 434.27 273.811 434.27 273.811C434.27 273.811 439.216 266.931 448.282 274.361C449.007 274.954 449.645 275.646 450.177 276.416C456.44 285.323 451.397 304.944 451.397 304.944C451.397 304.944 450.136 312.08 447.938 319.955Z" fill="#FFB0B1"/>
<path opacity="0.1" d="M450.498 333.875L441.891 346.419L437.22 348.254C437.22 348.254 429.71 345.69 431.081 344.956C431.426 344.777 431.962 343.823 432.577 342.507C435.757 342.48 437.404 345.507 437.404 345.507L441.432 344.865C441.432 344.865 446.745 334.426 447.938 333.788C449.131 333.151 448.122 329.023 448.122 329.023V327.973C448.154 328.009 448.181 328.051 448.218 328.087V328.115C449.289 329.74 450.034 331.558 450.411 333.467L450.498 333.875Z" fill="black"/>
<path d="M437.679 345.777C437.679 345.777 435.385 341.567 430.989 343.122C430.989 343.122 428.516 348.167 426.043 348.983C423.57 349.8 424.396 352.552 429.984 351.547C435.573 350.543 443.996 349.713 443.996 349.713L444.363 344.58L450.043 337.347C450.043 337.347 453.429 334.279 448.392 328.239V329.289C448.392 329.289 449.401 333.417 448.208 334.054C447.015 334.692 441.721 345.135 441.721 345.135L437.679 345.777Z" fill="#1D2366"/>
<path opacity="0.1" d="M403.879 271.334C403.958 272.722 404.139 274.101 404.42 275.462C399.254 274.705 394.459 275.082 391.316 275.329V271.243L403.879 271.334Z" fill="black"/>
<path opacity="0.1" d="M450.686 277.558C450.686 277.558 443.345 277.916 434.591 277.989C434.343 275.696 434.288 273.807 434.288 273.807C434.288 273.807 439.234 266.927 448.3 274.357C449.025 274.95 449.663 275.641 450.195 276.412C450.337 276.803 450.501 277.186 450.686 277.558V277.558Z" fill="black"/>
<path d="M450.686 276.733C450.686 276.733 418.533 278.287 408.733 275.54C398.933 272.793 389.22 275.173 387.756 274.536C386.293 273.898 387.481 263.913 388.766 261.441C390.051 258.969 397.098 233.969 397.098 233.969L403.879 198.625L411.023 196.658L411.527 196.516L423.975 193.085L433.096 190.567C433.096 190.567 451.232 261.35 449.677 266.569C449.112 268.568 449.021 270.67 449.411 272.71C449.649 274.103 450.078 275.457 450.686 276.733V276.733Z" fill="#1D2366"/>
<path d="M380.241 174.455C380.241 174.455 373.818 181.335 378.681 185.169C383.545 189.003 386.742 185.536 386.742 185.536L380.241 174.455Z" fill="#C7DAF5"/>
<path opacity="0.1" d="M380.241 174.455C380.241 174.455 373.818 181.335 378.681 185.169C383.545 189.003 386.742 185.536 386.742 185.536L380.241 174.455Z" fill="black"/>
<path d="M432.137 129.223C432.137 129.223 431.384 129.939 430.251 130.994C428.636 132.503 426.246 134.709 424.126 136.557C421.19 139.112 418.767 140.988 419.634 139.387C420.501 137.786 420.336 134.998 419.905 132.388C419.873 132.214 419.845 132.039 419.813 131.87C419.456 129.953 418.983 128.06 418.396 126.201C418.396 126.201 423.14 120.073 425.764 117.656C426.741 116.739 427.425 116.363 427.466 117C427.512 117.858 428.154 119.752 428.953 121.761C428.976 121.825 428.999 121.885 429.026 121.949C429.558 123.325 430.159 124.738 430.687 125.958C431.494 127.829 432.137 129.223 432.137 129.223Z" fill="#FFB0B1"/>
<path opacity="0.1" d="M429.026 121.949C428.58 124.346 427.499 126.58 425.894 128.416C424.29 130.252 422.221 131.624 419.905 132.388C419.54 130.294 419.036 128.227 418.396 126.201C418.396 126.201 427.328 114.666 427.466 117C427.498 117.886 428.196 119.849 429.026 121.949Z" fill="black"/>
<path opacity="0.1" d="M419.015 135.47L420.171 133.842C420.171 133.842 420.937 138.511 423.754 136.451C426.571 134.392 426.709 151.949 426.709 151.949L423.685 197.139L401.837 195.832L402.456 173.996L404.929 162.989L411.045 146.987L414.684 141.698L419.015 135.47Z" fill="black"/>
<path d="M426.709 152.229L423.956 193.09L423.667 197.419L411.486 196.69L411.027 196.662L401.851 196.112L402.47 174.271L404.943 163.264L411.059 147.262L414.697 141.974L419.028 135.722L420.185 134.099C420.185 134.099 420.951 138.768 423.768 136.708L423.827 136.667C426.58 134.924 426.709 152.229 426.709 152.229Z" fill="#1D2366"/>
<path d="M405.251 159.439C405.251 159.439 404.154 161.732 401.952 161.361C399.749 160.989 399.754 169.616 399.754 169.616C399.754 169.616 398.29 170.992 397.281 169.8C396.272 168.607 393.611 172.639 393.611 172.639L376.938 173.373C376.938 173.373 384.356 176.762 382.902 187.017C382.902 187.017 408.091 185.458 408.916 183.078C409.742 180.697 405.251 159.439 405.251 159.439Z" fill="white"/>
<path opacity="0.03" d="M405.251 159.439C405.251 159.439 404.154 161.732 401.952 161.361C399.749 160.989 399.754 169.616 399.754 169.616C399.754 169.616 398.29 170.992 397.281 169.8C396.272 168.607 393.611 172.639 393.611 172.639L376.938 173.373C376.938 173.373 384.356 176.762 382.902 187.017C382.902 187.017 408.091 185.458 408.916 183.078C409.742 180.697 405.251 159.439 405.251 159.439Z" fill="black"/>
<path d="M356.796 178.762L361.191 182.513L397.373 190.113L392.886 185.536L356.796 178.762Z" fill="white"/>
<path d="M419.083 136.915C418.482 137.832 416.761 142.529 415.325 146.629C414.128 150.046 413.128 153.05 413.128 153.05C413.128 153.05 410.792 168.249 409.599 170.997C408.406 173.744 409.053 184.458 409.053 184.458L404.608 210.917C404.608 210.917 402.593 224.562 399.483 232.712C396.413 240.734 392.995 244.495 392.89 244.614C394.266 242.752 401.768 206.088 401.768 206.088L404.245 159.847C404.245 159.847 404.608 155.453 404.975 151.697C405.342 147.941 412.774 142.813 412.774 142.813L419.941 132.626C420.661 133.59 420.179 135.268 419.083 136.915Z" fill="white"/>
<path d="M400.396 196.341C400.396 196.341 389.843 195.883 384.732 189.746C379.621 183.609 396.547 187.297 396.547 187.297L400.947 188.306L400.396 196.341Z" fill="#FFB0B1"/>
<path opacity="0.1" d="M449.677 266.574C449.112 268.572 449.021 270.675 449.411 272.715C437.899 273.531 425.585 270.422 425.585 270.422C423.291 272.532 417.248 275.641 417.248 275.641L413.954 234.822C411.848 229.318 411.022 200.483 411.022 200.483C411.022 200.483 411.211 198.974 411.481 196.713C411.481 196.658 411.481 196.598 411.504 196.543C412.325 190.228 413.954 178.372 414.753 176.771C415.854 174.569 411.367 168.713 411.367 168.713L413.408 151.307L413.656 149.206C417.96 147.285 421.258 141.148 421.258 141.148L423.791 136.713C426.544 134.947 426.686 152.252 426.686 152.252L423.933 193.113L433.054 190.595C433.054 190.595 451.232 261.354 449.677 266.574Z" fill="black"/>
<path d="M461.49 269.395C448.942 275.623 426.135 269.853 426.135 269.853C423.841 271.963 417.798 275.073 417.798 275.073L414.499 234.253C412.398 228.75 411.572 199.915 411.572 199.915C411.572 199.915 414.224 178.399 415.325 176.203C415.646 175.56 415.49 174.606 415.11 173.579C413.237 168.689 412.549 163.426 413.1 158.219L413.981 150.739L414.224 148.643C418.532 146.716 421.831 140.58 421.831 140.58L424.125 136.562L428.346 129.159L430.347 125.655L430.686 125.963L433.278 128.311C433.278 128.311 434.38 129.228 436.031 130.604C439.624 133.631 445.831 138.961 449.034 142.222C451.851 145.093 452.741 156.261 452.998 164.668C453.168 170.203 453.067 174.542 453.067 174.542C450.227 179.216 457.655 216.738 457.655 216.738C459.385 223.989 461.49 269.395 461.49 269.395Z" fill="white"/>
<path opacity="0.03" d="M437.404 140.488C437.404 140.488 428.792 156.875 429.792 163.104C430.793 169.332 433.637 176.381 432.265 178.028C431.794 178.652 431.185 179.158 430.485 179.507C429.785 179.857 429.014 180.039 428.232 180.041C426.856 180.133 423.186 182.697 423.186 182.972C423.186 183.247 419.795 183.247 416.762 184.531C413.729 185.816 409.252 186.545 409.252 186.545C409.252 186.545 400.534 186.27 399.722 187.095C398.91 187.921 398.075 192.86 399.814 196.8C401.553 200.74 403.484 203.68 404.943 204.217C406.402 204.753 415.661 201.653 423.172 200.919C430.682 200.185 438.835 194.236 438.835 194.236C438.835 194.236 447.814 191.026 449.388 185.628C450.962 180.229 447.466 150.56 447.466 150.56C447.466 150.56 444.823 136.731 437.404 140.488Z" fill="black"/>
<path opacity="0.03" d="M436.303 139.111C436.303 139.111 427.691 155.503 428.7 161.727C429.71 167.951 432.545 175.005 431.169 176.656C430.699 177.281 430.091 177.788 429.392 178.137C428.693 178.486 427.922 178.669 427.14 178.67C425.764 178.761 422.093 181.325 422.093 181.6C422.093 181.876 418.703 181.876 415.67 183.155C412.637 184.435 408.16 185.169 408.16 185.169C408.16 185.169 399.442 184.893 398.635 185.719C397.827 186.545 396.983 191.489 398.726 195.424C400.47 199.359 402.397 202.304 403.856 202.84C405.315 203.377 414.574 200.276 422.084 199.547C429.595 198.818 437.748 192.86 437.748 192.86C437.748 192.86 446.722 189.65 448.278 184.256C449.833 178.862 446.355 149.183 446.355 149.183C446.355 149.183 443.722 135.36 436.303 139.111Z" fill="black"/>
<path d="M437.133 139.662C437.133 139.662 428.521 156.054 429.531 162.278C430.54 168.502 433.375 175.556 432.004 177.202C431.534 177.828 430.925 178.336 430.225 178.687C429.525 179.037 428.753 179.219 427.971 179.22C426.594 179.312 422.924 181.876 422.924 182.146C422.924 182.417 419.538 182.422 416.5 183.706C413.463 184.99 408.99 185.719 408.99 185.719C408.99 185.719 400.272 185.444 399.46 186.27C398.648 187.095 397.813 192.039 399.552 195.974C401.291 199.91 403.223 202.854 404.682 203.391C406.141 203.927 415.399 200.827 422.91 200.093C430.421 199.359 438.574 193.411 438.574 193.411C438.574 193.411 447.553 190.2 449.126 184.802C450.7 179.404 447.227 149.734 447.227 149.734C447.227 149.734 444.547 135.929 437.133 139.662Z" fill="white"/>
<path opacity="0.1" d="M436.944 183.628C436.944 183.628 430.062 182.252 432.457 184.545C434.852 186.838 434.839 188.847 437.77 188.755C440.702 188.664 436.944 183.628 436.944 183.628Z" fill="black"/>
<path opacity="0.1" d="M448.575 232.969C448.575 232.969 445.465 235.074 451.415 239.926C457.366 244.779 448.575 232.969 448.575 232.969Z" fill="black"/>
<path opacity="0.1" d="M442.638 250.273C442.638 250.549 441.537 260.364 445.657 262.817C449.778 265.271 442.638 250.273 442.638 250.273Z" fill="black"/>
<path d="M377.222 173.35C373.9 173.464 366.725 174.478 370.446 181.417C373.735 187.558 379.264 183.454 382.375 180.339C381.616 177.436 379.772 174.934 377.222 173.35V173.35Z" fill="#FFB0B1"/>
<path d="M382.416 180.284L382.554 180.142L382.416 180.284Z" fill="#FFB0B1"/>
<path opacity="0.1" d="M436.032 130.884C432.508 133.292 429.553 135.323 428.975 135.745C427.397 136.915 424.387 143.781 422.446 147.285C420.9 150.106 415.876 150.83 413.981 151.009L414.225 148.913C418.533 146.987 421.832 140.85 421.832 140.85L430.347 125.926L433.279 128.591C433.279 128.591 434.38 129.508 436.032 130.884Z" fill="black"/>
<path d="M436.032 130.608C432.508 133.016 429.553 135.048 428.975 135.475C427.397 136.64 424.387 143.505 422.446 147.009C420.9 149.83 415.876 150.555 413.981 150.734L414.225 148.638C418.533 146.711 421.832 140.575 421.832 140.575L430.347 125.65L433.279 128.306C433.279 128.306 434.38 129.214 436.032 130.608Z" fill="#DCE7FF"/>
<path d="M429.251 118.922C429.252 121.676 428.417 124.364 426.856 126.632C425.011 129.314 422.266 131.245 419.119 132.077C415.972 132.908 412.631 132.584 409.702 131.164C406.773 129.743 404.451 127.32 403.157 124.335C401.862 121.349 401.681 117.998 402.646 114.891C403.612 111.783 405.66 109.124 408.418 107.396C411.177 105.669 414.464 104.987 417.682 105.475C420.901 105.963 423.838 107.588 425.96 110.055C428.083 112.522 429.25 115.668 429.251 118.922V118.922Z" fill="#FFB0B1"/>
<path opacity="0.1" d="M452.998 164.672C451.135 163.526 449.618 161.897 448.608 159.957C447.841 158.443 447.332 156.696 446.024 155.623C444.845 154.66 443.272 154.426 441.803 153.995C436.977 152.568 432.93 148.165 432.779 143.138C432.705 140.772 433.444 138.41 433.109 136.066C432.919 134.74 432.391 133.484 431.577 132.42C431.172 131.911 430.729 131.434 430.251 130.993C429.608 130.388 428.934 129.801 428.347 129.159C427.977 128.761 427.653 128.323 427.383 127.852C427.165 127.466 426.988 127.059 426.855 126.636C425.938 123.829 426.773 120.5 425.764 117.661L425.708 117.505C425.328 116.496 424.552 115.487 423.474 115.409C422.396 115.331 421.474 116.225 420.446 116.624C418.294 117.459 415.973 116.037 414.179 114.588C412.385 113.138 410.361 111.483 408.081 111.804C406.572 112.019 405.379 113.047 403.989 113.579C403.675 113.7 403.351 113.794 403.021 113.858C404.197 110.925 406.359 108.494 409.134 106.981C411.909 105.468 415.125 104.968 418.228 105.568C421.332 106.168 424.13 107.829 426.141 110.267C428.153 112.705 429.252 115.767 429.25 118.927C429.252 119.881 429.152 120.832 428.952 121.766C428.975 121.83 428.998 121.889 429.026 121.954C429.558 123.33 430.159 124.742 430.687 125.962L433.279 128.31C433.279 128.31 434.38 129.228 436.032 130.604C439.624 133.631 445.832 138.96 449.034 142.221C451.851 145.101 452.732 156.265 452.998 164.672Z" fill="black"/>
<path d="M403.828 105.2C404.484 103.865 404.81 102.37 405.595 101.104C406.746 99.2693 408.756 98.0951 410.821 97.3842C416.211 95.5267 427.604 92.8299 431.008 97.3842C431.678 98.3015 432.233 99.3197 433.16 99.9526C433.866 100.434 434.72 100.641 435.495 101.003C437.665 102.021 439.051 104.241 439.79 106.507C440.528 108.772 440.748 111.203 441.29 113.538C441.983 116.533 443.198 119.372 444.41 122.192C445.837 125.522 447.351 128.976 450.104 131.329C453.861 134.539 454.692 139.084 458.178 142.607C462.308 146.789 462.175 153.692 460.046 159.173C459.766 159.893 459.449 160.645 459.56 161.411C459.67 162.177 460.239 162.874 460.775 163.484L463.033 166.03C457.692 167.318 451.65 164.53 449.163 159.636C448.397 158.123 447.887 156.38 446.575 155.302C445.401 154.339 443.822 154.109 442.359 153.678C437.532 152.247 433.486 147.84 433.334 142.813C433.261 140.451 433.999 138.089 433.664 135.75C433.478 134.415 432.949 133.15 432.127 132.081C430.866 130.434 428.962 129.329 427.934 127.494C426.195 124.426 427.516 120.44 426.264 117.147C425.879 116.138 425.108 115.129 424.03 115.051C422.951 114.973 422.029 115.868 420.997 116.267C418.85 117.101 416.528 115.684 414.734 114.23C412.94 112.776 410.917 111.125 408.632 111.451C407.123 111.662 405.934 112.689 404.544 113.226C403.516 113.62 401.433 113.973 400.534 113.107C398.635 111.359 403.035 106.832 403.828 105.2Z" fill="#591D4B"/>
<path opacity="0.1" d="M450.439 158.123C449.668 156.609 449.163 154.866 447.851 153.793C446.677 152.83 445.098 152.596 443.63 152.165C438.808 150.739 434.761 146.331 434.605 141.304C434.532 138.942 435.271 136.576 434.94 134.237C434.748 132.91 434.219 131.654 433.403 130.59C432.137 128.944 430.233 127.838 429.21 126.004C427.471 122.94 428.792 118.954 427.535 115.657C427.154 114.652 426.379 113.643 425.305 113.561C424.232 113.478 423.3 114.382 422.273 114.781C420.125 115.616 417.799 114.194 416.01 112.744C414.221 111.295 412.188 109.639 409.908 109.96C408.398 110.176 407.205 111.203 405.82 111.735C404.792 112.13 402.704 112.488 401.805 111.621C399.915 109.786 404.315 105.268 405.104 103.645C405.76 102.306 406.086 100.815 406.875 99.5492C406.916 99.4804 406.962 99.4116 407.008 99.3428C406.418 99.8316 405.908 100.411 405.499 101.058C404.714 102.324 404.388 103.81 403.732 105.154C402.938 106.777 398.539 111.309 400.433 113.13C401.351 114.001 403.416 113.643 404.443 113.249C405.82 112.712 407.022 111.685 408.531 111.474C410.825 111.148 412.844 112.804 414.633 114.253C416.423 115.703 418.763 117.124 420.901 116.29C421.929 115.891 422.828 114.992 423.929 115.074C425.03 115.157 425.764 116.161 426.163 117.17C427.416 120.463 426.094 124.449 427.833 127.517C428.861 129.32 430.765 130.448 432.027 132.104C432.848 133.173 433.377 134.438 433.564 135.773C433.899 138.112 433.16 140.474 433.234 142.836C433.385 147.881 437.432 152.27 442.258 153.701C443.713 154.133 445.3 154.362 446.475 155.325C447.791 156.403 448.31 158.146 449.062 159.659C451.549 164.553 457.592 167.342 462.932 166.053L461.868 164.851C457.238 164.92 452.554 162.287 450.439 158.123Z" fill="black"/>
<path opacity="0.1" d="M418.808 137.19C418.207 138.107 416.486 142.804 415.05 146.904C413.706 146.381 412.485 143.047 412.485 143.047L419.652 132.856C420.386 133.865 419.904 135.539 418.808 137.19Z" fill="black"/>
<path d="M419.083 136.915C418.482 137.832 416.762 142.528 415.325 146.629C413.981 146.11 412.761 142.771 412.761 142.771L419.927 132.585C420.661 133.589 420.18 135.268 419.083 136.915Z" fill="#DCE7FF"/>
<path d="M377.415 183.77L373.442 171.244C373.395 171.098 373.377 170.943 373.39 170.79C373.403 170.636 373.446 170.487 373.516 170.35C373.587 170.213 373.684 170.092 373.802 169.993C373.92 169.893 374.056 169.818 374.203 169.772V169.772C374.499 169.68 374.819 169.708 375.094 169.851C375.369 169.993 375.577 170.239 375.671 170.533L379.645 183.045L379.25 185.664L377.415 183.77Z" fill="#BE8B87"/>
<path opacity="0.1" d="M373.817 170.144C374.114 170.05 374.435 170.078 374.711 170.22C374.987 170.363 375.195 170.609 375.29 170.905L379.263 183.417L378.965 185.38L379.254 185.683L379.649 183.064L375.653 170.552C375.558 170.257 375.35 170.012 375.075 169.869C374.8 169.727 374.48 169.698 374.184 169.791V169.791C373.936 169.871 373.721 170.033 373.574 170.249C373.652 170.207 373.734 170.172 373.817 170.144V170.144Z" fill="white"/>
<path d="M377.414 183.77L379.644 183.063L379.318 185.21L379.249 185.682L378.598 185.004L377.414 183.77Z" fill="#EFC8C4"/>
<path d="M378.599 185.004C378.637 184.955 378.686 184.914 378.741 184.885C378.773 184.864 378.811 184.854 378.849 184.854C378.887 184.854 378.924 184.864 378.957 184.885C378.988 184.922 379.014 184.964 379.034 185.009C379.065 185.059 379.106 185.102 379.155 185.135C379.205 185.167 379.26 185.189 379.319 185.197L379.25 185.655L378.599 185.004Z" fill="#727A9C"/>
<path d="M373.418 175.693C373.418 175.693 381.387 175.648 379.511 179.037C377.634 182.426 374.703 182.834 374.703 182.834L373.418 175.693Z" fill="#FFB0B1"/>
<path d="M323.854 23.5835H323.51C309.819 23.5835 297.711 30.8255 290.746 41.5119C283.781 30.8255 271.674 23.5835 257.983 23.5835H257.639C247.364 23.6814 237.543 27.8287 230.31 35.1243C223.078 42.4198 219.017 52.274 219.012 62.5454C219.012 75.3003 224.6 93.3985 235.497 108.291C256.258 136.667 290.746 161.494 290.746 161.494C290.746 161.494 325.235 136.672 345.991 108.291C356.892 93.3985 362.476 75.3003 362.476 62.5454C362.47 52.2748 358.411 42.4213 351.179 35.1259C343.947 27.8305 334.127 23.6826 323.854 23.5835V23.5835ZM318.931 110.474C317.371 110.468 315.85 109.991 314.567 109.105C313.284 108.22 312.299 106.967 311.741 105.511H303.556C303.017 105.508 302.493 105.336 302.056 105.021C301.619 104.705 301.292 104.261 301.12 103.75L298.606 96.1779L290.65 123.967C290.495 124.502 290.171 124.972 289.725 125.307C289.28 125.642 288.739 125.824 288.181 125.825H288.021C287.44 125.797 286.885 125.57 286.451 125.183C286.017 124.795 285.729 124.271 285.635 123.697L277.436 74.4014L271.444 103.571C271.307 104.125 270.988 104.618 270.538 104.969C270.088 105.321 269.533 105.512 268.962 105.511H257.432C257.087 105.526 256.742 105.47 256.418 105.348C256.094 105.226 255.799 105.04 255.549 104.801C255.299 104.561 255.1 104.274 254.965 103.956C254.829 103.638 254.759 103.296 254.759 102.95C254.759 102.604 254.829 102.262 254.965 101.944C255.1 101.626 255.299 101.338 255.549 101.099C255.799 100.86 256.094 100.673 256.418 100.551C256.742 100.429 257.087 100.374 257.432 100.388H266.943L275.431 61.1695C275.571 60.5896 275.907 60.0762 276.383 59.7169C276.859 59.3576 277.445 59.1748 278.041 59.1997C278.637 59.2246 279.206 59.4557 279.651 59.8535C280.095 60.2513 280.388 60.791 280.478 61.3805L288.851 111.666L295.981 86.8032C296.13 86.2795 296.443 85.8179 296.876 85.4873C297.308 85.1566 297.836 84.9747 298.381 84.9686H298.431C298.97 84.9687 299.496 85.1391 299.932 85.4554C300.369 85.7716 300.695 86.2176 300.863 86.7298L305.41 100.402H311.64C312.083 99.0566 312.889 97.8597 313.97 96.9435C315.05 96.0272 316.363 95.4272 317.763 95.2096C319.163 94.9921 320.596 95.1654 321.904 95.7106C323.212 96.2557 324.343 97.1514 325.174 98.2989C326.005 99.4464 326.502 100.801 326.611 102.213C326.72 103.625 326.437 105.04 325.793 106.302C325.148 107.563 324.168 108.622 322.959 109.361C321.751 110.101 320.361 110.492 318.944 110.492L318.931 110.474Z" fill="#0075FF"/>
</g>
<defs>
<linearGradient id="paint0_linear_1178_16807" x1="163.486" y1="355.39" x2="163.486" y2="73.1675" gradientUnits="userSpaceOnUse">
<stop stop-color="#808080" stop-opacity="0.25"/>
<stop offset="0.54" stop-color="#808080" stop-opacity="0.12"/>
<stop offset="1" stop-color="#808080" stop-opacity="0.1"/>
</linearGradient>
<linearGradient id="paint1_linear_1178_16807" x1="409.912" y1="351.822" x2="409.912" y2="94.0637" gradientUnits="userSpaceOnUse">
<stop stop-color="#808080" stop-opacity="0.25"/>
<stop offset="0.54" stop-color="#808080" stop-opacity="0.12"/>
<stop offset="1" stop-color="#808080" stop-opacity="0.1"/>
</linearGradient>
<clipPath id="clip0_1178_16807">
<rect width="507" height="359" fill="white"/>
</clipPath>
</defs>
</svg>
