<svg width="444" height="436" viewBox="0 0 444 436" fill="none" xmlns="http://www.w3.org/2000/svg">
<g clip-path="url(#clip0_1206_17568)">
<path d="M323.383 81.0102C323.329 97.9361 322.182 114.841 319.948 131.62C319.87 132.209 319.785 132.798 319.706 133.387H160.949C160.479 132.805 160.017 132.216 159.569 131.62C158.076 129.646 156.676 127.616 155.389 125.514C149.202 115.391 146.33 103.514 149.096 95.2935L149.146 95.1657C149.742 93.3656 150.69 91.701 151.933 90.2674C158.303 83.0263 171.273 84.1551 183.068 89.9053C172.453 78.4332 163.97 63.9298 163.259 50.9455C162.563 38.2808 169.147 29.194 176.3 21.463C176.534 21.2075 176.769 20.959 177.004 20.7105C177.117 20.5828 177.238 20.4621 177.352 20.3343C182.933 14.442 189.447 8.6279 198.925 9.27396C209.32 9.98386 220.888 18.6092 229.022 28.6899C237.157 38.7635 242.588 50.2286 248.092 61.4167C253.602 72.5978 259.561 84.0628 268.356 93.5969C256.432 78.7101 246.791 61.7504 243.172 45.2237C239.553 28.697 242.567 12.788 253.076 4.93642C256.267 2.62568 259.966 1.11157 263.863 0.520785C264.317 0.442695 264.78 0.378804 265.249 0.322012C275.011 -0.842203 286.694 2.46594 296.662 10.4737C307.64 19.2908 315.291 32.4099 319.131 44.883C322.97 57.356 323.439 69.3819 323.383 81.0102Z" fill="#F2F2F2"/>
<path d="M219.806 133.388H216.77C215.803 132.791 214.831 132.202 213.855 131.62C213.251 131.244 212.639 130.882 212.027 130.512C201.924 124.428 191.759 118.595 181.532 113.013C171.314 107.426 161.047 102.1 150.73 97.0331C150.457 96.9161 150.233 96.7071 150.098 96.4426C149.963 96.178 149.925 95.8745 149.99 95.5849C150.001 95.547 150.018 95.511 150.04 95.4784C150.182 95.2087 150.503 95.0951 150.972 95.3222C152.237 95.947 153.51 96.5717 154.776 97.2106C165.121 102.365 175.424 107.779 185.684 113.453C195.937 119.125 206.133 125.051 216.272 131.229C216.486 131.357 216.699 131.492 216.912 131.62C217.879 132.209 218.839 132.798 219.806 133.388Z" fill="white"/>
<path d="M258.948 133.387H257.071C256.644 132.798 256.225 132.209 255.798 131.619C245.773 117.748 235.75 103.876 225.729 90.0046C209.318 67.2946 192.913 44.5847 176.512 21.8747C176.415 21.7525 176.342 21.6127 176.298 21.463C176.156 20.9589 176.526 20.6608 177.002 20.7105C177.203 20.738 177.396 20.8079 177.568 20.9156C177.739 21.0234 177.886 21.1664 177.998 21.3352C187.198 34.0709 196.397 46.802 205.593 59.5282C221.918 82.1246 238.241 104.719 254.561 127.31C255.599 128.744 256.637 130.185 257.675 131.619C258.102 132.209 258.529 132.798 258.948 133.387Z" fill="white"/>
<path d="M300.708 122.27C300.63 125.429 300.438 128.539 300.182 131.62C300.132 132.209 300.082 132.798 300.032 133.387H298.063C298.12 132.798 298.177 132.209 298.226 131.62C298.618 127.169 298.888 122.668 298.902 118.046C298.883 105.234 297.56 92.4559 294.956 79.9099C292.186 66.4011 288.244 53.1586 283.174 40.3325C277.852 26.8049 271.454 13.7244 264.04 1.21657C263.901 1.01281 263.838 0.766432 263.863 0.520863C263.941 -0.0399645 264.687 -0.210342 265.249 0.32209C265.36 0.426549 265.456 0.546032 265.533 0.677044C266.451 2.23174 267.351 3.79117 268.235 5.35534C275.378 17.9343 281.505 31.0619 286.559 44.6133C291.371 57.4829 295.052 70.7469 297.558 84.2546C299.905 96.7859 300.96 109.524 300.708 122.27Z" fill="white"/>
<path d="M437.793 131.62H6.19995C4.55605 131.621 2.97991 132.274 1.81751 133.434C0.655115 134.595 0.001444 136.169 0 137.81V429.81C0.00144213 431.451 0.655115 433.025 1.81751 434.185C2.97991 435.346 4.55605 435.999 6.19995 436H437.793C438.689 436 439.575 435.806 440.389 435.431C441.203 435.056 441.926 434.509 442.507 433.828C442.556 433.774 442.602 433.717 442.642 433.657C443.012 433.206 443.312 432.7 443.531 432.159C443.843 431.415 444.002 430.616 444 429.81V137.81C443.998 136.168 443.343 134.593 442.18 133.432C441.016 132.272 439.438 131.62 437.793 131.62ZM442.23 429.81C442.23 430.673 441.976 431.518 441.497 432.237C441.072 432.871 440.495 433.388 439.819 433.742C439.193 434.066 438.498 434.234 437.793 434.232H6.19995C5.02556 434.231 3.89967 433.764 3.06925 432.935C2.23883 432.106 1.77168 430.982 1.77025 429.81V137.81C1.77167 136.638 2.23883 135.513 3.06925 134.684C3.89967 133.855 5.02556 133.389 6.19995 133.387H437.793C438.968 133.387 440.096 133.853 440.928 134.682C441.76 135.511 442.228 136.636 442.23 137.81V429.81Z" fill="#3F3D56"/>
<path d="M443.11 156.43H0.882812V158.2H443.11V156.43Z" fill="#3F3D56"/>
<path d="M15.9502 150.201C18.8869 150.201 21.2675 147.824 21.2675 144.892C21.2675 141.96 18.8869 139.583 15.9502 139.583C13.0135 139.583 10.6328 141.96 10.6328 144.892C10.6328 147.824 13.0135 150.201 15.9502 150.201Z" fill="#3F3D56"/>
<path d="M31.2373 150.201C34.174 150.201 36.5547 147.824 36.5547 144.892C36.5547 141.96 34.174 139.583 31.2373 139.583C28.3006 139.583 25.9199 141.96 25.9199 144.892C25.9199 147.824 28.3006 150.201 31.2373 150.201Z" fill="#3F3D56"/>
<path d="M46.5244 150.201C49.4611 150.201 51.8418 147.824 51.8418 144.892C51.8418 141.96 49.4611 139.583 46.5244 139.583C43.5877 139.583 41.207 141.96 41.207 144.892C41.207 147.824 43.5877 150.201 46.5244 150.201Z" fill="#3F3D56"/>
<path d="M196.938 306.875C191.62 303.419 188.975 295.386 190.278 288.04C191.581 280.694 196.488 274.366 202.371 271.638C205.232 270.35 208.369 269.792 211.5 270.014C214.631 270.237 217.658 271.232 220.308 272.911C225.703 276.204 233.332 278.008 235.894 284.598C237.863 289.661 235.366 299.944 232.716 304.862C230.426 309.114 226.074 311.058 221.986 311.903C217.463 312.824 212.794 312.764 208.296 311.728C203.798 310.692 199.575 308.703 195.913 305.897L196.938 306.875Z" fill="#2F2E41"/>
<path d="M194.165 345.892L189.913 353.211L189.351 354.176L188.533 355.596H175.998L176.844 354.176L179.034 350.492L184.139 341.888L189.92 344.195L194.165 345.892Z" fill="#FFB8B8"/>
<path d="M175.058 355.596L172.769 354.176L172.484 353.998L186.854 327.852C187.472 326.721 188.309 325.723 189.316 324.916C190.323 324.109 191.48 323.51 192.72 323.153C194.286 322.687 195.945 322.626 197.541 322.975C198.472 323.172 199.369 323.507 200.2 323.969C200.542 324.157 200.872 324.365 201.188 324.594C202.404 325.445 203.402 326.568 204.104 327.874C204.939 329.402 205.351 331.125 205.299 332.866C205.246 334.606 204.731 336.301 203.805 337.777L198.266 346.615L193.531 354.176L192.642 355.596H175.058Z" fill="#2F2E41"/>
<path d="M211.979 316.154C221.624 316.154 229.443 308.348 229.443 298.718C229.443 289.089 221.624 281.282 211.979 281.282C202.334 281.282 194.516 289.089 194.516 298.718C194.516 308.348 202.334 316.154 211.979 316.154Z" fill="#FFB8B8"/>
<path d="M229.509 355.596H190.254L190.431 355.092C190.332 354.786 190.239 354.481 190.154 354.176C190.062 353.856 189.983 353.53 189.912 353.21C189.274 350.238 189.277 347.165 189.919 344.194C192.088 333.56 200.741 324.92 200.741 324.92C200.89 324.807 201.04 324.7 201.189 324.594C202.476 323.653 203.873 322.871 205.349 322.265C211.776 319.603 218.517 320.675 223.046 322.052C224.623 322.529 226.165 323.115 227.661 323.806C228.186 324.054 228.471 324.211 228.471 324.211L228.919 337.848L229.459 354.176L229.509 355.596Z" fill="#0075FF"/>
<path d="M247.67 354.176L244.669 338.941L241.64 323.579C241.514 322.944 241.199 322.363 240.736 321.91C240.272 321.458 239.683 321.156 239.045 321.044L232.703 319.951L226.801 318.936C226.232 318.834 225.646 318.889 225.105 319.095C224.565 319.301 224.092 319.652 223.737 320.107C223.293 320.659 223.05 321.345 223.047 322.052C223.047 322.489 223.137 322.922 223.31 323.323C226.389 330.493 226.446 341.845 225.664 354.176C225.628 354.644 225.6 355.12 225.564 355.596H247.954L247.67 354.176Z" fill="#2F2E41"/>
<path d="M205.349 322.266C205.219 321.749 204.961 321.273 204.601 320.88C204.24 320.487 203.787 320.19 203.283 320.016C202.779 319.841 202.239 319.795 201.712 319.88C201.186 319.965 200.688 320.18 200.265 320.505L197.542 322.976L186.393 333.113C186.046 333.424 185.773 333.81 185.597 334.242C184.338 337.245 181.885 343.172 179.034 350.492C178.572 351.684 178.096 352.912 177.605 354.176C177.434 354.645 177.25 355.12 177.064 355.596H195.438C195.587 355.12 195.736 354.645 195.885 354.176C196.703 351.599 197.499 349.072 198.267 346.616C200.514 339.481 202.541 333 204.105 327.874C204.539 326.454 204.934 325.143 205.292 323.941C205.459 323.397 205.479 322.819 205.349 322.266Z" fill="#2F2E41"/>
<path d="M251.793 355.596H252.981L252.817 355.198L252.383 354.176L245.693 338.324L244.669 338.941L236.449 343.904L240.666 354.176L241.249 355.596H247.954H251.793Z" fill="#FFB8B8"/>
<path d="M245.01 325.751C244.104 323.385 242.318 321.461 240.024 320.38C237.73 319.299 235.106 319.145 232.702 319.951C232.395 320.053 232.093 320.171 231.799 320.306C230.114 321.056 228.679 322.27 227.661 323.806C227.245 324.419 226.904 325.079 226.644 325.772C226.183 326.976 225.964 328.258 226.002 329.546C226.04 330.834 226.333 332.102 226.864 333.276L228.919 337.848L236.271 354.176L236.911 355.596H251.793L252.817 355.198L255.476 354.176L255.846 354.034L245.01 325.751Z" fill="#2F2E41"/>
<path d="M225.693 278.693C226.302 278.875 226.954 278.852 227.548 278.626C228.142 278.401 228.645 277.987 228.98 277.447C229.296 276.898 229.483 276.283 229.524 275.65C229.566 275.017 229.462 274.383 229.22 273.796C228.725 272.625 227.944 271.597 226.948 270.804C225.818 269.783 224.442 269.072 222.954 268.74C222.211 268.58 221.442 268.582 220.699 268.745C219.957 268.908 219.258 269.228 218.65 269.684C218.054 270.155 217.611 270.794 217.38 271.517C217.149 272.241 217.139 273.017 217.352 273.747C217.804 275.056 219.029 275.933 220.252 276.586C222.679 277.88 225.355 278.639 228.101 278.814L225.693 278.693Z" fill="#2F2E41"/>
<path d="M229.091 298.197C226.284 298.584 226.644 297.157 225.52 294.559C224.395 291.962 222.89 288.878 220.068 288.615C217.756 288.4 215.85 290.246 213.977 291.616C210.638 294.059 206.137 295.255 202.267 293.79C198.396 292.324 195.706 287.718 197.175 283.854C197.632 282.787 198.304 281.825 199.148 281.027C199.993 280.23 200.993 279.614 202.085 279.218C204.278 278.44 206.606 278.117 208.927 278.27C214.091 278.434 219.155 279.729 223.762 282.061C226.942 283.674 230.038 285.982 231.244 289.333C232.45 292.685 233.244 297.394 229.795 298.301L229.091 298.197Z" fill="#2F2E41"/>
<path d="M224.258 269.475C222.87 267.063 224.016 263.754 226.287 262.143C228.557 260.531 231.603 260.373 234.313 261.019C236.993 261.693 239.448 263.059 241.432 264.979C243.416 266.899 244.86 269.307 245.618 271.96C246.768 276.178 246.085 280.708 247.058 284.969C247.577 287.241 248.557 289.383 249.936 291.262C251.315 293.142 253.065 294.72 255.079 295.899C257.092 297.077 259.325 297.832 261.641 298.117C263.958 298.401 266.308 298.209 268.547 297.553C271.464 296.698 274.428 294.619 274.715 291.597C275.017 295.067 274.224 298.544 272.448 301.542C270.673 304.539 268.003 306.908 264.812 308.315C261.054 309.88 256.862 309.982 252.792 309.878C250.139 309.81 247.426 309.65 244.979 308.626C243.286 307.855 241.764 306.754 240.502 305.388C239.241 304.023 238.265 302.419 237.632 300.672C236.386 297.16 236.049 293.391 236.654 289.714C237.054 286.855 237.851 284.052 238.074 281.173C238.297 278.294 237.874 275.22 236.096 272.942C234.319 270.664 230.923 269.501 228.395 270.905C227.38 271.469 226.56 272.39 225.457 272.754C224.353 273.118 222.789 272.479 222.889 271.322L224.258 269.475Z" fill="#2F2E41"/>
<path d="M343.43 355.595L343.565 354.176L347.575 312.518C348.89 311.491 350.302 310.594 351.792 309.842C360.046 305.689 368.01 307.677 372.319 309.395C373.461 309.841 374.564 310.38 375.618 311.006L377.964 354.176L378.043 355.595H343.43Z" fill="#0075FF"/>
<path d="M362.21 301.432C371.854 301.432 379.673 293.625 379.673 283.996C379.673 274.366 371.854 266.56 362.21 266.56C352.565 266.56 344.746 274.366 344.746 283.996C344.746 293.625 352.565 301.432 362.21 301.432Z" fill="#FFB8B8"/>
<path d="M376.38 294.627C377.679 293.261 378.54 291.541 378.856 289.684C379.172 287.828 378.928 285.92 378.154 284.203C377.381 282.485 376.114 281.036 374.513 280.04C372.913 279.044 371.052 278.546 369.167 278.609C366.752 278.689 364.477 279.676 362.172 280.4C358.679 281.587 354.953 281.922 351.304 281.377C347.633 280.808 344.321 278.856 342.049 275.921C339.888 272.956 339.215 268.844 340.741 265.509C342.503 261.659 346.619 259.537 350.492 257.814C352.053 257.033 353.721 256.486 355.442 256.19C356.304 256.047 357.187 256.083 358.034 256.296C358.881 256.51 359.676 256.895 360.367 257.429C361.455 258.364 362.093 259.768 363.277 260.578C364.61 261.49 366.341 261.466 367.949 261.626C371.57 261.988 374.995 263.442 377.768 265.795C380.542 268.148 382.532 271.288 383.474 274.797C384.416 278.307 384.266 282.02 383.043 285.442C381.821 288.864 379.583 291.834 376.629 293.956L376.38 294.627Z" fill="#2F2E41"/>
<path d="M354.394 317.055L351.792 309.842L351.629 309.393C351.552 309.179 351.428 308.987 351.265 308.829C351.102 308.671 350.906 308.552 350.69 308.481C350.475 308.41 350.246 308.389 350.021 308.419C349.796 308.45 349.581 308.531 349.392 308.657L346.438 310.623C346.438 310.623 327.489 310.623 325.967 321.975C325.946 322.152 325.917 322.351 325.896 322.564C325.895 322.574 325.893 322.583 325.889 322.592C325.697 323.338 322.121 337.138 319.049 354.176C318.964 354.645 318.878 355.12 318.793 355.596H359.969V355.596C361.308 338.481 360.559 322.567 354.394 317.055Z" fill="#2F2E41"/>
<path d="M403.512 354.176C401.266 336.698 398.052 322.564 398.052 322.564C398.023 322.351 397.995 322.152 397.973 321.975C396.459 310.623 377.51 310.623 377.51 310.623L374.557 308.658C374.368 308.532 374.153 308.451 373.928 308.42C373.703 308.39 373.474 308.411 373.258 308.482C373.043 308.553 372.846 308.672 372.683 308.83C372.521 308.989 372.396 309.182 372.319 309.395L369.554 317.055C363.389 322.567 362.639 338.48 363.979 355.595L363.979 355.596H403.69C403.633 355.12 403.569 354.644 403.512 354.176Z" fill="#2F2E41"/>
<path d="M69.9824 314.378L65.7589 354.176L65.6096 355.595H54.1836C54.3186 355.134 54.4537 354.658 54.596 354.176C57.8384 343.073 62.2538 326.866 61.7771 322.571C61.0307 315.869 66.2568 313.633 66.2568 313.633L66.5839 313.697L69.9824 314.378Z" fill="#0075FF"/>
<path d="M88.4108 302.094C98.0556 302.094 105.874 294.288 105.874 284.658C105.874 275.029 98.0556 267.222 88.4108 267.222C78.766 267.222 70.9473 275.029 70.9473 284.658C70.9473 294.288 78.766 302.094 88.4108 302.094Z" fill="#A0616A"/>
<path d="M111.018 347.148C110.137 348.769 109.416 350.471 108.863 352.231C108.657 352.855 108.458 353.508 108.273 354.176C108.138 354.637 108.017 355.113 107.896 355.595H61.8359C61.9002 355.127 61.9568 354.651 62.021 354.176C64.3745 335.612 66.2799 316.771 66.5857 313.697C66.6142 313.406 66.6284 313.257 66.6284 313.257C94.2303 298.732 114.374 317.729 114.374 317.729C114.374 317.729 114.402 317.864 114.445 318.127C114.886 320.782 117.132 336.286 111.018 347.148Z" fill="#0075FF"/>
<path d="M108.863 352.231L105.791 345.657L106.537 319.589L114.444 318.127L114.722 318.077C118.808 320.449 121.971 324.132 123.694 328.527C125.23 332.36 128.153 343.889 130.62 354.176C130.734 354.652 130.847 355.127 130.961 355.596H110.434L109.772 354.176L108.863 352.231Z" fill="#0075FF"/>
<path d="M136.954 238.461H35.9745C33.8086 238.464 31.7321 239.324 30.2005 240.853C28.6689 242.382 27.8073 244.455 27.8047 246.618V347.439C27.8073 349.602 28.6689 351.675 30.2005 353.204C31.7321 354.733 33.8086 355.593 35.9745 355.596H136.954C139.121 355.594 141.198 354.735 142.73 353.205C144.261 351.676 145.123 349.602 145.124 347.439V246.618C145.123 244.455 144.261 242.381 142.73 240.852C141.198 239.322 139.121 238.462 136.954 238.461ZM143.702 347.439C143.7 349.225 142.989 350.938 141.724 352.201C140.459 353.464 138.744 354.174 136.954 354.176H35.9745C34.1858 354.173 32.471 353.463 31.2062 352.2C29.9413 350.937 29.2295 349.225 29.2267 347.439V246.618C29.2295 244.832 29.9413 243.12 31.2062 241.857C32.471 240.594 34.1858 239.883 35.9745 239.881H136.954C138.744 239.882 140.459 240.593 141.724 241.856C142.989 243.119 143.7 244.832 143.702 246.618V347.439ZM65.7592 354.176L65.6098 355.596H107.895C108.016 355.113 108.136 354.637 108.271 354.176H65.7592Z" fill="#3F3D56"/>
<path d="M272.484 238.461H171.504C169.338 238.464 167.261 239.324 165.73 240.853C164.198 242.382 163.337 244.455 163.334 246.618V347.439C163.337 349.602 164.198 351.675 165.73 353.204C167.261 354.733 169.338 355.593 171.504 355.596H272.484C274.65 355.594 276.727 354.735 278.259 353.205C279.791 351.676 280.652 349.602 280.653 347.439V246.618C280.652 244.455 279.791 242.381 278.259 240.852C276.727 239.322 274.65 238.462 272.484 238.461ZM279.231 347.439C279.23 349.225 278.518 350.938 277.253 352.201C275.988 353.464 274.273 354.174 272.484 354.176H171.504C169.715 354.173 168 353.463 166.735 352.2C165.471 350.937 164.759 349.225 164.756 347.439V246.618C164.759 244.832 165.471 243.12 166.735 241.857C168 240.594 169.715 239.883 171.504 239.881H272.484C274.273 239.882 275.988 240.593 277.253 241.856C278.518 243.119 279.23 244.832 279.231 246.618V347.439ZM190.154 354.176C190.239 354.481 190.332 354.787 190.431 355.092L190.254 355.596H225.563C225.599 355.12 225.627 354.645 225.663 354.176H190.154Z" fill="#3F3D56"/>
<path d="M408.019 238.461H307.039C304.873 238.462 302.795 239.322 301.264 240.852C299.732 242.381 298.871 244.455 298.869 246.618V347.439C298.871 349.602 299.732 351.676 301.264 353.205C302.795 354.735 304.873 355.594 307.039 355.596H408.019C410.185 355.593 412.261 354.733 413.793 353.204C415.324 351.675 416.186 349.601 416.188 347.439V246.618C416.186 244.455 415.324 242.382 413.793 240.853C412.261 239.324 410.185 238.464 408.019 238.461ZM414.766 347.439C414.764 349.225 414.052 350.937 412.787 352.2C411.522 353.463 409.808 354.173 408.019 354.176H307.039C305.25 354.175 303.534 353.464 302.269 352.201C301.004 350.938 300.293 349.225 300.291 347.439V246.618C300.293 244.831 301.004 243.119 302.269 241.856C303.534 240.592 305.25 239.882 307.039 239.881H408.019C409.808 239.883 411.522 240.594 412.787 241.857C414.052 243.12 414.764 244.832 414.766 246.618V347.439ZM360.074 354.176C360.039 354.645 360.003 355.12 359.968 355.596H390.606C390.663 355.127 390.727 354.652 390.783 354.176H360.074Z" fill="#3F3D56"/>
<path d="M339.317 396.771H104.678C103.17 396.771 101.723 396.172 100.656 395.107C99.5895 394.042 98.9902 392.598 98.9902 391.091C98.9902 389.585 99.5895 388.141 100.656 387.076C101.723 386.01 103.17 385.412 104.678 385.412H339.317C340.826 385.412 342.272 386.01 343.339 387.076C344.406 388.141 345.005 389.585 345.005 391.091C345.005 392.598 344.406 394.042 343.339 395.107C342.272 396.172 340.826 396.771 339.317 396.771Z" fill="#CCCCCC"/>
<path d="M273.547 208.645H170.448C168.939 208.645 167.493 208.046 166.426 206.981C165.359 205.916 164.76 204.472 164.76 202.965C164.76 201.459 165.359 200.015 166.426 198.95C167.493 197.884 168.939 197.286 170.448 197.286H273.547C275.055 197.286 276.502 197.884 277.569 198.95C278.636 200.015 279.235 201.459 279.235 202.965C279.235 204.472 278.636 205.916 277.569 206.981C276.502 208.046 275.055 208.645 273.547 208.645Z" fill="#0075FF"/>
<path d="M96.7639 299.849C97.3553 300.432 98.1372 300.781 98.966 300.834C99.7949 300.887 100.615 300.64 101.276 300.138C105.392 297.092 109.005 293.3 111.143 288.675C113.594 283.376 113.867 276.873 110.913 271.836C108.415 267.578 104.006 264.831 99.6105 262.574C97.904 261.613 96.0658 260.905 94.1542 260.475C92.2222 260.049 90.2004 260.375 88.5004 261.386C87.6688 261.906 87.0136 262.665 86.6204 263.563C86.2271 264.461 86.114 265.456 86.2958 266.419C84.1847 264.015 81.4807 262.202 78.4519 261.162C76.5446 260.417 74.4562 260.266 72.4613 260.729C69.6722 261.518 67.6361 263.993 66.5224 266.665C65.6217 268.698 65.3107 270.942 65.6248 273.143C65.79 274.238 66.1836 275.286 66.7802 276.22C67.3767 277.153 68.1629 277.952 69.0879 278.563C71.3938 279.987 74.3357 279.884 76.9839 279.303C79.6321 278.721 82.1956 277.708 84.8951 277.452C87.5946 277.196 90.6006 277.868 92.2435 280.022C93.4004 281.539 93.6975 283.521 93.9572 285.41L95.308 295.234C95.4185 296.656 95.7821 298.046 96.3816 299.339C96.4855 299.526 96.6141 299.697 96.7639 299.849Z" fill="#2F2E41"/>
</g>
<defs>
<clipPath id="clip0_1206_17568">
<rect width="444" height="436" fill="white"/>
</clipPath>
</defs>
</svg>
