<svg width="20" height="19" viewBox="0 0 20 19" fill="none" xmlns="http://www.w3.org/2000/svg">
<path d="M13 5H15M13 9H15M10 13H5M19 9V3C19 2.46957 18.7893 1.96086 18.4142 1.58579C18.0391 1.21071 17.5304 1 17 1H3C2.46957 1 1.96086 1.21071 1.58579 1.58579C1.21071 1.96086 1 2.46957 1 3V15C1 15.5304 1.21071 16.0391 1.58579 16.4142C1.96086 16.7893 2.46957 17 3 17H10M5 5V9H9V5H5Z" stroke="#072FAA" stroke-width="2" stroke-linecap="round" stroke-linejoin="round"/>
<path d="M17.2678 16.2683C17.5 16.0362 17.6842 15.7605 17.8098 15.4572C17.9355 15.1538 18.0002 14.8287 18.0002 14.5003C18.0002 14.172 17.9355 13.8468 17.8098 13.5435C17.6842 13.2401 17.5 12.9645 17.2678 12.7323C17.0357 12.5002 16.76 12.316 16.4567 12.1903C16.1533 12.0647 15.8282 12 15.4998 12C15.1715 12 14.8464 12.0647 14.543 12.1903C14.2397 12.316 13.964 12.5002 13.7318 12.7323C13.2629 13.2012 12.9995 13.8372 12.9995 14.5003C12.9995 15.1635 13.2629 15.7994 13.7318 16.2683C14.2007 16.7372 14.8367 17.0007 15.4998 17.0007C16.163 17.0007 16.7989 16.7372 17.2678 16.2683ZM17.2678 16.2683L18.9998 18.0003" stroke="#072FAA" stroke-width="2" stroke-linecap="round" stroke-linejoin="round"/>
</svg>
