<svg width="20" height="16" viewBox="0 0 20 16" fill="none" xmlns="http://www.w3.org/2000/svg">
<path d="M0.75 0.5C0.335787 0.5 0 0.835786 0 1.25C0 1.66421 0.335786 2 0.75 2H14.5C15.6046 2 16.5 2.89543 16.5 4V12C16.5 13.1046 15.6046 14 14.5 14H6.75C6.33579 14 6 14.3358 6 14.75C6 15.1642 6.33579 15.5 6.75 15.5H18.75C19.1642 15.5 19.5 15.1642 19.5 14.75C19.5 14.3358 19.1642 14 18.75 14C18.3358 14 18 13.6642 18 13.25V2.5C18 1.39543 17.1046 0.5 16 0.5H0.75ZM3.0015 2.75C2.20656 2.75276 1.44495 3.06968 0.882703 3.63164C0.320454 4.19361 0.00316229 4.95506 0 5.75C0 7.39925 1.353 8.75 3.0015 8.75C3.79604 8.74684 4.55711 8.4297 5.1188 7.86774C5.68048 7.30577 5.99724 6.54454 6 5.75C6 4.10225 4.6485 2.75 3.0015 2.75ZM8.25 3.5C7.83579 3.5 7.5 3.83579 7.5 4.25C7.5 4.66421 7.83579 5 8.25 5H10.5C10.9142 5 11.25 4.66421 11.25 4.25C11.25 3.83579 10.9142 3.5 10.5 3.5H8.25ZM13.5 3.5C13.0858 3.5 12.75 3.83579 12.75 4.25C12.75 4.66421 13.0858 5 13.5 5H14.25C14.6642 5 15 4.66421 15 4.25C15 3.83579 14.6642 3.5 14.25 3.5H13.5ZM3.0015 4.25C3.837 4.25 4.5 4.91225 4.5 5.75C4.5 6.59 3.83775 7.25 3.0015 7.25C2.1615 7.25 1.5 6.59 1.5 5.75C1.5 4.91225 2.16225 4.25 3.0015 4.25ZM8.25 6.5C7.83579 6.5 7.5 6.83579 7.5 7.25C7.5 7.66421 7.83579 8 8.25 8H14.25C14.6642 8 15 7.66421 15 7.25C15 6.83579 14.6642 6.5 14.25 6.5H8.25ZM2 9.5C0.895431 9.5 0 10.3954 0 11.5V14.75C0 15.1642 0.335786 15.5 0.75 15.5C1.16421 15.5 1.5 15.1642 1.5 14.75V12.125C1.5 11.5037 2.00368 11 2.625 11C3.24632 11 3.75 11.5037 3.75 12.125V14.75C3.75 15.1642 4.08579 15.5 4.5 15.5C4.91421 15.5 5.25 15.1642 5.25 14.75V13.2448C5.25 12.4501 6.09555 11.9409 6.798 12.3125C7.23653 12.5449 7.76347 12.5443 8.20133 12.3129C8.20164 12.3127 8.202 12.3129 8.202 12.3133C8.202 12.3136 8.20236 12.3138 8.20266 12.3137L10.1871 11.2641C10.5531 11.0705 10.6931 10.6171 10.5001 10.2509C10.3067 9.88395 9.85225 9.74355 9.48556 9.93744L8.41614 10.5029C7.84385 10.8055 7.15901 10.8057 6.5865 10.5036L5.1795 9.761C4.85544 9.5898 4.49451 9.50021 4.128 9.5H2Z" fill="#072FAA"/>
</svg>
