<svg width="24" height="24" viewBox="0 0 24 24" fill="none" xmlns="http://www.w3.org/2000/svg">
<g clip-path="url(#clip0_9064_81001)">
<path d="M4.86051 0.0937519C4.73394 0.140627 4.52301 0.267189 4.39176 0.370314C4.25582 0.473438 3.30894 1.39688 2.28707 2.42344C0.304257 4.41094 0.257382 4.47188 0.140194 5.03906C0.107382 5.19844 0.0980067 8.1 0.102694 13.9734L0.116757 22.6734L0.304257 23.0438C0.524569 23.4703 0.819882 23.7469 1.24176 23.9016L1.50426 24L9.71676 23.9906L17.9293 23.9766L18.1496 23.8734C18.4636 23.7281 18.8293 23.3719 18.998 23.0391C19.1339 22.7813 19.1433 22.7109 19.1621 22.2047C19.1808 21.6797 19.1761 21.6422 19.073 21.5344C18.9418 21.3984 18.7121 21.3844 18.5574 21.5109C18.4589 21.5859 18.4449 21.6516 18.4214 22.0828C18.3839 22.7203 18.2574 22.95 17.8121 23.1844C17.6527 23.2688 17.3621 23.2734 9.65582 23.2734H1.65894L1.42926 23.1516C1.16676 23.0203 0.951132 22.7484 0.890194 22.4719C0.843319 22.2703 0.824569 5.35313 0.871444 5.23125C0.894882 5.16563 1.09644 5.15625 2.61988 5.15625C4.24176 5.15625 4.34488 5.14688 4.54644 5.05781C4.80426 4.94063 5.03863 4.725 5.16988 4.47656C5.26832 4.29375 5.27301 4.23281 5.28707 2.52188L5.30113 0.754688L5.49801 0.726564C5.60582 0.712502 8.38551 0.703127 11.6714 0.712502L17.648 0.726564L17.8355 0.829689C17.9386 0.881252 18.0793 0.989063 18.1496 1.06406C18.4261 1.35 18.4214 1.32188 18.4214 4.00781C18.4214 6.07969 18.4308 6.49688 18.4918 6.60469C18.6043 6.825 18.8386 6.8625 19.0496 6.69844L19.1761 6.6L19.1621 3.92344L19.148 1.24219L19.0027 0.960939C18.8293 0.628126 18.4589 0.267189 18.1496 0.126564L17.9293 0.0234394L11.5074 0.0140648C5.31051 0.00468826 5.07613 0.00468826 4.86051 0.0937519ZM4.52301 4.01719C4.50894 4.10156 4.43394 4.21875 4.35426 4.28438L4.20894 4.40625H2.79801H1.38707L2.95738 2.85938L4.52301 1.31719L4.53707 2.59219C4.54176 3.29531 4.53707 3.93281 4.52301 4.01719Z" fill="#072FAA" stroke="#072FAA" stroke-width="0.4"/>
<path d="M7.85156 2.47968C7.61719 2.58749 7.4625 2.75156 7.40625 2.95781C7.37813 3.04687 7.35938 3.43124 7.35938 3.81562C7.35938 4.65468 7.42031 4.84218 7.75313 5.03906C7.93125 5.14218 8.00625 5.15624 8.44219 5.15624C9.02813 5.15624 9.14063 5.09531 9.14063 4.78124C9.14063 4.49531 8.99063 4.40624 8.49844 4.40624H8.10469L8.11875 3.78281L8.13281 3.16406H11.7891H15.4453V3.77343V4.38281L12.8578 4.40624C10.3453 4.42968 10.2656 4.43437 10.1766 4.52343C10.0312 4.67343 10.0312 4.92187 10.1719 5.06249C10.2656 5.15624 10.3266 5.15624 12.9141 5.15624C15.7969 5.15624 15.7453 5.16093 15.9891 4.89374C16.1813 4.68281 16.2188 4.49531 16.2188 3.77812C16.2141 2.88281 16.1297 2.66249 15.7266 2.47968C15.5484 2.39531 15.3281 2.39062 11.7891 2.39062C8.24063 2.39062 8.02969 2.39531 7.85156 2.47968Z" fill="#072FAA" stroke="#072FAA" stroke-width="0.4"/>
<path d="M18.3976 7.74844C18.107 7.84688 17.9992 7.91719 17.6992 8.19844L17.4273 8.46094H16.7617C16.1663 8.46094 16.082 8.47031 15.9038 8.56875C15.4679 8.79844 15.2242 9.15938 15.1398 9.68438C15.0695 10.1297 14.9851 10.2563 14.6242 10.4391C13.7945 10.8609 13.5038 11.6906 13.9163 12.4734C14.1226 12.8672 14.1226 13.0313 13.921 13.4297C13.771 13.725 13.757 13.7906 13.757 14.1563C13.757 14.4938 13.7757 14.5875 13.8835 14.7891C14.0429 15.0938 14.2304 15.2672 14.6148 15.4688C14.9804 15.6609 15.0695 15.7875 15.1398 16.2375C15.1679 16.4109 15.2288 16.6359 15.2804 16.7344C15.421 17.0063 15.8101 17.3344 16.1054 17.4188L16.3585 17.4891V19.1859C16.3585 20.7516 16.3632 20.8969 16.4476 21.0469C16.5601 21.2672 16.8367 21.4219 17.1132 21.4219C17.3101 21.4219 17.4179 21.3703 18.0742 20.9719L18.8101 20.5266L19.4007 20.8875C20.2773 21.4266 20.282 21.4312 20.5679 21.4078C20.8304 21.3891 20.9945 21.2953 21.1585 21.075C21.2523 20.9531 21.257 20.8781 21.271 19.2188L21.2851 17.4891L21.4585 17.4422C21.721 17.3672 22.0538 17.1375 22.2179 16.9172C22.3726 16.7016 22.4992 16.3359 22.4992 16.1016C22.4992 15.8625 22.6773 15.6516 23.0617 15.4406C23.6335 15.1313 23.8867 14.7047 23.8773 14.0766C23.8726 13.8422 23.8398 13.7203 23.7038 13.4344C23.6054 13.2422 23.5304 13.0266 23.5304 12.9563C23.5304 12.8859 23.6101 12.6703 23.7038 12.4781C23.8491 12.1828 23.8773 12.0797 23.8773 11.8172C23.882 11.1938 23.6242 10.7813 23.0382 10.4625C22.6491 10.2516 22.5226 10.0875 22.4851 9.72656C22.4288 9.17344 22.0398 8.66719 21.5523 8.50313C21.3554 8.4375 21.2195 8.43281 20.807 8.45625C20.221 8.49375 20.1882 8.48438 19.8601 8.15625C19.7382 8.02969 19.5413 7.88438 19.4241 7.82344C19.1617 7.69688 18.6648 7.65938 18.3976 7.74844ZM19.1101 8.53125C19.1945 8.58281 19.3351 8.70469 19.4241 8.80313C19.5132 8.90156 19.6867 9.03281 19.8132 9.09375C20.0195 9.20156 20.0898 9.21094 20.671 9.21094C21.2007 9.21094 21.3273 9.225 21.4351 9.29531C21.6273 9.41719 21.7023 9.57188 21.7538 9.91406C21.8335 10.4859 22.1007 10.8469 22.6445 11.1234C22.8929 11.2453 22.9632 11.3109 23.0523 11.4844C23.1835 11.7422 23.1648 11.8781 22.9538 12.2625C22.8179 12.5156 22.8038 12.5719 22.8038 12.9609C22.8038 13.35 22.8179 13.4063 22.9538 13.6453C23.1648 14.0156 23.1835 14.1797 23.0523 14.4375C22.9632 14.6063 22.8882 14.6719 22.6398 14.8031C22.082 15.0891 21.8335 15.4172 21.7538 15.9984C21.7023 16.3641 21.5616 16.5891 21.3226 16.6875C21.2054 16.7391 21.0976 16.7391 20.7929 16.6969C20.1554 16.6078 19.8695 16.7016 19.382 17.1563C18.9226 17.5828 18.6741 17.5875 18.2476 17.175C17.7976 16.7344 17.4085 16.6078 16.7992 16.6969C16.2226 16.7859 15.9835 16.6078 15.8663 16.0125C15.7445 15.3563 15.5851 15.1313 15.0226 14.8266C14.657 14.625 14.4835 14.4141 14.4835 14.1703C14.4835 14.0813 14.5585 13.8516 14.657 13.65C14.8117 13.3406 14.8304 13.2516 14.8304 12.9609C14.8304 12.6703 14.8117 12.5813 14.657 12.2719C14.5585 12.0703 14.4835 11.8406 14.4835 11.7516C14.4835 11.5078 14.657 11.2969 15.0226 11.0953C15.557 10.8094 15.7585 10.5234 15.8663 9.9C15.9179 9.6 15.9507 9.525 16.096 9.37969L16.2695 9.21094L16.8742 9.225C17.6054 9.24375 17.7882 9.18281 18.1867 8.78906C18.5617 8.42344 18.8148 8.34844 19.1101 8.53125ZM17.4742 17.5172C17.5351 17.5547 17.657 17.6672 17.746 17.7656C18.0085 18.0563 18.3695 18.2063 18.796 18.2109C19.2413 18.2109 19.5085 18.0938 19.8695 17.7469C20.0992 17.5313 20.4507 17.3391 20.5117 17.4C20.521 17.4141 20.5257 18.1547 20.521 19.0453L20.507 20.6719L19.7851 20.2266C18.8054 19.6219 18.8335 19.6219 17.8398 20.2266L17.1085 20.6672V19.0266V17.3906L17.2398 17.4188C17.3101 17.4375 17.4132 17.4797 17.4742 17.5172Z" fill="#072FAA" stroke="#072FAA" stroke-width="0.4"/>
<path d="M18.1635 10.056C17.3057 10.2388 16.5322 10.8482 16.1432 11.6545C15.3603 13.2716 16.1713 15.1888 17.8916 15.7795C18.1916 15.8779 18.3463 15.9013 18.7494 15.906C19.3353 15.9107 19.6307 15.8451 20.1369 15.6013C20.84 15.2591 21.3932 14.617 21.6369 13.8576C21.74 13.5388 21.7588 13.3841 21.7588 12.9576C21.7635 12.0998 21.4869 11.4435 20.8822 10.8435C20.165 10.131 19.1666 9.84508 18.1635 10.056ZM19.3119 10.806C20.001 10.9607 20.6103 11.4951 20.8728 12.1701C21.3744 13.4545 20.5213 14.9123 19.1338 15.142C17.6572 15.3857 16.3307 13.9795 16.6447 12.5029C16.8182 11.7107 17.4791 11.0216 18.2853 10.806C18.6182 10.717 18.9182 10.717 19.3119 10.806Z" fill="#072FAA" stroke="#072FAA" stroke-width="0.4"/>
<path d="M2.88691 8.58281C2.71348 8.71875 2.71348 9 2.88691 9.13594C3.01348 9.23438 3.02754 9.23438 7.64004 9.23438C12.1119 9.23438 12.276 9.22969 12.3791 9.14531C12.5338 9.01875 12.5338 8.7 12.3791 8.57344C12.276 8.48906 12.1119 8.48438 7.64004 8.48438C3.02754 8.48438 3.01348 8.48438 2.88691 8.58281Z" fill="#072FAA" stroke="#072FAA" stroke-width="0.4"/>
<path d="M2.8681 11.0753C2.74154 11.2112 2.73685 11.4363 2.85404 11.5816L2.9431 11.6941L7.5556 11.7081C10.7853 11.7175 12.2009 11.7034 12.2853 11.6659C12.5244 11.5722 12.5806 11.2628 12.3978 11.0847L12.2853 10.9675H7.62592H2.96654L2.8681 11.0753Z" fill="#072FAA" stroke="#072FAA" stroke-width="0.4"/>
<path d="M2.97144 13.4719C2.74644 13.5703 2.68551 13.8891 2.85894 14.0625C2.95269 14.1562 3.01363 14.1562 7.63551 14.1562H12.323L12.4168 14.0344C12.548 13.8703 12.5386 13.7203 12.4027 13.5609L12.2902 13.4297L7.70113 13.4203C3.92769 13.4109 3.09332 13.4203 2.97144 13.4719Z" fill="#072FAA" stroke="#072FAA" stroke-width="0.4"/>
<path d="M2.88245 16.0077C2.71838 16.1671 2.72307 16.4108 2.88713 16.5421C3.0137 16.6405 3.02776 16.6405 7.63557 16.6405C12.7121 16.6405 12.4262 16.6546 12.4918 16.364C12.5293 16.1858 12.4168 15.9608 12.2715 15.9186C12.2106 15.9046 10.1012 15.8905 7.57932 15.8905H2.99495L2.88245 16.0077Z" fill="#072FAA" stroke="#072FAA" stroke-width="0.4"/>
<path d="M2.96684 19.5469C2.74652 19.6359 2.69496 19.9781 2.87309 20.1469L2.9809 20.25H5.39965H7.82309L7.91684 20.1281C8.0809 19.9172 8.03871 19.6828 7.82309 19.5703C7.71527 19.5094 7.32153 19.5 5.3809 19.5047C4.11059 19.5047 3.02309 19.5234 2.96684 19.5469Z" fill="#072FAA" stroke="#072FAA" stroke-width="0.4"/>
</g>
<defs>
<clipPath id="clip0_9064_81001">
<rect width="24" height="24" fill="white"/>
</clipPath>
</defs>
</svg>
