<svg width="14" height="24" viewBox="0 0 14 24" fill="none" xmlns="http://www.w3.org/2000/svg">
<path d="M3.4602e-06 22C3.4602e-06 19.6833 0.483337 17.804 1.45 16.362C2.41667 14.92 3.75 13.466 5.45 12C3.75 10.5333 2.41667 9.07934 1.45 7.638C0.483337 6.19667 3.4602e-06 4.31734 3.4602e-06 2V1.75C3.4602e-06 1.46667 0.0960036 1.229 0.288004 1.037C0.480004 0.845003 0.717337 0.749337 1 0.750003C1.28334 0.750003 1.521 0.846003 1.713 1.038C1.905 1.23 2.00067 1.46734 2 1.75V2C2 2.18334 2.00434 2.35434 2.013 2.513C2.02167 2.67167 2.034 2.834 2.05 3H11.95C11.9667 2.83334 11.9793 2.67067 11.988 2.512C11.9967 2.35334 12.0007 2.18267 12 2V1.75C12 1.46667 12.096 1.229 12.288 1.037C12.48 0.845003 12.7173 0.749337 13 0.750003C13.2833 0.750003 13.521 0.846003 13.713 1.038C13.905 1.23 14.0007 1.46734 14 1.75V2C14 4.31667 13.5167 6.196 12.55 7.638C11.5833 9.08 10.25 10.534 8.55 12C10.25 13.4667 11.5833 14.9207 12.55 16.362C13.5167 17.8033 14 19.6827 14 22V22.25C14 22.5333 13.904 22.771 13.712 22.963C13.52 23.155 13.2827 23.2507 13 23.25C12.7167 23.25 12.479 23.154 12.287 22.962C12.095 22.77 11.9993 22.5327 12 22.25V22C12 21.8167 11.9957 21.6457 11.987 21.487C11.9783 21.3283 11.966 21.166 11.95 21H2.05C2.03334 21.1667 2.021 21.3293 2.013 21.488C2.005 21.6467 2.00067 21.8173 2 22V22.25C2 22.5333 1.904 22.771 1.712 22.963C1.52 23.155 1.28267 23.2507 1 23.25C0.71667 23.25 0.479004 23.154 0.287004 22.962C0.0950036 22.77 -0.000663206 22.5327 3.4602e-06 22.25V22ZM3.45 7H10.55C10.7667 6.68334 10.9543 6.36667 11.113 6.05C11.2717 5.73334 11.4173 5.38334 11.55 5H2.45C2.58334 5.36667 2.729 5.71267 2.887 6.038C3.045 6.36334 3.23267 6.684 3.45 7ZM7 10.7C7.33334 10.4167 7.65834 10.1333 7.975 9.85C8.29167 9.56667 8.59167 9.28334 8.875 9H5.125C5.40834 9.28334 5.70834 9.56667 6.025 9.85C6.34167 10.1333 6.66667 10.4167 7 10.7ZM5.125 15H8.875C8.59167 14.7167 8.29167 14.4333 7.975 14.15C7.65834 13.8667 7.33334 13.5833 7 13.3C6.66667 13.5833 6.34167 13.8667 6.025 14.15C5.70834 14.4333 5.40834 14.7167 5.125 15ZM2.45 19H11.55C11.4167 18.6333 11.2707 18.2873 11.112 17.962C10.9533 17.6367 10.766 17.316 10.55 17H3.45C3.23334 17.3167 3.046 17.6333 2.888 17.95C2.73 18.2667 2.584 18.6167 2.45 19Z" fill="#072FAA"/>
</svg>
