<svg width="20" height="18" viewBox="0 0 20 18" fill="none" xmlns="http://www.w3.org/2000/svg">
<path d="M10.2927 0.617188C10.2029 0.617028 10.1143 0.636997 10.0333 0.675625C9.95233 0.714253 9.88103 0.770556 9.82468 0.840388L9.71788 0.919588C7.64788 0.278788 5.28627 0.749188 3.64227 2.33319C2.95382 2.98645 2.44167 3.80314 2.15341 4.70736C1.86515 5.61159 1.81013 6.574 1.99347 7.50519C1.9731 7.52317 1.95309 7.54158 1.93347 7.56039L0.998675 8.46039C0.817846 8.63193 0.673839 8.8385 0.57543 9.0675C0.47702 9.2965 0.42627 9.54314 0.42627 9.79239C0.42627 10.0416 0.47702 10.2883 0.57543 10.5173C0.673839 10.7463 0.817846 10.9528 0.998675 11.1244C1.47627 11.5852 2.13867 11.758 2.75427 11.6428C2.82987 11.9896 3.00627 12.3196 3.28587 12.5884C3.65427 12.9436 4.13307 13.1272 4.61547 13.1404C4.62867 13.6048 4.81947 14.0656 5.18787 14.4208C5.55627 14.776 6.03627 14.9608 6.51868 14.9728C6.53067 15.4372 6.72268 15.8992 7.09108 16.2544C7.44377 16.5891 7.90577 16.7847 8.39158 16.805C8.87738 16.8253 9.35409 16.6689 9.73347 16.3648L10.2579 16.8688C11.0259 17.6092 12.2715 17.6092 13.0395 16.8688C13.4067 16.516 13.5975 16.0576 13.6143 15.5944C14.1075 15.5817 14.5783 15.3852 14.9343 15.0436C15.3015 14.6896 15.4923 14.2312 15.5067 13.768C15.9944 13.7509 16.4587 13.5548 16.8111 13.2172C17.1027 12.9376 17.2827 12.5908 17.3523 12.2284C17.6612 12.2825 17.9784 12.2634 18.2786 12.1725C18.5787 12.0817 18.8533 11.9216 19.0803 11.7052C19.2613 11.5336 19.4055 11.327 19.504 11.0979C19.6025 10.8688 19.6533 10.622 19.6533 10.3726C19.6533 10.1232 19.6025 9.87641 19.504 9.64729C19.4055 9.41818 19.2613 9.21155 19.0803 9.03999L18.2163 8.20839L18.3927 7.54839C18.7495 6.19908 18.5688 4.76394 17.8887 3.54519C16.8855 1.73799 14.9391 0.621988 12.8343 0.621988H11.3583C11.2947 0.618838 11.2311 0.617238 11.1675 0.617188H10.2927ZM13.2363 5.07639L16.1223 7.85679L16.1259 7.85919L18.2151 9.87279C18.2829 9.93715 18.337 10.0147 18.3739 10.1006C18.4109 10.1865 18.4299 10.2791 18.4299 10.3726C18.4299 10.4661 18.4109 10.5587 18.3739 10.6446C18.337 10.7305 18.2829 10.808 18.2151 10.8724C18.0749 11.0051 17.8892 11.0791 17.6961 11.0791C17.503 11.0791 17.3173 11.0051 17.1771 10.8724L15.5919 9.34599C15.4757 9.23451 15.3209 9.17227 15.1599 9.17227C14.9989 9.17227 14.8441 9.23451 14.7279 9.34599L14.7111 9.36039C14.6545 9.41399 14.6094 9.47855 14.5786 9.55015C14.5479 9.62174 14.532 9.69885 14.532 9.77679C14.532 9.85472 14.5479 9.93184 14.5786 10.0034C14.6094 10.075 14.6545 10.1396 14.7111 10.1932L15.9471 11.3836C16.2351 11.6596 16.2351 12.1084 15.9471 12.3856C15.8196 12.5064 15.6541 12.579 15.4789 12.591C15.3038 12.6031 15.1299 12.5538 14.9871 12.4516C14.8679 12.3655 14.7224 12.3239 14.5757 12.334C14.429 12.344 14.2905 12.4052 14.1843 12.5068C14.0804 12.6061 14.0177 12.7408 14.0086 12.8842C13.9995 13.0276 14.0446 13.1691 14.1351 13.2808C14.2428 13.4157 14.2959 13.5862 14.2839 13.7584C14.2719 13.9307 14.1957 14.0921 14.0703 14.2108C13.941 14.3334 13.7726 14.4064 13.5948 14.4169C13.417 14.4274 13.2411 14.3748 13.0983 14.2684C12.9797 14.1794 12.8335 14.1352 12.6856 14.1436C12.5376 14.1519 12.3973 14.2123 12.2895 14.314C12.1843 14.4131 12.1205 14.5484 12.1109 14.6927C12.1013 14.8369 12.1467 14.9794 12.2379 15.0916C12.3481 15.2283 12.4028 15.4016 12.391 15.5768C12.3792 15.7521 12.3018 15.9164 12.1743 16.0372C12.0322 16.172 11.8439 16.2471 11.6481 16.2471C11.4523 16.2471 11.2639 16.172 11.1219 16.0372L10.6023 15.5368L10.7919 15.3544C10.9729 15.1828 11.1171 14.9762 11.2156 14.7471C11.3141 14.518 11.3649 14.2712 11.3649 14.0218C11.3649 13.7724 11.3141 13.5256 11.2156 13.2965C11.1171 13.0674 10.9729 12.8607 10.7919 12.6892C10.4332 12.3455 9.95889 12.1485 9.46228 12.1372C9.44771 11.6513 9.24202 11.1907 8.88988 10.8556C8.53076 10.512 8.05594 10.3155 7.55907 10.3048C7.54451 9.81887 7.33882 9.35833 6.98667 9.02319C6.75614 8.80377 6.47666 8.64241 6.17137 8.55247C5.86607 8.46253 5.54375 8.4466 5.23108 8.50599C5.15197 8.14489 4.96687 7.81563 4.69947 7.56039C4.49449 7.36478 4.25023 7.21503 3.98292 7.1211C3.7156 7.02717 3.43136 6.9912 3.14907 7.01559C3.05454 6.31241 3.12815 5.59683 3.36388 4.92763C3.5996 4.25842 3.99071 3.65468 4.50507 3.16599C5.02484 2.66942 5.64803 2.29398 6.32997 2.0666C7.01191 1.83922 7.7357 1.76552 8.44948 1.85079L6.70347 3.13479C6.48008 3.29711 6.2919 3.50303 6.15029 3.7401C6.00869 3.97718 5.9166 4.24049 5.87959 4.51414C5.84258 4.78779 5.86142 5.06611 5.93496 5.33228C6.0085 5.59845 6.13522 5.84695 6.30747 6.06279C6.65584 6.49959 7.1592 6.78526 7.71283 6.86035C8.26647 6.93545 8.82774 6.7942 9.27987 6.46599L11.1711 5.07759H13.2351L13.2363 5.07639ZM7.41387 4.10079L10.5243 1.81719H11.1675C11.2263 1.81688 11.2851 1.81848 11.3439 1.82199H12.8343C14.5191 1.82199 16.0563 2.71599 16.8399 4.12839C17.3703 5.08359 17.5095 6.19359 17.2323 7.24119L17.2287 7.25319L13.9167 4.05279C13.8044 3.94019 13.6521 3.87674 13.4931 3.87639H10.9731C10.8457 3.87663 10.7217 3.9174 10.6191 3.99279L8.56948 5.49759C8.36815 5.64175 8.11935 5.70353 7.87397 5.67029C7.6286 5.63706 7.40519 5.51131 7.24948 5.31879C7.17691 5.2294 7.12341 5.1261 7.09227 5.01525C7.06113 4.9044 7.05301 4.78836 7.06841 4.67425C7.08381 4.56015 7.12241 4.45041 7.18182 4.35178C7.24123 4.25316 7.3202 4.16774 7.41387 4.10079ZM7.94427 14.4328L7.95627 14.4208L8.88988 13.5208L8.90067 13.5112C9.04165 13.383 9.22587 13.3129 9.4164 13.3149C9.60692 13.3169 9.78963 13.3909 9.92787 13.522C9.99574 13.5863 10.0498 13.6639 10.0867 13.7498C10.1237 13.8357 10.1427 13.9283 10.1427 14.0218C10.1427 14.1153 10.1237 14.2079 10.0867 14.2938C10.0498 14.3797 9.99574 14.4572 9.92787 14.5216L8.99308 15.4216C8.85289 15.5543 8.66715 15.6283 8.47408 15.6283C8.281 15.6283 8.09526 15.5543 7.95507 15.4216C7.8881 15.3582 7.83454 15.282 7.79757 15.1975C7.7606 15.113 7.74097 15.0219 7.73985 14.9297C7.73873 14.8375 7.75614 14.746 7.79105 14.6606C7.82596 14.5753 7.87886 14.4978 7.94427 14.4328ZM8.03668 12.6784L8.02468 12.6892L7.09108 13.5892L7.07908 13.6C6.93802 13.7277 6.75396 13.7974 6.56372 13.7951C6.37348 13.7929 6.1911 13.7189 6.05307 13.588C5.98597 13.5243 5.93238 13.4478 5.8955 13.3629C5.85862 13.2781 5.83921 13.1867 5.83842 13.0942C5.83764 13.0017 5.8555 12.9099 5.89093 12.8245C5.92637 12.739 5.97866 12.6616 6.04467 12.5968L6.05307 12.5884L6.98667 11.6884L6.99507 11.68C7.13588 11.5508 7.32044 11.4798 7.51153 11.4814C7.70261 11.4829 7.886 11.5569 8.02468 11.6884C8.09184 11.7518 8.14555 11.8281 8.18263 11.9127C8.21971 11.9973 8.2394 12.0885 8.24052 12.1808C8.24164 12.2732 8.22417 12.3649 8.18915 12.4503C8.15413 12.5358 8.10228 12.6134 8.03668 12.6784ZM6.12267 10.8556L5.18787 11.7556L5.17947 11.764C5.03867 11.8932 4.85411 11.9642 4.66302 11.9626C4.47193 11.961 4.28855 11.8871 4.14987 11.7556C4.08201 11.6912 4.02796 11.6137 3.99103 11.5278C3.95409 11.4419 3.93504 11.3493 3.93504 11.2558C3.93504 11.1623 3.95409 11.0697 3.99103 10.9838C4.02796 10.8979 4.08201 10.8203 4.14987 10.756L5.08347 9.85599C5.22373 9.72288 5.40971 9.64867 5.60307 9.64867C5.79644 9.64867 5.98242 9.72288 6.12267 9.85599C6.18997 9.91968 6.24372 9.9963 6.28071 10.0813C6.3177 10.1662 6.33717 10.2577 6.33795 10.3504C6.33873 10.4431 6.32082 10.5349 6.28527 10.6205C6.24972 10.706 6.19728 10.7836 6.13107 10.8484L6.12267 10.8556ZM3.83547 9.39279L2.90187 10.2928C2.76176 10.4262 2.57572 10.5006 2.38227 10.5006C2.18883 10.5006 2.00279 10.4262 1.86267 10.2928C1.79462 10.2284 1.74041 10.1508 1.70336 10.0648C1.66632 9.97876 1.64721 9.88606 1.64721 9.79239C1.64721 9.69871 1.66632 9.60602 1.70336 9.51998C1.74041 9.43394 1.79462 9.35636 1.86267 9.29199L2.79747 8.39199C2.93766 8.25923 3.1234 8.18524 3.31647 8.18524C3.50955 8.18524 3.69528 8.25923 3.83547 8.39199C3.90353 8.45636 3.95774 8.53394 3.99479 8.61998C4.03183 8.70602 4.05094 8.79871 4.05094 8.89239C4.05094 8.98606 4.03183 9.07876 3.99479 9.1648C3.95774 9.25084 3.90353 9.32841 3.83547 9.39279Z" fill="#072FAA"/>
</svg>
