<svg width="22" height="21" viewBox="0 0 22 21" fill="none" xmlns="http://www.w3.org/2000/svg">
<path d="M7 20C5.61667 20 4.43734 19.5123 3.462 18.537C2.48667 17.5617 1.99934 16.3827 2 15V6C1.45 6 0.979002 5.804 0.587002 5.412C0.195002 5.02 -0.000664969 4.54934 1.69779e-06 4V2C1.69779e-06 1.45 0.196002 0.979002 0.588002 0.587002C0.980002 0.195002 1.45067 -0.000664969 2 1.69779e-06H12C12.55 1.69779e-06 13.021 0.196002 13.413 0.588002C13.805 0.980002 14.0007 1.45067 14 2V4C14 4.55 13.804 5.021 13.412 5.413C13.02 5.805 12.5493 6.00067 12 6V9.025C11.3 9.475 10.704 10.0377 10.212 10.713C9.72 11.3883 9.37434 12.1507 9.175 13H7V11H10V10H7V8H10V6H4V15C4 15.8333 4.29167 16.5417 4.875 17.125C5.45834 17.7083 6.16667 18 7 18C7.5 18 7.95834 17.8917 8.375 17.675C8.79167 17.4583 9.14167 17.1583 9.425 16.775C9.55834 17.1083 9.70833 17.425 9.875 17.725C10.0417 18.025 10.2417 18.3167 10.475 18.6C10.025 19.0333 9.504 19.375 8.912 19.625C8.32 19.875 7.68267 20 7 20ZM7 16V14H9.025C8.99167 14.3333 8.98734 14.6667 9.012 15C9.03667 15.3333 9.091 15.6667 9.175 16H7ZM2 4H12V2H2V4ZM15.5 17C16.2 17 16.7917 16.7583 17.275 16.275C17.7583 15.7917 18 15.2 18 14.5C18 13.8 17.7583 13.2083 17.275 12.725C16.7917 12.2417 16.2 12 15.5 12C14.8 12 14.2083 12.2417 13.725 12.725C13.2417 13.2083 13 13.8 13 14.5C13 15.2 13.2417 15.7917 13.725 16.275C14.2083 16.7583 14.8 17 15.5 17ZM20.6 21L17.9 18.3C17.5333 18.5333 17.15 18.7083 16.75 18.825C16.35 18.9417 15.9333 19 15.5 19C14.25 19 13.1877 18.5623 12.313 17.687C11.4383 16.8117 11.0007 15.7493 11 14.5C11 13.25 11.4377 12.1873 12.313 11.312C13.1883 10.4367 14.2507 9.99934 15.5 10C16.75 10 17.8127 10.4377 18.688 11.313C19.5633 12.1883 20.0007 13.2507 20 14.5C20 14.9333 19.9417 15.35 19.825 15.75C19.7083 16.15 19.5333 16.5333 19.3 16.9L22 19.6L20.6 21Z" fill="#072FAA"/>
</svg>
