<svg width="22" height="20" viewBox="0 0 22 20" fill="none" xmlns="http://www.w3.org/2000/svg">
<path d="M13.7892 7.42746C14.3007 7.42746 14.7912 7.63064 15.1529 7.99232C15.5146 8.354 15.7178 8.84454 15.7178 9.35603V14.7123C15.7178 15.9628 15.221 17.1622 14.3368 18.0464C13.4525 18.9307 12.2532 19.4275 11.0026 19.4275C9.75211 19.4275 8.55279 18.9307 7.66853 18.0464C6.78427 17.1622 6.2875 15.9628 6.2875 14.7123V9.35603C6.2875 8.84454 6.49069 8.354 6.85236 7.99232C7.21404 7.63064 7.70458 7.42746 8.21607 7.42746H13.7892ZM13.7892 8.71317H8.21607C8.04557 8.71317 7.88206 8.7809 7.7615 8.90146C7.64094 9.02202 7.57321 9.18553 7.57321 9.35603V14.7123C7.57321 15.6219 7.93453 16.4941 8.57767 17.1373C9.22081 17.7804 10.0931 18.1417 11.0026 18.1417C11.9122 18.1417 12.7845 17.7804 13.4276 17.1373C14.0708 16.4941 14.4321 15.6219 14.4321 14.7123V9.35603C14.4321 9.18553 14.3643 9.02202 14.2438 8.90146C14.1232 8.7809 13.9597 8.71317 13.7892 8.71317ZM2.64293 7.42746H6.20521C5.86109 7.78575 5.61927 8.22972 5.50493 8.71317H2.64293C2.47243 8.71317 2.30892 8.7809 2.18836 8.90146C2.0678 9.02202 2.00007 9.18553 2.00007 9.35603V13.8552C1.99996 14.2852 2.10768 14.7085 2.31338 15.0862C2.51908 15.4639 2.8162 15.7839 3.17756 16.0172C3.53892 16.2504 3.95298 16.3892 4.38188 16.4211C4.81077 16.4529 5.2408 16.3767 5.63264 16.1995C5.74664 16.6195 5.91036 17.0189 6.11607 17.3926C5.52881 17.649 4.88694 17.7551 4.24841 17.7013C3.60989 17.6475 2.99482 17.4355 2.45875 17.0844C1.92268 16.7334 1.4825 16.2543 1.17794 15.6905C0.873392 15.1267 0.714067 14.496 0.714356 13.8552V9.35603C0.714356 8.84454 0.917544 8.354 1.27922 7.99232C1.6409 7.63064 2.13144 7.42746 2.64293 7.42746ZM19.3572 7.42746C19.8687 7.42746 20.3592 7.63064 20.7209 7.99232C21.0826 8.354 21.2858 8.84454 21.2858 9.35603V13.856C21.286 14.4965 21.1268 15.1269 20.8225 15.6904C20.5182 16.2539 20.0784 16.7327 19.5427 17.0838C19.0071 17.4348 18.3924 17.6469 17.7543 17.701C17.1161 17.755 16.4746 17.6493 15.8875 17.3935L15.9355 17.306C16.1189 16.958 16.2672 16.5886 16.3735 16.2012C16.7651 16.3774 17.1946 16.4527 17.6229 16.4203C18.0511 16.3878 18.4643 16.2487 18.825 16.0155C19.1856 15.7823 19.482 15.4625 19.6873 15.0853C19.8926 14.7081 20.0001 14.2855 20.0001 13.856V9.35603C20.0001 9.18568 19.9325 9.0223 19.8121 8.90176C19.6917 8.78123 19.5284 8.7134 19.3581 8.71317H16.5012C16.3867 8.22962 16.1445 7.78563 15.8001 7.42746H19.3572ZM11.0001 0.570313C11.394 0.570312 11.7841 0.64791 12.1481 0.798674C12.5121 0.949438 12.8428 1.17042 13.1214 1.44899C13.4 1.72757 13.6209 2.05829 13.7717 2.42226C13.9225 2.78624 14.0001 3.17635 14.0001 3.57031C14.0001 3.96428 13.9225 4.35439 13.7717 4.71836C13.6209 5.08234 13.4 5.41306 13.1214 5.69163C12.8428 5.97021 12.5121 6.19119 12.1481 6.34195C11.7841 6.49272 11.394 6.57031 11.0001 6.57031C10.2044 6.57031 9.44136 6.25424 8.87875 5.69163C8.31614 5.12902 8.00007 4.36596 8.00007 3.57031C8.00007 2.77466 8.31614 2.0116 8.87875 1.44899C9.44136 0.886383 10.2044 0.570313 11.0001 0.570313ZM17.8598 1.42746C18.1975 1.42746 18.5318 1.49397 18.8438 1.62319C19.1558 1.75242 19.4393 1.94183 19.6781 2.18061C19.9168 2.41939 20.1062 2.70286 20.2355 3.01484C20.3647 3.32682 20.4312 3.6612 20.4312 3.99888C20.4312 4.33657 20.3647 4.67095 20.2355 4.98293C20.1062 5.29491 19.9168 5.57838 19.6781 5.81716C19.4393 6.05594 19.1558 6.24535 18.8438 6.37457C18.5318 6.5038 18.1975 6.57031 17.8598 6.57031C17.1778 6.57031 16.5237 6.2994 16.0415 5.81716C15.5593 5.33492 15.2884 4.68087 15.2884 3.99888C15.2884 3.3169 15.5593 2.66285 16.0415 2.18061C16.5237 1.69837 17.1778 1.42746 17.8598 1.42746ZM4.14036 1.42746C4.47804 1.42746 4.81242 1.49397 5.1244 1.62319C5.43638 1.75242 5.71985 1.94183 5.95863 2.18061C6.19741 2.41939 6.38682 2.70286 6.51605 3.01484C6.64527 3.32682 6.71178 3.6612 6.71178 3.99888C6.71178 4.33657 6.64527 4.67095 6.51605 4.98293C6.38682 5.29491 6.19741 5.57838 5.95863 5.81716C5.71985 6.05594 5.43638 6.24535 5.1244 6.37457C4.81242 6.5038 4.47804 6.57031 4.14036 6.57031C3.45837 6.57031 2.80432 6.2994 2.32208 5.81716C1.83984 5.33492 1.56893 4.68087 1.56893 3.99888C1.56893 3.3169 1.83984 2.66285 2.32208 2.18061C2.80432 1.69837 3.45837 1.42746 4.14036 1.42746ZM11.0001 1.85603C10.5454 1.85603 10.1094 2.03664 9.78789 2.35813C9.4664 2.67962 9.28578 3.11566 9.28578 3.57031C9.28578 4.02497 9.4664 4.461 9.78789 4.7825C10.1094 5.10399 10.5454 5.2846 11.0001 5.2846C11.4547 5.2846 11.8908 5.10399 12.2123 4.7825C12.5337 4.461 12.7144 4.02497 12.7144 3.57031C12.7144 3.11566 12.5337 2.67962 12.2123 2.35813C11.8908 2.03664 11.4547 1.85603 11.0001 1.85603ZM17.8598 2.71317C17.6909 2.71317 17.5238 2.74643 17.3678 2.81104C17.2118 2.87565 17.07 2.97036 16.9506 3.08975C16.8313 3.20914 16.7366 3.35087 16.6719 3.50686C16.6073 3.66285 16.5741 3.83004 16.5741 3.99888C16.5741 4.16773 16.6073 4.33492 16.6719 4.49091C16.7366 4.6469 16.8313 4.78863 16.9506 4.90802C17.07 5.02741 17.2118 5.12212 17.3678 5.18673C17.5238 5.25134 17.6909 5.2846 17.8598 5.2846C18.2008 5.2846 18.5278 5.14914 18.7689 4.90802C19.01 4.6669 19.1455 4.33988 19.1455 3.99888C19.1455 3.65789 19.01 3.33086 18.7689 3.08975C18.5278 2.84863 18.2008 2.71317 17.8598 2.71317ZM4.14036 2.71317C3.97151 2.71317 3.80432 2.74643 3.64833 2.81104C3.49234 2.87565 3.35061 2.97036 3.23122 3.08975C3.11183 3.20914 3.01712 3.35087 2.95251 3.50686C2.8879 3.66285 2.85464 3.83004 2.85464 3.99888C2.85464 4.16773 2.8879 4.33492 2.95251 4.49091C3.01712 4.6469 3.11183 4.78863 3.23122 4.90802C3.35061 5.02741 3.49234 5.12212 3.64833 5.18673C3.80432 5.25134 3.97151 5.2846 4.14036 5.2846C4.48135 5.2846 4.80837 5.14914 5.04949 4.90802C5.29061 4.6669 5.42607 4.33988 5.42607 3.99888C5.42607 3.65789 5.29061 3.33086 5.04949 3.08975C4.80837 2.84863 4.48135 2.71317 4.14036 2.71317Z" fill="#072FAA"/>
</svg>
