<svg width="24" height="24" viewBox="0 0 24 24" fill="none" xmlns="http://www.w3.org/2000/svg">
<g clip-path="url(#clip0_9064_123531)">
<path d="M3.27342 0.69027C3.09085 0.739254 2.74796 0.872847 2.5164 0.988628C2.1557 1.16675 2.03101 1.26472 1.64804 1.64769C1.26507 2.03065 1.16711 2.15534 0.988983 2.51604C0.699531 3.09495 0.601562 3.51354 0.601562 4.16369C0.601562 4.80494 0.699531 5.22798 0.980076 5.78907C1.42539 6.69305 2.29819 7.38774 3.29124 7.63711C4.03936 7.82414 4.97451 7.73508 5.68701 7.40555V7.40555C5.87219 7.32235 6.08947 7.36158 6.23387 7.50428L6.37278 7.64156L6.46852 7.7373C6.62187 7.89065 6.87081 7.88966 7.02294 7.73508V7.73508V7.73508C7.17751 7.58296 7.17851 7.33401 7.02516 7.18066L6.96059 7.1161L6.86562 7.01989C6.72704 6.87951 6.72376 6.65485 6.85817 6.51048V6.51048C7.15208 6.19876 7.41926 5.73118 7.57512 5.2547C7.72653 4.79158 7.77106 3.91432 7.66864 3.42002C7.52614 2.76096 7.24559 2.23104 6.76911 1.71894C6.257 1.17566 5.54451 0.774879 4.85873 0.650192C4.43568 0.574489 3.65639 0.592301 3.27342 0.69027ZM5.0992 1.50964C5.89185 1.78128 6.54646 2.44925 6.84481 3.27307C6.93388 3.52244 6.94724 3.64713 6.94724 4.16369C6.94724 4.68025 6.93388 4.80494 6.84481 5.05431C6.542 5.89149 5.85622 6.57282 5.05021 6.84001C4.76967 6.92907 4.63607 6.94688 4.14178 6.94688C3.65194 6.94688 3.51835 6.92907 3.27342 6.84001C2.4496 6.55055 1.79054 5.89595 1.50554 5.09884C1.34968 4.66244 1.30961 3.92768 1.42093 3.49572C1.83507 1.87925 3.5317 0.961909 5.0992 1.50964Z" fill="#072FAA" stroke="#072FAA" stroke-width="0.4"/>
<path d="M2.7923 2.44494C2.52066 2.56517 2.30246 2.77447 2.16441 3.05502C2.04418 3.28658 2.02637 3.37564 2.02637 3.66509C2.02637 4.1772 2.12434 4.34642 2.88136 5.14352C3.23316 5.51758 3.62058 5.92727 3.74081 6.05641C3.95011 6.27906 3.98128 6.29688 4.16386 6.29688C4.34643 6.29688 4.37761 6.27906 4.5869 6.05641C4.70714 5.92727 5.09456 5.51758 5.44635 5.14352C6.20338 4.34642 6.30135 4.1772 6.30135 3.66509C6.30135 3.37564 6.28353 3.28658 6.1633 3.05502C5.93619 2.59635 5.57994 2.37814 5.05893 2.37814C4.71604 2.37814 4.578 2.41822 4.33307 2.58744L4.33005 2.58951C4.2301 2.6579 4.09819 2.65708 3.99909 2.58744V2.58744C3.90558 2.5251 3.77198 2.44939 3.70519 2.42713C3.52261 2.35588 2.96597 2.36924 2.7923 2.44494ZM3.74081 3.40236C3.96347 3.6072 4.06144 3.66954 4.16386 3.66954C4.26628 3.66954 4.36425 3.6072 4.5869 3.40236C4.84073 3.16634 4.89417 3.13517 5.05893 3.13517C5.20588 3.13517 5.26823 3.16189 5.39291 3.28658C5.52651 3.42017 5.54432 3.46915 5.54432 3.66064C5.54432 3.92337 5.52651 3.95009 4.7294 4.78727V4.78727C4.42209 5.11153 3.90563 5.11153 3.59831 4.78727V4.78727C2.80121 3.95009 2.78339 3.92337 2.78339 3.66064C2.78339 3.46915 2.80121 3.42017 2.9348 3.28658C3.05949 3.16189 3.12183 3.13517 3.26878 3.13517C3.43355 3.13517 3.48699 3.16634 3.74081 3.40236Z" fill="#072FAA" stroke="#072FAA" stroke-width="0.4"/>
<path d="M10.915 0.705407C10.4519 0.901344 10.1268 1.23087 9.95757 1.68954C9.86851 1.9211 9.86405 2.02798 9.86405 3.21696V4.24056C9.86405 4.41081 9.90369 4.57873 9.97983 4.73101V4.73101C10.0867 4.94921 10.247 5.12289 10.4875 5.27874V5.27874C10.5535 5.3236 10.5819 5.40662 10.5573 5.4825L10.434 5.8621V5.8621C10.3266 6.18438 10.084 6.44377 9.76959 6.57246L9.30741 6.76163C8.30547 7.17131 8.10508 7.28709 7.93586 7.54537C7.75328 7.81701 7.72656 7.96842 7.72656 8.75216V10.3124C7.72656 10.4091 7.76073 10.5027 7.82305 10.5767L7.88363 10.6487C7.9942 10.78 8.18958 10.7984 8.3228 10.6902V10.6902C8.39635 10.6304 8.43906 10.5407 8.43906 10.446V8.93474C8.44351 8.29795 8.47914 8.06193 8.61273 7.93279C8.66171 7.88381 9.09812 7.67897 9.58351 7.47858L9.594 7.47418C10.1216 7.25301 10.7304 7.37067 11.1376 7.77248V7.77248C11.7922 8.42264 11.8101 8.43599 12.0015 8.43599C12.193 8.43599 12.2064 8.42264 12.8654 7.77248V7.77248C13.2728 7.37048 13.8867 7.25418 14.4151 7.47412V7.47412C14.9005 7.67451 15.3369 7.87936 15.3904 7.92834C15.4393 7.98178 15.4972 8.10201 15.5195 8.19553C15.5774 8.44045 15.5774 15.129 15.5195 15.4318C15.4393 15.8727 15.1098 16.1799 14.6645 16.2423V16.2423C14.5756 16.2563 14.4953 16.1876 14.4953 16.0977V14.1315V12.3547C14.4953 12.158 14.3358 11.9985 14.139 11.9985V11.9985V11.9985C13.9423 11.9985 13.7828 12.158 13.7828 12.3547V15.9172V19.4797C13.7828 19.6764 13.9423 19.8359 14.139 19.8359V19.8359V19.8359C14.3358 19.8359 14.4953 19.6764 14.4953 19.4797V18.4154V17.276C14.4953 17.1179 14.6181 16.9871 14.7758 16.977V16.977C15.3414 16.9414 15.8802 16.5585 16.134 16.0152V16.0152C16.2132 15.848 16.2546 15.6655 16.2552 15.4805L16.2676 11.9094C16.2765 9.13513 16.2676 8.0085 16.232 7.88381C16.1563 7.62998 15.9782 7.38506 15.7689 7.24702C15.6664 7.17577 15.1677 6.95311 14.66 6.74827L14.232 6.57249C13.9188 6.44389 13.678 6.18411 13.5735 5.8621V5.8621L13.4468 5.48217C13.4217 5.40661 13.4497 5.32353 13.5156 5.27874V5.27874C13.7561 5.12289 13.9164 4.94476 14.0277 4.72211V4.72211C14.1038 4.56692 14.1426 4.39607 14.1408 4.22322L14.1301 3.15461L14.1196 2.10399C14.1177 1.91896 14.0757 1.73653 13.9965 1.56931V1.56931C13.8318 1.21751 13.5601 0.936968 13.2083 0.763297V0.763297C13.0177 0.669468 12.8087 0.619112 12.5963 0.61586L12.0461 0.607438C11.2133 0.598532 11.1688 0.602986 10.915 0.705407ZM12.8788 1.44908C13.1415 1.58712 13.3241 1.8365 13.382 2.15267C13.4399 2.45993 13.4399 4.04524 13.382 4.25453C13.3241 4.46383 13.1816 4.58851 12.6294 4.91359C12.0194 5.26984 11.9837 5.26984 11.3425 4.89132C11.0708 4.73101 10.7948 4.53953 10.7369 4.46828C10.5855 4.29016 10.5632 4.08977 10.581 3.01657C10.5988 2.12149 10.6033 2.08142 10.7146 1.86767C10.8482 1.60493 11.0931 1.4179 11.3781 1.35556C11.4894 1.33329 11.8234 1.31994 12.1218 1.32884C12.5983 1.3422 12.6918 1.35556 12.8788 1.44908ZM12.0015 5.94226C12.2376 5.94226 12.3934 5.91554 12.527 5.85319C12.6695 5.79085 12.7229 5.78194 12.7363 5.82202C12.7497 5.85319 12.8076 6.02687 12.8699 6.20944V6.20944C12.9381 6.41413 12.8849 6.6398 12.7323 6.79236L12.4914 7.03327V7.03327C12.2209 7.3038 11.7822 7.3038 11.5117 7.03327V7.03327L11.2708 6.79236C11.1182 6.6398 11.065 6.41413 11.1332 6.20944V6.20944C11.1955 6.02687 11.2534 5.85319 11.2668 5.82202C11.2801 5.78194 11.3336 5.79085 11.4761 5.85319C11.6097 5.91554 11.7655 5.94226 12.0015 5.94226Z" fill="#072FAA" stroke="#072FAA" stroke-width="0.4"/>
<path d="M19.1042 0.632379C17.7505 0.93519 16.6817 1.96831 16.3656 3.28198C16.2453 3.79408 16.2453 4.55556 16.3656 5.0365C16.517 5.63321 16.8376 6.22102 17.2072 6.59063V6.59063C17.3058 6.68919 17.3063 6.84883 17.2084 6.94803L17.0424 7.1161L16.9779 7.18066C16.8245 7.33401 16.8255 7.58296 16.9801 7.73508V7.73508V7.73508C17.1322 7.88966 17.3812 7.89065 17.5345 7.7373L17.6302 7.64156L17.7721 7.50143C17.9146 7.36059 18.1293 7.32244 18.3116 7.40555V7.40555C19.5896 7.98445 21.0324 7.81524 22.119 6.95133C22.6667 6.51493 23.1655 5.73564 23.3302 5.04986C23.4371 4.60455 23.4282 3.61151 23.308 3.18401C22.9784 1.99058 21.9676 0.988627 20.783 0.685816C20.5248 0.619019 20.3066 0.601207 19.8212 0.60566C19.4738 0.610113 19.1532 0.619019 19.1042 0.632379ZM20.7741 1.50964C21.5668 1.78128 22.2214 2.44925 22.5198 3.27307C22.6088 3.52244 22.6222 3.64713 22.6222 4.16369C22.6222 4.68025 22.6088 4.80494 22.5198 5.05431C22.2169 5.89149 21.5312 6.57282 20.7252 6.84001C20.4446 6.92907 20.311 6.94688 19.8167 6.94688C19.3269 6.94688 19.1933 6.92907 18.9484 6.84001C18.1245 6.55055 17.4655 5.89595 17.1805 5.09884C17.0246 4.66244 16.9845 3.92768 17.0959 3.49572C17.51 1.87925 19.2066 0.961908 20.7741 1.50964Z" fill="#072FAA" stroke="#072FAA" stroke-width="0.4"/>
<path d="M19.4821 2.39596V2.63717C19.4821 2.71511 19.4287 2.7829 19.3529 2.80119V2.80119C19.2772 2.81455 19.1392 2.89025 19.0412 2.9615C18.9388 3.03275 18.8364 3.09064 18.8097 3.09064C18.7829 3.09064 18.636 3.01939 18.4846 2.93478C18.3287 2.85017 18.1862 2.77892 18.164 2.77892C18.1439 2.77892 18.0451 2.93324 17.955 3.09055C17.8351 3.30005 17.9037 3.49043 18.115 3.6072V3.6072V3.6072C18.2994 3.71179 18.4133 3.90742 18.4133 4.11942V4.15939V4.19935C18.4133 4.41135 18.2994 4.60698 18.115 4.71157V4.71157V4.71157C17.9037 4.82834 17.8351 5.01872 17.955 5.22822C18.0451 5.38553 18.1439 5.53985 18.164 5.53985C18.1862 5.53985 18.3287 5.4686 18.4846 5.38399C18.636 5.29938 18.7829 5.22813 18.8097 5.22813C18.8364 5.22813 18.9388 5.28602 19.0412 5.35727C19.1392 5.42852 19.2772 5.50422 19.3529 5.51758V5.51758C19.4287 5.53587 19.4821 5.60367 19.4821 5.6816V5.92281V5.94063C19.4821 6.13738 19.6416 6.29688 19.8383 6.29688V6.29688V6.29688C20.0351 6.29688 20.1946 6.13738 20.1946 5.94063V5.92281V5.6816C20.1946 5.60367 20.248 5.53587 20.3237 5.51758V5.51758C20.3994 5.50422 20.5375 5.42852 20.6354 5.35727C20.7379 5.28602 20.8403 5.22813 20.867 5.22813C20.8937 5.22813 21.0407 5.29938 21.1921 5.38399C21.3479 5.4686 21.4904 5.53985 21.5127 5.53985C21.5328 5.53985 21.6329 5.38333 21.7235 5.22487C21.8421 5.01748 21.7739 4.82949 21.5661 4.71157V4.71157V4.71157C21.3792 4.60709 21.2633 4.40965 21.2633 4.19547V4.15939V4.1233C21.2633 3.90912 21.3792 3.71168 21.5661 3.6072V3.6072V3.6072C21.7739 3.48928 21.8421 3.30129 21.7235 3.0939C21.6329 2.93544 21.5328 2.77892 21.5127 2.77892C21.4904 2.77892 21.3479 2.85017 21.1921 2.93478C21.0407 3.01939 20.8937 3.09064 20.867 3.09064C20.8403 3.09064 20.7379 3.03275 20.6354 2.9615C20.5375 2.89025 20.3994 2.81455 20.3237 2.80119V2.80119C20.248 2.7829 20.1946 2.71511 20.1946 2.63717V2.39596V2.37814C20.1946 2.18139 20.0351 2.0219 19.8383 2.0219V2.0219V2.0219C19.6416 2.0219 19.4821 2.18139 19.4821 2.37814V2.39596ZM20.1857 3.58048C20.7646 3.93228 20.5152 4.82735 19.8383 4.82735C19.4598 4.82735 19.1704 4.5379 19.1704 4.15939C19.1704 3.78087 19.4598 3.49142 19.8383 3.49142C19.9586 3.49142 20.0966 3.52704 20.1857 3.58048Z" fill="#072FAA" stroke="#072FAA" stroke-width="0.4"/>
<path d="M2.06218 9.94244C1.73265 10.0493 1.42093 10.2497 1.17156 10.5169C0.766327 10.9488 0.601562 11.3808 0.601562 11.9953C0.601562 12.6099 0.766327 13.0418 1.17156 13.4738C1.5946 13.928 2.0889 14.1328 2.74351 14.1328C3.74545 14.1328 4.57373 13.5049 4.82756 12.5386V12.5386C4.85919 12.4279 4.96037 12.3516 5.07551 12.3516H5.94529H6.65778C6.85453 12.3516 7.01403 12.1921 7.01403 11.9953V11.9953V11.9953C7.01403 11.7986 6.85453 11.6391 6.65778 11.6391H5.94974H5.14892C4.99064 11.6391 4.85184 11.5334 4.80975 11.3808V11.3808C4.61826 10.7128 4.06608 10.1473 3.40256 9.94244C3.04186 9.83111 2.41398 9.83111 2.06218 9.94244ZM3.35358 10.7485C3.66975 10.9088 3.86569 11.1181 4.02155 11.452C4.11506 11.6613 4.12842 11.737 4.11061 12.0577C4.07944 12.6188 3.83006 13.0062 3.34913 13.2422C2.67226 13.5717 1.87515 13.3179 1.51445 12.6588C1.3675 12.3872 1.31406 11.9152 1.39867 11.6079C1.47437 11.3363 1.71039 11.0112 1.95531 10.8464C2.22695 10.6638 2.3739 10.6238 2.76577 10.6193C3.03296 10.6149 3.12202 10.6371 3.35358 10.7485Z" fill="#072FAA" stroke="#072FAA" stroke-width="0.4"/>
<path d="M20.5463 9.96967C19.8694 10.2057 19.3573 10.7623 19.1748 11.4526V11.4526C19.1432 11.5657 19.04 11.644 18.9225 11.644H18.057H17.3445C17.1478 11.644 16.9883 11.8035 16.9883 12.0003V12.0003V12.0003C16.9883 12.197 17.1478 12.3565 17.3445 12.3565H18.0526H18.8577C19.0136 12.3565 19.1504 12.4603 19.1926 12.6104V12.6104C19.3841 13.2828 19.9362 13.8483 20.5997 14.0532C20.9783 14.1734 21.575 14.1689 21.9446 14.0443C22.6126 13.8216 23.138 13.2828 23.3295 12.6282C23.4319 12.2719 23.423 11.6618 23.3072 11.319C23.0846 10.651 22.5458 10.1255 21.8911 9.93404C21.5171 9.82272 20.907 9.84053 20.5463 9.96967ZM21.8199 10.7311C22.1227 10.8647 22.332 11.0562 22.4923 11.3412C22.6081 11.555 22.6215 11.6173 22.6215 12.0003C22.6215 12.4857 22.5458 12.6772 22.2429 12.98C21.9713 13.2516 21.7442 13.3496 21.3256 13.3718C21.005 13.3897 20.9293 13.3763 20.72 13.2828C20.386 13.1269 20.1767 12.931 20.0164 12.6148C19.9006 12.3833 19.8828 12.2942 19.8828 12.0003C19.8828 11.7064 19.9006 11.6173 20.0164 11.3858C20.3593 10.7 21.1297 10.4239 21.8199 10.7311Z" fill="#072FAA" stroke="#072FAA" stroke-width="0.4"/>
<path d="M7.73547 12.9871L7.74748 15.4805C7.74837 15.6655 7.78987 15.848 7.86906 16.0152V16.0152C8.12289 16.5585 8.66171 16.9414 9.22726 16.9771V16.9771C9.38499 16.9871 9.5078 17.1179 9.5078 17.276V20.1967V23.0422C9.5078 23.2389 9.6673 23.3984 9.86405 23.3984V23.3984V23.3984C10.0608 23.3984 10.2203 23.2389 10.2203 23.0422V17.6985V12.3547C10.2203 12.158 10.0608 11.9985 9.86405 11.9985V11.9985V11.9985C9.6673 11.9985 9.5078 12.158 9.5078 12.3547V14.1315V16.1021C9.5078 16.1896 9.42942 16.2563 9.34304 16.2423V16.2423C8.89328 16.18 8.56375 15.8727 8.48359 15.4318C8.45687 15.2893 8.43906 14.185 8.43906 12.7065V10.5735C8.43906 10.3767 8.27956 10.2173 8.08281 10.2173V10.2173V10.2173C7.88625 10.2173 7.72708 10.3769 7.72771 10.5735L7.73547 12.9871Z" fill="#072FAA" stroke="#072FAA" stroke-width="0.4"/>
<path d="M11.6445 19.4797V23.0422C11.6445 23.2389 11.804 23.3984 12.0008 23.3984V23.3984V23.3984C12.1975 23.3984 12.357 23.2389 12.357 23.0422V19.4797V15.9172C12.357 15.7205 12.1975 15.561 12.0008 15.561V15.561V15.561C11.804 15.561 11.6445 15.7205 11.6445 15.9172V19.4797Z" fill="#072FAA" stroke="#072FAA" stroke-width="0.4"/>
<path d="M6.35912 16.3714L6.23346 16.4971C6.08961 16.6409 5.87125 16.6797 5.6867 16.5941V16.5941C5.17459 16.3581 4.7471 16.2646 4.14147 16.2646C3.28202 16.2646 2.54726 16.5184 1.90602 17.0305C1.33156 17.4892 0.828364 18.2729 0.672506 18.9453C0.565631 19.3951 0.57899 20.397 0.694771 20.8156C0.96641 21.8087 1.70563 22.6681 2.66304 23.109C3.15734 23.3361 3.46905 23.3984 4.16819 23.3984C4.6892 23.3984 4.8317 23.3806 5.17014 23.2827C6.15873 22.9977 6.9113 22.3609 7.36997 21.4168C7.64161 20.8602 7.72622 20.4772 7.72622 19.8226C7.72622 18.883 7.38333 18.0013 6.79552 17.409V17.409C6.69715 17.3106 6.69715 17.1511 6.79552 17.0528L6.96029 16.888L7.03722 16.809C7.18254 16.6599 7.18199 16.422 7.03599 16.2735V16.2735C6.88904 16.1265 6.7599 16.0063 6.74654 16.0063C6.73318 16.0063 6.55951 16.1711 6.35912 16.3714ZM5.10334 17.1819C5.90045 17.458 6.57732 18.1527 6.84005 18.9542C6.92912 19.2303 6.94693 19.3684 6.94693 19.8582C6.94693 20.3703 6.93357 20.4727 6.83115 20.7577C6.00732 23.0155 2.98367 23.3227 1.74125 21.2699C1.45625 20.7978 1.38055 20.5084 1.38055 19.8582C1.38055 19.1546 1.47852 18.7895 1.8125 18.2952C2.54281 17.1997 3.86983 16.7544 5.10334 17.1819Z" fill="#072FAA" stroke="#072FAA" stroke-width="0.4"/>
<path d="M3.62097 18.0567C3.15339 18.5465 2.75707 19.0809 2.56559 19.4817C2.41418 19.7978 2.40527 19.8424 2.40527 20.2609C2.40527 20.6617 2.41863 20.733 2.53441 20.9734C2.70363 21.3163 3.04207 21.6548 3.38496 21.824C3.63433 21.9442 3.68777 21.9531 4.16425 21.9531C4.64073 21.9531 4.69417 21.9442 4.94354 21.824C5.28643 21.6548 5.62487 21.3163 5.79409 20.9734C5.90987 20.733 5.92323 20.6617 5.92323 20.2609C5.92323 19.8424 5.91432 19.7978 5.76291 19.4817C5.57143 19.0809 5.1751 18.5465 4.70753 18.0567C4.378 17.7138 4.35573 17.7004 4.16425 17.7004C3.97277 17.7004 3.9505 17.7138 3.62097 18.0567ZM4.44925 18.9295C4.75206 19.2813 5.03706 19.6999 5.12612 19.9047C5.37995 20.5103 4.85893 21.2184 4.16425 21.2184C3.46957 21.2184 2.94855 20.5103 3.20238 19.9047C3.33152 19.6019 4.06183 18.6356 4.16425 18.6356C4.18651 18.6356 4.31565 18.7692 4.44925 18.9295Z" fill="#072FAA" stroke="#072FAA" stroke-width="0.4"/>
<path d="M16.9668 16.275V16.275C16.8211 16.4232 16.8213 16.6609 16.9673 16.8088L17.0514 16.8939C17.2429 17.0854 17.3809 17.2502 17.3542 17.2591C17.2651 17.2947 16.8866 17.7801 16.7174 18.0785C16.4235 18.6039 16.3122 19.0136 16.2899 19.6816C16.2498 20.7637 16.5259 21.5252 17.234 22.2778C17.7505 22.8255 18.2938 23.1417 19.0286 23.3153C19.5763 23.4489 20.4135 23.4177 20.93 23.2485C21.5223 23.057 21.9053 22.8166 22.3773 22.3356C22.7336 21.9749 22.836 21.8413 23.0141 21.4851C23.3036 20.9062 23.4015 20.4876 23.4015 19.8375C23.4015 19.1962 23.3036 18.7732 23.023 18.2121C22.5777 17.3081 21.7049 16.6134 20.7118 16.364C19.9637 16.177 19.0286 16.2661 18.3161 16.5956V16.5956C18.1309 16.6788 17.9136 16.6396 17.7692 16.4969L17.6437 16.3729C17.4433 16.1725 17.2651 16.0078 17.2518 16.0078C17.2429 16.0078 17.1137 16.128 16.9668 16.275ZM20.7786 17.1834C21.5757 17.4595 22.2526 18.1542 22.5154 18.9557C22.6044 19.2318 22.6222 19.3699 22.6222 19.8597C22.6222 20.3718 22.6089 20.4742 22.5064 20.7592C21.6826 23.017 18.659 23.3242 17.4165 21.2713C17.1316 20.7993 17.0558 20.5099 17.0558 19.8597C17.0558 19.1561 17.1538 18.791 17.4878 18.2967C18.2181 17.2012 19.5451 16.7559 20.7786 17.1834Z" fill="#072FAA" stroke="#072FAA" stroke-width="0.4"/>
<path d="M19.9366 18.1356C19.8832 18.1891 19.7897 18.4785 19.6828 18.906C19.5893 19.2845 19.5047 19.6051 19.4958 19.623C19.4869 19.6408 19.4379 19.614 19.3934 19.5695C19.3132 19.4894 19.2419 19.4805 18.5027 19.4805H18.0574C17.8607 19.4805 17.7012 19.64 17.7012 19.8367V19.8367V19.8367C17.7012 20.0323 17.8573 20.1922 18.0529 20.1968L18.2667 20.2019V20.2019C18.5986 20.2098 18.8849 20.4373 18.9675 20.7588L18.9926 20.8565C19.1039 21.2929 19.1841 21.5155 19.2375 21.5556C19.3577 21.6447 19.6427 21.6358 19.7407 21.5378C19.7941 21.4844 19.9144 21.0969 20.0836 20.4112C20.1369 20.196 20.1878 19.9934 20.231 19.8232C20.3139 19.4966 20.4879 19.4419 20.6892 19.712V19.712C20.8584 19.9347 21.0232 20.1395 21.0544 20.1573C21.0811 20.1751 21.3037 20.193 21.5442 20.193H21.6199C21.8167 20.193 21.9762 20.0335 21.9762 19.8367V19.8367V19.7343C21.9762 19.5941 21.8625 19.4805 21.7223 19.4805V19.4805V19.4805C21.5595 19.4776 21.4072 19.3993 21.3103 19.2684L21.0187 18.8748C20.4176 18.0599 20.4131 18.0555 20.1949 18.0555C20.0791 18.0555 19.9856 18.0866 19.9366 18.1356Z" fill="#072FAA" stroke="#072FAA" stroke-width="0.4"/>
<path d="M13.7822 21.4168V23.0422C13.7822 23.2389 13.9417 23.3984 14.1385 23.3984V23.3984V23.3984C14.3352 23.3984 14.4947 23.2389 14.4947 23.0422V21.4168V19.7914C14.4947 19.5947 14.3352 19.4352 14.1385 19.4352V19.4352V19.4352C13.9417 19.4352 13.7822 19.5947 13.7822 19.7914V21.4168Z" fill="#072FAA" stroke="#072FAA" stroke-width="0.4"/>
</g>
<defs>
<clipPath id="clip0_9064_123531">
<rect width="24" height="24" fill="white"/>
</clipPath>
</defs>
</svg>

