<svg width="22" height="24" viewBox="0 0 22 24" fill="none" xmlns="http://www.w3.org/2000/svg">
<path d="M8.675 0.725466C8.25781 0.856716 7.80312 1.30672 7.73281 1.65359L7.70937 1.78484H6.92656C6.39687 1.78484 6.11094 1.80359 6.03125 1.84578C5.82969 1.94422 5.70312 2.19265 5.70312 2.46922V2.71765L3.57969 2.73172L1.45156 2.74578L1.22656 2.8864C1.05781 2.98953 0.959375 3.09734 0.865625 3.28015L0.734375 3.52859V13.0302C0.734375 22.1145 0.739062 22.5364 0.823437 22.7145C0.93125 22.9536 1.24062 23.2348 1.47031 23.2958C1.74219 23.3755 16.5266 23.3661 16.7844 23.2911C17.0375 23.2161 17.3844 22.8692 17.4594 22.6161C17.5016 22.4708 17.5156 21.6973 17.5156 19.6583V16.8927L19.2734 14.6005C20.2391 13.3395 21.0828 12.2052 21.1484 12.0786C21.3125 11.7505 21.3078 11.4036 21.1391 11.0614C21.0312 10.8598 20.9187 10.7427 20.5625 10.4661C19.9437 9.98797 19.7422 9.89422 19.3812 9.89422C18.8375 9.8989 18.6875 10.0114 17.9609 11.0098L17.5391 11.5864L17.5156 7.51765C17.4875 3.00828 17.5156 3.3364 17.1781 3.01765C16.8687 2.72234 16.8875 2.72234 14.6094 2.72234H12.5469V2.5114C12.5469 2.22078 12.4437 1.99109 12.2562 1.87859C12.1156 1.79422 12.0219 1.78484 11.3234 1.78484H10.5406L10.5078 1.65359C10.4562 1.44265 10.2172 1.10515 10.0062 0.955154C9.61719 0.678591 9.11094 0.589529 8.675 0.725466ZM9.49062 1.36765C9.73437 1.48484 9.91719 1.74734 9.95469 2.01922C9.97344 2.14578 10.0203 2.23953 10.1 2.30047C10.2031 2.38484 10.2922 2.39422 11.075 2.39422H11.9375V3.02703V3.65984H9.125H6.3125V3.02703V2.39422H7.17969C8.04219 2.39422 8.05156 2.39422 8.16406 2.27703C8.22969 2.21609 8.28125 2.10828 8.28125 2.04265C8.28125 1.89734 8.42187 1.60672 8.54844 1.49422C8.80156 1.26453 9.17187 1.21297 9.49062 1.36765ZM5.70312 3.55203C5.70312 3.84734 5.825 4.0864 6.03125 4.18484C6.18125 4.26453 6.42969 4.26922 9.125 4.26922C11.8203 4.26922 12.0687 4.26453 12.2187 4.18484C12.425 4.0864 12.5469 3.84734 12.5469 3.55203V3.33172H14.5391C16.7047 3.33172 16.7328 3.3364 16.85 3.58953C16.8922 3.67859 16.9062 4.78953 16.9062 8.07078V12.4255L15.2187 14.6989L13.5266 16.9677L13.3625 18.3645C13.1844 19.8645 13.1891 19.9442 13.4141 20.0005C13.5594 20.038 13.7562 19.9536 15.0781 19.302L16.0391 18.8239L16.3812 18.3786C16.5734 18.1348 16.7656 17.8817 16.8125 17.8161C16.9016 17.6989 16.9016 17.7364 16.9062 20.0567V22.4192L16.7469 22.5786L16.5875 22.738H9.15312C1.0625 22.738 1.52187 22.752 1.4 22.4802C1.31094 22.2927 1.32031 3.73015 1.40937 3.57078C1.54062 3.3364 1.55469 3.3364 3.70156 3.33172H5.70312V3.55203ZM20.0609 10.8786C20.5812 11.2723 20.6562 11.3567 20.6562 11.5583C20.6562 11.7036 20.6 11.8161 20.3984 12.0786L20.2531 12.2708L19.4703 11.6895C18.5844 11.0333 18.6172 11.0989 18.9875 10.7145C19.1609 10.5317 19.2125 10.5036 19.3766 10.5036C19.5359 10.5036 19.6297 10.5552 20.0609 10.8786ZM19.0719 12.1723C19.4422 12.4489 19.7703 12.6973 19.8078 12.7302C19.8594 12.7817 19.5312 13.2364 17.9 15.3598C16.8172 16.7755 15.8937 17.9848 15.8422 18.0458L15.7531 18.1583L15.0125 17.6052C14.6094 17.3005 14.2859 17.0333 14.2906 17.0145C14.3 16.9911 15.2 15.7677 16.2922 14.3005C17.5812 12.5614 18.3031 11.6333 18.3406 11.6473C18.3781 11.6614 18.7062 11.8958 19.0719 12.1723ZM14.6984 18.1489L15.2375 18.538L14.5812 18.852C14.225 19.0208 13.9203 19.1427 13.9156 19.1192C13.9062 19.0958 13.9344 18.763 13.9766 18.3739C14.0375 17.877 14.075 17.6848 14.1125 17.713C14.1406 17.7364 14.4031 17.9333 14.6984 18.1489Z" fill="#072FAA"/>
<path d="M7.17984 6.17031C6.99234 6.26406 6.83765 6.41406 6.7439 6.5875C6.67828 6.70469 6.65953 6.91563 6.65015 7.87656C6.6314 9.24063 6.65953 9.44219 6.92203 9.70469C7.1939 9.97656 7.33921 9.99531 9.28921 9.97656L10.9767 9.9625L11.1877 9.83594C11.5252 9.63906 11.6095 9.44219 11.6095 8.84219V8.34531H12.6173C13.5173 8.34531 13.6627 8.35469 13.9205 8.44375C14.6564 8.6875 15.1861 9.25469 15.383 10.0188C15.7252 11.3266 14.6564 12.7 13.3017 12.7047H13.0439L13.1939 12.55C13.4377 12.2969 13.3627 11.9547 13.058 11.9547C12.8986 11.9547 11.9845 12.8688 11.9845 13.0281C11.9845 13.1078 12.1205 13.2813 12.4486 13.6094C12.833 14.0031 12.9361 14.0781 13.0533 14.0781C13.2502 14.0781 13.3439 13.9891 13.3439 13.8016C13.3439 13.6938 13.3017 13.5953 13.2033 13.4875L13.0627 13.3281L13.4752 13.3C14.1689 13.2578 14.7502 12.9906 15.247 12.4984C16.1095 11.6313 16.3064 10.2766 15.7252 9.175C15.4861 8.725 14.9892 8.25625 14.5111 8.02656C14.2955 7.92344 14.0048 7.81563 13.8689 7.7875C13.733 7.75938 13.1658 7.73594 12.6173 7.73594H11.6095V7.24375C11.6095 6.57813 11.4923 6.33906 11.0798 6.16563C10.822 6.05781 7.39078 6.0625 7.17984 6.17031ZM10.9158 6.78438C10.9908 6.85469 11.0002 6.95781 11.0002 8.02656C11.0002 9.12813 10.9955 9.19375 10.9064 9.28281C10.8173 9.37188 10.7517 9.37656 9.15328 9.37656C7.59234 9.37656 7.48921 9.37188 7.38609 9.2875C7.27359 9.19844 7.27359 9.18906 7.25953 8.07813C7.24546 6.99531 7.25015 6.95313 7.3439 6.83125L7.44234 6.70469H9.13453C10.6439 6.70469 10.8361 6.71406 10.9158 6.78438Z" fill="#072FAA"/>
<path d="M7.71875 7.26562C7.66719 7.31719 7.625 7.41094 7.625 7.47656C7.625 7.67812 7.77969 7.78125 8.07031 7.78125C8.36094 7.78125 8.51563 7.67812 8.51563 7.47656C8.51563 7.275 8.36094 7.17187 8.07031 7.17187C7.87344 7.17187 7.78906 7.19531 7.71875 7.26562Z" fill="#072FAA"/>
<path d="M8.91367 7.26562C8.87148 7.3125 8.83398 7.41094 8.83398 7.47656C8.83398 7.54219 8.87148 7.64062 8.91367 7.6875C8.99336 7.77187 9.06367 7.78125 9.74336 7.78125C10.423 7.78125 10.4934 7.77187 10.5777 7.6875C10.6293 7.63594 10.6715 7.54219 10.6715 7.47656C10.6715 7.41094 10.6293 7.31719 10.5777 7.26562C10.4934 7.18125 10.423 7.17187 9.74336 7.17187C9.06367 7.17187 8.99336 7.18125 8.91367 7.26562Z" fill="#072FAA"/>
<path d="M7.70492 8.38125C7.62054 8.47031 7.60179 8.65781 7.66273 8.75156C7.74711 8.88281 7.99086 8.90625 9.16273 8.90625C10.4659 8.90625 10.5643 8.8875 10.644 8.6625C10.6768 8.56875 10.6674 8.50781 10.6065 8.41875L10.5315 8.29687H9.15336C7.88304 8.29687 7.77523 8.30156 7.70492 8.38125Z" fill="#072FAA"/>
<path d="M5.09331 6.99418C4.85425 7.08324 4.84019 7.32699 5.05113 7.57074L5.19644 7.7348H3.77144C2.44488 7.7348 2.33706 7.73949 2.26675 7.81918C2.14956 7.94574 2.16363 8.1848 2.29019 8.26918C2.37925 8.3348 2.60425 8.34418 3.79956 8.34418H5.20581L5.05581 8.49887C4.873 8.69105 4.85425 8.91137 5.00894 9.01918C5.21988 9.16918 5.323 9.11762 5.80581 8.6348C6.4105 8.03012 6.4105 8.03949 5.8105 7.44887C5.55738 7.20043 5.31831 6.9848 5.28081 6.97543C5.24331 6.96137 5.15894 6.97074 5.09331 6.99418Z" fill="#072FAA"/>
<path d="M7.3859 11.1047C7.13278 11.1563 6.90778 11.3156 6.78122 11.5406C6.68747 11.7047 6.66872 11.8219 6.64997 12.2438L6.62653 12.75H5.63747C4.58278 12.75 4.38122 12.7781 3.91247 12.9938C3.17184 13.3406 2.58122 14.0672 2.37965 14.8828C2.27653 15.2906 2.30465 15.9563 2.44059 16.3828C2.79215 17.4891 3.8984 18.3281 5.01403 18.3281H5.19684L5.05153 18.4922C4.80778 18.7688 4.89684 19.0781 5.21559 19.0781C5.32809 19.0781 5.44059 18.9938 5.8109 18.6188C6.4109 18.0188 6.4109 18.0328 5.80622 17.4281C5.42653 17.0484 5.3234 16.9688 5.20622 16.9688C4.89684 16.9688 4.81247 17.2828 5.05153 17.5547L5.19684 17.7188H5.01872C4.29684 17.7141 3.48122 17.175 3.14372 16.4719C2.61872 15.3797 3.07809 14.0859 4.18434 13.5609C4.51715 13.4016 4.58278 13.3875 5.15934 13.3547C5.49684 13.3359 5.96559 13.3172 6.19997 13.3172L6.62653 13.3125L6.64997 13.8141C6.66403 14.1516 6.69684 14.3672 6.74372 14.4609C6.84215 14.6438 7.05309 14.8406 7.21715 14.9016C7.30153 14.9344 7.99528 14.9531 9.16247 14.9531C11.1968 14.9531 11.1547 14.9578 11.4453 14.6063L11.5859 14.4281L11.6 13.1578C11.6093 12.4547 11.6 11.8125 11.5859 11.7281C11.5531 11.55 11.3281 11.2781 11.1218 11.1656C10.9953 11.0953 10.7797 11.0859 9.26559 11.0766C8.3234 11.0719 7.47965 11.0859 7.3859 11.1047ZM10.7984 11.7234C10.8687 11.7469 10.9437 11.7984 10.9625 11.8266C10.9812 11.8594 11 12.3984 11 13.0266C11 14.0297 10.9906 14.1844 10.9203 14.2594C10.85 14.3391 10.7328 14.3438 9.15309 14.3438C8.22028 14.3438 7.43747 14.325 7.40934 14.3063C7.2734 14.2172 7.24997 14.0484 7.24997 13.0359C7.24997 12.4688 7.26872 11.9531 7.29684 11.8828C7.32028 11.8172 7.39059 11.7422 7.44684 11.7188C7.60153 11.6578 10.6343 11.6578 10.7984 11.7234Z" fill="#072FAA"/>
<path d="M7.70447 12.2781C7.60604 12.3859 7.60135 12.5687 7.69041 12.6906C7.78885 12.8219 8.35135 12.8219 8.44979 12.6906C8.53885 12.5641 8.53416 12.3625 8.43104 12.2734C8.30447 12.1562 7.8076 12.1656 7.70447 12.2781Z" fill="#072FAA"/>
<path d="M8.89073 12.2625C8.79229 12.3797 8.81573 12.6141 8.93291 12.7125C9.02666 12.7875 9.12979 12.7969 9.73448 12.7969C10.3626 12.7969 10.4376 12.7875 10.5501 12.6984C10.686 12.5906 10.7048 12.4453 10.597 12.2906C10.5267 12.1922 10.4985 12.1875 9.73917 12.1875C9.08291 12.1875 8.9376 12.2016 8.89073 12.2625Z" fill="#072FAA"/>
<path d="M7.71883 13.3594C7.60164 13.4766 7.59696 13.6969 7.70946 13.7953C7.78446 13.8656 7.95789 13.875 9.13914 13.875C10.4235 13.875 10.4891 13.8703 10.5782 13.7812C10.6298 13.7297 10.672 13.6359 10.672 13.5703C10.672 13.5047 10.6298 13.4109 10.5782 13.3594C10.4891 13.2703 10.4235 13.2656 9.14852 13.2656C7.87352 13.2656 7.80789 13.2703 7.71883 13.3594Z" fill="#072FAA"/>
<path d="M7.175 16.1731C6.94531 16.2762 6.7625 16.5012 6.69219 16.7637C6.66406 16.8762 6.64062 17.3965 6.64062 18.0293C6.64062 18.6621 6.66406 19.1824 6.69219 19.2949C6.76719 19.5621 6.95 19.7824 7.18438 19.8903C7.37656 19.9699 7.49844 19.9746 9.20938 19.9653L11.0281 19.9512L11.225 19.8199C11.5953 19.5809 11.6094 19.5012 11.6094 18.0293C11.6094 16.5574 11.5953 16.4778 11.225 16.2387L11.0281 16.1074L9.2 16.0981C7.48906 16.084 7.35313 16.0887 7.175 16.1731ZM10.8969 16.7684C11 16.8387 11 16.8528 11 18.0293C11 19.2059 11 19.2199 10.8969 19.2903C10.8078 19.3559 10.5594 19.3653 9.14375 19.3653C7.59219 19.3653 7.48906 19.3606 7.38594 19.2762L7.27344 19.1871V18.0293V16.8715L7.38594 16.7824C7.48906 16.6981 7.59219 16.6934 9.14375 16.6934C10.5594 16.6934 10.8078 16.7028 10.8969 16.7684Z" fill="#072FAA"/>
<path d="M9.45267 17.6504C9.15267 17.9457 8.89017 18.1895 8.86673 18.1895C8.84329 18.1895 8.70736 18.077 8.56204 17.9363C8.24329 17.6176 8.09798 17.5707 7.93392 17.7395C7.72767 17.941 7.76986 18.0301 8.26673 18.5035C8.89954 19.1035 8.83861 19.1129 9.72923 18.2551C10.362 17.641 10.437 17.5567 10.437 17.416C10.437 17.2192 10.3339 17.1113 10.1464 17.1113C10.0245 17.1113 9.91204 17.1957 9.45267 17.6504Z" fill="#072FAA"/>
<path d="M18.345 12.7142C18.2982 12.747 17.6747 13.5673 16.9528 14.533C15.5747 16.3845 15.5232 16.4736 15.7247 16.6564C15.8138 16.7408 16.0013 16.7595 16.095 16.6986C16.1232 16.6798 16.7513 15.8548 17.4872 14.8611C18.3357 13.722 18.8278 13.0236 18.8278 12.9533C18.8278 12.7236 18.5325 12.5783 18.345 12.7142Z" fill="#072FAA"/>
</svg>
