<svg width="19" height="14" viewBox="0 0 19 14" fill="none" xmlns="http://www.w3.org/2000/svg">
<path d="M17.1108 2.66667L13.4231 4.33333V2.33333C13.4231 1.97971 13.2853 1.64057 13.0401 1.39052C12.7948 1.14048 12.4622 1 12.1154 1H2.30769C1.96087 1 1.62825 1.14048 1.38301 1.39052C1.13777 1.64057 1 1.97971 1 2.33333V11.6667C1 12.0203 1.13777 12.3594 1.38301 12.6095C1.62825 12.8595 1.96087 13 2.30769 13H12.1154C12.4622 13 12.7948 12.8595 13.0401 12.6095C13.2853 12.3594 13.4231 12.0203 13.4231 11.6667V9.66667L17.1108 11.3333C17.2102 11.3725 17.3175 11.3862 17.4233 11.3734C17.5291 11.3606 17.6303 11.3216 17.7179 11.2598C17.8056 11.198 17.8771 11.1153 17.9263 11.0189C17.9754 10.9225 18.0007 10.8153 18 10.7067V3.29333C18.0007 3.18468 17.9754 3.07749 17.9263 2.98108C17.8771 2.88468 17.8056 2.80199 17.7179 2.74021C17.6303 2.67843 17.5291 2.63943 17.4233 2.62662C17.3175 2.6138 17.2102 2.62755 17.1108 2.66667Z" stroke="#072FAA" stroke-width="2" stroke-linecap="round" stroke-linejoin="round"/>
</svg>
