<svg width="22" height="22" viewBox="0 0 22 22" fill="none" xmlns="http://www.w3.org/2000/svg">
<path d="M1 11C1 16.523 5.477 21 11 21C16.523 21 21 16.523 21 11C21 5.477 16.523 1 11 1C5.477 1 1 5.477 1 11Z" stroke="#072FAA" stroke-width="1.5" stroke-linecap="round" stroke-linejoin="round"/>
<path d="M11.9999 1.04688C11.9999 1.04688 14.9999 4.99687 14.9999 10.9969C14.9999 16.9969 11.9999 20.9469 11.9999 20.9469M9.99988 20.9469C9.99988 20.9469 6.99988 16.9969 6.99988 10.9969C6.99988 4.99687 9.99988 1.04688 9.99988 1.04688M1.62988 14.4969H20.3699M1.62988 7.49687H20.3699" stroke="#072FAA" stroke-width="1.5" stroke-linecap="round" stroke-linejoin="round"/>
</svg>
