<svg width="64" height="64" viewBox="0 0 64 64" fill="none" xmlns="http://www.w3.org/2000/svg">
<path d="M17.4364 0.94854C15.1864 1.21104 13.4364 2.19854 12.2489 3.88604C10.6364 6.19854 10.5489 9.46104 12.0489 11.786C12.4239 12.386 13.3364 13.3485 13.9364 13.7985C14.1614 13.9735 14.0864 13.986 13.0614 13.9985C12.4364 13.9985 11.5989 14.086 11.1864 14.186C9.64894 14.586 8.08644 15.711 7.19894 17.0485C6.93644 17.436 5.61144 20.5985 3.92394 24.8235C1.27394 31.436 1.07394 31.986 1.08644 32.6985C1.09894 34.636 2.48644 35.9985 4.42394 35.9985C5.87394 35.986 6.87394 35.386 7.48644 34.136C7.67394 33.7485 8.29894 32.286 8.88644 30.886L9.93644 28.3485L9.97394 33.261L9.99894 38.1735L9.06144 48.936C8.21144 58.736 8.13644 59.761 8.29894 60.3485C8.59894 61.511 9.42394 62.4485 10.4614 62.8235C11.2489 63.0985 12.5864 63.0485 13.3114 62.6985C14.0739 62.3485 14.9114 61.436 15.1614 60.711C15.2489 60.4235 15.9239 55.8735 16.6364 50.5985C17.3489 45.311 17.9614 40.9985 17.9989 40.9985C18.0364 40.9985 18.6489 45.311 19.3614 50.5985C20.0739 55.8735 20.7489 60.4235 20.8364 60.711C21.0864 61.436 21.9239 62.3485 22.6864 62.6985C23.4364 63.0485 24.6614 63.0985 25.5114 62.811C26.6364 62.4235 27.5114 61.386 27.7364 60.1735C27.8364 59.6985 27.6489 57.1985 26.9239 48.911L25.9989 38.261L26.0239 33.2985L26.0614 28.3485L27.1114 30.886C28.4739 34.186 28.7614 34.7485 29.3114 35.2235C29.9864 35.8235 30.5739 36.036 31.5614 36.036C32.6239 36.0485 33.3989 35.711 34.0489 34.986C34.6989 34.2735 34.9114 33.6985 34.9114 32.686C34.8989 31.836 34.8114 31.586 32.0614 24.7485C30.4239 20.661 29.0489 17.4235 28.7864 17.036C27.9114 15.711 26.3489 14.586 24.8114 14.186C24.3989 14.086 23.5739 13.9985 22.9739 13.9985H21.8739L22.7989 13.1235C23.7864 12.186 24.4364 11.136 24.7989 9.88604C25.2114 8.47354 24.9864 6.06104 24.3114 4.74854C23.6614 3.48604 22.1489 2.07354 20.8614 1.52354C19.9239 1.12354 18.3114 0.848541 17.4364 0.94854ZM19.2489 3.26104C20.5614 3.56104 21.8489 4.63604 22.4739 5.97354C22.7739 6.59854 22.8114 6.83604 22.8114 7.99854C22.8114 9.16104 22.7739 9.39854 22.4739 10.0235C22.0114 11.0235 21.1364 11.9235 20.1364 12.411C19.3739 12.786 19.2364 12.811 17.9989 12.811C16.8364 12.811 16.6114 12.7735 15.9614 12.4735C15.0364 12.036 13.9614 10.961 13.5239 10.036C13.2239 9.38604 13.1864 9.16104 13.1864 7.99854C13.1864 6.83604 13.2239 6.59854 13.5239 5.97354C14.2114 4.51104 15.7489 3.33604 17.2739 3.13604C17.9739 3.03604 18.3364 3.06104 19.2489 3.26104ZM24.5239 16.336C25.4989 16.6985 26.3114 17.311 26.8864 18.0985C27.5614 19.0485 32.8864 32.411 32.7864 32.911C32.6114 33.7735 31.3489 34.186 30.7364 33.5735C30.5614 33.3985 29.5864 31.2235 28.3239 28.161C25.7239 21.8985 25.8489 22.161 25.3364 22.0235C24.8614 21.8985 24.2989 22.061 24.1239 22.3735C24.0489 22.5235 23.9989 25.8485 23.9989 31.2735V39.936L24.8614 49.7485C25.7989 60.461 25.7864 60.0235 25.0614 60.5985C24.3739 61.1485 23.2114 60.836 22.8989 60.036C22.8114 59.836 22.1614 55.2985 21.4364 49.936C20.7114 44.5735 20.0614 39.9735 19.9989 39.7235C19.9239 39.461 19.7614 39.1985 19.6239 39.1235C19.3239 38.961 16.6739 38.961 16.3739 39.1235C16.2364 39.1985 16.0739 39.461 15.9989 39.7235C15.9364 39.9735 15.2864 44.5735 14.5614 49.936C13.8364 55.2985 13.1864 59.836 13.0989 60.036C12.7864 60.836 11.6239 61.1485 10.9364 60.5985C10.2114 60.0235 10.1989 60.461 11.1364 49.7485L11.9864 39.936L11.9989 31.211C11.9989 22.661 11.9989 22.4985 11.7489 22.2485C11.4239 21.9235 10.5864 21.911 10.2864 22.2235C10.1614 22.336 9.06144 24.861 7.82394 27.811C6.44894 31.1485 5.47394 33.311 5.27394 33.5235C4.66144 34.186 3.38644 33.811 3.21144 32.911C3.11144 32.411 8.43644 19.0485 9.11144 18.0985C9.89894 17.011 11.0364 16.336 12.4114 16.1235C12.7614 16.061 15.4864 16.036 18.4364 16.0485C23.5864 16.061 23.8364 16.0735 24.5239 16.336Z" fill="#072FAA"/>
<path d="M40.5867 1.65C41.2867 4.0375 42.6492 6.325 44.5867 8.3875C45.4992 9.3625 47.6117 11.25 47.7742 11.25C47.8367 11.25 48.2492 10.9625 48.6867 10.6L49.4992 9.95L49.0367 9.575C47.5117 8.325 46.9492 7.7625 45.4117 6L44.5992 5.0625L49.8867 5L55.1867 4.9375L55.8492 4L56.5242 3.0625L49.9617 3.025L43.3867 3L42.9867 2L42.5742 1H41.4867H40.3867L40.5867 1.65Z" fill="#072FAA"/>
<path d="M59.3375 1.0875C59.3125 1.15 59.2125 1.4125 59.125 1.6875C58.8125 2.6625 57.95 4.2625 57.1375 5.3375C55.725 7.225 53.9875 8.8125 49.8125 12.0625C45.175 15.65 42.9875 17.9875 41.5875 20.8125C40.4375 23.1375 40 25.1125 40 28C40 32.8875 41.4875 36.2625 45.3375 40.0875C46.3125 41.075 47.2 41.875 47.3 41.875C47.4 41.875 47.7625 41.525 48.125 41.1125L48.7625 40.3375L48.0375 39.7125C44.8375 36.9375 43.0375 34.1375 42.3625 30.85C42.0125 29.1125 42.075 25.975 42.4875 24.4375C43.55 20.6 45.5625 18.125 51.25 13.6875C55.7 10.2 57.8375 8.1875 59.2 6.1875C60.35 4.5 60.8625 3.4125 61.5625 1.15C61.6 1.0375 61.3375 1 60.5 1C59.8875 1 59.3625 1.0375 59.3375 1.0875Z" fill="#072FAA"/>
<path d="M53.3375 14.3625C52.925 14.7 52.5875 15 52.5875 15.025C52.575 15.05 53.1625 15.5875 53.9 16.225C54.6375 16.8625 55.3375 17.5125 55.4625 17.675C55.5875 17.8375 56.075 18.4125 56.5375 18.95L57.4 19.9375L52.1125 20L46.8125 20.0625L46.15 21L45.475 21.9375L52.0625 22L58.65 22.0625L58.9375 22.7625C59.3375 23.6875 59.725 25.225 59.825 26.2L59.9125 27H51.95H44V28V29H51.9375H59.875V29.3C59.875 30.15 59.25 32.5875 58.75 33.65L58.5875 34L52.025 34.025L45.475 34.0625L46.15 35L46.8125 35.9375L52.1 36L57.3875 36.0625L56.6625 36.9375C55.8625 37.925 54.725 39.075 53.8375 39.8375L53.25 40.35L53.8875 41.1125C54.2375 41.5375 54.6 41.875 54.7 41.875C54.8 41.875 55.6875 41.075 56.6625 40.0875C59.6875 37.0875 61.2125 34.375 61.8125 30.95C62.0625 29.5125 62.0625 26.5 61.8125 25.0875C61.275 22 59.8375 19.2125 57.4875 16.6875C56.475 15.6125 54.4 13.75 54.2125 13.7625C54.125 13.7625 53.7375 14.0375 53.3375 14.3625Z" fill="#072FAA"/>
<path d="M45.875 44.5516C44.9875 44.7391 44.025 45.2641 43.4 45.9141C42.8875 46.4516 37.725 54.7641 37.1375 56.0016C36.85 56.6016 36.8125 56.8516 36.8125 58.0016C36.8125 59.2141 36.8375 59.3766 37.2125 60.1641C37.7 61.1891 38.5875 62.0891 39.5875 62.5891C40.25 62.9141 40.425 62.9391 41.75 62.9391C43.05 62.9391 43.2625 62.9016 43.9 62.6016C44.8875 62.1391 45.65 61.3891 46.4625 60.0766C46.8375 59.4516 47.25 58.7766 47.375 58.5766L47.6 58.2141L47.9125 58.8391C48.8625 60.7141 50.8375 62.2391 53.0625 62.8141C54.0125 63.0516 55.975 63.0516 56.9375 62.8141C59.25 62.2266 61.175 60.6766 62.175 58.6016C62.8375 57.2141 63 56.4891 63 54.9641C63 53.5016 62.75 52.4641 62.125 51.2516C61 49.1141 58.975 47.5766 56.6625 47.1266C55.525 46.9016 53.375 47.0266 52.45 47.3516C52.0375 47.5016 51.7 47.6141 51.7 47.5891C51.6875 47.5766 51.575 47.3391 51.4375 47.0766C50.7875 45.8016 49.3875 44.7766 47.8875 44.5016C47.0625 44.3516 46.75 44.3516 45.875 44.5516ZM48.4875 46.9641C49.55 47.6266 50.1125 48.8766 49.85 50.0391C49.7875 50.3266 49.225 51.4141 48.6 52.4516L47.45 54.3391L45.5125 53.1516C43.3375 51.8266 42.5875 51.3641 42.5125 51.3016C42.4 51.2016 44.825 47.4516 45.2 47.1641C46.2 46.4016 47.45 46.3266 48.4875 46.9641ZM55.75 49.2391C55.75 49.3016 52.375 59.4891 52.1875 59.9766C52.0125 60.4266 50.2375 58.7266 49.7125 57.5891C49.5375 57.2266 49.325 56.6641 49.25 56.3391L49.1 55.7641L50.175 54.0141C51.4125 52.0016 51.8375 51.1516 51.95 50.4141C52.0125 49.9516 52.0875 49.8641 52.5625 49.6391C53.1375 49.3766 53.9375 49.1516 54.5625 49.1016C55.0625 49.0516 55.75 49.1391 55.75 49.2391ZM59.0125 50.7141C60.9875 52.5641 61.475 55.6016 60.15 57.8766C59.4125 59.1516 58.1125 60.2141 56.7375 60.6391C55.9875 60.8766 54.25 60.9766 54.25 60.7766C54.25 60.7016 57.6 50.5766 57.8125 50.0266C57.9 49.8016 58.2625 50.0141 59.0125 50.7141ZM43.85 54.6766C45.1625 55.4891 46.25 56.1766 46.25 56.2141C46.25 56.2516 45.7375 57.1266 45.1125 58.1516C43.8875 60.1516 43.425 60.6266 42.45 60.8891C41.1125 61.2516 39.6125 60.4766 39.05 59.1391C38.8125 58.5641 38.8375 57.4141 39.1 56.8641C39.4125 56.2016 41.3 53.1516 41.375 53.1766C41.4125 53.2016 42.525 53.8766 43.85 54.6766Z" fill="#072FAA"/>
</svg>
