<svg width="720" height="611" viewBox="0 0 720 611" fill="none" xmlns="http://www.w3.org/2000/svg">
<path fill-rule="evenodd" clip-rule="evenodd" d="M511.066 47.8889C626.901 112.574 686.582 265.738 627.27 393.512C567.503 522.27 413.478 564.388 277.841 550.322C156.591 537.748 37.17 456.269 38.9718 332.504C41.689 146.027 195.302 254.045 282.924 201.22C369.515 149.016 427.93 1.46318 511.066 47.8889Z" fill="#E8EBF6"/>
<path d="M191.512 261.614L521.694 259.234L530.893 483.683L189.008 480.51L191.512 261.614Z" fill="#576CBE"/>
<path d="M191.512 261.616L359.132 126L521.693 259.236" fill="#576CBE"/>
<g opacity="0.3">
<path d="M191.508 261.616L359.128 126L521.689 259.236" fill="black"/>
</g>
<path d="M189.005 480.513C188.583 480.141 215.016 451.283 248.044 416.052C281.072 380.822 308.149 352.607 308.571 353.004C308.992 353.401 282.56 382.235 249.532 417.465C216.504 452.696 189.427 480.91 189.005 480.513Z" fill="#263238"/>
<path d="M530.888 483.689C530.466 484.061 504.728 455.797 473.411 420.542C442.094 385.287 417.025 356.403 417.447 356.081C417.868 355.759 443.606 383.973 474.923 419.228C506.241 454.483 531.309 483.317 530.888 483.689Z" fill="#263238"/>
<g opacity="0.5">
<path d="M521.689 259.227L355.88 391.669L191.508 261.607" fill="black"/>
</g>
<path d="M208.152 273.894L207.656 177.872L496.85 170.781L499.999 275.853L355.886 389.949L208.152 273.894Z" fill="#EBEBEB"/>
<path d="M359.917 355.433C349.772 355.46 339.736 353.34 330.468 349.212C321.201 345.084 312.912 339.043 306.146 331.484C299.38 323.925 294.291 315.02 291.212 305.354C288.133 295.689 287.134 285.481 288.282 275.402C290.429 256.445 300.02 239.118 314.944 227.231C329.869 215.344 348.905 209.873 367.864 212.02C386.823 214.167 404.153 223.756 416.041 238.679C427.929 253.602 433.402 272.635 431.255 291.592C429.276 309.134 420.912 325.335 407.756 337.109C394.6 348.882 377.573 355.404 359.917 355.433ZM359.719 214.115C346.325 214.129 333.222 218.016 321.989 225.308C310.755 232.6 301.87 242.985 296.406 255.211C290.942 267.438 289.131 280.983 291.191 294.215C293.252 307.447 299.096 319.801 308.02 329.787C316.944 339.773 328.565 346.965 341.485 350.497C354.404 354.028 368.069 353.748 380.832 349.69C393.596 345.632 404.913 337.969 413.419 327.626C421.926 317.282 427.259 304.699 428.775 291.394C429.81 282.328 429.048 273.148 426.532 264.378C424.016 255.607 419.795 247.419 414.112 240.28C408.428 233.142 401.393 227.194 393.408 222.777C385.424 218.359 376.647 215.559 367.579 214.536C364.972 214.198 362.347 214.008 359.719 213.966V214.115Z" fill="#576CBE"/>
<path d="M310.875 293.498L322.901 278.771L351.02 299.076L396.718 245.227L410.505 257.35L351.714 325.084L310.875 293.498Z" fill="#576CBE"/>
</svg>
