<svg width="64" height="64" viewBox="0 0 64 64" fill="none" xmlns="http://www.w3.org/2000/svg">
<path d="M4.0625 1.275C3.1 1.625 2.3 2.425 1.7875 3.5625C1.575 4.0375 1.5625 5.2125 1.5625 27.375V50.6875L1.8875 51.375C2.3 52.25 2.9875 52.95 3.8 53.325L4.4375 53.625H20.85H37.275L38.0375 54.05C39.7125 54.9875 42.6375 55.625 44.35 55.4375C46.125 55.2375 47.175 54.95 48.6125 54.2875L49.525 53.85L50.2625 54.575C50.95 55.25 51 55.35 51 55.8625V56.425L53.975 59.4125C55.8625 61.325 57.1125 62.4875 57.4375 62.6375C57.7625 62.7875 58.225 62.875 58.7625 62.875C61.1125 62.875 62.9625 60.5375 62.325 58.35C62.15 57.7375 61.925 57.4875 59.025 54.5875C57.2375 52.8 55.825 51.5 55.6875 51.4875C55.55 51.475 55.325 51.475 55.1875 51.4875C55.0375 51.5 54.65 51.2125 54.1625 50.725L53.3875 49.9375L53.875 48.9375C54.65 47.375 54.925 46.025 54.925 43.9375C54.9125 41.8875 54.675 40.825 53.875 39.1375C52.9375 37.175 51.5625 35.6 49.8 34.4625C47.8875 33.225 46.325 32.75 43.85 32.6625L42.125 32.5875V24.825C42.125 17.65 42.1125 17.0375 41.9 16.7375C41.7875 16.5625 38.55 12.975 34.7125 8.775L27.7375 1.125L16.0875 1.1375C8.1625 1.1375 4.3125 1.1875 4.0625 1.275ZM26.2875 5.3375C26.3375 6.6875 26.375 10.025 26.375 12.7625V17.7375L26.7 17.9875C27.025 18.25 27.15 18.25 33.6375 18.25H40.25V25.6625V33.0625L39.4625 33.35C37.425 34.075 35.3 35.8 34 37.7875C31.5 41.575 31.5375 46.7 34.1 50.4625C34.375 50.8625 34.6875 51.275 34.8 51.3625C34.9125 51.45 35 51.575 35 51.6375C35 51.7 28.475 51.75 19.8875 51.75H4.7875L4.375 51.4625C4.1375 51.3125 3.8375 50.9875 3.7 50.75C3.4375 50.3125 3.4375 50.2625 3.4 27.6375C3.3875 11.975 3.4125 4.825 3.5 4.4875C3.575 4.2125 3.7875 3.825 3.975 3.6125C4.65 2.8625 4.3375 2.8875 15.7625 2.875H26.2125L26.2875 5.3375ZM33.925 10.75L38.975 16.3125L33.6625 16.35C30.725 16.3625 28.325 16.3625 28.3125 16.35C28.2875 16.325 28.25 13.65 28.225 10.4L28.175 4.4875L28.5125 4.8375C28.7 5.025 31.1375 7.6875 33.925 10.75ZM46.5375 34.975C49.6375 36.05 51.875 38.4125 52.775 41.5875C53 42.3625 53.05 42.875 53.05 44.125C53.05 45.55 53.0125 45.7875 52.6375 46.875C52.1 48.475 51.3875 49.625 50.25 50.75C48.1375 52.85 45.2625 53.8625 42.475 53.5125C38.525 53 35.3625 50.2375 34.3 46.3625C34 45.2625 33.9875 42.8625 34.2875 41.75C34.5875 40.625 35.5 38.825 36.225 37.9375C37.3125 36.6125 38.9875 35.475 40.65 34.9625C42.075 34.5125 42.1125 34.5125 43.875 34.5625C45.2375 34.5875 45.575 34.65 46.5375 34.975ZM52.75 53.1875L52.2 53.75L51.6625 53.225L51.1375 52.7L51.6625 52.125L52.1875 51.5375L52.75 52.075L53.3 52.625L52.75 53.1875ZM57.9 56.0875C59.4 57.6 60.5125 58.8125 60.5625 59C60.6625 59.4375 60.1625 60.375 59.6375 60.7125C59.4 60.875 59.025 61 58.7625 61C58.35 61 58.125 60.8125 55.6625 58.35L53 55.6875L54.0875 54.6C54.6875 53.9875 55.2125 53.5 55.25 53.5C55.2875 53.5 56.475 54.6625 57.9 56.0875Z" fill="#072FAA"/>
<path d="M8.08912 12.4767C7.78912 12.8142 7.81412 13.5392 8.13912 13.8267C8.38912 14.0517 8.71412 14.0642 14.8016 14.1017C18.9891 14.1267 21.3391 14.0892 21.6391 14.0142C21.9266 13.9267 22.1391 13.7642 22.2266 13.5642C22.4391 13.1142 22.4141 12.9642 22.1141 12.5767L21.8641 12.2517H15.0766C8.66412 12.2517 8.27662 12.2642 8.08912 12.4767Z" fill="#072FAA"/>
<path d="M8.49829 19.2111C8.08579 19.3611 7.87329 19.6736 7.87329 20.1236C7.87329 21.0736 6.79829 20.9986 21.3483 20.9986C34.2108 20.9986 34.3733 20.9986 34.6233 20.7486C34.9608 20.4111 34.9483 19.7361 34.6108 19.4236C34.3608 19.1986 33.9358 19.1861 21.5108 19.1611C14.4608 19.1486 8.59829 19.1736 8.49829 19.2111Z" fill="#072FAA"/>
<path d="M8.31357 26.2741C7.95107 26.4741 7.87607 26.6241 7.87607 27.1491C7.87607 28.0616 6.92607 27.9991 21.4011 27.9991C34.2136 27.9991 34.3761 27.9991 34.6261 27.7491C35.0011 27.3741 34.9636 26.7116 34.5511 26.3866C34.2136 26.1241 34.1761 26.1241 21.3886 26.1241C12.0636 26.1366 8.50107 26.1741 8.31357 26.2741Z" fill="#072FAA"/>
<path d="M19.9375 32.0469C15.7 33.0344 12.8625 36.5594 12.875 40.8344C12.875 42.3594 13.15 43.4844 13.825 44.8719C14.9375 47.1094 17.125 48.8719 19.575 49.4969C20.875 49.8344 22.75 49.8344 24.05 49.4969C27 48.7469 29.4625 46.3969 30.4 43.4469C30.7625 42.3094 30.8375 40.1594 30.5625 38.9219C29.875 35.7844 27.6 33.2719 24.5625 32.2969C23.325 31.8969 21.1125 31.7719 19.9375 32.0469ZM23.4375 33.9344C24.775 34.2719 25.7375 34.8344 26.7625 35.8594C28.3 37.3969 28.9625 39.0844 28.8375 41.1844C28.6375 44.9719 25.575 47.8719 21.7875 47.8719C17.3375 47.8719 13.975 43.7219 14.8875 39.3469C15.4 36.8594 17.575 34.6219 20.125 33.9469C21.0375 33.7094 22.525 33.6969 23.4375 33.9344Z" fill="#072FAA"/>
<path d="M21.1987 36.1615C20.7487 36.6115 20.7362 37.574 21.1612 37.974C21.8487 38.624 22.7487 38.124 22.7487 37.099C22.7487 36.4115 22.4737 36.0365 21.9112 35.924C21.5862 35.8615 21.4487 35.9115 21.1987 36.1615Z" fill="#072FAA"/>
<path d="M21.1875 39.4375C20.875 39.7375 20.875 39.7375 20.875 42.4375C20.875 45.1375 20.875 45.1375 21.1875 45.4375C21.35 45.6125 21.6375 45.75 21.8125 45.75C21.9875 45.75 22.275 45.6125 22.4375 45.4375C22.75 45.1375 22.75 45.1375 22.75 42.4375C22.75 39.7375 22.75 39.7375 22.4375 39.4375C22.275 39.2625 21.9875 39.125 21.8125 39.125C21.6375 39.125 21.35 39.2625 21.1875 39.4375Z" fill="#072FAA"/>
<path d="M41.7129 36.5733C40.2129 36.9358 38.5379 37.9983 37.6004 39.1608C35.1504 42.2483 35.3629 46.6108 38.1254 49.3858C39.6754 50.9358 41.3129 51.6233 43.5004 51.6483C45.6879 51.6608 47.4254 50.9608 48.9504 49.4358C49.9379 48.4608 50.3629 47.7483 50.8379 46.3733C51.2879 45.0858 51.3129 43.1108 50.9129 41.8108C50.2629 39.7733 48.8379 38.0983 46.9379 37.1858C46.3254 36.8858 45.4754 36.5733 45.0754 36.5108C44.0754 36.3233 42.6004 36.3608 41.7129 36.5733ZM44.9379 38.4233C47.8004 39.1858 49.7379 42.0483 49.2754 44.8358C48.9629 46.6983 47.6379 48.4733 45.9754 49.2483C42.5254 50.8608 38.5004 48.6983 37.8504 44.8983C37.4504 42.5733 38.7129 40.0858 40.8629 38.9483C41.3254 38.7108 41.9379 38.4483 42.2004 38.3858C42.9379 38.2108 44.2379 38.2358 44.9379 38.4233Z" fill="#072FAA"/>
</svg>
