<svg width="64" height="64" viewBox="0 0 64 64" fill="none" xmlns="http://www.w3.org/2000/svg">
<path d="M15.2999 0.237637C15.0197 0.355608 14.5773 0.621046 14.3119 0.827497C13.3386 1.57957 13.2059 2.03671 11.8345 9.99985C11.1414 14.0846 10.581 17.6533 10.6105 17.963C10.6547 18.4644 10.7137 18.5234 11.2446 18.6856C11.569 18.774 12.4686 18.9657 13.2501 19.0985L14.6805 19.3492L14.769 20.1012C14.9902 21.7823 16.1994 23.4192 17.7773 24.1565C18.4999 24.4957 18.8096 24.5547 20.0188 24.5547C21.228 24.5547 21.5377 24.4957 22.275 24.1565C23.263 23.6994 24.3985 22.5787 24.7967 21.6939C24.9884 21.2662 25.1506 21.104 25.3128 21.1482C25.8437 21.3104 28.2326 21.6791 28.734 21.6791C29.0584 21.6791 29.3533 21.5759 29.4861 21.4137C29.6188 21.2662 29.899 19.998 30.1939 18.3169C30.6363 15.6625 30.651 15.4561 30.4298 15.1169C30.2971 14.9104 30.0759 14.7482 29.9285 14.7482C29.4566 14.7335 28.4833 14.2026 27.9377 13.6422C26.64 12.3003 26.6842 10.1916 28.0409 8.83487C28.734 8.12704 29.5303 7.81736 30.651 7.81736C31.3884 7.81736 31.6833 7.75837 31.8455 7.55192C32.0667 7.31598 32.7008 4.17496 32.7008 3.37865C32.7008 3.1722 32.5828 2.89201 32.4501 2.77404C32.1257 2.49386 17.8363 0.00169182 16.6123 0.00169182C16.1699 0.0164375 15.5801 0.119663 15.2999 0.237637ZM23.8234 2.951C27.5985 3.59985 30.71 4.14547 30.7248 4.17496C30.7395 4.18971 30.6805 4.61736 30.5921 5.11874L30.4446 6.04778H29.8842C28.3801 6.04778 26.4483 7.38971 25.6667 8.96759C25.298 9.71966 25.2538 9.95561 25.2538 11.2828C25.2686 12.4773 25.3275 12.8902 25.5782 13.4505C26.0059 14.3648 26.9939 15.4266 27.9229 15.9427L28.675 16.3704L28.3801 18.0367C28.2179 18.9363 28.0704 19.7178 28.0409 19.7473C28.0114 19.7768 27.1561 19.6441 26.1386 19.4671C23.9119 19.069 23.6759 19.128 23.4252 20.1012C23.2188 20.986 22.452 21.9593 21.6409 22.4164C20.6676 22.9621 19.3257 22.9326 18.3524 22.3722C17.969 22.1363 17.4529 21.6939 17.2317 21.3694C16.7303 20.6911 16.4059 19.5261 16.5533 18.892C16.7598 17.963 16.3616 17.7418 14.0169 17.3879C13.3533 17.2846 12.734 17.1667 12.6455 17.1077C12.4391 16.975 14.7543 3.43764 15.0934 2.78879C15.3589 2.27266 16.1109 1.77128 16.6123 1.77128C16.804 1.77128 20.0483 2.30215 23.8234 2.951Z" fill="#072FAA"/>
<path d="M44.5154 0.822838C40.5043 1.1915 37.1274 1.56017 37.0241 1.64864C36.8177 1.8256 36.7882 3.02007 36.9504 4.89288C37.0094 5.52698 37.0094 6.04311 36.9357 6.04311C36.8767 6.04311 36.449 6.22007 36.0066 6.44127C33.8684 7.48828 32.7034 10.0984 33.2933 12.5168C33.7062 14.2717 35.2546 15.8201 37.0684 16.292C37.5255 16.4099 37.9237 16.5279 37.9384 16.5427C37.9532 16.5721 38.0564 17.4422 38.1449 18.5039C38.3513 20.7454 38.4988 21.0109 39.5458 20.8781C39.885 20.8339 41.0499 20.7307 42.1412 20.6422C45.4592 20.3768 45.5329 20.3473 45.5329 19.197C45.5329 17.7371 46.7274 16.1592 48.1135 15.7758C50.0306 15.245 52.0509 16.4984 52.4638 18.5039C52.7145 19.6837 52.7292 19.6837 55.1329 19.5067C56.2979 19.4182 57.2859 19.2708 57.4039 19.1675C57.5366 19.0496 57.6251 18.7251 57.6251 18.2827C57.6251 17.5454 56.5191 4.52422 56.3569 3.38874C56.1062 1.57491 54.661 0.291962 52.7587 0.203484C52.2278 0.188736 48.5264 0.454174 44.5154 0.822838ZM53.4518 2.19427C54.4988 2.6809 54.4988 2.7104 55.1329 9.95095C55.4426 13.5196 55.7228 16.7196 55.7523 17.0588L55.826 17.6929H54.9707C54.1449 17.6929 54.1006 17.6781 54.0122 17.2652C53.8647 16.5869 52.8324 15.2597 52.0656 14.7583C49.9274 13.3427 46.8748 13.6376 45.238 15.4219C44.5449 16.174 43.955 17.3095 43.8223 18.1058L43.7338 18.6956L42.3034 18.7989C41.5218 18.8579 40.696 18.9168 40.4453 18.9316L40.0029 18.9463L39.8407 17.0588C39.7375 15.7168 39.6195 15.1122 39.4573 14.95C39.3246 14.8173 38.8822 14.6846 38.4398 14.6551C37.0094 14.5371 36.0656 13.9915 35.4315 12.915C34.2223 10.8505 35.343 8.38781 37.791 7.73897C38.2629 7.62099 38.72 7.42929 38.779 7.34081C38.8822 7.19335 38.838 4.99611 38.7052 3.46247C38.6758 3.18229 39.0149 3.13804 45.5329 2.56293C49.308 2.22376 52.4933 1.94357 52.6112 1.92883C52.7292 1.92883 53.1126 2.0468 53.4518 2.19427Z" fill="#072FAA"/>
<path d="M47.9823 21.0301C46.5962 21.4725 45.2985 22.608 44.7381 23.8467C44.4284 24.5545 44.3694 24.5693 42.7031 24.3333C41.1547 24.1121 40.3879 24.1121 40.1519 24.3481C39.857 24.643 39.2524 29.4209 39.4588 29.8486C39.5621 30.0698 39.8717 30.2467 40.4616 30.4237C42.4524 30.984 43.5584 32.8716 43.0275 34.8181C42.6588 36.1453 41.0072 37.3103 39.4736 37.3103C38.9132 37.3103 38.574 37.384 38.4561 37.5315C38.2791 37.738 37.7335 41.4393 37.7188 42.5011C37.7188 42.914 37.8072 43.1057 38.0579 43.2679C38.4266 43.4891 52.2883 45.2734 53.7335 45.2734C55.2671 45.2734 56.5058 44.4476 57.1105 43.032C57.4349 42.2356 59.3077 27.1499 59.116 26.737C58.9538 26.3831 58.7621 26.3389 56.7418 26.1029C54.8247 25.8817 54.8837 25.8965 54.7658 25.1297C54.6478 24.2301 53.881 22.8292 53.1584 22.1803C51.8459 21.0006 49.634 20.4992 47.9823 21.0301ZM51.1234 23.0062C52.2883 23.596 53.0404 24.879 53.0552 26.2651C53.0552 26.8403 53.1289 27.1647 53.2911 27.2974C53.4238 27.4006 54.3529 27.6071 55.3704 27.7398C56.3731 27.8725 57.2284 28.02 57.2432 28.0495C57.2727 28.0642 56.904 31.2052 56.4321 35.0246C55.4883 42.5748 55.4441 42.7665 54.5003 43.2827L53.9547 43.5776L46.8321 42.6928L39.7095 41.7933L39.7243 41.2919C39.739 41.0117 39.7833 40.4071 39.8423 39.9499L39.9455 39.1094L40.6386 39.0062C41.6856 38.8439 42.5704 38.3721 43.4846 37.4578C44.6349 36.3223 44.9888 35.349 44.9151 33.5499C44.8708 32.385 44.7971 32.1048 44.3547 31.2937C43.8091 30.2615 42.998 29.4799 41.9952 29.008C41.6266 28.831 41.3169 28.6836 41.2874 28.6688C41.2727 28.6541 41.3169 28.0495 41.4201 27.3269L41.5823 26.0145L43.0128 26.2062C45.1363 26.4863 45.6229 26.4568 45.8883 26.0734C46.0211 25.8965 46.1243 25.631 46.1243 25.5131C46.1243 25.3804 46.3012 24.9232 46.5077 24.5103C46.9206 23.6845 47.7464 23.0062 48.6459 22.726C49.2948 22.5343 50.4598 22.6522 51.1234 23.0062Z" fill="#072FAA"/>
<path d="M26.6572 24.1253C25.4038 24.494 24.2535 24.9069 24.1061 25.0396C23.8701 25.2461 23.8554 25.423 23.9438 26.3963C24.0176 27.3696 23.9881 27.635 23.7226 28.2396C22.9853 29.906 21.8646 30.6728 20.1835 30.6728C18.5908 30.6728 17.3964 29.8617 16.6296 28.2839C16.4231 27.8562 16.1429 27.4581 16.0102 27.3696C15.7153 27.1926 11.9844 28.1954 11.5862 28.5641C11.2471 28.8737 11.2471 29.1392 11.6305 30.5253L11.9402 31.6608L10.9374 33.047C5.40744 40.7005 5.23048 40.9806 5.05352 42.706C4.93555 43.7235 5.06827 44.5051 5.8056 47.1152C6.95583 51.141 8.51896 56.7447 8.51896 56.8184C8.51896 56.8627 8.22403 57.0396 7.85537 57.2166C7.10329 57.5705 6.60191 58.3521 6.60191 59.1189C6.60191 59.694 7.44246 62.6286 7.72265 63.0857C8.06182 63.6018 8.81389 64 9.47749 64C9.78716 64 11.483 63.6018 13.2379 63.1005C22.6462 60.4461 24.2388 59.9742 24.6222 59.7825C25.1088 59.5318 25.625 58.588 25.625 57.9687C25.625 57.3051 24.7549 54.4147 24.4157 53.9281C23.9438 53.2645 23.3392 53.0433 22.2922 53.1465C21.4664 53.235 21.3779 53.2055 21.3042 52.9548C21.26 52.7484 21.319 52.6304 21.5107 52.5714C21.6729 52.5124 22.13 52.1438 22.5282 51.7309C23.8259 50.4184 24.165 48.7373 23.5752 46.4811C23.3687 45.6995 23.3392 45.3899 23.4572 45.3456C23.5604 45.3014 26.0231 44.6083 28.9429 43.7825C31.8627 42.9567 34.3697 42.2341 34.5024 42.1604C34.9743 41.9097 34.9595 41.3641 34.4729 39.6535C34.0305 38.0903 34.0157 38.0166 34.2812 37.8101C34.4286 37.7069 34.5909 37.6037 34.6498 37.6037C34.7088 37.6037 35.0038 37.3825 35.2987 37.117C36.5816 35.9963 37.3927 34.0203 37.2157 32.4276C37.0683 30.9825 36.5964 29.965 35.5936 28.977C34.4286 27.8267 33.5586 27.3991 32.0839 27.3106L30.9632 27.2516L30.5208 25.6295C30.0489 23.9189 29.7687 23.447 29.2526 23.4617C29.0756 23.4617 27.9107 23.7714 26.6572 24.1253ZM28.766 26.2046C28.8987 26.6028 29.1051 27.3106 29.2379 27.7972C29.6065 29.1244 29.754 29.2276 30.9632 29.1097C32.7918 28.9327 34.2517 29.6848 34.9743 31.1594C35.977 33.1797 35.1365 35.377 32.9687 36.424C32.5411 36.6304 32.1429 36.8959 32.0544 37.0286C31.9512 37.2055 32.0544 37.7512 32.3936 38.9899C32.6738 39.9336 32.8655 40.73 32.836 40.7594C32.8065 40.7889 30.0194 41.5853 26.6572 42.5438C23.295 43.4876 20.213 44.3576 19.8148 44.4756C19.2692 44.623 18.9448 44.6378 18.5319 44.5346C17.9125 44.3723 17.1604 43.5908 17.2637 43.2221C17.2932 43.0894 18.0305 42.0571 18.8858 40.9217C20.1097 39.2995 20.4932 38.6949 20.5816 38.1935C20.8766 36.5714 19.9623 35.2737 18.4139 35.1263C17.4406 35.0378 16.5558 35.4654 15.8922 36.365C15.4056 36.9991 15.3761 37.0138 15.2729 36.6894C15.0517 35.9521 13.3853 29.9502 13.3853 29.8765C13.3853 29.8323 13.7687 29.6848 14.2259 29.5521C14.8452 29.3751 15.0812 29.3604 15.1254 29.4783C15.2581 29.8912 16.3789 31.13 16.9982 31.5576C19.7853 33.4747 23.6637 32.4719 25.2268 29.4194C25.566 28.7263 25.6839 28.2839 25.7429 27.4138L25.8019 26.2783L27.0849 25.9097C27.7779 25.7032 28.3973 25.5263 28.4563 25.5263C28.5005 25.5115 28.648 25.8212 28.766 26.2046ZM13.3116 36.3945L13.9899 38.7982L12.0581 41.2461C10.0821 43.7825 9.89039 44.1659 10.3918 44.7115C10.6572 45.0065 11.0554 45.0507 11.4535 44.8442C11.5862 44.7705 13.0609 42.9714 14.6978 40.8627C16.3494 38.7539 17.824 36.9843 17.9862 36.9253C18.3402 36.8221 18.8415 37.235 18.8415 37.6479C18.8415 37.7954 18.1337 38.8571 17.2784 39.9779C15.3761 42.4848 15.0959 43.0599 15.0959 44.4903C15.0959 45.4488 15.1402 45.6553 15.73 46.7613C16.3051 47.8673 16.3641 48.059 16.3051 48.7963C16.2609 49.4747 16.0987 49.8728 15.4056 51.023C14.9485 51.8046 14.565 52.6009 14.565 52.7926C14.565 53.5005 15.3761 53.9281 15.9217 53.4857C16.0544 53.3972 16.5706 52.6599 17.0572 51.8488C18.3402 49.7548 18.5319 48.4424 17.7945 46.7613C17.5438 46.1714 17.5438 46.1272 17.7798 46.2304C18.4139 46.4811 19.4019 46.4516 20.4342 46.1862C21.2157 45.9797 21.5254 45.9355 21.5697 46.0535C22.4544 48.7816 22.1005 50.1677 20.272 51.082C19.2692 51.5834 19.1512 51.8783 19.4756 53.0138L19.6968 53.8249L19.166 53.9723C18.871 54.0461 16.7623 54.6359 14.4913 55.2848C12.2203 55.9336 10.3623 56.4498 10.3475 56.435C10.3328 56.4203 9.87564 54.8129 9.33002 52.8664C8.7844 50.9198 8.00283 48.1622 7.60468 46.7465C6.74938 43.7825 6.6609 42.8092 7.17703 41.6737C7.42772 41.0986 12.5153 33.8876 12.6038 33.976C12.6185 33.9908 12.9282 35.082 13.3116 36.3945ZM22.9263 55.0341C23.1328 55.2995 23.8701 57.9687 23.7816 58.1161C23.7374 58.1751 23.4867 58.2931 23.2213 58.3668C11.5273 61.6995 9.50698 62.2452 9.34477 62.0829C9.13832 61.8765 8.38624 59.2664 8.47472 59.0452C8.54845 58.8535 8.7844 58.7797 15.1549 56.9954C17.9567 56.1991 20.7733 55.4028 21.4222 55.2111C22.8379 54.7982 22.7494 54.8129 22.9263 55.0341Z" fill="#072FAA"/>
</svg>
