<svg width="64" height="64" viewBox="0 0 64 64" fill="none" xmlns="http://www.w3.org/2000/svg">
<path d="M47.4617 4.26226C47.2117 4.44976 47.1117 4.67477 47.0492 5.12476L46.9742 5.72477L44.8867 5.77477C42.0992 5.83727 42.1367 5.82476 39.5617 8.37476L37.5617 10.3623L36.9992 9.91227C34.6617 8.04977 31.1867 6.42477 28.2117 5.81226C22.8992 4.73727 17.2492 5.79977 12.7492 8.72477C8.02422 11.7873 4.82422 16.4748 3.59922 22.1248C3.36172 23.2623 3.32422 23.7998 3.32422 26.1873C3.32422 29.2623 3.48672 30.3373 4.32422 32.8623C6.59922 39.6998 12.4117 44.9248 19.4992 46.4998C23.0492 47.2873 26.9742 47.1123 30.3367 46.0123L31.3492 45.6748L32.1492 46.2873C35.2742 48.6623 39.7867 49.0873 43.2992 47.3248L44.3617 46.7873L45.1867 47.6248C45.9992 48.4498 46.0117 48.4498 45.7492 48.6873C45.1617 49.2248 45.1867 49.2498 50.5992 54.6373C56.0992 60.1248 55.9492 59.9998 57.3117 59.9998C58.2242 59.9998 58.8367 59.7623 59.5367 59.1373C60.3492 58.3998 60.7492 57.5623 60.7492 56.5498C60.7492 55.2123 60.6242 55.0623 55.2117 49.6623C50.0117 44.4623 49.9617 44.4123 49.4367 44.9998C49.1992 45.2623 49.1992 45.2498 48.3617 44.4248L47.5242 43.5873L47.9367 42.8248C48.1617 42.4123 48.5117 41.5873 48.6992 40.9998C49.0242 40.0123 49.0492 39.7873 49.0617 37.8748C49.0617 36.0498 49.0242 35.6998 48.7742 34.8748C48.1367 32.8498 46.9617 31.0498 45.4867 29.7873L44.7242 29.1498L44.6992 26.2248C44.6867 23.7248 44.6367 23.1373 44.3992 22.0498C43.5992 18.3748 41.9117 15.0248 39.4992 12.3123L38.6117 11.3123L40.3992 9.54977C41.3867 8.57476 42.4242 7.66227 42.7117 7.51226C43.1867 7.27477 43.4492 7.24976 45.1242 7.24976H46.9992V7.54977C46.9992 7.69976 47.0617 8.01226 47.1367 8.23727C47.3992 8.99976 47.4242 8.99976 53.4367 8.99976H58.8992L59.2617 8.63726L59.6242 8.27477V6.56226C59.6242 4.79977 59.4992 4.24976 59.0617 4.07476C58.9492 4.03727 56.3617 3.99976 53.3242 3.99976C47.9242 3.99976 47.7742 4.01226 47.4617 4.26226ZM58.2492 6.43726V7.49976H53.3742H48.4992V6.43726V5.37476H53.3742H58.2492V6.43726ZM27.9617 7.24976C28.8617 7.44976 29.2617 7.58727 29.3117 7.73727C29.3367 7.84977 29.3867 8.53727 29.3992 9.26226C29.4492 11.1873 29.1992 11.5123 27.4992 11.6748C25.8242 11.8498 24.7492 12.2248 23.8867 12.9498C23.4742 13.2873 22.9992 14.0873 22.9992 14.4373C22.9992 14.8248 22.6242 15.3498 22.2492 15.4748C21.7867 15.6373 21.6117 15.5873 20.8367 15.0248C20.1242 14.5123 19.1492 14.1248 18.5867 14.1248C16.5742 14.1248 15.2492 16.2248 15.9492 18.2998C16.2492 19.1498 17.2367 20.1248 18.1867 20.4998C19.1492 20.8623 20.8367 20.8873 22.8492 20.5748C24.4992 20.2998 25.5992 20.3498 26.3367 20.7248C27.9492 21.5498 28.3742 23.5998 27.2242 25.0123C27.1367 25.1123 26.7492 25.4248 26.3742 25.7123C24.3867 27.1748 23.8867 28.3373 23.7867 31.8748C23.7242 33.6998 23.7617 34.3623 23.9867 35.8748C24.2867 37.9623 24.2367 38.3748 23.6117 38.6248C22.9742 38.8998 22.2367 38.4998 20.9492 37.2248C19.6742 35.9498 19.1367 35.6373 17.3242 35.1498C15.2117 34.5748 14.7242 34.1248 13.5492 31.6623C12.4867 29.4373 11.7617 28.8123 10.2367 28.8248C9.19922 28.8248 8.36172 29.2248 7.78672 29.9748C7.22422 30.7123 7.12422 31.1873 7.11172 33.1248C7.09922 35.3998 7.03672 35.5123 6.46172 34.2873C4.36172 29.8123 4.09922 24.7623 5.71172 19.9998C7.93672 13.3748 13.7492 8.38726 20.7117 7.12476C22.6117 6.77477 26.1117 6.83727 27.9617 7.24976ZM32.5742 8.87476C34.2867 9.73727 35.8117 10.7998 37.3242 12.1748L38.3742 13.1373V14.5748V16.0123L37.1492 17.2998C35.7742 18.7248 35.3492 19.4373 35.0492 20.8748C34.6867 22.5498 34.9492 24.1998 35.9242 26.4373L36.3617 27.4373L35.5867 27.6498C35.1617 27.7623 34.3117 28.1123 33.6867 28.4248C31.6742 29.4498 30.1367 31.0123 29.1242 33.0623C28.1992 34.9123 28.0617 35.5623 28.0617 37.9373C28.0742 39.8748 28.0867 39.9748 28.4867 41.1748C28.7367 41.8748 29.1992 42.8498 29.5742 43.4498C29.9367 44.0248 30.1867 44.5248 30.1367 44.5498C29.9367 44.6748 27.9867 45.1498 26.9367 45.3123C25.6242 45.5248 22.8117 45.5623 21.4117 45.3623C19.4492 45.0998 17.1367 44.3873 15.3367 43.4873C12.6992 42.1623 9.93672 39.7998 8.34922 37.5248C7.97422 36.9873 7.97422 36.9873 8.18672 36.4748C8.41172 35.8998 8.61172 33.9998 8.62422 32.3623C8.62422 31.4623 8.66172 31.2248 8.88672 30.9498C9.22422 30.5248 9.76172 30.2498 10.2492 30.2498C11.0242 30.2498 11.3117 30.5623 12.3367 32.5498C13.7742 35.3248 14.4242 35.8873 16.9367 36.5498C18.4992 36.9623 18.9492 37.2373 20.1742 38.4873C21.2492 39.5873 21.9617 40.0123 22.8867 40.0998C23.7242 40.1748 24.2992 40.0498 24.7617 39.6623C25.6117 38.9498 25.7867 37.9373 25.4367 35.8373C25.0367 33.3498 25.0867 30.3748 25.5867 28.9248C25.7992 28.3123 26.4742 27.5498 27.8742 26.3748C29.6617 24.8748 29.8367 22.1373 28.2492 20.3373C27.6742 19.6748 26.9242 19.2748 25.8617 19.0498C24.8992 18.8498 24.2492 18.8748 22.1867 19.1998C20.4742 19.4623 19.4367 19.4248 18.6867 19.0748C17.1367 18.3623 16.7117 16.7623 17.8242 15.8873C18.3367 15.4748 19.0492 15.5748 19.8867 16.1873C20.7492 16.7998 21.2492 16.9998 21.9367 16.9998C23.0367 16.9998 24.1742 16.0998 24.3242 15.0998C24.5117 13.9873 25.5367 13.3748 27.6492 13.1123C29.0367 12.9498 29.6742 12.6998 30.2117 12.0873C30.7492 11.4748 30.8992 10.8373 30.8492 9.36227C30.8242 8.52477 30.8617 8.12476 30.9492 8.12476C31.0242 8.12476 31.7492 8.46227 32.5742 8.87476ZM40.7242 16.4998C42.1492 18.9998 42.9117 21.3373 43.2617 24.2998C43.3867 25.4123 43.3742 28.0373 43.2367 28.1873C43.1992 28.2123 42.8367 28.1123 42.4367 27.9373C41.3992 27.5248 39.9367 27.2498 38.7867 27.2498H37.8117L37.4617 26.3373C37.2617 25.8498 36.9492 25.0748 36.7742 24.6248C36.4992 23.9248 36.4492 23.6248 36.4492 22.3748C36.4367 21.0123 36.4617 20.8998 36.8367 20.0873C37.1492 19.4373 37.4742 19.0123 38.2617 18.2748C39.2867 17.2998 39.7492 16.6248 39.7492 16.0998C39.7492 15.6498 39.8992 15.2248 40.0117 15.3373C40.0617 15.3873 40.3867 15.9123 40.7242 16.4998ZM40.7992 28.9498C43.9742 29.7498 46.5867 32.3748 47.4617 35.6248C47.7992 36.8623 47.7617 39.0373 47.3867 40.2498C46.8867 41.8623 46.1867 43.0748 45.0617 44.1998C43.6617 45.6248 42.2117 46.4123 40.3492 46.7998C38.3242 47.2248 36.5492 46.9748 34.4992 45.9748C33.3617 45.4248 33.0492 45.1998 32.1242 44.2623C31.2617 43.3873 30.9492 42.9623 30.4617 41.9998C29.6617 40.3873 29.4367 39.4998 29.4492 37.8123C29.4492 36.2373 29.6617 35.2623 30.2992 33.9373C31.6117 31.1623 34.1992 29.2498 37.3117 28.7373C38.1367 28.6123 39.8617 28.7123 40.7992 28.9498ZM47.4117 45.5998L48.1242 46.3248L47.5867 46.8498L47.0492 47.3748L46.3117 46.6248L45.5742 45.8748L46.0617 45.3748C46.3242 45.0998 46.5867 44.8748 46.6242 44.8748C46.6617 44.8748 47.0117 45.1998 47.4117 45.5998ZM53.7492 50.3123L57.4367 53.9998L56.0867 55.3373L54.7492 56.6873L51.0367 52.9748L47.3117 49.2498L48.6242 47.9373C49.3492 47.2123 49.9617 46.6248 49.9992 46.6248C50.0367 46.6248 51.7242 48.2873 53.7492 50.3123ZM58.9117 55.4998C59.5742 56.2873 59.4617 57.1623 58.5742 57.9748C58.2742 58.2498 57.8617 58.5123 57.6367 58.5623C57.1367 58.6623 56.4867 58.4498 56.1117 58.0498L55.8242 57.7373L57.1242 56.4373C57.8492 55.7123 58.4742 55.1248 58.5117 55.1248C58.5617 55.1248 58.7367 55.2873 58.9117 55.4998Z" fill="#072FAA"/>
<path d="M37.25 30.2C34.8125 30.675 32.7375 32.25 31.7 34.4125C31.0625 35.75 30.875 36.5125 30.875 37.8625C30.875 39.95 31.6625 41.825 33.175 43.3125C34.6625 44.7875 36.425 45.5 38.5625 45.5C40.7 45.5 42.4625 44.7875 43.9375 43.325C45.6 41.675 46.325 39.8375 46.225 37.5C46.15 35.8875 45.775 34.7 44.925 33.4625C43.9625 32.0625 42.4625 30.9625 40.7875 30.425C40.1875 30.2375 37.8375 30.0875 37.25 30.2ZM40.4875 31.9C40.8625 32.025 41.4125 32.2625 41.7 32.4375L42.2375 32.75L41.8 33.7875C40.4375 36.95 38.275 39.6875 35.45 41.775C34.5625 42.4375 34.4375 42.5 34.2625 42.325C34.1 42.15 34.1 42.0125 34.225 41.25C34.425 40.05 34.95 39.075 35.9875 37.9625C37.2375 36.6125 37.2625 36.1125 36.1375 34.9375C35.4875 34.2625 35.25 33.7375 35.25 32.9875C35.25 32.55 35.3 32.475 35.725 32.275C37.225 31.5125 38.975 31.375 40.4875 31.9ZM34.875 35.7625L35.475 36.3625L34.85 37C34.0625 37.8125 33.325 38.95 33.1125 39.6875C33.025 40 32.9 40.25 32.85 40.25C32.7375 40.25 32.425 39.1375 32.3125 38.3625C32.1625 37.175 32.575 35.6125 33.4125 34.325L33.8 33.7125L34.0375 34.4375C34.2125 34.9625 34.4625 35.35 34.875 35.7625ZM44.25 35.275C44.8 36.45 44.9625 37.7 44.7125 38.8875C44.45 40.175 43.9875 41.1125 43.175 42C41.825 43.45 40.5125 44.0375 38.5625 44.0375C37.525 44.0375 37.175 43.9875 36.525 43.7375L35.7375 43.425L36.775 42.625C39.4 40.5875 41.45 38 42.9 34.9125L43.3875 33.8625L43.6375 34.175C43.775 34.35 44.05 34.8375 44.25 35.275Z" fill="#072FAA"/>
<path d="M47.3111 11.3C47.1736 11.4 47.0861 11.625 47.0861 11.875C47.0861 12.6375 46.9611 12.625 53.3111 12.625C59.6611 12.625 59.6236 12.625 59.6236 11.875C59.6236 11.125 59.6611 11.125 53.3111 11.125C48.6486 11.125 47.4986 11.1625 47.3111 11.3Z" fill="#072FAA"/>
<path d="M48.825 14.825C48.7125 14.925 48.625 15.15 48.625 15.3125C48.625 16 48.65 16 53.3625 16C56.5625 16 57.7375 15.9625 57.85 15.85C57.9375 15.7625 58 15.525 58 15.3125C58 15.1 57.9375 14.8625 57.85 14.775C57.7375 14.6625 56.5625 14.625 53.3625 14.625C49.575 14.625 48.9875 14.65 48.825 14.825Z" fill="#072FAA"/>
<path d="M50.748 18.0875C50.248 18.2625 50.0855 18.95 50.473 19.2875C50.673 19.475 51.0605 19.5 53.348 19.5C56.248 19.5 56.373 19.4625 56.373 18.75C56.373 18.0625 56.098 18 53.373 18.0125C52.0355 18.0125 50.848 18.05 50.748 18.0875Z" fill="#072FAA"/>
</svg>
