<svg width="62" height="62" viewBox="0 0 62 62" fill="none" xmlns="http://www.w3.org/2000/svg">
<path d="M45.1 0.237497C43.65 0.699997 42.2125 1.9625 41.5625 3.3125L41.2375 4H37.7125C33.775 4 33.6 4.0375 32.7875 4.8875C31.9875 5.7375 32 5.55 32 13C32 20.45 31.9875 20.2625 32.7875 21.1125C33.6375 22 33.5625 22 39.5875 22H44.9875L45.025 24.1C45.0625 26.1625 45.075 26.2125 45.4125 26.725C45.6 27.0125 45.9875 27.4 46.275 27.5875C46.7375 27.9 46.9 27.9375 47.8625 27.9375C48.85 27.9375 48.9875 27.9125 49.5 27.5625C50.0125 27.2125 50.175 26.9625 51.375 24.6L52.6875 22H56.25C60.225 22 60.4 21.9625 61.2125 21.1125C62.0125 20.2625 62 20.45 62 13C62 5.55 62.0125 5.7375 61.2125 4.8875C60.4 4.0375 60.225 4 56.2875 4H52.7625L52.4375 3.3125C51.7875 1.9375 50.3375 0.699997 48.8625 0.237497C47.85 -0.0750027 46.0875 -0.0750027 45.1 0.237497ZM48.725 2.4875C49.4 2.8375 50.1625 3.5875 50.525 4.275C50.7625 4.725 50.8125 5 50.8125 6C50.8125 7.3625 50.6 7.9 49.75 8.75C48.9 9.6 48.3625 9.8125 47 9.8125C46 9.8125 45.725 9.7625 45.275 9.525C44.5875 9.15 43.8375 8.4 43.4875 7.725C43.15 7.075 43.0375 5.675 43.2375 4.9125C43.5375 3.7875 44.6875 2.5875 45.8 2.25C46.475 2.0375 48.125 2.175 48.725 2.4875ZM41 6.5625C41 7.6625 41.6875 9.2 42.6 10.15C42.85 10.4125 43.025 10.6375 42.9875 10.6625C42.9625 10.6875 42.55 10.8875 42.0875 11.1125C38.9375 12.6375 36.525 15.925 36.0625 19.3375C35.975 19.9875 35.9625 20 35.575 20C34.85 20 34.3625 19.75 34.175 19.3C33.95 18.75 33.9125 7.4 34.1375 6.75C34.375 6.075 34.7 6.0125 38.0375 6H41V6.5625ZM59.25 6.1375C59.9875 6.4 60 6.475 60 13C60 19.525 59.9875 19.6 59.25 19.8625C59.025 19.9375 58.65 20 58.425 20C58.0375 20 58.025 19.9875 57.9375 19.3375C57.7375 17.85 57.0375 16.0875 56.0875 14.7C55.1 13.225 52.975 11.4625 51.5375 10.925C51.2375 10.8125 51 10.675 51 10.6375C51 10.5875 51.175 10.3875 51.3875 10.175C52.25 9.35 53 7.6625 53 6.5375V6H55.925C57.775 6 58.9875 6.05 59.25 6.1375ZM49.0625 12.325C49.475 12.425 50.35 12.7625 51 13.0875C53.2375 14.1875 55 16.375 55.625 18.825C55.7625 19.3625 55.875 19.8375 55.875 19.9C55.875 19.95 54.85 20 53.5875 20H51.3125L49.95 22.7125C49.2125 24.2125 48.5125 25.5375 48.4 25.65C48.2 25.875 47.675 25.95 47.4125 25.775C47.0875 25.5625 47 24.9125 47 22.4875V20H42.5625C40.125 20 38.125 19.95 38.125 19.9C38.125 19.8375 38.2375 19.3625 38.375 18.825C39.125 15.875 41.475 13.4125 44.475 12.4375C45.75 12.025 47.6125 11.975 49.0625 12.325Z" fill="#072FAA"/>
<path d="M5.6875 10.2344C5.4125 10.3594 5.0125 10.6594 4.7875 10.8844C4.05 11.6594 4 11.9344 4 15.1219V17.0969C4 17.5939 3.59706 17.9969 3.1 17.9969C2.0375 17.9969 1.3875 18.2469 0.7875 18.8844C0.1125 19.6094 0 20.0344 0 22.0219C0 24.0344 0.1375 24.4844 0.8875 25.2094C1.5 25.7844 2.1 25.9969 3.125 25.9969C3.60825 25.9969 4 26.3886 4 26.8719V40.1594C4 53.8469 4.0125 54.3594 4.25 55.2969C5.0375 58.3969 7.6 60.9594 10.7 61.7469C12.0125 62.0844 13.9875 62.0844 15.3 61.7469C18.4 60.9594 20.9625 58.3969 21.75 55.2969C21.975 54.4469 22 53.9094 22 50.8344V48.3922C22 48.0635 22.4222 47.9289 22.6125 48.1969C24.075 50.2844 26.4 52.1094 28.7875 53.0469C30.475 53.7219 31.4375 53.8969 33.5625 53.9594C35.9125 54.0344 37.175 53.8219 39.125 53.0594C39.775 52.8094 40.4 52.5969 40.5125 52.5844C40.625 52.5719 42.025 54.1719 44.0875 56.6844C47.6625 61.0469 47.975 61.3469 49.35 61.7969C49.8375 61.9594 50.3125 62.0094 51.1625 61.9719C52.1375 61.9469 52.4375 61.8719 53.125 61.5469C54.1625 61.0594 55.0625 60.1594 55.55 59.1219C55.875 58.4344 55.95 58.1344 55.975 57.1594C56.0125 56.3094 55.9625 55.8344 55.8 55.3469C55.35 53.9719 55.05 53.6594 50.6875 50.0844C48.175 48.0219 46.575 46.6219 46.5875 46.5094C46.6 46.3969 46.8125 45.7719 47.0625 45.1219C48.325 41.9094 48.3375 38.2844 47.125 34.9719C45.525 30.5844 41.5375 27.2094 36.8375 26.2344C35.15 25.8844 32.1 25.9469 30.6 26.3469C27.2625 27.2469 24.4875 29.1469 22.6125 31.7969C22.4222 32.0649 22 31.9302 22 31.6015V29.3344V26.9094C22 26.4054 22.4085 25.9969 22.9125 25.9969C24.3125 25.9844 25.325 25.3719 25.8 24.2219C26.075 23.5594 26.075 20.4344 25.8 19.7719C25.325 18.6219 24.3125 18.0094 22.9125 17.9969C22.4085 17.9969 22 17.5883 22 17.0844V15.1219C22 11.9344 21.95 11.6594 21.2125 10.8844C20.35 9.97187 20.6 9.99688 13 9.99688C6.625 9.99688 6.15 10.0219 5.6875 10.2344ZM19.3 12.1719C19.925 12.4344 20 12.8094 20 15.5719C20 16.9112 18.9143 17.9969 17.575 17.9969H13H8.425C7.08571 17.9969 6 16.9112 6 15.5719C6 12.8469 6.0875 12.4344 6.675 12.1719C7.25 11.9219 18.7 11.9219 19.3 12.1719ZM23.3 20.1719C23.5875 20.2844 23.7625 20.4719 23.8625 20.7469C24.0375 21.2719 24.0375 22.7219 23.8625 23.2469C23.5875 24.0219 23.9 23.9969 13.025 23.9969C5.9875 23.9969 3.05 23.9594 2.75 23.8594C2.225 23.6719 2 23.1344 2 22.0219C2 20.8844 2.175 20.3844 2.675 20.1719C3.2625 19.9219 22.6875 19.9219 23.3 20.1719ZM20 26.9969C20 27.5492 19.5523 27.9969 19 27.9969H17H15C14.4477 27.9969 14 28.4446 14 28.9969C14 29.5492 14.4477 29.9969 15 29.9969H17H19C19.5523 29.9969 20 30.4446 20 30.9969C20 31.5492 19.5523 31.9969 19 31.9969H18H17C16.4477 31.9969 16 32.4446 16 32.9969C16 33.5492 16.4477 33.9969 17 33.9969H18H19C19.5523 33.9969 20 34.4446 20 34.9969C20 35.5492 19.5523 35.9969 19 35.9969H17H15C14.4477 35.9969 14 36.4446 14 36.9969C14 37.5492 14.4477 37.9969 15 37.9969H17H19C19.5523 37.9969 20 38.4446 20 38.9969C20 39.5492 19.5523 39.9969 19 39.9969H18H17C16.4477 39.9969 16 40.4446 16 40.9969C16 41.5492 16.4477 41.9969 17 41.9969H18H18.9375C19.5243 41.9969 20 42.4726 20 43.0594C20 43.9344 19.9625 44.1219 19.8 44.1219C19.525 44.1219 17.9125 44.8844 17.1125 45.3969C16.6933 45.6663 16.1496 45.6411 15.7572 45.334L15.55 45.1719C14.5375 44.3844 12.7375 43.4344 11.75 43.1844C10.85 42.9469 9 42.9469 8.0875 43.1844C7.6875 43.2844 7.0875 43.5094 6.75 43.6844C6.4125 43.8594 6.1 43.9969 6.0625 43.9969C6.025 43.9969 6 39.9469 6 34.9969V31.0281C6 28.2494 8.25257 25.9969 11.0312 25.9969H13H19C19.5523 25.9969 20 26.4446 20 26.9969ZM36.05 28.2594C40.3875 28.9594 44.1 32.2969 45.4625 36.7094C45.775 37.7219 45.8 37.9719 45.8 39.9969C45.8 42.0219 45.775 42.2719 45.4625 43.2844C44.4875 46.4344 42.4375 48.9594 39.5875 50.4969C37.7875 51.4719 36.05 51.8844 33.875 51.8844C28.6875 51.8719 24.05 48.3594 22.5625 43.3094C22.15 41.9344 22 39.5219 22.25 38.0469C22.9375 33.7469 26.1875 29.9969 30.375 28.6469C32.25 28.0469 33.95 27.9344 36.05 28.2594ZM11.7 45.4344C12.6375 45.7844 14.55 46.9969 14.4 47.1469C14.1375 47.4094 12.225 48.3969 11.525 48.6344C10.4125 49.0094 8.8625 48.9344 7.8625 48.4719C7.1125 48.1344 6.125 47.3219 6.125 47.0594C6.125 46.9594 6.275 46.7219 6.45 46.5094C7.525 45.2344 9.875 44.7469 11.7 45.4344ZM20 49.4594C20 52.9219 19.8875 54.2344 19.5125 55.3219C18.85 57.1719 17.2 58.8344 15.3125 59.5219C14.375 59.8594 12.5 59.9719 11.5125 59.7469C9.0125 59.1844 6.9875 57.2219 6.2875 54.6844C6.1125 54.0219 5.9 49.9969 6.05 49.9969C6.1 49.9969 6.4 50.1344 6.7375 50.2969C7.7875 50.8344 8.8 51.0219 10.25 50.9719C12.1625 50.8844 13.425 50.3719 16.1625 48.5844C18.2125 47.2469 19.65 46.3719 19.85 46.3719C19.9625 46.3719 20 47.0719 20 49.4594ZM48.9375 51.4469C50.9375 53.0719 52.75 54.5719 52.9875 54.7844C54.2125 55.9469 54.175 58.0094 52.9125 59.1344C52.3 59.6719 51.7125 59.8844 50.925 59.8844C50.1125 59.8844 49.325 59.5594 48.7875 58.9844C48.2026 58.3584 44.3405 53.5959 42.9901 51.8622C42.6703 51.4516 42.7066 51.0411 43.095 50.6946C43.1489 50.6465 43.205 50.5969 43.2625 50.5469C43.65 50.2094 44.2375 49.6094 44.575 49.2219C44.9125 48.8219 45.2125 48.4969 45.25 48.4969C45.2875 48.4969 46.95 49.8219 48.9375 51.4469Z" fill="#072FAA"/>
<path d="M32.0882 29.6532C28.3301 30.2844 24.9877 33.3237 23.8237 37.1935C23.3415 38.7879 23.408 41.6445 23.9567 43.2556C24.6053 45.1157 25.1873 46.0292 26.5675 47.4243C27.9643 48.8028 28.8789 49.3841 30.7413 50.0152C32.504 50.6297 35.2477 50.6629 37.0603 50.0982C41.2673 48.7862 44.1774 45.0825 44.4767 40.648C44.7594 36.4959 42.448 32.4767 38.7231 30.6497C36.578 29.6034 34.383 29.2712 32.0882 29.6532ZM35.6967 32.377C37.2265 32.7424 38.3407 33.3735 39.5047 34.5527C40.7352 35.7818 41.4503 37.1437 41.7496 38.8709C42.5976 43.8701 37.9416 48.5703 32.9197 47.7897C29.4775 47.2582 26.7338 44.5344 26.2183 41.1297C25.6196 37.3097 28.2137 33.44 32.055 32.4269C33.4185 32.0781 34.3498 32.0615 35.6967 32.377Z" fill="#072FAA"/>
<path d="M37.9705 36.2654C37.8898 36.2781 37.7751 36.3161 37.7156 36.3457C37.6561 36.3753 36.4412 37.5585 35.0181 38.974L32.4267 41.5474L31.3435 40.4657C30.651 39.7769 30.2007 39.3543 30.0903 39.3036C29.9076 39.2191 29.5848 39.198 29.4148 39.2656C29.2449 39.329 28.973 39.5994 28.9221 39.7558C28.8498 39.967 28.8626 40.2924 28.9476 40.4572C29.0453 40.6516 31.8362 43.4362 32.0402 43.5419C32.2441 43.6475 32.5797 43.6517 32.8091 43.5588C33.047 43.4574 38.8286 37.7106 38.9263 37.474C39.2024 36.8148 38.6629 36.1387 37.9705 36.2654Z" fill="#072FAA"/>
<path d="M50.25 56.25C50.0875 56.4125 50 56.6625 50 57C50 57.6625 50.3375 58 51 58C51.6625 58 52 57.6625 52 57C52 56.3375 51.6625 56 51 56C50.6625 56 50.4125 56.0875 50.25 56.25Z" fill="#072FAA"/>
</svg>
