<svg width="64" height="52" viewBox="0 0 64 52" fill="none" xmlns="http://www.w3.org/2000/svg">
<g clip-path="url(#clip0_8220_176106)">
<path d="M5.1 0.237499C3.2875 0.825001 1.7375 2.4125 1.2 4.2375C1.025 4.85 1 6.775 1 22.025C1 39.0125 1 39.1375 1.2625 39.9125C1.8875 41.7875 3.4 43.2625 5.2375 43.8C5.8375 43.975 7.1625 44 15.9625 44H25.0125C25.5579 44 26 44.4421 26 44.9875C26 45.542 25.5546 45.9937 25.0001 46.0013L23.2875 46.025C20.5625 46.0625 20.5625 46.0625 19.8125 46.425C18.1875 47.225 17.125 48.775 17.025 50.5C16.975 51.3625 17 51.5 17.2375 51.7375C17.4056 51.9056 17.6335 52 17.8712 52H32H46.1288C46.3665 52 46.5944 51.9056 46.7625 51.7375C47 51.5 47.025 51.3625 46.975 50.5C46.875 48.775 45.8125 47.225 44.1875 46.425C43.6935 46.1862 43.1532 46.0586 42.6046 46.051L40.725 46.025L38.9999 46.0013C38.4455 45.9936 38 45.542 38 44.9875C38 44.4421 38.4421 44 38.9875 44H48.05C57.5625 44 58.1375 43.9875 58.8625 43.7625C60.7 43.1875 62.2625 41.6125 62.8 39.7625C62.975 39.15 63 37.225 63 22C63 6.775 62.975 4.85 62.8 4.2375C62.2625 2.3875 60.7 0.8125 58.8625 0.237499C58.125 0.0125008 57.275 0 31.9625 0.0125008C6.95 0.0125008 5.775 0.0249977 5.1 0.237499ZM58.15 2.225C59.3375 2.6375 60.425 3.7375 60.775 4.9125C61.0125 5.675 61.0125 38.325 60.775 39.0875C60.4125 40.275 59.275 41.4125 58.0875 41.775C57.325 42.0125 6.675 42.0125 5.9125 41.775C4.7375 41.425 3.625 40.3375 3.225 39.15C3.0125 38.5375 2.925 6.9 3.125 5.5875C3.4125 3.7 4.6125 2.4375 6.3875 2.1375C6.775 2.075 17.8 2.0375 32.375 2.05C52.4 2.0625 57.7875 2.1 58.15 2.225ZM36 45C36 45.5523 35.5523 46 35 46H32H29C28.4477 46 28 45.5523 28 45C28 44.4477 28.4477 44 29 44H32H35C35.5523 44 36 44.4477 36 45ZM43.0625 48.2875C43.6375 48.55 44.3125 49.1625 44.575 49.65C44.6598 49.8084 44.5451 50 44.3654 50H32H19.6346C19.4549 50 19.3402 49.8084 19.425 49.65C19.6375 49.2625 20.3125 48.6 20.725 48.3875C20.8875 48.3 21.25 48.1875 21.5375 48.125C21.825 48.075 26.675 48.0375 32.3125 48.0375C41.8875 48.0625 42.6 48.075 43.0625 48.2875Z" fill="#072FAA"/>
<path d="M5.25 4.25C5 4.5 5 4.66251 5 21C5 37.3375 5 37.5 5.25 37.75C5.5 38 5.6625 38 32 38C58.3375 38 58.5 38 58.75 37.75C59 37.5 59 37.3375 59 21C59 4.66251 59 4.5 58.75 4.25C58.5 4 58.3375 4 32 4C5.6625 4 5.5 4 5.25 4.25ZM39 21V34.2308C39 35.2079 38.2079 36 37.2308 36H23H8.76923C7.79211 36 7 35.2079 7 34.2308V21V7.76924C7 6.79212 7.79211 6 8.76923 6H23H37.2308C38.2079 6 39 6.79212 39 7.76924V21ZM57 21V34.2308C57 35.2079 56.2079 36 55.2308 36H49H42.7692C41.7921 36 41 35.2079 41 34.2308V21V7.76924C41 6.79212 41.7921 6 42.7692 6H49H55.2308C56.2079 6 57 6.79212 57 7.76924V21Z" fill="#072FAA"/>
<path d="M28 29C28 29.5523 28.4477 30 29 30H32.5H36C36.5523 30 37 29.5523 37 29C37 28.4477 36.5523 28 36 28H32.5H29C28.4477 28 28 28.4477 28 29Z" fill="#072FAA"/>
<path d="M24 33C24 33.5523 24.4477 34 25 34H30.5H36C36.5523 34 37 33.5523 37 33C37 32.4477 36.5523 32 36 32H30.5H25C24.4477 32 24 32.4477 24 33Z" fill="#072FAA"/>
<path d="M47.6744 7.22625C45.1913 7.64324 42.983 9.65138 42.2139 12.2082C41.8953 13.2616 41.9392 15.1491 42.3018 16.2135C42.7303 17.4425 43.1148 18.0461 44.0267 18.9678C44.9496 19.8786 45.5539 20.2627 46.7844 20.6797C47.949 21.0857 49.7619 21.1077 50.9595 20.7346C53.7391 19.8677 55.6618 17.4206 55.8596 14.4907C56.0464 11.7473 54.5192 9.09173 52.0581 7.88466C50.6408 7.19333 49.1906 6.97386 47.6744 7.22625ZM50.0585 9.02589C51.0693 9.26731 51.8054 9.6843 52.5745 10.4634C53.3876 11.2754 53.86 12.1753 54.0578 13.3165C54.6181 16.6195 51.5418 19.725 48.2237 19.2092C45.9494 18.8581 44.1366 17.0585 43.796 14.8089C43.4005 12.285 45.1144 9.72819 47.6524 9.05881C48.5533 8.82837 49.1686 8.8174 50.0585 9.02589Z" fill="#072FAA"/>
<path d="M47 25C47 25.5523 47.4477 26 48 26H51H54C54.5523 26 55 25.5523 55 25C55 24.4477 54.5523 24 54 24H51H48C47.4477 24 47 24.4477 47 25Z" fill="#072FAA"/>
<path d="M43 29C43 29.5523 43.4477 30 44 30H49H54C54.5523 30 55 29.5523 55 29C55 28.4477 54.5523 28 54 28H49H44C43.4477 28 43 28.4477 43 29Z" fill="#072FAA"/>
<path d="M43 33C43 33.5523 43.4477 34 44 34H49H54C54.5523 34 55 33.5523 55 33C55 32.4477 54.5523 32 54 32H49H44C43.4477 32 43 32.4477 43 33Z" fill="#072FAA"/>
<path d="M49 16.75V11.5" stroke="#072FAA" stroke-width="2" stroke-linecap="round"/>
<path d="M46.375 14.25L51.625 14.25" stroke="#072FAA" stroke-width="2" stroke-linecap="round"/>
<path d="M31.796 6.23283L31.7956 6.23287C31.0098 6.32446 30.3873 6.67206 29.9651 7.27154L29.9647 7.27206C29.3948 8.08857 29.3622 9.23815 29.8946 10.0634C29.9858 10.2089 30.158 10.4062 30.3255 10.5683C30.1137 10.571 29.8435 10.5996 29.699 10.6346L29.6966 10.6352C29.1488 10.7775 28.5984 11.1739 28.2832 11.6485C28.2523 11.6946 28.2029 11.7979 28.1432 11.9305C28.0801 12.0707 27.9988 12.2592 27.903 12.4868C27.7113 12.9422 27.4605 13.5568 27.1797 14.2591C26.7395 15.3563 26.5013 15.9544 26.3739 16.3075C26.2465 16.6604 26.2227 16.7868 26.2252 16.9334M31.796 6.23283L26.3752 16.9316M31.796 6.23283C31.9617 6.21391 32.1843 6.23087 32.3997 6.26717C32.6164 6.3037 32.8407 6.36237 33.0109 6.43493L33.011 6.43496C33.2456 6.53507 33.4928 6.7096 33.7077 6.91029C33.9227 7.11103 34.1148 7.34661 34.2329 7.57579L34.2329 7.57585C34.357 7.8169 34.4349 8.14698 34.4656 8.47147C34.4962 8.79588 34.4815 9.13416 34.4057 9.39338C34.2774 9.83564 34.0464 10.2073 33.6997 10.5361L33.6995 10.5363L33.6659 10.5681M31.796 6.23283L33.6659 10.5681M26.2252 16.9334C26.2252 16.9337 26.2252 16.9339 26.2252 16.9342L26.3752 16.9316M26.2252 16.9334C26.2252 16.9331 26.2252 16.9328 26.2252 16.9326L26.3752 16.9316M26.2252 16.9334C26.2303 17.6603 26.7597 18.1781 27.4852 18.1781H27.4865C27.7481 18.1758 27.9797 18.1204 28.1766 18.0012C28.3741 17.8816 28.5262 17.7042 28.6384 17.4753L28.6387 17.4746C28.7033 17.3413 28.9131 16.8506 29.1077 16.3874L29.1079 16.3867L29.1742 16.2267M26.3752 16.9316C26.3793 17.5754 26.8408 18.0281 27.4852 18.0281C27.9674 18.0239 28.3 17.8246 28.5037 17.4092C28.5661 17.2805 28.774 16.7945 28.9694 16.3293L29.1713 15.8418L29.1742 16.2267M29.1742 16.2267L29.1811 17.1193L29.1811 17.1196L29.1893 18.7446L28.8781 22.3139L28.8781 22.3139C28.7368 23.9413 28.6598 24.8424 28.6248 25.3608C28.5906 25.8683 28.5942 26.0308 28.6291 26.1577C28.7404 26.5872 29.047 26.9397 29.4422 27.0825L29.4438 27.083L29.4438 27.083C29.5983 27.1369 29.7953 27.1561 29.9812 27.1483C30.1658 27.1406 30.3592 27.1055 30.5049 27.0356C30.6542 26.9668 30.8022 26.8482 30.9226 26.7184C31.0429 26.5887 31.1475 26.4351 31.1982 26.2884L31.1999 26.2832L31.1999 26.2831C31.2069 26.2602 31.2152 26.215 31.2239 26.1653C31.2334 26.1102 31.2457 26.0356 31.2601 25.944C31.2891 25.7607 31.3274 25.5074 31.3721 25.2026C31.4616 24.593 31.577 23.7763 31.6956 22.8994L31.6956 22.8994C31.8111 22.0428 31.9187 21.2634 32.0001 20.6898M29.1742 16.2267L29.3215 15.8711L29.3311 17.1185L29.3394 18.7508L29.0276 22.3269C28.7449 25.5832 28.7199 25.9238 28.774 26.119C28.8737 26.5053 29.1481 26.8168 29.4932 26.9414C29.7551 27.0327 30.1999 27.0161 30.4411 26.8998L32.0001 20.6898M32.0001 20.6898C32.0814 21.2634 32.1891 22.0428 32.3046 22.8994L32.3046 22.8994C32.4231 23.7763 32.5386 24.593 32.6281 25.2026C32.6728 25.5074 32.7111 25.7607 32.74 25.944C32.7545 26.0356 32.7667 26.1102 32.7763 26.1653C32.785 26.215 32.7933 26.2602 32.8003 26.2831L32.8019 26.2884L32.802 26.2884C32.8527 26.4351 32.9573 26.5887 33.0776 26.7184C33.1983 26.8485 33.3468 26.9675 33.4966 27.0362L33.5591 26.8998L33.4957 27.0358C33.6436 27.1047 33.8287 27.1406 34.0104 27.1478C34.1927 27.1551 34.3842 27.1342 34.5467 27.0793L34.5475 27.0791L34.5475 27.0791C34.9745 26.9321 35.3012 26.5427 35.3859 26.0897C35.3982 26.029 35.399 25.9292 35.3943 25.7916C35.3893 25.6456 35.3769 25.4386 35.3561 25.1523C35.3144 24.5794 35.2384 23.6822 35.1179 22.3055L34.8108 18.7737L34.8191 17.1321L34.8191 17.1317L34.826 16.2268L34.8922 16.3866C35.1181 16.9333 35.2576 17.2601 35.3643 17.4699C35.4732 17.6843 35.5535 17.7882 35.6637 17.8835M32.0001 20.6898L36.5108 18.0406M35.6637 17.8835C35.7857 17.9917 35.9066 18.0708 36.0468 18.1214C36.1862 18.1717 36.3356 18.1905 36.5099 18.1906M35.6637 17.8835C35.6634 17.8832 35.6632 17.883 35.6629 17.8827L35.7625 17.7706L35.6645 17.8841C35.6642 17.8839 35.664 17.8837 35.6637 17.8835ZM36.5099 18.1906C36.5102 18.1906 36.5105 18.1906 36.5108 18.1906V18.0406M36.5099 18.1906C36.5096 18.1906 36.5093 18.1905 36.5091 18.1905L36.5108 18.0406M36.5099 18.1906C36.9031 18.195 37.2028 18.0668 37.4493 17.7924M36.5108 18.0406C36.8642 18.0447 37.122 17.9326 37.3381 17.6917M37.4493 17.7924C37.4492 17.7925 37.449 17.7927 37.4489 17.7928L37.3381 17.6917M37.4493 17.7924C37.5655 17.6651 37.6497 17.5422 37.7031 17.3995C37.7564 17.2573 37.775 17.1058 37.775 16.9274V16.9252H37.775C37.7739 16.8503 37.771 16.7812 37.7505 16.6846C37.7307 16.5914 37.6954 16.4759 37.6337 16.3041C37.5103 15.9606 37.2729 15.3684 36.8163 14.2341M37.4493 17.7924C37.4495 17.7922 37.4496 17.792 37.4498 17.7918L37.3381 17.6917M37.3381 17.6917L36.8163 14.2341M36.8163 14.2341C36.8163 14.2341 36.8163 14.2342 36.8163 14.2342L36.6771 14.29M36.8163 14.2341L37.625 16.9274C37.6208 16.645 37.5917 16.5619 36.6771 14.29M36.8163 14.2341C36.5438 13.5544 36.2929 12.945 36.0991 12.489C36.0022 12.261 35.9193 12.0708 35.8549 11.9291C35.7937 11.7944 35.7432 11.6895 35.7125 11.6439M36.8163 14.2341L35.7125 11.6439M36.8163 14.2341C36.8163 14.2341 36.8163 14.234 36.8163 14.234L36.6771 14.29M36.8163 14.2341L36.6771 14.29M33.6659 10.5681C33.8729 10.5691 34.1522 10.5985 34.3012 10.6346L34.3012 10.6345L34.3036 10.6352C34.8508 10.7774 35.4012 11.1733 35.7125 11.6439M33.6659 10.5681L35.712 11.6431C35.7122 11.6434 35.7124 11.6436 35.7125 11.6439M34.6816 15.4862L34.8289 15.8418L34.6787 15.8711L34.6816 15.4862ZM33.3532 8.1165L33.3525 8.11509C33.1625 7.70886 32.7702 7.38525 32.383 7.2966C32.2333 7.26384 32.1365 7.24725 32.0513 7.24179C31.9679 7.23645 31.8906 7.24144 31.7802 7.25721L31.7784 7.25744C31.3259 7.31673 30.8562 7.67191 30.6475 8.11541L30.647 8.1165C30.5996 8.21499 30.5784 8.27189 30.5662 8.34554C30.5529 8.42538 30.5495 8.52944 30.5495 8.7244C30.5495 8.9193 30.5529 9.02235 30.5662 9.10221C30.5785 9.17625 30.5999 9.23449 30.6476 9.33786C30.711 9.47142 30.8247 9.62351 30.9623 9.76099C31.0999 9.89848 31.2522 10.0121 31.3859 10.0754C31.4894 10.1231 31.5477 10.1445 31.6218 10.1568C31.7018 10.17 31.805 10.1735 32.0001 10.1735C32.2097 10.1735 32.3091 10.1709 32.3873 10.1563C32.4597 10.1428 32.5183 10.1181 32.6448 10.0559L32.6453 10.0557C32.9466 9.90896 33.2129 9.63541 33.3523 9.33424L33.3523 9.33423L33.3532 9.33229C33.4005 9.2338 33.4218 9.1769 33.434 9.10325C33.4472 9.02341 33.4507 8.91935 33.4507 8.7244C33.4507 8.52944 33.4472 8.42538 33.434 8.34554C33.4218 8.27189 33.4005 8.21499 33.3532 8.1165ZM34.118 11.6354L34.1168 11.6349C34.0204 11.5981 33.9587 11.5775 33.7074 11.5657C33.4482 11.5534 33.0036 11.5513 32.1452 11.5492L32.145 11.5492C31.6549 11.5471 31.1839 11.5482 30.8211 11.5523C30.6396 11.5544 30.4859 11.5572 30.3706 11.5608C30.313 11.5626 30.2657 11.5646 30.2298 11.5667C30.2118 11.5677 30.1973 11.5688 30.1862 11.5698L30.173 11.5711C30.1695 11.5715 30.1681 11.5718 30.1681 11.5718L30.1681 11.5718L30.1646 11.5724C29.7449 11.6372 29.4032 11.841 29.1661 12.1677C29.1478 12.1937 29.1019 12.2827 29.0303 12.4383C28.9614 12.5884 28.8745 12.7869 28.7762 13.0179C28.5797 13.4798 28.3388 14.0685 28.1057 14.6529C27.8727 15.2374 27.6479 15.8166 27.4836 16.2596C27.4013 16.4813 27.3347 16.6677 27.2899 16.8031C27.2674 16.8711 27.251 16.9243 27.2409 16.9619C27.2375 16.9744 27.2351 16.9842 27.2335 16.9914C27.2555 17.066 27.3219 17.1279 27.4129 17.1548C27.5113 17.1839 27.6039 17.1621 27.6578 17.1038C27.6567 17.105 27.6562 17.1056 27.6561 17.1055C27.656 17.1054 27.6616 17.0977 27.674 17.0756C27.6883 17.0504 27.7069 17.0149 27.7298 16.9687C27.7754 16.8766 27.8356 16.7475 27.9085 16.5847C28.0542 16.2595 28.249 15.8041 28.4773 15.2504L28.4777 15.2495C28.6836 14.759 28.8784 14.3034 29.0269 13.9654C29.1011 13.7965 29.1642 13.6562 29.2116 13.5553C29.2352 13.505 29.2555 13.4632 29.2717 13.4321C29.2797 13.4167 29.2875 13.4023 29.2948 13.3901L29.2954 13.3891C29.2991 13.3829 29.3107 13.3635 29.3278 13.3461C29.4204 13.2506 29.5659 13.2239 29.6775 13.2257C29.7916 13.2276 29.9341 13.26 30.0274 13.3532C30.0414 13.3672 30.0629 13.3896 30.0813 13.4242C30.0987 13.457 30.1093 13.4929 30.1168 13.532C30.1311 13.6067 30.1389 13.7216 30.1441 13.91C30.1545 14.2911 30.1545 15.0161 30.1545 16.4306V16.4373L30.1545 16.4375L30.1504 19.3366L30.1509 19.3366L30.1498 19.3494L29.8671 22.6098L29.8671 22.61C29.8574 22.7211 29.848 22.8287 29.8388 22.9327C29.7016 24.4979 29.6343 25.2662 29.6271 25.6653C29.6231 25.8827 29.6385 25.9637 29.6539 25.9998C29.6628 26.0205 29.6672 26.024 29.7117 26.0588C29.7208 26.066 29.7315 26.0744 29.7443 26.0845L29.7448 26.0849C29.8151 26.1411 29.9177 26.1585 30.0194 26.1317C30.1198 26.1054 30.1971 26.042 30.2291 25.9645C30.2296 25.9625 30.2303 25.9593 30.2313 25.9547C30.2341 25.9419 30.2377 25.9233 30.2421 25.8984C30.251 25.849 30.2626 25.7789 30.2766 25.69C30.3046 25.5124 30.3418 25.2627 30.3856 24.959C30.4734 24.3516 30.5876 23.5297 30.7082 22.6391C30.8288 21.7479 30.9431 20.9201 31.03 20.3045C31.0734 19.9968 31.1099 19.7419 31.1369 19.5586C31.163 19.382 31.1818 19.2596 31.1894 19.2294L31.1893 19.2294L31.1907 19.2246C31.2071 19.1673 31.2326 19.1108 31.2622 19.0634C31.2888 19.0208 31.3305 18.966 31.3879 18.9347L31.3882 18.9345C31.4271 18.9135 31.4771 18.9051 31.5084 18.9004C31.5478 18.8945 31.5952 18.8899 31.6463 18.8864C31.7489 18.8794 31.8752 18.876 32.0001 18.876C32.125 18.876 32.2512 18.8794 32.3539 18.8864C32.405 18.8899 32.4524 18.8945 32.4917 18.9004C32.523 18.9051 32.5731 18.9135 32.6119 18.9345L32.6123 18.9347C32.6696 18.966 32.7114 19.0208 32.738 19.0634C32.7676 19.1108 32.7931 19.1673 32.8095 19.2246L32.8096 19.2246L32.8108 19.2294C32.8183 19.2596 32.8372 19.382 32.8632 19.5586C32.8902 19.7419 32.9268 19.9968 32.9702 20.3045C33.057 20.9201 33.1714 21.7479 33.292 22.6391C33.4125 23.5297 33.5268 24.3516 33.6145 24.959C33.6584 25.2627 33.6956 25.5124 33.7236 25.69C33.7376 25.7789 33.7492 25.849 33.758 25.8984C33.7625 25.9233 33.7661 25.9419 33.7688 25.9547C33.7698 25.9593 33.7706 25.9625 33.7711 25.9645C33.8031 26.042 33.8804 26.1054 33.9808 26.1317C34.0825 26.1585 34.185 26.1411 34.2553 26.0849L34.2558 26.0845C34.2686 26.0744 34.2794 26.066 34.2884 26.0588C34.3329 26.024 34.3374 26.0205 34.3462 25.9997C34.3616 25.9637 34.377 25.8827 34.3731 25.6653C34.3659 25.2662 34.2986 24.4979 34.1613 22.9327C34.1522 22.8287 34.1428 22.7212 34.133 22.61L33.8462 19.3496L33.8456 19.3496V19.3364V16.4581C33.8456 15.5565 33.8498 14.8288 33.8571 14.32C33.8607 14.0658 33.8651 13.8654 33.8703 13.725C33.8728 13.655 33.8756 13.5985 33.8787 13.5573C33.8802 13.5368 33.8819 13.5182 33.8839 13.5028C33.8849 13.4952 33.8863 13.4864 33.8881 13.4776L33.8882 13.4773C33.8894 13.4717 33.8933 13.4533 33.9031 13.4337L33.9029 13.4336L33.9063 13.4275C33.9621 13.328 34.0656 13.2712 34.1598 13.2441C34.2578 13.2158 34.3717 13.2114 34.4786 13.2395L34.4793 13.2397C34.4823 13.2405 34.4861 13.2414 34.4906 13.2424C34.5225 13.2498 34.5881 13.265 34.6473 13.3192C34.7045 13.3716 34.7529 13.4547 34.8117 13.5753C34.9247 13.8069 35.1126 14.2593 35.4844 15.1541C35.5127 15.2223 35.5421 15.293 35.5726 15.3663L35.5727 15.3667C35.7823 15.8746 35.9678 16.3083 36.1078 16.6217C36.1779 16.7786 36.2362 16.9043 36.2802 16.9937C36.3022 17.0386 36.32 17.0729 36.3334 17.0969C36.3413 17.1111 36.346 17.1184 36.3478 17.1213C36.3993 17.168 36.4877 17.1851 36.5856 17.1534C36.6786 17.1232 36.7444 17.0602 36.7665 16.9907C36.7649 16.9835 36.7625 16.974 36.7593 16.9619C36.7492 16.9243 36.7328 16.8711 36.7103 16.8031C36.6654 16.6677 36.5988 16.4813 36.5166 16.2596C36.3523 15.8166 36.1275 15.2374 35.8944 14.6529C35.6614 14.0685 35.4204 13.4798 35.2239 13.0179C35.1256 12.7869 35.0388 12.5884 34.9698 12.4383C34.8985 12.2831 34.8526 12.1942 34.8342 12.1679C34.6611 11.9315 34.4155 11.7458 34.118 11.6354ZM27.2308 17.0067C27.2308 17.0067 27.231 17.0055 27.2312 17.0034L27.2308 17.0067ZM27.229 16.9727L27.2292 16.9735L27.229 16.9727ZM36.769 17.0034C36.7691 17.0055 36.7693 17.0066 36.7694 17.0067L36.769 17.0034Z" fill="#072FAA" stroke="#072FAA" stroke-width="0.3"/>
<path d="M14.0792 9.33863L14.2008 9.479C14.2009 9.47905 14.2009 9.4791 14.2009 9.47915C14.8282 10.1982 15.0534 10.4231 15.6718 10.93C15.6719 10.9301 15.672 10.9302 15.6721 10.9303L15.8614 11.0838L16.0061 11.2011L15.8607 11.3174L15.5279 11.5837C15.4358 11.6599 15.3459 11.7287 15.2746 11.7792C15.2391 11.8043 15.2065 11.8261 15.1797 11.8422C15.1665 11.8501 15.1524 11.8581 15.1386 11.8646C15.1317 11.8678 15.1227 11.8718 15.1124 11.8753C15.1046 11.8779 15.0842 11.8844 15.0583 11.8844C15.0261 11.8844 15.0011 11.8743 14.9929 11.8709C14.981 11.8661 14.9704 11.8604 14.9623 11.8558C14.9459 11.8464 14.9283 11.8346 14.9112 11.8224C14.8764 11.7976 14.8326 11.7633 14.7833 11.7231C14.6843 11.6422 14.556 11.5311 14.419 11.4083C14.1458 11.1634 13.8314 10.8661 13.6395 10.6611C12.8301 9.79948 12.2571 8.83994 11.9619 7.83373L11.8801 7.56765L11.8203 7.37353H12.0234H12.4753H12.9221H13.0225L13.0608 7.46633L13.2302 7.87715L13.2302 7.87714L13.2308 7.87864L13.3576 8.19555L15.9576 8.20543L15.9578 8.20543L18.6538 8.22084L18.9446 8.2225L18.7747 8.45848L18.4981 8.84254L18.4974 8.84362L18.226 9.22768L18.1818 9.2902L18.1053 9.2911L15.9279 9.31678H15.9279L14.0792 9.33863Z" fill="#072FAA" stroke="#072FAA" stroke-width="0.3"/>
<path d="M19.672 7.50854L19.6715 7.50834L19.6771 7.49716C19.6982 7.45505 19.732 7.43539 19.742 7.42974C19.7564 7.42167 19.7697 7.41685 19.7782 7.4141C19.7958 7.40842 19.8143 7.4047 19.8298 7.40207C19.8622 7.39658 19.9034 7.39232 19.9485 7.38898C20.0398 7.38221 20.1605 7.3783 20.2889 7.3783C20.4597 7.3783 20.5829 7.38193 20.6629 7.39326C20.6991 7.39838 20.7479 7.40754 20.7889 7.43197C20.8116 7.44551 20.8433 7.47049 20.8623 7.51324C20.8822 7.5582 20.8789 7.60211 20.8684 7.63515C20.5772 8.57623 20.3606 9.03684 19.8788 9.74385C19.3047 10.5866 18.4096 11.4257 16.5814 12.8586L16.5811 12.8588C14.2524 14.6757 13.4572 15.6674 13.0338 17.1962C12.9538 17.4948 12.9054 17.9606 12.8959 18.4461C12.8864 18.9308 12.9159 19.4192 12.9847 19.7612C13.2538 21.0714 13.9709 22.1942 15.2672 23.3185C15.4944 23.5144 15.5236 23.8559 15.333 24.0877L15.3209 24.1024L15.321 24.1024L15.3177 24.1061C15.2413 24.1931 15.1633 24.2752 15.0977 24.3367C15.0652 24.3671 15.0331 24.395 15.004 24.4163C14.9896 24.4268 14.9728 24.438 14.9549 24.4472C14.9414 24.4542 14.9082 24.4703 14.8661 24.4703C14.8267 24.4703 14.7959 24.4549 14.7884 24.4511C14.7882 24.451 14.788 24.4509 14.7878 24.4508C14.7748 24.4443 14.7628 24.4368 14.753 24.4302C14.7328 24.4168 14.7097 24.3992 14.6852 24.3795C14.6356 24.3397 14.5711 24.2836 14.497 24.2163C14.3484 24.0814 14.1553 23.8961 13.9537 23.6919C13.1544 22.8978 12.5934 22.1434 12.2332 21.3274C11.8726 20.5103 11.7172 19.6403 11.7172 18.6203C11.7172 17.4135 11.9012 16.579 12.3849 15.601L12.385 15.6009C12.9754 14.4094 13.896 13.4322 15.8065 11.9543C17.5209 10.6198 18.2203 9.97816 18.7874 9.22033L18.7878 9.21976C19.1138 8.7885 19.4589 8.14621 19.5811 7.76514C19.6183 7.64815 19.6607 7.53692 19.672 7.50854Z" fill="#072FAA" stroke="#072FAA" stroke-width="0.3"/>
<path d="M17.6979 12.6214C17.7271 12.6203 17.7504 12.6275 17.7607 12.6309C17.7741 12.6355 17.7859 12.641 17.795 12.6457C17.8133 12.655 17.8322 12.667 17.8501 12.6791C17.8866 12.7037 17.9315 12.7378 17.9813 12.7777C18.0815 12.858 18.2105 12.969 18.3489 13.0928C18.6254 13.3402 18.9459 13.645 19.1579 13.8701L19.1585 13.8707C20.1415 14.927 20.7468 16.098 20.9732 17.3978C21.0268 17.7009 21.0525 18.1656 21.0525 18.6241C21.0525 19.0829 21.0268 19.55 20.9732 19.8579L20.9732 19.8581C20.7203 21.3017 20.0754 22.4427 18.8159 23.6919C18.6143 23.8961 18.4213 24.0814 18.2727 24.2163C18.1985 24.2836 18.1341 24.3397 18.0845 24.3795C18.06 24.3992 18.0368 24.4168 18.0167 24.4302C18.0068 24.4368 17.9948 24.4443 17.9819 24.4508L17.9812 24.4511C17.9737 24.4549 17.9429 24.4703 17.9035 24.4703C17.8626 24.4703 17.8302 24.4552 17.8163 24.4482C17.7984 24.4393 17.7815 24.4283 17.767 24.4179C17.7376 24.3969 17.7053 24.3692 17.6726 24.3387C17.6068 24.2771 17.5294 24.194 17.4543 24.1029L17.3982 24.0358C17.2317 23.8366 17.255 23.5409 17.4506 23.3702L17.4506 23.3702L17.4514 23.3695C17.8098 23.0617 18.2706 22.5956 18.5932 22.1975L18.5932 22.1975L18.5942 22.1962C18.6333 22.1491 18.6003 22.0777 18.539 22.0769L16.8336 22.0568L15.133 22.0367C14.789 22.0326 14.4677 21.8639 14.2689 21.5831C14.0822 21.3228 14.2669 20.96 14.5875 20.9581L16.8037 20.9454L16.804 20.9454L19.3415 20.9358C19.38 20.9356 19.415 20.9132 19.4313 20.8782L19.4316 20.8775C19.5283 20.672 19.6411 20.3233 19.7302 19.9777C19.8152 19.6477 19.8729 19.343 19.8789 19.1811H16.7686H13.9186C13.6089 19.1811 13.3578 18.93 13.3578 18.6203C13.3578 18.3105 13.6089 18.0595 13.9186 18.0595H16.7738H19.7143C19.8014 18.0595 19.8693 17.9838 19.8598 17.8971L19.8597 17.8961C19.8201 17.5099 19.6646 16.8933 19.5067 16.5282L19.5066 16.5282L19.5056 16.5256C19.4569 16.4071 19.342 16.3293 19.2139 16.3281L16.8186 16.3054L14.5869 16.2842C14.2663 16.2812 14.0823 15.9184 14.2686 15.658C14.4673 15.3768 14.7887 15.2079 15.133 15.2039L16.8388 15.1838L18.4724 15.1645C18.5564 15.1635 18.6007 15.0644 18.5454 15.0011L18.5447 15.0002C18.3561 14.781 18.1524 14.5409 18.0979 14.4701C18.0816 14.449 18.0081 14.3752 17.8881 14.2639C17.7734 14.1574 17.6271 14.0263 17.4768 13.8964L17.5749 13.7829L17.4768 13.8964C17.3896 13.8211 17.3075 13.7491 17.2347 13.6844C17.114 13.5771 17.0322 13.4428 17.0346 13.2895C17.037 13.1358 17.1233 13.0044 17.2488 12.9017L17.2492 12.9014C17.3333 12.8331 17.4173 12.769 17.4862 12.7212C17.5204 12.6975 17.5531 12.6763 17.5815 12.6603C17.5956 12.6524 17.6112 12.6443 17.627 12.6378C17.6376 12.6334 17.6647 12.6225 17.6979 12.6214ZM17.6979 12.6214C17.6964 12.6215 17.6948 12.6215 17.6933 12.6216L17.7032 12.7713M17.6979 12.6214C17.6996 12.6213 17.7014 12.6213 17.7032 12.6213V12.7713M17.7032 12.7713C17.6673 12.7713 17.5081 12.8843 17.3438 13.0178L20.8254 19.8322C20.9281 19.2416 20.9281 18.0041 20.8254 17.4238C20.6046 16.1554 20.0141 15.0102 19.0487 13.9729C18.6327 13.5313 17.7803 12.7662 17.7032 12.7713Z" fill="#072FAA" stroke="#072FAA" stroke-width="0.3"/>
<path d="M18.7093 26.4744C18.242 26.3819 17.3588 26.4333 16.9788 26.5668C16.9211 26.5878 16.867 26.607 16.8207 26.6228V26.6022L16.7916 26.5732C16.7863 26.5627 16.7792 26.5485 16.7702 26.5305L16.77 26.5302C16.7637 26.5177 16.7567 26.5037 16.7492 26.4886M18.7093 26.4744L16.5628 26.4538C16.5911 26.5077 16.6168 26.5591 16.636 26.5976C16.6553 26.6361 16.6681 26.6618 16.6707 26.6644C16.6707 26.6663 16.6757 26.6662 16.685 26.6644C16.7073 26.6599 16.7542 26.6454 16.8153 26.6246C16.8114 26.6104 16.8054 26.5972 16.798 26.5853L16.7981 26.5856C16.7984 26.5862 16.7982 26.5858 16.7977 26.5848C16.7915 26.5751 16.7844 26.5663 16.7765 26.5585C16.7726 26.5546 16.7685 26.551 16.7642 26.5476C16.7379 26.5268 16.7119 26.5206 16.7016 26.5185C16.681 26.5144 16.6649 26.5161 16.6626 26.5163L16.6624 26.5164C16.6583 26.5168 16.6557 26.5173 16.6555 26.5173C16.6553 26.5174 16.6564 26.5172 16.6591 26.5165C16.6695 26.5139 16.688 26.5085 16.7152 26.4998C16.7257 26.4964 16.7371 26.4927 16.7492 26.4886M18.7093 26.4744L18.7384 26.3272C18.7383 26.3272 18.7381 26.3272 18.738 26.3271M18.7093 26.4744L18.738 26.3271M16.7492 26.4886C16.7336 26.4576 16.7154 26.4219 16.6961 26.385M16.7492 26.4886C16.7984 26.4721 16.86 26.4504 16.9275 26.4258L16.9275 26.4258L16.9291 26.4253C17.1394 26.3514 17.4723 26.3043 17.8031 26.2861C18.1352 26.2678 18.4868 26.2775 18.738 26.3271M16.6961 26.385L10.5836 31.8948M16.6961 26.385C16.4065 25.8176 15.7908 25.3693 15.1315 25.2484L15.1313 25.2484C14.9596 25.2172 14.8306 25.1995 14.6955 25.2024C14.5609 25.2053 14.4273 25.2285 14.2454 25.27C13.8527 25.3533 13.4307 25.5832 13.1528 25.8723L13.1524 25.8727C13.1156 25.9113 13.0517 26.001 12.9758 26.1125C12.8963 26.2294 12.7945 26.384 12.6781 26.564C12.4452 26.9241 12.1523 27.3884 11.8587 27.8613C11.2748 28.8017 10.6783 29.7915 10.5528 30.0558C10.4908 30.1852 10.4509 30.2871 10.4291 30.4226C10.4082 30.5518 10.4047 30.7074 10.4047 30.942C10.4047 31.1876 10.4068 31.3433 10.4315 31.4786C10.4572 31.6191 10.5061 31.7321 10.5836 31.8948L10.719 31.8304M16.6961 26.385L10.6882 30.1203C10.5701 30.3668 10.5547 30.4695 10.5547 30.942C10.5547 31.4401 10.565 31.5068 10.719 31.8304M18.738 26.3271C19.7344 26.521 20.6037 27.1824 21.0862 28.0991L21.0867 28.1003C21.355 28.6206 21.4629 29.0705 21.4629 29.6941C21.4629 30.0123 21.446 30.256 21.3918 30.4956C21.3375 30.7352 21.2476 30.9636 21.1093 31.2531L21.1091 31.2536C20.6783 32.1475 19.8506 32.8125 18.8593 33.0644L18.8593 33.0644L18.8583 33.0646C18.6433 33.1177 18.3289 33.1422 18.0244 33.1422C17.7201 33.1422 17.4067 33.1177 17.194 33.0645L17.194 33.0645L17.1929 33.0642C16.2414 32.8184 15.3926 32.1664 14.9809 31.3538L14.9806 31.3531L14.9723 31.3366M14.9723 31.3366C14.8973 31.4587 14.7679 31.6712 14.6477 31.8716L14.6477 31.8716L14.6466 31.8734C14.3036 32.4275 13.9709 32.761 13.5302 32.9674M14.9723 31.3366L14.8935 31.1789M14.9723 31.3366C14.9933 31.3025 15.01 31.2754 15.0211 31.2577L15.0214 31.2573L15.0651 31.1868L14.8935 31.1789M13.5302 32.9674C13.3947 33.0312 13.2924 33.0728 13.1503 33.0954C13.0153 33.1168 12.8479 33.1204 12.5831 33.1204C12.3144 33.1204 12.1473 33.1182 12.0131 33.0966C11.8706 33.0738 11.7685 33.0299 11.6286 32.9612L11.6286 32.9613L11.6276 32.9607C11.187 32.7404 10.7983 32.3462 10.5836 31.8948M13.5302 32.9674L13.4663 32.8317M13.5302 32.9674C13.5301 32.9675 13.53 32.9675 13.53 32.9676L13.4663 32.8317M10.5836 31.8948L10.719 31.8304M10.5836 31.8948L14.8935 31.1789M13.4663 32.8317C13.872 32.6417 14.1853 32.3336 14.519 31.7944C14.6726 31.5384 14.8416 31.262 14.8935 31.1789M13.4663 32.8317C13.2044 32.955 13.1171 32.9704 12.5831 32.9704C12.0388 32.9704 11.9669 32.9601 11.6947 32.8266C11.2839 32.6212 10.9193 32.2514 10.719 31.8304M15.7641 27.639L15.7641 27.639C15.7614 27.6513 15.7485 27.6883 15.7189 27.7541C15.6911 27.8159 15.6532 27.8935 15.6074 27.9819C15.5159 28.1584 15.3956 28.3737 15.2689 28.5842C15.2688 28.5843 15.2687 28.5844 15.2687 28.5846L14.8749 29.2309L14.2072 28.8216L14.2068 28.8214C13.76 28.5492 13.4599 28.3659 13.2678 28.2474C13.1877 28.198 13.1267 28.1601 13.0817 28.1318C13.1014 28.0954 13.1267 28.0507 13.157 27.9992C13.2448 27.8497 13.3685 27.6516 13.4991 27.4501C13.6297 27.2487 13.766 27.0456 13.8789 26.886C13.9354 26.8061 13.9852 26.7383 14.0249 26.6875C14.0449 26.6621 14.0614 26.642 14.0744 26.6273C14.0868 26.6133 14.0923 26.6084 14.0922 26.6084C14.0922 26.6084 14.092 26.6085 14.0917 26.6088L15.7641 27.639ZM15.7641 27.639L15.7644 27.6378M15.7641 27.639L15.7644 27.6378M15.7644 27.6378C15.8569 27.2281 15.659 26.7767 15.272 26.5351L15.7644 27.6378ZM15.9893 30.7073L15.9893 30.7073L15.9904 30.7097C16.0872 30.9194 16.3087 31.1957 16.5205 31.3994C16.6155 31.4907 16.7012 31.5604 16.7656 31.601C16.8713 31.2934 17.1827 30.3596 17.4892 29.4351C17.6673 28.8979 17.843 28.3662 17.9741 27.9673C18.0397 27.7678 18.0941 27.6016 18.1321 27.4846C18.1373 27.4686 18.1421 27.4535 18.1467 27.4394C18.0596 27.4292 17.9503 27.4261 17.8616 27.435L17.8586 27.4353C17.6219 27.4542 17.3108 27.5411 17.0883 27.6426C16.9874 27.6904 16.9633 27.7096 16.9529 27.7226C16.9459 27.7315 16.9349 27.7499 16.922 27.845L16.9221 27.845L16.9217 27.8475C16.87 28.1863 16.6763 28.5622 16.172 29.3824L15.7638 30.0468L15.8093 30.2211L15.8094 30.2211L15.8103 30.2253C15.8379 30.3446 15.9205 30.5649 15.9893 30.7073ZM18.1889 27.3063C18.189 27.3061 18.189 27.3061 18.1889 27.3063L18.1889 27.3063ZM20.0122 30.8155L20.0124 30.8151C20.5199 29.9438 20.3349 28.7722 19.5723 28.0577C19.4443 27.9383 19.3515 27.8609 19.2872 27.8171C19.1802 28.1268 18.867 29.0661 18.5597 29.9942C18.3822 30.5301 18.2075 31.0598 18.0772 31.4574C18.012 31.6563 17.958 31.8219 17.9203 31.9387C17.9162 31.9515 17.9122 31.9637 17.9085 31.9753C17.9634 31.9768 18.0307 31.9756 18.1052 31.9714C18.3176 31.9594 18.5585 31.9257 18.6949 31.8825L18.6959 31.8822C19.2229 31.7193 19.7272 31.3082 20.0122 30.8155ZM17.8641 32.1164C17.8641 32.1165 17.8641 32.1165 17.8641 32.1164L17.8641 32.1164ZM12.8314 31.9834L12.8317 31.9834C13.0094 31.9355 13.1322 31.8721 13.2715 31.729C13.4188 31.5776 13.5843 31.3371 13.8365 30.9254C13.9645 30.7154 14.0808 30.5211 14.165 30.3776C14.1932 30.3295 14.2177 30.2874 14.2377 30.2524C14.1916 30.2219 14.1316 30.1832 14.0603 30.1377C13.8822 30.0241 13.6367 29.8706 13.3675 29.704C12.9838 29.4723 12.6399 29.264 12.4656 29.158C12.4501 29.1808 12.4326 29.207 12.4134 29.2363C12.3354 29.3549 12.2324 29.5178 12.1259 29.6902C11.9106 30.0387 11.6899 30.4119 11.6301 30.5387L11.6298 30.5393C11.5891 30.6246 11.5607 30.7747 11.5571 30.9414C11.5535 31.1075 11.575 31.2608 11.6123 31.3516C11.8167 31.8369 12.3601 32.1111 12.8314 31.9834Z" fill="#072FAA" stroke="#072FAA" stroke-width="0.3"/>
</g>
<defs>
<clipPath id="clip0_8220_176106">
<rect width="64" height="52" fill="white"/>
</clipPath>
</defs>
</svg>
