<svg width="625" height="397" viewBox="0 0 625 397" fill="none" xmlns="http://www.w3.org/2000/svg">
<path d="M459.878 384.41C596.343 419.878 688.814 231.067 566.49 109.385C507.782 50.9845 367.216 -7.36168 197 5C59.7288 14.9691 14.7542 107.216 6 158C-3.99824 216.001 -3.77121 372.029 120.999 391.999C223.45 408.397 357.309 357.751 459.878 384.41Z" fill="#E5F1FF"/>
<g clip-path="url(#clip0_1258_16576)">
<path d="M495.018 361.527H476.355V378.001H495.018V361.527Z" fill="#F0F0F0"/>
<path d="M579 203.38C579.008 228.22 572.331 252.605 559.67 273.974C547.009 295.342 528.832 312.907 507.045 324.824C505.81 325.499 504.558 326.158 503.301 326.795C498.639 329.173 493.843 331.278 488.937 333.099C486.983 333.835 485.008 334.52 483.014 335.153C482.822 335.219 482.624 335.285 482.432 335.34C462.9 341.543 442.233 343.319 421.93 340.538C401.627 337.757 382.197 330.489 365.051 319.261C362.751 317.757 360.499 316.186 358.294 314.55C357.048 313.622 355.818 312.677 354.605 311.705C351.174 308.982 347.881 306.095 344.725 303.046C331.307 290.152 320.636 274.675 313.354 257.547C306.073 240.418 302.331 221.993 302.356 203.38C302.356 126.953 364.282 65.001 440.678 65.001C517.073 65.001 579 126.953 579 203.38Z" fill="#CEE5FF"/>
<path d="M473.711 267.957L470.593 279.752L482.433 335.34C450.607 345.368 416.237 343.6 385.607 330.359L394.851 291.585L395.158 270.554L396.163 201.205L396.415 201.073C396.431 201.064 396.447 201.057 396.465 201.052L420.012 188.954L460.642 187.938L490.957 202.71L490.727 203.572L473.711 267.957Z" fill="#3F3D56"/>
<path d="M490.323 369.294C489.39 368.183 488.712 366.88 488.336 365.479C487.961 364.077 487.897 362.61 488.149 361.181C488.402 359.752 488.965 358.396 489.798 357.208C490.631 356.02 491.714 355.029 492.972 354.305L486.377 319.652L503.291 326.703L506.96 358.53C508.036 360.723 508.269 363.236 507.617 365.59C506.964 367.945 505.471 369.978 503.421 371.305C501.37 372.632 498.904 373.16 496.49 372.789C494.076 372.419 491.882 371.175 490.323 369.294Z" fill="#9E616A"/>
<path d="M484.845 203.788L489.185 202.375C489.185 202.375 502.951 211.214 501.642 232.584C501.642 232.584 502.158 243.642 501.665 251.001C501.1 259.443 508.674 343.324 508.674 343.324H484.142L473.629 267.362L484.845 203.788Z" fill="#3F3D56"/>
<path d="M470.616 150.021C470.616 155.594 468.964 161.042 465.869 165.675C462.775 170.309 458.376 173.92 453.23 176.053C448.083 178.185 442.42 178.743 436.957 177.656C431.494 176.569 426.475 173.885 422.536 169.945C418.597 166.004 415.915 160.984 414.828 155.518C413.742 150.053 414.299 144.387 416.431 139.239C418.563 134.09 422.173 129.69 426.804 126.594C431.436 123.498 436.881 121.845 442.452 121.845H442.452C446.141 121.836 449.796 122.554 453.208 123.958C456.62 125.362 459.723 127.424 462.338 130.028C464.953 132.631 467.03 135.724 468.451 139.131C469.871 142.537 470.607 146.19 470.616 149.881C470.616 149.928 470.616 149.975 470.616 150.021Z" fill="#9E616A"/>
<path d="M414.38 112.176C417.68 105.078 424.065 106.481 429.649 108.887C436.72 107.318 443.445 102.62 451.064 105.399C458.569 116.319 483.766 113.106 478.406 130.884C478.399 135.143 486.418 132.664 485.018 139.641C489.266 153.067 469.684 178.496 458.442 173.141C461.222 168.043 467.573 156.465 457.94 155.316C437.218 174.606 455.802 118.585 429.765 134.877C421.144 142.77 409.342 120.071 414.38 112.176Z" fill="#2F2E41"/>
<path d="M457.48 338.192L412.521 329.284L424.049 271.056C439.957 277.075 454.943 280.044 469.007 279.964C456.716 297.997 451.132 317.361 457.48 338.192Z" fill="#E4E4E4"/>
<path d="M450.943 341.612L405.985 332.704C402.295 306.325 405.649 286.464 417.513 274.476C433.421 280.495 448.407 283.464 462.471 283.384C455.041 301.907 451.131 321.654 450.943 341.612Z" fill="#0075FF"/>
<path d="M421.156 325.392C420.978 323.952 420.487 322.569 419.716 321.339C418.945 320.11 417.915 319.064 416.697 318.276C415.479 317.488 414.102 316.977 412.665 316.779C411.228 316.58 409.766 316.699 408.38 317.128L387.5 288.701L381.146 305.895L401.948 330.253C402.822 332.535 404.502 334.417 406.67 335.542C408.838 336.667 411.343 336.957 413.71 336.358C416.078 335.759 418.144 334.312 419.516 332.291C420.889 330.27 421.472 327.815 421.156 325.392Z" fill="#9E616A"/>
<path d="M402.435 202.705L398.653 200.15C398.653 200.15 376.149 202.246 371.517 223.149C371.517 223.149 368.132 235.707 366.577 242.917C365.777 246.625 355.113 282.454 355.113 282.454L391.278 321.991L401.158 307.164L391.278 282.454L402.435 202.705Z" fill="#3F3D56"/>
<path d="M89.6625 134.476H71V150.949H89.6625V134.476Z" fill="#0075FF"/>
<path d="M129.733 200.37H111.07V216.844H129.733V200.37Z" fill="#0075FF"/>
<path d="M158.823 312.94H140.16V329.414H158.823V312.94Z" fill="#0075FF"/>
<path d="M140.297 96.6572C139.744 96.6572 139.213 96.8771 138.822 97.2684C138.431 97.6598 138.211 98.1905 138.211 98.7439C138.211 99.2974 138.431 99.8282 138.822 100.219C139.213 100.611 139.744 100.831 140.297 100.831H292.59C293.142 100.829 293.672 100.609 294.062 100.218C294.452 99.8266 294.671 99.2966 294.671 98.7439C294.671 98.1913 294.452 97.6613 294.062 97.2701C293.672 96.8789 293.142 96.6585 292.59 96.6572H140.297Z" fill="#3F3D56"/>
<path d="M140.297 109.178C140.023 109.177 139.752 109.23 139.498 109.334C139.245 109.439 139.014 109.592 138.82 109.785C138.625 109.979 138.471 110.208 138.366 110.461C138.26 110.714 138.206 110.986 138.205 111.26C138.205 111.534 138.258 111.806 138.362 112.059C138.467 112.313 138.62 112.543 138.814 112.738C139.007 112.932 139.237 113.086 139.49 113.191C139.743 113.297 140.014 113.351 140.288 113.351H236.57C237.123 113.351 237.653 113.131 238.045 112.74C238.436 112.349 238.656 111.818 238.656 111.264C238.656 110.711 238.436 110.18 238.045 109.789C237.653 109.398 237.123 109.178 236.57 109.178H140.297Z" fill="#3F3D56"/>
<path d="M120.537 246.568C119.984 246.568 119.453 246.788 119.062 247.179C118.671 247.57 118.451 248.101 118.451 248.655C118.451 249.208 118.671 249.739 119.062 250.13C119.453 250.521 119.984 250.741 120.537 250.741H272.83C273.382 250.74 273.912 250.52 274.302 250.128C274.692 249.737 274.911 249.207 274.911 248.655C274.911 248.102 274.692 247.572 274.302 247.181C273.912 246.79 273.382 246.569 272.83 246.568H120.537Z" fill="#3F3D56"/>
<path d="M120.536 259.088C120.261 259.088 119.99 259.141 119.736 259.245C119.483 259.349 119.252 259.502 119.058 259.696C118.864 259.889 118.709 260.119 118.604 260.372C118.499 260.625 118.444 260.897 118.443 261.171C118.443 261.445 118.496 261.717 118.601 261.97C118.705 262.224 118.858 262.454 119.052 262.648C119.245 262.842 119.475 262.997 119.728 263.102C119.981 263.207 120.253 263.261 120.527 263.262H216.808C217.361 263.262 217.892 263.042 218.283 262.651C218.674 262.259 218.894 261.729 218.894 261.175C218.894 260.622 218.674 260.091 218.283 259.7C217.892 259.308 217.361 259.088 216.808 259.088H120.536Z" fill="#3F3D56"/>
<path d="M207.262 353.647C206.708 353.647 206.178 353.867 205.787 354.258C205.396 354.65 205.176 355.18 205.176 355.734C205.176 356.287 205.396 356.818 205.787 357.209C206.178 357.601 206.708 357.82 207.262 357.82H359.555C360.107 357.819 360.636 357.599 361.027 357.208C361.417 356.816 361.636 356.286 361.636 355.734C361.636 355.181 361.417 354.651 361.027 354.26C360.636 353.869 360.107 353.648 359.555 353.647H207.262Z" fill="#3F3D56"/>
<path d="M207.262 366.167C206.988 366.166 206.716 366.219 206.463 366.324C206.209 366.428 205.979 366.581 205.785 366.774C205.59 366.968 205.436 367.198 205.331 367.451C205.225 367.704 205.171 367.975 205.17 368.249C205.169 368.524 205.223 368.795 205.327 369.049C205.432 369.302 205.585 369.533 205.778 369.727C205.972 369.921 206.202 370.075 206.455 370.181C206.708 370.286 206.979 370.34 207.253 370.341H303.535C304.088 370.341 304.618 370.121 305.009 369.729C305.401 369.338 305.62 368.807 305.62 368.254C305.62 367.7 305.401 367.17 305.009 366.778C304.618 366.387 304.088 366.167 303.535 366.167H207.262Z" fill="#3F3D56"/>
<path d="M79.7756 142.787C84.2465 141.804 88.476 139.938 92.2153 137.297C95.9546 134.655 99.1283 131.293 101.55 127.407C102.924 125.197 104.032 122.832 104.85 120.362C104.912 120.157 104.892 119.937 104.795 119.747C104.697 119.557 104.529 119.412 104.327 119.343C104.125 119.274 103.904 119.286 103.711 119.377C103.517 119.468 103.367 119.631 103.291 119.831C101.888 123.96 99.6722 127.766 96.7756 131.026C93.8789 134.285 90.3595 136.932 86.4247 138.81C84.2076 139.87 81.8721 140.661 79.4677 141.168C78.4305 141.387 78.7362 143.006 79.7756 142.787Z" fill="#3F3D56"/>
<path d="M95.8208 123.517C98.7891 121.845 101.757 120.172 104.726 118.5C104.863 118.423 105.248 118.131 105.392 118.166C105.277 118.138 105.381 118.223 105.385 118.328C105.389 118.468 105.407 118.611 105.412 118.752C105.445 119.619 105.46 120.488 105.484 121.355L105.622 126.344C105.651 127.394 107.295 127.519 107.266 126.456L107.104 120.6C107.066 119.258 107.402 116.281 105.228 116.538C104.444 116.631 103.719 117.181 103.05 117.558L100.339 119.085L95.1126 122.029C94.1921 122.548 94.8964 124.038 95.8208 123.517V123.517Z" fill="#3F3D56"/>
<path d="M120.57 208.549C116.145 209.711 111.996 211.746 108.368 214.535C104.74 217.324 101.706 220.81 99.4435 224.789C98.1593 227.05 97.148 229.456 96.4307 231.956C96.3811 232.164 96.4141 232.383 96.5228 232.567C96.6315 232.751 96.8073 232.886 97.0132 232.942C97.2192 232.999 97.4391 232.974 97.6267 232.872C97.8142 232.769 97.9547 232.598 98.0186 232.394C99.2613 228.211 101.329 224.318 104.098 220.946C106.868 217.574 110.285 214.791 114.147 212.761C116.322 211.617 118.625 210.736 121.008 210.138C122.035 209.878 121.6 208.289 120.57 208.549L120.57 208.549Z" fill="#3F3D56"/>
<path d="M105.301 228.449L96.6965 233.756C96.549 233.847 96.404 233.946 96.2505 234.027C96.0981 234.107 95.9415 234.105 96.04 234.202C95.9071 234.071 95.941 233.587 95.9311 233.439L95.7635 230.95L95.4282 225.97C95.3574 224.918 93.7102 224.91 93.7815 225.97L94.1751 231.816C94.2647 233.147 94.0168 235.901 96.0536 235.79C96.9606 235.74 97.8246 234.995 98.5677 234.537L101.026 233.02L106.133 229.871C107.033 229.316 106.207 227.89 105.301 228.449V228.449Z" fill="#3F3D56"/>
<path d="M148.885 320.511C153.105 321.616 157.062 323.556 160.521 326.215C163.981 328.874 166.873 332.199 169.028 335.994C170.243 338.131 171.198 340.405 171.875 342.768C171.938 342.972 172.079 343.143 172.267 343.245C172.454 343.347 172.674 343.373 172.88 343.316C173.086 343.259 173.262 343.125 173.37 342.941C173.479 342.757 173.512 342.538 173.462 342.33C172.163 337.941 170.001 333.856 167.101 330.315C164.201 326.775 160.623 323.85 156.577 321.712C154.278 320.498 151.843 319.562 149.323 318.923C148.295 318.663 147.857 320.251 148.885 320.511Z" fill="#3F3D56"/>
<path d="M163.76 340.245L168.866 343.395L171.325 344.911C172.07 345.37 172.931 346.114 173.839 346.164C175.875 346.275 175.628 343.521 175.718 342.19L176.111 336.344C176.182 335.286 174.535 335.29 174.465 336.344L174.129 341.324L173.969 343.705C173.957 343.888 174.004 344.424 173.853 344.576C173.961 344.468 173.848 344.519 173.727 344.446C173.552 344.339 173.372 344.238 173.196 344.13L164.591 338.823C163.687 338.265 162.859 339.689 163.76 340.245Z" fill="#3F3D56"/>
<path d="M108.325 111.961C112.569 111.961 116.01 108.519 116.01 104.274C116.01 100.028 112.569 96.5859 108.325 96.5859C104.081 96.5859 100.641 100.028 100.641 104.274C100.641 108.519 104.081 111.961 108.325 111.961Z" fill="#0075FF"/>
<path d="M95.1514 262.602C99.3954 262.602 102.836 259.161 102.836 254.915C102.836 250.669 99.3954 247.227 95.1514 247.227C90.9073 247.227 87.4668 250.669 87.4668 254.915C87.4668 259.161 90.9073 262.602 95.1514 262.602Z" fill="#0075FF"/>
<path d="M178.034 369.5C182.278 369.5 185.719 366.058 185.719 361.812C185.719 357.566 182.278 354.125 178.034 354.125C173.79 354.125 170.35 357.566 170.35 361.812C170.35 366.058 173.79 369.5 178.034 369.5Z" fill="#0075FF"/>
</g>
<defs>
<clipPath id="clip0_1258_16576">
<rect width="508" height="313" fill="white" transform="translate(71 65.001)"/>
</clipPath>
</defs>
</svg>
