<svg width="32" height="33" viewBox="0 0 32 33" fill="none" xmlns="http://www.w3.org/2000/svg">
<path d="M5.33464 27.1693C4.6013 27.1693 3.9733 26.9079 3.45064 26.3853C2.92797 25.8626 2.66708 25.2351 2.66797 24.5026V8.50261C2.66797 7.76927 2.9293 7.14127 3.45197 6.61861C3.97464 6.09594 4.60219 5.83505 5.33464 5.83594H26.668C27.4013 5.83594 28.0293 6.09727 28.552 6.61994C29.0746 7.14261 29.3355 7.77016 29.3346 8.50261V24.5026C29.3346 25.2359 29.0733 25.8639 28.5506 26.3866C28.028 26.9093 27.4004 27.1702 26.668 27.1693H5.33464ZM16.0013 17.8359L5.33464 11.1693V24.5026H26.668V11.1693L16.0013 17.8359ZM16.0013 15.1693L26.668 8.50261H5.33464L16.0013 15.1693ZM5.33464 11.1693V8.50261V24.5026V11.1693Z" fill="#576CBE"/>
</svg>
